M48
; DRILL file {KiCad 8.0.6} date 2025-05-26T15:16:59+0900
; FORMAT={-:-/ absolute / inch / decimal}
; #@! TF.CreationDate,2025-05-26T15:16:59+09:00
; #@! TF.GenerationSoftware,Kicad,Pcbnew,8.0.6
; #@! TF.FileFunction,Plated,1,2,PTH
FMAT,2
INCH
; #@! TA.AperFunction,Plated,PTH,ViaDrill
T1C0.0118
; #@! TA.AperFunction,Plated,PTH,ComponentDrill
T2C0.0138
; #@! TA.AperFunction,Plated,PTH,ComponentDrill
T3C0.0157
; #@! TA.AperFunction,Plated,PTH,ComponentDrill
T4C0.0315
; #@! TA.AperFunction,Plated,PTH,ComponentDrill
T5C0.0390
; #@! TA.AperFunction,Plated,PTH,ComponentDrill
T6C0.0394
; #@! TA.AperFunction,Plated,PTH,ComponentDrill
T7C0.0433
; #@! TA.AperFunction,Plated,PTH,ComponentDrill
T8C0.0472
; #@! TA.AperFunction,Plated,PTH,ComponentDrill
T9C0.0500
; #@! TA.AperFunction,Plated,PTH,ComponentDrill
T10C0.0591
%
G90
G05
T1
X5.3528Y-3.6785
X5.5528Y-3.5885
X5.7028Y-2.9085
X5.7399Y-3.4368
X5.7428Y-2.1084
X5.7428Y-2.3085
X5.8328Y-4.0485
X5.925Y-2.0063
X6.3837Y-1.9495
T2
X5.8728Y-2.2915
X5.8728Y-2.4254
T3
X5.6655Y-1.5748
X5.7055Y-1.4823
X5.7655Y-1.5748
X5.8055Y-1.4823
X5.8655Y-1.5748
X5.9055Y-1.4823
X5.9655Y-1.5748
X6.0055Y-1.4823
X6.0655Y-1.5748
X6.1055Y-1.4823
X6.1655Y-1.5748
X6.2055Y-1.4823
X6.2655Y-1.5748
X6.3055Y-1.4823
X6.3655Y-1.5748
X6.4055Y-1.4823
X6.4655Y-1.5748
X6.5055Y-1.4823
X6.5655Y-1.5748
X6.6055Y-1.4823
X6.6655Y-1.5748
X6.7055Y-1.4823
X6.7655Y-1.5748
X6.8055Y-1.4823
X6.8655Y-1.5748
X6.9055Y-1.4823
T4
X1.0702Y-2.2746
X1.2004Y-3.0132
X1.3306Y-3.7518
X1.3656Y-2.2225
X1.4959Y-2.9611
X1.6261Y-3.6997
X1.8088Y-2.1443
X1.939Y-2.883
X2.0693Y-3.6216
X2.1042Y-2.0923
X2.2345Y-2.8309
X2.3647Y-3.5695
X2.6881Y-1.5474
X2.7535Y-2.2946
X2.8188Y-3.0417
X2.987Y-1.5213
X3.0523Y-2.2684
X3.1177Y-3.0156
X3.6Y-1.187
X3.6Y-1.937
X3.6Y-2.687
X3.9Y-1.187
X3.9Y-1.937
X3.9Y-2.687
X3.915Y-3.677
X4.215Y-3.677
X4.35Y-1.427
X4.35Y-2.177
X4.35Y-2.927
X4.65Y-1.427
X4.65Y-2.177
X4.65Y-2.927
X4.8319Y-3.7582
X5.1Y-1.5395
X5.1Y-2.2895
X5.1Y-3.0395
X5.1217Y-3.8359
X5.4Y-1.5395
X5.4Y-2.2895
X5.4Y-3.0395
X5.6966Y-4.074
X5.9564Y-4.224
X6.0716Y-3.4245
X6.3314Y-3.5745
X6.4501Y-4.6028
X6.6622Y-4.8149
T5
X1.0986Y-2.7553
X1.2288Y-3.4939
X1.359Y-4.2325
X1.5034Y-2.6839
X1.6336Y-3.4225
X1.7638Y-4.1611
X1.8372Y-2.6251
X1.9674Y-3.3637
X2.0976Y-4.1023
X2.242Y-2.5537
X2.3722Y-3.2923
X2.5024Y-4.0309
X2.6745Y-2.0288
X2.7399Y-2.7759
X2.8052Y-3.5231
X3.084Y-1.993
X3.1493Y-2.7401
X3.2147Y-3.4873
X3.5445Y-1.6654
X3.5445Y-2.4154
X3.5445Y-3.1654
X3.8595Y-4.1554
X3.9555Y-1.6654
X3.9555Y-2.4154
X3.9555Y-3.1654
X4.2705Y-4.1554
X4.2945Y-1.9054
X4.2945Y-2.6554
X4.2945Y-3.4054
X4.6545Y-4.2059
X4.7055Y-1.9054
X4.7055Y-2.6554
X4.7055Y-3.4054
X5.0445Y-2.0179
X5.0445Y-2.7679
X5.0445Y-3.5179
X5.0515Y-4.3123
X5.4093Y-4.4605
X5.4555Y-2.0179
X5.4555Y-2.7679
X5.4555Y-3.5179
X5.7653Y-4.666
X5.7843Y-3.811
X6.0726Y-4.9018
X6.1403Y-4.0165
X6.3632Y-5.1924
T6
X6.6928Y-1.9585
X6.9128Y-2.1885
T7
X5.6855Y-1.2313
X5.6855Y-1.8313
X5.7855Y-1.2313
X5.7855Y-1.8313
X5.8855Y-1.2313
X5.8855Y-1.8313
X5.9855Y-1.2313
X5.9855Y-1.8313
X6.0855Y-1.2313
X6.0855Y-1.8313
X6.1855Y-1.2313
X6.1855Y-1.8313
X6.2855Y-1.2313
X6.2855Y-1.8313
X6.3855Y-1.2313
X6.3855Y-1.8313
X6.4855Y-1.2313
X6.4855Y-1.8313
X6.5855Y-1.2313
X6.5855Y-1.8313
X6.6855Y-1.2313
X6.6855Y-1.8313
X6.7855Y-1.2313
X6.7855Y-1.8313
X6.8855Y-1.2313
X6.8855Y-1.8313
T8
X1.1509Y-2.7301
X1.2811Y-3.4687
X1.3167Y-2.8088
X1.4114Y-4.2073
X1.4456Y-2.6781
X1.4469Y-3.5474
X1.5758Y-3.4167
X1.5772Y-4.286
X1.706Y-4.1553
X1.8895Y-2.5999
X2.0197Y-3.3385
X2.0553Y-2.6786
X2.15Y-4.0771
X2.1842Y-2.5479
X2.1855Y-3.4172
X2.3144Y-3.2865
X2.3158Y-4.1558
X2.4446Y-4.0251
X2.7288Y-2.0082
X2.7942Y-2.7554
X2.8595Y-3.5025
X2.8871Y-2.1011
X2.9525Y-2.8482
X3.0178Y-3.5954
X3.0269Y-1.9821
X3.0923Y-2.7293
X3.1576Y-3.4764
X3.6004Y-1.6496
X3.6004Y-2.3996
X3.6004Y-3.1496
X3.75Y-1.7559
X3.75Y-2.5059
X3.75Y-3.2559
X3.8996Y-1.6496
X3.8996Y-2.3996
X3.8996Y-3.1496
X3.9154Y-4.1396
X4.065Y-4.2459
X4.2146Y-4.1396
X4.3504Y-1.8896
X4.3504Y-2.6396
X4.3504Y-3.3896
X4.5Y-1.9959
X4.5Y-2.7459
X4.5Y-3.4959
X4.6496Y-1.8896
X4.6496Y-2.6396
X4.6496Y-3.3896
X4.7126Y-4.2052
X4.8296Y-4.3466
X5.0016Y-4.2826
X5.1004Y-2.0021
X5.1004Y-2.7521
X5.1004Y-3.5021
X5.25Y-2.1084
X5.25Y-2.8584
X5.25Y-3.6084
X5.3996Y-2.0021
X5.3996Y-2.7521
X5.3996Y-3.5021
X5.4656Y-4.4748
X5.542Y-4.6417
X5.7248Y-4.6244
X5.8406Y-3.8253
X5.917Y-3.9922
X6.0998Y-3.9749
X6.1232Y-4.9302
X6.1539Y-5.1111
X6.3348Y-5.1418
T9
X1.0524Y-2.4436
X1.1826Y-3.1822
X1.2319Y-2.328
X1.3129Y-3.9208
X1.3621Y-3.0666
X1.4401Y-2.3753
X1.4924Y-3.8052
X1.5704Y-3.1139
X1.7006Y-3.8525
X1.791Y-2.3134
X1.9213Y-3.052
X1.9705Y-2.1978
X2.0515Y-3.7906
X2.1008Y-2.9364
X2.1787Y-2.245
X2.231Y-3.675
X2.309Y-2.9836
X2.4392Y-3.7222
X2.6557Y-1.7143
X2.721Y-2.4614
X2.7864Y-3.2086
X2.8446Y-1.6147
X2.9099Y-2.3619
X2.9753Y-3.109
X3.0479Y-1.68
X3.1132Y-2.4271
X3.1786Y-3.1742
X3.5531Y-1.3504
X3.5531Y-2.1004
X3.5531Y-2.8504
X3.75Y-1.2677
X3.75Y-2.0177
X3.75Y-2.7677
X3.8681Y-3.8404
X3.9469Y-1.3504
X3.9469Y-2.1004
X3.9469Y-2.8504
X4.065Y-3.7577
X4.2619Y-3.8404
X4.3031Y-1.5904
X4.3031Y-2.3404
X4.3031Y-3.0904
X4.5Y-1.5077
X4.5Y-2.2577
X4.5Y-3.0077
X4.6969Y-1.5904
X4.6969Y-2.3404
X4.6969Y-3.0904
X4.7444Y-3.9039
X4.9559Y-3.875
X5.0531Y-1.7029
X5.0531Y-2.4529
X5.0531Y-3.2029
X5.1247Y-4.0058
X5.25Y-1.6202
X5.25Y-2.3702
X5.25Y-3.1202
X5.4469Y-1.7029
X5.4469Y-2.4529
X5.4469Y-3.2029
X5.5743Y-4.1921
X5.7861Y-4.2189
X5.9153Y-4.3889
X5.9493Y-3.5426
X6.1611Y-3.5694
X6.2903Y-3.7394
X6.3014Y-4.6852
X6.4991Y-4.7659
X6.5798Y-4.9636
T10
X1.1072Y-2.4843
X1.139Y-2.3772
X1.2374Y-3.2229
X1.2693Y-3.1158
X1.336Y-2.3424
X1.3676Y-3.9616
X1.3995Y-3.8544
X1.4026Y-2.4322
X1.4662Y-3.0811
X1.5328Y-3.1709
X1.5965Y-3.8197
X1.6631Y-3.9095
X1.8458Y-2.3541
X1.8776Y-2.2469
X1.976Y-3.0927
X2.0079Y-2.9855
X2.0746Y-2.2122
X2.1062Y-3.8313
X2.1381Y-3.7242
X2.1412Y-2.302
X2.2048Y-2.9508
X2.2714Y-3.0406
X2.3351Y-3.6894
X2.4017Y-3.7792
X2.7067Y-1.7596
X2.7478Y-1.6556
X2.772Y-2.5067
X2.8131Y-2.4028
X2.8374Y-3.2539
X2.8785Y-3.1499
X2.947Y-1.6382
X3.0055Y-1.7335
X3.0124Y-2.3853
X3.0709Y-2.4806
X3.0777Y-3.1325
X3.1363Y-3.2277
X3.6Y-1.4
X3.6Y-2.15
X3.6Y-2.9
X3.65Y-1.3
X3.65Y-2.05
X3.65Y-2.8
X3.85Y-1.3
X3.85Y-2.05
X3.85Y-2.8
X3.9Y-1.4
X3.9Y-2.15
X3.9Y-2.9
X3.915Y-3.89
X3.965Y-3.79
X4.165Y-3.79
X4.215Y-3.89
X4.35Y-1.64
X4.35Y-2.39
X4.35Y-3.14
X4.4Y-1.54
X4.4Y-2.29
X4.4Y-3.04
X4.6Y-1.54
X4.6Y-2.29
X4.6Y-3.04
X4.65Y-1.64
X4.65Y-2.39
X4.65Y-3.14
X4.7768Y-3.964
X4.851Y-3.8803
X5.0442Y-3.9321
X5.0666Y-4.0416
X5.1Y-1.7525
X5.1Y-2.5025
X5.1Y-3.2525
X5.15Y-1.6525
X5.15Y-2.4025
X5.15Y-3.1525
X5.35Y-1.6525
X5.35Y-2.4025
X5.35Y-3.1525
X5.4Y-1.7525
X5.4Y-2.5025
X5.4Y-3.2525
X5.5901Y-4.2585
X5.6834Y-4.1969
X5.8499Y-4.4085
X5.8566Y-4.2969
X5.9651Y-3.6089
X6.0584Y-3.5473
X6.2249Y-3.7589
X6.2316Y-3.6473
X6.2995Y-4.7534
X6.4055Y-4.7181
X6.5116Y-4.9655
X6.5469Y-4.8595
M30
