%TF.GenerationSoftware,KiCad,Pcbnew,8.0.6*%
%TF.CreationDate,2025-05-26T15:16:57+09:00*%
%TF.ProjectId,hillside_speedrun,68696c6c-7369-4646-955f-737065656472,rev?*%
%TF.SameCoordinates,Original*%
%TF.FileFunction,Other,User*%
%FSLAX46Y46*%
G04 Gerber Fmt 4.6, Leading zero omitted, Abs format (unit mm)*
G04 Created by KiCad (PCBNEW 8.0.6) date 2025-05-26 15:16:57*
%MOMM*%
%LPD*%
G01*
G04 APERTURE LIST*
%ADD10C,0.050000*%
%ADD11C,0.120000*%
G04 APERTURE END LIST*
D10*
%TO.C,SW21*%
X79916296Y-52891822D02*
X66766526Y-54042278D01*
X65616070Y-40892508D01*
X78765840Y-39742052D01*
X79916296Y-52891822D01*
X77008929Y-39624731D02*
X67335879Y-40471013D01*
X67147622Y-38319232D01*
X76820673Y-37472950D01*
X77008929Y-39624731D01*
%TO.C,SW16*%
X58721479Y-66987747D02*
X45722017Y-69279903D01*
X43429861Y-56280441D01*
X56429323Y-53988285D01*
X58721479Y-66987747D01*
X54668873Y-54024535D02*
X45106389Y-55710658D01*
X44731309Y-53583474D01*
X54293793Y-51897350D01*
X54668873Y-54024535D01*
%TO.C,SW15*%
X39960892Y-70295745D02*
X26961430Y-72587901D01*
X24669274Y-59588439D01*
X37668736Y-57296283D01*
X39960892Y-70295745D01*
X35908286Y-57332533D02*
X26345802Y-59018656D01*
X25970722Y-56891472D01*
X35533206Y-55205348D01*
X35908286Y-57332533D01*
%TO.C,SW23*%
X83236930Y-90846840D02*
X70087160Y-91997296D01*
X68936704Y-78847526D01*
X82086474Y-77697070D01*
X83236930Y-90846840D01*
X80329563Y-77579749D02*
X70656513Y-78426031D01*
X70468256Y-76274250D01*
X80141307Y-75427968D01*
X80329563Y-77579749D01*
%TO.C,SW22*%
X81576613Y-71869331D02*
X68426843Y-73019787D01*
X67276387Y-59870017D01*
X80426157Y-58719561D01*
X81576613Y-71869331D01*
X78669246Y-58602240D02*
X68996196Y-59448522D01*
X68807939Y-57296741D01*
X78480990Y-56450459D01*
X78669246Y-58602240D01*
%TO.C,SW20*%
X65337475Y-104508922D02*
X52338013Y-106801078D01*
X50045857Y-93801616D01*
X63045319Y-91509460D01*
X65337475Y-104508922D01*
X61284869Y-91545710D02*
X51722385Y-93231833D01*
X51347305Y-91104649D01*
X60909789Y-89418525D01*
X61284869Y-91545710D01*
%TO.C,SW19*%
X46576887Y-107816920D02*
X33577425Y-110109076D01*
X31285269Y-97109614D01*
X44284731Y-94817458D01*
X46576887Y-107816920D01*
X42524281Y-94853708D02*
X32961797Y-96539831D01*
X32586717Y-94412647D01*
X42149201Y-92726523D01*
X42524281Y-94853708D01*
%TO.C,SW18*%
X62029477Y-85748335D02*
X49030015Y-88040491D01*
X46737859Y-75041029D01*
X59737321Y-72748873D01*
X62029477Y-85748335D01*
X57976871Y-72785123D02*
X48414387Y-74471246D01*
X48039307Y-72344062D01*
X57601791Y-70657938D01*
X57976871Y-72785123D01*
%TO.C,SW17*%
X43268889Y-89056333D02*
X30269427Y-91348489D01*
X27977271Y-78349027D01*
X40976733Y-76056871D01*
X43268889Y-89056333D01*
X39216283Y-76093121D02*
X29653799Y-77779244D01*
X29278719Y-75652060D01*
X38841203Y-73965936D01*
X39216283Y-76093121D01*
%TO.C,SW14*%
X170238054Y-125226756D02*
X160904244Y-134560566D01*
X151570434Y-125226756D01*
X160904244Y-115892946D01*
X170238054Y-125226756D01*
X170725957Y-122278121D02*
X169198607Y-123805471D01*
X162332600Y-116939465D01*
X163859950Y-115412114D01*
X170725957Y-122278121D01*
%TO.C,SW13*%
X153033768Y-109853717D02*
X146433768Y-121285253D01*
X135002232Y-114685253D01*
X141602232Y-103253717D01*
X153033768Y-109853717D01*
X152741883Y-106879276D02*
X151661883Y-108749890D01*
X143252777Y-103894890D01*
X144332777Y-102024276D01*
X152741883Y-106879276D01*
%TO.C,SW12*%
X162558768Y-93355933D02*
X155958768Y-104787469D01*
X144527232Y-98187469D01*
X151127232Y-86755933D01*
X162558768Y-93355933D01*
X162266883Y-90381492D02*
X161186883Y-92252106D01*
X152777777Y-87397106D01*
X153857777Y-85526492D01*
X162266883Y-90381492D01*
%TO.C,SW11*%
X132436868Y-99457299D02*
X129020457Y-112207520D01*
X116270236Y-108791109D01*
X119686647Y-96040888D01*
X132436868Y-99457299D01*
X131385087Y-96659754D02*
X130826038Y-98746154D01*
X121446899Y-96233021D01*
X122005948Y-94146621D01*
X131385087Y-96659754D01*
%TO.C,SW10*%
X96651000Y-94746000D02*
X109851000Y-94746000D01*
X109851000Y-107946000D01*
X96651000Y-107946000D01*
X96651000Y-94746000D01*
X98401000Y-92316000D02*
X108111000Y-92316000D01*
X108111000Y-94476000D01*
X98401000Y-94476000D01*
X98401000Y-92316000D01*
%TO.C,SW9*%
X126750000Y-78553500D02*
X139950000Y-78553500D01*
X139950000Y-91753500D01*
X126750000Y-91753500D01*
X126750000Y-78553500D01*
X128500000Y-76123500D02*
X138210000Y-76123500D01*
X138210000Y-78283500D01*
X128500000Y-78283500D01*
X128500000Y-76123500D01*
%TO.C,SW8*%
X107700000Y-75696000D02*
X120900000Y-75696000D01*
X120900000Y-88896000D01*
X107700000Y-88896000D01*
X107700000Y-75696000D01*
X109450000Y-73266000D02*
X119160000Y-73266000D01*
X119160000Y-75426000D01*
X109450000Y-75426000D01*
X109450000Y-73266000D01*
%TO.C,SW7*%
X88650000Y-69600000D02*
X101850000Y-69600000D01*
X101850000Y-82800000D01*
X88650000Y-82800000D01*
X88650000Y-69600000D01*
X90400000Y-67170000D02*
X100110000Y-67170000D01*
X100110000Y-69330000D01*
X90400000Y-69330000D01*
X90400000Y-67170000D01*
%TO.C,SW6*%
X126750000Y-59503500D02*
X139950000Y-59503500D01*
X139950000Y-72703500D01*
X126750000Y-72703500D01*
X126750000Y-59503500D01*
X128500000Y-57073500D02*
X138210000Y-57073500D01*
X138210000Y-59233500D01*
X128500000Y-59233500D01*
X128500000Y-57073500D01*
%TO.C,SW5*%
X107700000Y-56646000D02*
X120900000Y-56646000D01*
X120900000Y-69846000D01*
X107700000Y-69846000D01*
X107700000Y-56646000D01*
X109450000Y-54216000D02*
X119160000Y-54216000D01*
X119160000Y-56376000D01*
X109450000Y-56376000D01*
X109450000Y-54216000D01*
%TO.C,SW4*%
X88650000Y-50550000D02*
X101850000Y-50550000D01*
X101850000Y-63750000D01*
X88650000Y-63750000D01*
X88650000Y-50550000D01*
X90400000Y-48120000D02*
X100110000Y-48120000D01*
X100110000Y-50280000D01*
X90400000Y-50280000D01*
X90400000Y-48120000D01*
%TO.C,SW3*%
X126750000Y-40453500D02*
X139950000Y-40453500D01*
X139950000Y-53653500D01*
X126750000Y-53653500D01*
X126750000Y-40453500D01*
X128500000Y-38023500D02*
X138210000Y-38023500D01*
X138210000Y-40183500D01*
X128500000Y-40183500D01*
X128500000Y-38023500D01*
%TO.C,SW2*%
X107700000Y-37596000D02*
X120900000Y-37596000D01*
X120900000Y-50796000D01*
X107700000Y-50796000D01*
X107700000Y-37596000D01*
X109450000Y-35166000D02*
X119160000Y-35166000D01*
X119160000Y-37326000D01*
X109450000Y-37326000D01*
X109450000Y-35166000D01*
%TO.C,SW1*%
X88650000Y-31500000D02*
X101850000Y-31500000D01*
X101850000Y-44700000D01*
X88650000Y-44700000D01*
X88650000Y-31500000D01*
X90400000Y-29070000D02*
X100110000Y-29070000D01*
X100110000Y-31230000D01*
X90400000Y-31230000D01*
X90400000Y-29070000D01*
%TO.C,MSW1*%
D11*
X150268000Y-57705350D02*
X148068000Y-57705350D01*
X148068000Y-62105350D01*
X150268000Y-62105350D01*
X150268000Y-57705350D01*
D10*
%TO.C,J2*%
X177084000Y-55587350D02*
G75*
G02*
X174084000Y-55587350I-1500000J0D01*
G01*
X174084000Y-55587350D02*
G75*
G02*
X177084000Y-55587350I1500000J0D01*
G01*
%TO.C,J1*%
X171496000Y-49745350D02*
G75*
G02*
X168496000Y-49745350I-1500000J0D01*
G01*
X168496000Y-49745350D02*
G75*
G02*
X171496000Y-49745350I1500000J0D01*
G01*
%TO.C,H4*%
X51496000Y-106387350D02*
G75*
G02*
X47196000Y-106387350I-2150000J0D01*
G01*
X47196000Y-106387350D02*
G75*
G02*
X51496000Y-106387350I2150000J0D01*
G01*
%TO.C,H3*%
X41844000Y-51523350D02*
G75*
G02*
X37544000Y-51523350I-2150000J0D01*
G01*
X37544000Y-51523350D02*
G75*
G02*
X41844000Y-51523350I2150000J0D01*
G01*
%TO.C,H2*%
X173981000Y-119253000D02*
G75*
G02*
X169681000Y-119253000I-2150000J0D01*
G01*
X169681000Y-119253000D02*
G75*
G02*
X173981000Y-119253000I2150000J0D01*
G01*
%TO.C,H1*%
X177150866Y-50253350D02*
G75*
G02*
X172850866Y-50253350I-2150000J0D01*
G01*
X172850866Y-50253350D02*
G75*
G02*
X177150866Y-50253350I2150000J0D01*
G01*
%TD*%
M02*
