%TF.GenerationSoftware,KiCad,Pcbnew,8.0.6*%
%TF.CreationDate,2025-05-26T15:16:56+09:00*%
%TF.ProjectId,hillside_speedrun,68696c6c-7369-4646-955f-737065656472,rev?*%
%TF.SameCoordinates,Original*%
%TF.FileFunction,Copper,L1,Top*%
%TF.FilePolarity,Positive*%
%FSLAX46Y46*%
G04 Gerber Fmt 4.6, Leading zero omitted, Abs format (unit mm)*
G04 Created by KiCad (PCBNEW 8.0.6) date 2025-05-26 15:16:56*
%MOMM*%
%LPD*%
G01*
G04 APERTURE LIST*
G04 Aperture macros list*
%AMRoundRect*
0 Rectangle with rounded corners*
0 $1 Rounding radius*
0 $2 $3 $4 $5 $6 $7 $8 $9 X,Y pos of 4 corners*
0 Add a 4 corners polygon primitive as box body*
4,1,4,$2,$3,$4,$5,$6,$7,$8,$9,$2,$3,0*
0 Add four circle primitives for the rounded corners*
1,1,$1+$1,$2,$3*
1,1,$1+$1,$4,$5*
1,1,$1+$1,$6,$7*
1,1,$1+$1,$8,$9*
0 Add four rect primitives between the rounded corners*
20,1,$1+$1,$2,$3,$4,$5,0*
20,1,$1+$1,$4,$5,$6,$7,0*
20,1,$1+$1,$6,$7,$8,$9,0*
20,1,$1+$1,$8,$9,$2,$3,0*%
%AMHorizOval*
0 Thick line with rounded ends*
0 $1 width*
0 $2 $3 position (X,Y) of the first rounded end (center of the circle)*
0 $4 $5 position (X,Y) of the second rounded end (center of the circle)*
0 Add line between two ends*
20,1,$1,$2,$3,$4,$5,0*
0 Add two circle primitives to create the rounded ends*
1,1,$1,$2,$3*
1,1,$1,$4,$5*%
%AMRotRect*
0 Rectangle, with rotation*
0 The origin of the aperture is its center*
0 $1 length*
0 $2 width*
0 $3 Rotation angle, in degrees counterclockwise*
0 Add horizontal line*
21,1,$1,$2,0,0,$3*%
%AMFreePoly0*
4,1,6,0.500000,-0.750000,-0.650000,-0.750000,-0.150000,0.000000,-0.650000,0.750000,0.500000,0.750000,0.500000,-0.750000,0.500000,-0.750000,$1*%
%AMFreePoly1*
4,1,6,1.000000,0.000000,0.500000,-0.750000,-0.500000,-0.750000,-0.500000,0.750000,0.500000,0.750000,1.000000,0.000000,1.000000,0.000000,$1*%
G04 Aperture macros list end*
%TA.AperFunction,SMDPad,CuDef*%
%ADD10FreePoly0,90.000000*%
%TD*%
%TA.AperFunction,SMDPad,CuDef*%
%ADD11RoundRect,0.254000X-0.000010X-0.952500X0.000010X-0.952500X0.000010X0.952500X-0.000010X0.952500X0*%
%TD*%
%TA.AperFunction,SMDPad,CuDef*%
%ADD12RoundRect,0.254000X0.251440X-0.251454X0.251454X-0.251440X-0.251440X0.251454X-0.251454X0.251440X0*%
%TD*%
%TA.AperFunction,ComponentPad*%
%ADD13C,0.800000*%
%TD*%
%TA.AperFunction,SMDPad,CuDef*%
%ADD14RoundRect,0.254000X-0.251440X0.251454X-0.251454X0.251440X0.251440X-0.251454X0.251454X-0.251440X0*%
%TD*%
%TA.AperFunction,SMDPad,CuDef*%
%ADD15RoundRect,0.254000X0.000010X0.698500X-0.000010X0.698500X-0.000010X-0.698500X0.000010X-0.698500X0*%
%TD*%
%TA.AperFunction,SMDPad,CuDef*%
%ADD16FreePoly0,270.000000*%
%TD*%
%TA.AperFunction,SMDPad,CuDef*%
%ADD17FreePoly1,270.000000*%
%TD*%
%TA.AperFunction,SMDPad,CuDef*%
%ADD18RoundRect,0.254000X0.000010X1.016000X-0.000010X1.016000X-0.000010X-1.016000X0.000010X-1.016000X0*%
%TD*%
%TA.AperFunction,ComponentPad*%
%ADD19C,1.600000*%
%TD*%
%TA.AperFunction,ComponentPad*%
%ADD20R,1.600000X1.600000*%
%TD*%
%TA.AperFunction,SMDPad,CuDef*%
%ADD21FreePoly1,90.000000*%
%TD*%
%TA.AperFunction,ComponentPad*%
%ADD22C,2.200000*%
%TD*%
%TA.AperFunction,SMDPad,CuDef*%
%ADD23RoundRect,0.041667X0.609020X0.164626X0.542609X0.321841X-0.609020X-0.164626X-0.542609X-0.321841X0*%
%TD*%
%TA.AperFunction,ComponentPad*%
%ADD24C,1.970000*%
%TD*%
%TA.AperFunction,ComponentPad*%
%ADD25C,1.900000*%
%TD*%
%TA.AperFunction,SMDPad,CuDef*%
%ADD26RoundRect,0.041667X0.590253X-0.222728X0.628354X-0.056370X-0.590253X0.222728X-0.628354X0.056370X0*%
%TD*%
%TA.AperFunction,ComponentPad*%
%ADD27RotRect,1.600000X1.600000X95.000000*%
%TD*%
%TA.AperFunction,SMDPad,CuDef*%
%ADD28RoundRect,0.041667X-0.630139X0.030529X-0.615264X-0.139488X0.630139X-0.030529X0.615264X0.139488X0*%
%TD*%
%TA.AperFunction,SMDPad,CuDef*%
%ADD29RoundRect,0.225000X-0.191460X-0.393183X0.256827X-0.353963X0.191460X0.393183X-0.256827X0.353963X0*%
%TD*%
%TA.AperFunction,ComponentPad*%
%ADD30C,1.400000*%
%TD*%
%TA.AperFunction,SMDPad,CuDef*%
%ADD31RoundRect,0.127000X0.274237X-0.230126X0.274250X-0.230110X-0.274237X0.230126X-0.274250X0.230110X0*%
%TD*%
%TA.AperFunction,SMDPad,CuDef*%
%ADD32RoundRect,0.127000X0.230126X0.274237X0.230110X0.274250X-0.230126X-0.274237X-0.230110X-0.274250X0*%
%TD*%
%TA.AperFunction,SMDPad,CuDef*%
%ADD33RoundRect,0.126999X0.153868X-1.758837X0.153888X-1.758836X-0.153868X1.758837X-0.153888X1.758836X0*%
%TD*%
%TA.AperFunction,SMDPad,CuDef*%
%ADD34RoundRect,0.041667X3.002328X0.177011X2.987454X0.347027X-3.002328X-0.177011X-2.987454X-0.347027X0*%
%TD*%
%TA.AperFunction,SMDPad,CuDef*%
%ADD35RoundRect,0.127000X-0.230126X-0.274237X-0.230110X-0.274250X0.230126X0.274237X0.230110X0.274250X0*%
%TD*%
%TA.AperFunction,SMDPad,CuDef*%
%ADD36RoundRect,0.127000X-0.274237X0.230126X-0.274250X0.230110X0.274237X-0.230126X0.274250X-0.230110X0*%
%TD*%
%TA.AperFunction,ComponentPad*%
%ADD37HorizOval,1.600000X0.000000X0.000000X0.000000X0.000000X0*%
%TD*%
%TA.AperFunction,SMDPad,CuDef*%
%ADD38RoundRect,0.127000X0.760676X-0.638296X0.760689X-0.638280X-0.760676X0.638296X-0.760689X0.638280X0*%
%TD*%
%TA.AperFunction,SMDPad,CuDef*%
%ADD39RoundRect,0.127000X-0.106584X1.218371X-0.106604X1.218369X0.106584X-1.218371X0.106604X-1.218369X0*%
%TD*%
%TA.AperFunction,SMDPad,CuDef*%
%ADD40RoundRect,0.041667X0.592354X0.217079X0.512494X0.367908X-0.592354X-0.217079X-0.512494X-0.367908X0*%
%TD*%
%TA.AperFunction,SMDPad,CuDef*%
%ADD41RoundRect,0.041667X0.607419X-0.170437X0.630876X-0.001391X-0.607419X0.170437X-0.630876X0.001391X0*%
%TD*%
%TA.AperFunction,ComponentPad*%
%ADD42RotRect,1.600000X1.600000X100.000000*%
%TD*%
%TA.AperFunction,SMDPad,CuDef*%
%ADD43RoundRect,0.041667X-0.630402X-0.024507X-0.600766X-0.192581X0.630402X0.024507X0.600766X0.192581X0*%
%TD*%
%TA.AperFunction,SMDPad,CuDef*%
%ADD44RoundRect,0.225000X-0.156464X-0.408374X0.286700X-0.330232X0.156464X0.408374X-0.286700X0.330232X0*%
%TD*%
%TA.AperFunction,SMDPad,CuDef*%
%ADD45RoundRect,0.127000X0.293251X-0.205349X0.293262X-0.205332X-0.293251X0.205349X-0.293262X0.205332X0*%
%TD*%
%TA.AperFunction,SMDPad,CuDef*%
%ADD46RoundRect,0.127000X0.205349X0.293251X0.205332X0.293262X-0.205349X-0.293251X-0.205332X-0.293262X0*%
%TD*%
%TA.AperFunction,SMDPad,CuDef*%
%ADD47RoundRect,0.126999X0.306576X-1.738734X0.306595X-1.738731X-0.306576X1.738734X-0.306595X1.738731X0*%
%TD*%
%TA.AperFunction,SMDPad,CuDef*%
%ADD48RoundRect,0.041667X2.975476X0.438007X2.945840X0.606080X-2.975476X-0.438007X-2.945840X-0.606080X0*%
%TD*%
%TA.AperFunction,SMDPad,CuDef*%
%ADD49RoundRect,0.127000X-0.205349X-0.293251X-0.205332X-0.293262X0.205349X0.293251X0.205332X0.293262X0*%
%TD*%
%TA.AperFunction,SMDPad,CuDef*%
%ADD50RoundRect,0.127000X-0.293251X0.205349X-0.293262X0.205332X0.293251X-0.205349X0.293262X-0.205332X0*%
%TD*%
%TA.AperFunction,ComponentPad*%
%ADD51HorizOval,1.600000X0.000000X0.000000X0.000000X0.000000X0*%
%TD*%
%TA.AperFunction,SMDPad,CuDef*%
%ADD52RoundRect,0.127000X0.813412X-0.569570X0.813424X-0.569553X-0.813412X0.569570X-0.813424X0.569553X0*%
%TD*%
%TA.AperFunction,SMDPad,CuDef*%
%ADD53RoundRect,0.127000X-0.212366X1.204445X-0.212386X1.204442X0.212366X-1.204445X0.212386X-1.204442X0*%
%TD*%
%TA.AperFunction,SMDPad,CuDef*%
%ADD54RoundRect,0.041667X0.517581X-0.360717X0.595327X-0.208787X-0.517581X0.360717X-0.595327X0.208787X0*%
%TD*%
%TA.AperFunction,SMDPad,CuDef*%
%ADD55RoundRect,0.041667X0.208787X-0.595327X0.360717X-0.517581X-0.208787X0.595327X-0.360717X0.517581X0*%
%TD*%
%TA.AperFunction,ComponentPad*%
%ADD56RotRect,1.600000X1.600000X45.000000*%
%TD*%
%TA.AperFunction,SMDPad,CuDef*%
%ADD57RoundRect,0.041667X-0.381659X0.502338X-0.502338X0.381659X0.381659X-0.502338X0.502338X-0.381659X0*%
%TD*%
%TA.AperFunction,SMDPad,CuDef*%
%ADD58RoundRect,0.225000X-0.424264X-0.106066X-0.106066X-0.424264X0.424264X0.106066X0.106066X0.424264X0*%
%TD*%
%TA.AperFunction,SMDPad,CuDef*%
%ADD59RoundRect,0.127000X-0.000010X-0.358000X0.000010X-0.358000X0.000010X0.358000X-0.000010X0.358000X0*%
%TD*%
%TA.AperFunction,SMDPad,CuDef*%
%ADD60RoundRect,0.127000X0.358000X-0.000010X0.358000X0.000010X-0.358000X0.000010X-0.358000X-0.000010X0*%
%TD*%
%TA.AperFunction,SMDPad,CuDef*%
%ADD61RoundRect,0.126999X-1.248443X-1.248429X-1.248429X-1.248443X1.248443X1.248429X1.248429X1.248443X0*%
%TD*%
%TA.AperFunction,SMDPad,CuDef*%
%ADD62RoundRect,0.041667X2.065457X-2.186137X2.186137X-2.065457X-2.065457X2.186137X-2.186137X2.065457X0*%
%TD*%
%TA.AperFunction,SMDPad,CuDef*%
%ADD63RoundRect,0.127000X-0.358000X0.000010X-0.358000X-0.000010X0.358000X-0.000010X0.358000X0.000010X0*%
%TD*%
%TA.AperFunction,SMDPad,CuDef*%
%ADD64RoundRect,0.127000X0.000010X0.358000X-0.000010X0.358000X-0.000010X-0.358000X0.000010X-0.358000X0*%
%TD*%
%TA.AperFunction,ComponentPad*%
%ADD65HorizOval,1.600000X0.000000X0.000000X0.000000X0.000000X0*%
%TD*%
%TA.AperFunction,SMDPad,CuDef*%
%ADD66RoundRect,0.127000X-0.000010X-0.993000X0.000010X-0.993000X0.000010X0.993000X-0.000010X0.993000X0*%
%TD*%
%TA.AperFunction,SMDPad,CuDef*%
%ADD67RoundRect,0.127000X0.864816X0.864801X0.864801X0.864816X-0.864816X-0.864801X-0.864801X-0.864816X0*%
%TD*%
%TA.AperFunction,SMDPad,CuDef*%
%ADD68RoundRect,0.041667X0.593305X-0.214466X0.629080X-0.047591X-0.593305X0.214466X-0.629080X0.047591X0*%
%TD*%
%TA.AperFunction,SMDPad,CuDef*%
%ADD69RoundRect,0.041667X0.355755X-0.521004X0.482385X-0.406585X-0.355755X0.521004X-0.482385X0.406585X0*%
%TD*%
%TA.AperFunction,ComponentPad*%
%ADD70RotRect,1.600000X1.600000X60.000000*%
%TD*%
%TA.AperFunction,SMDPad,CuDef*%
%ADD71RoundRect,0.041667X-0.498669X0.386441X-0.584002X0.238639X0.498669X-0.386441X0.584002X-0.238639X0*%
%TD*%
%TA.AperFunction,SMDPad,CuDef*%
%ADD72RoundRect,0.225000X-0.382356X-0.212260X0.007356X-0.437260X0.382356X0.212260X-0.007356X0.437260X0*%
%TD*%
%TA.AperFunction,SMDPad,CuDef*%
%ADD73RoundRect,0.127000X0.092648X-0.345804X0.092667X-0.345799X-0.092648X0.345804X-0.092667X0.345799X0*%
%TD*%
%TA.AperFunction,SMDPad,CuDef*%
%ADD74RoundRect,0.127000X0.345804X0.092648X0.345799X0.092667X-0.345804X-0.092648X-0.345799X-0.092667X0*%
%TD*%
%TA.AperFunction,SMDPad,CuDef*%
%ADD75RoundRect,0.126999X-0.882786X-1.529010X-0.882769X-1.529020X0.882786X1.529010X0.882769X1.529020X0*%
%TD*%
%TA.AperFunction,SMDPad,CuDef*%
%ADD76RoundRect,0.041667X2.560893X-1.577066X2.646226X-1.429265X-2.560893X1.577066X-2.646226X1.429265X0*%
%TD*%
%TA.AperFunction,SMDPad,CuDef*%
%ADD77RoundRect,0.127000X-0.345804X-0.092648X-0.345799X-0.092667X0.345804X0.092648X0.345799X0.092667X0*%
%TD*%
%TA.AperFunction,SMDPad,CuDef*%
%ADD78RoundRect,0.127000X-0.092648X0.345804X-0.092667X0.345799X0.092648X-0.345804X0.092667X-0.345799X0*%
%TD*%
%TA.AperFunction,ComponentPad*%
%ADD79HorizOval,1.600000X0.000000X0.000000X0.000000X0.000000X0*%
%TD*%
%TA.AperFunction,SMDPad,CuDef*%
%ADD80RoundRect,0.127000X0.256998X-0.959167X0.257017X-0.959162X-0.256998X0.959167X-0.257017X0.959162X0*%
%TD*%
%TA.AperFunction,SMDPad,CuDef*%
%ADD81RoundRect,0.127000X0.611521X1.059165X0.611503X1.059175X-0.611521X-1.059165X-0.611503X-1.059175X0*%
%TD*%
%TA.AperFunction,SMDPad,CuDef*%
%ADD82RoundRect,0.041667X0.628597X-0.053599X0.619962X0.116848X-0.628597X0.053599X-0.619962X-0.116848X0*%
%TD*%
%TA.AperFunction,SMDPad,CuDef*%
%ADD83RoundRect,0.041667X0.478479X-0.411175X0.571180X-0.267880X-0.478479X0.411175X-0.571180X0.267880X0*%
%TD*%
%TA.AperFunction,ComponentPad*%
%ADD84RotRect,1.600000X1.600000X75.000000*%
%TD*%
%TA.AperFunction,SMDPad,CuDef*%
%ADD85RoundRect,0.041667X-0.581695X0.244208X-0.625867X0.079357X0.581695X-0.244208X0.625867X-0.079357X0*%
%TD*%
%TA.AperFunction,SMDPad,CuDef*%
%ADD86RoundRect,0.225000X-0.314390X-0.303988X0.120276X-0.420456X0.314390X0.303988X-0.120276X0.420456X0*%
%TD*%
%TA.AperFunction,SMDPad,CuDef*%
%ADD87RoundRect,0.127000X0.178991X-0.310042X0.179009X-0.310032X-0.178991X0.310042X-0.179009X0.310032X0*%
%TD*%
%TA.AperFunction,SMDPad,CuDef*%
%ADD88RoundRect,0.127000X0.310042X0.178991X0.310032X0.179009X-0.310042X-0.178991X-0.310032X-0.179009X0*%
%TD*%
%TA.AperFunction,SMDPad,CuDef*%
%ADD89RoundRect,0.126999X-0.456969X-1.705393X-0.456950X-1.705398X0.456969X1.705393X0.456950X1.705398X0*%
%TD*%
%TA.AperFunction,SMDPad,CuDef*%
%ADD90RoundRect,0.041667X2.881807X-0.860521X2.925979X-0.695670X-2.881807X0.860521X-2.925979X0.695670X0*%
%TD*%
%TA.AperFunction,SMDPad,CuDef*%
%ADD91RoundRect,0.127000X-0.310042X-0.178991X-0.310032X-0.179009X0.310042X0.178991X0.310032X0.179009X0*%
%TD*%
%TA.AperFunction,SMDPad,CuDef*%
%ADD92RoundRect,0.127000X-0.178991X0.310042X-0.179009X0.310032X0.178991X-0.310042X0.179009X-0.310032X0*%
%TD*%
%TA.AperFunction,ComponentPad*%
%ADD93HorizOval,1.600000X0.000000X0.000000X0.000000X0.000000X0*%
%TD*%
%TA.AperFunction,SMDPad,CuDef*%
%ADD94RoundRect,0.127000X0.496491X-0.859968X0.496509X-0.859958X-0.496491X0.859968X-0.496509X0.859958X0*%
%TD*%
%TA.AperFunction,SMDPad,CuDef*%
%ADD95RoundRect,0.127000X0.316552X1.181348X0.316532X1.181353X-0.316552X-1.181348X-0.316532X-1.181353X0*%
%TD*%
%TA.AperFunction,SMDPad,CuDef*%
%ADD96RoundRect,0.041667X0.621050X0.110920X0.568595X0.273325X-0.621050X-0.110920X-0.568595X-0.273325X0*%
%TD*%
%TA.AperFunction,SMDPad,CuDef*%
%ADD97RoundRect,0.041667X0.568595X-0.273325X0.621050X-0.110920X-0.568595X0.273325X-0.621050X0.110920X0*%
%TD*%
%TA.AperFunction,SMDPad,CuDef*%
%ADD98RoundRect,0.041667X-0.625080X0.085333X-0.625080X-0.085333X0.625080X-0.085333X0.625080X0.085333X0*%
%TD*%
%TA.AperFunction,SMDPad,CuDef*%
%ADD99RoundRect,0.225000X-0.225000X-0.375000X0.225000X-0.375000X0.225000X0.375000X-0.225000X0.375000X0*%
%TD*%
%TA.AperFunction,SMDPad,CuDef*%
%ADD100RoundRect,0.127000X0.253137X-0.253151X0.253151X-0.253137X-0.253137X0.253151X-0.253151X0.253137X0*%
%TD*%
%TA.AperFunction,SMDPad,CuDef*%
%ADD101RoundRect,0.127000X0.253151X0.253137X0.253137X0.253151X-0.253151X-0.253137X-0.253137X-0.253151X0*%
%TD*%
%TA.AperFunction,SMDPad,CuDef*%
%ADD102RoundRect,0.126999X-0.000010X-1.765555X0.000010X-1.765555X0.000010X1.765555X-0.000010X1.765555X0*%
%TD*%
%TA.AperFunction,SMDPad,CuDef*%
%ADD103RoundRect,0.041667X3.006331X-0.085333X3.006331X0.085333X-3.006331X0.085333X-3.006331X-0.085333X0*%
%TD*%
%TA.AperFunction,SMDPad,CuDef*%
%ADD104RoundRect,0.127000X-0.253151X-0.253137X-0.253137X-0.253151X0.253151X0.253137X0.253137X0.253151X0*%
%TD*%
%TA.AperFunction,SMDPad,CuDef*%
%ADD105RoundRect,0.127000X-0.253137X0.253151X-0.253151X0.253137X0.253137X-0.253151X0.253151X-0.253137X0*%
%TD*%
%TA.AperFunction,ComponentPad*%
%ADD106O,1.600000X1.600000*%
%TD*%
%TA.AperFunction,SMDPad,CuDef*%
%ADD107RoundRect,0.127000X0.702150X-0.702164X0.702164X-0.702150X-0.702150X0.702164X-0.702164X0.702150X0*%
%TD*%
%TA.AperFunction,SMDPad,CuDef*%
%ADD108RoundRect,0.127000X0.000010X1.223024X-0.000010X1.223024X-0.000010X-1.223024X0.000010X-1.223024X0*%
%TD*%
%TA.AperFunction,SMDPad,CuDef*%
%ADD109RoundRect,0.170000X-0.780000X0.170000X-0.780000X-0.170000X0.780000X-0.170000X0.780000X0.170000X0*%
%TD*%
%TA.AperFunction,ComponentPad*%
%ADD110C,0.700000*%
%TD*%
%TA.AperFunction,ComponentPad*%
%ADD111C,2.000000*%
%TD*%
%TA.AperFunction,ViaPad*%
%ADD112C,0.600000*%
%TD*%
%TA.AperFunction,Conductor*%
%ADD113C,0.508000*%
%TD*%
G04 APERTURE END LIST*
D10*
%TO.P,U101,1,TX0/D3*%
%TO.N,/ROW 0*%
X172352000Y-42525350D03*
D11*
X172352000Y-41460750D03*
D12*
X172098000Y-40254250D03*
D13*
X171844000Y-40000250D03*
D10*
%TO.P,U101,2,RX1/D2*%
%TO.N,/ROW 1*%
X169812000Y-42525350D03*
D11*
X169812000Y-41460750D03*
D12*
X169558000Y-40254250D03*
D13*
X169304000Y-40000250D03*
D10*
%TO.P,U101,3,GND*%
%TO.N,GND*%
X167272000Y-42525350D03*
D11*
X167272000Y-41460750D03*
D12*
X167018000Y-40254250D03*
D13*
X166764000Y-40000250D03*
D10*
%TO.P,U101,4,GND*%
X164732000Y-42525350D03*
D11*
X164732000Y-41460750D03*
D12*
X164478000Y-40254250D03*
D13*
X164224000Y-40000250D03*
D10*
%TO.P,U101,5,2/D1/SDA*%
%TO.N,/ROW 2*%
X162192000Y-42525350D03*
D11*
X162192000Y-41460750D03*
D12*
X161938000Y-40254250D03*
D13*
X161684000Y-40000250D03*
D10*
%TO.P,U101,6,3/D0/SCL*%
%TO.N,/ROW 3*%
X159652000Y-42525350D03*
D11*
X159652000Y-41460750D03*
D12*
X159398000Y-40254250D03*
D13*
X159144000Y-40000250D03*
D10*
%TO.P,U101,7,4/D4*%
%TO.N,/COL 0*%
X157112000Y-42525350D03*
D11*
X157112000Y-41460750D03*
D12*
X156858000Y-40254250D03*
D13*
X156604000Y-40000250D03*
D10*
%TO.P,U101,8,5/C6*%
%TO.N,/COL 1*%
X154572000Y-42525350D03*
D11*
X154572000Y-41460750D03*
D12*
X154318000Y-40254250D03*
D13*
X154064000Y-40000250D03*
D10*
%TO.P,U101,9,6/D7*%
%TO.N,/COL 2*%
X152032000Y-42525350D03*
D11*
X152032000Y-41460750D03*
D12*
X151778000Y-40254250D03*
D13*
X151524000Y-40000250D03*
D10*
%TO.P,U101,10,7/E6*%
%TO.N,/COL 3*%
X149492000Y-42525350D03*
D11*
X149492000Y-41460750D03*
D12*
X149238000Y-40254250D03*
D13*
X148984000Y-40000250D03*
D10*
%TO.P,U101,11,8/B4*%
%TO.N,/COL 4*%
X146952000Y-42525350D03*
D11*
X146952000Y-41460750D03*
D12*
X146698000Y-40254250D03*
D13*
X146444000Y-40000250D03*
D10*
%TO.P,U101,12,9/B5*%
%TO.N,/COL 5*%
X144412000Y-42525350D03*
D11*
X144412000Y-41460750D03*
D12*
X144158000Y-40254250D03*
D13*
X143904000Y-40000250D03*
%TO.P,U101,13,B6/10*%
%TO.N,unconnected-(U101-B6{slash}10-Pad13)_4*%
X144920000Y-37650750D03*
D14*
%TO.N,unconnected-(U101-B6{slash}10-Pad13)_7*%
X144666000Y-37396750D03*
D15*
%TO.N,unconnected-(U101-B6{slash}10-Pad13)_2*%
X144412000Y-36444250D03*
D16*
%TO.N,unconnected-(U101-B6{slash}10-Pad13)_6*%
X144412000Y-35265350D03*
D13*
%TO.P,U101,14,B2/16*%
%TO.N,unconnected-(U101-B2{slash}16-Pad14)_4*%
X147460000Y-37650750D03*
D14*
%TO.N,unconnected-(U101-B2{slash}16-Pad14)_6*%
X147206000Y-37396750D03*
D15*
%TO.N,unconnected-(U101-B2{slash}16-Pad14)_5*%
X146952000Y-36444250D03*
D16*
%TO.N,unconnected-(U101-B2{slash}16-Pad14)_3*%
X146952000Y-35265350D03*
D13*
%TO.P,U101,15,B3/14*%
%TO.N,unconnected-(U101-B3{slash}14-Pad15)*%
X150000000Y-37650750D03*
D14*
%TO.N,unconnected-(U101-B3{slash}14-Pad15)_2*%
X149746000Y-37396750D03*
D15*
%TO.N,unconnected-(U101-B3{slash}14-Pad15)_4*%
X149492000Y-36444250D03*
D16*
%TO.N,unconnected-(U101-B3{slash}14-Pad15)_7*%
X149492000Y-35265350D03*
D13*
%TO.P,U101,16,B1/15*%
%TO.N,unconnected-(U101-B1{slash}15-Pad16)_5*%
X152540000Y-37650750D03*
D14*
%TO.N,unconnected-(U101-B1{slash}15-Pad16)*%
X152286000Y-37396750D03*
D15*
%TO.N,unconnected-(U101-B1{slash}15-Pad16)_6*%
X152032000Y-36444250D03*
D16*
%TO.N,unconnected-(U101-B1{slash}15-Pad16)_7*%
X152032000Y-35265350D03*
D13*
%TO.P,U101,17,F7/A0*%
%TO.N,unconnected-(U101-F7{slash}A0-Pad17)_5*%
X155080000Y-37650750D03*
D14*
%TO.N,unconnected-(U101-F7{slash}A0-Pad17)_2*%
X154826000Y-37396750D03*
D15*
%TO.N,unconnected-(U101-F7{slash}A0-Pad17)_1*%
X154572000Y-36444250D03*
D16*
%TO.N,unconnected-(U101-F7{slash}A0-Pad17)_6*%
X154572000Y-35265350D03*
D13*
%TO.P,U101,18,F6/A1*%
%TO.N,unconnected-(U101-F6{slash}A1-Pad18)_7*%
X157620000Y-37650750D03*
D14*
%TO.N,unconnected-(U101-F6{slash}A1-Pad18)_5*%
X157366000Y-37396750D03*
D15*
%TO.N,unconnected-(U101-F6{slash}A1-Pad18)*%
X157112000Y-36444250D03*
D16*
%TO.N,unconnected-(U101-F6{slash}A1-Pad18)_3*%
X157112000Y-35265350D03*
D13*
%TO.P,U101,19,F5/A2*%
%TO.N,unconnected-(U101-F5{slash}A2-Pad19)_5*%
X160160000Y-37650750D03*
D14*
%TO.N,unconnected-(U101-F5{slash}A2-Pad19)_4*%
X159906000Y-37396750D03*
D15*
%TO.N,unconnected-(U101-F5{slash}A2-Pad19)_7*%
X159652000Y-36444250D03*
D16*
%TO.N,unconnected-(U101-F5{slash}A2-Pad19)_6*%
X159652000Y-35265350D03*
D13*
%TO.P,U101,20,F4/A3*%
%TO.N,unconnected-(U101-F4{slash}A3-Pad20)*%
X162700000Y-37650750D03*
D14*
%TO.N,unconnected-(U101-F4{slash}A3-Pad20)_6*%
X162446000Y-37396750D03*
D15*
%TO.N,unconnected-(U101-F4{slash}A3-Pad20)_7*%
X162192000Y-36444250D03*
D16*
%TO.N,unconnected-(U101-F4{slash}A3-Pad20)_2*%
X162192000Y-35265350D03*
D13*
%TO.P,U101,21,VCC*%
%TO.N,VCC*%
X165240000Y-37650750D03*
D14*
X164986000Y-37396750D03*
D15*
X164732000Y-36444250D03*
D16*
X164732000Y-35265350D03*
D13*
%TO.P,U101,22,RST*%
%TO.N,Net-(U101-RST)*%
X167780000Y-37650750D03*
D14*
X167526000Y-37396750D03*
D15*
X167272000Y-36444250D03*
D16*
X167272000Y-35265350D03*
D13*
%TO.P,U101,23,GND*%
%TO.N,GND*%
X170320000Y-37650750D03*
D14*
X170066000Y-37396750D03*
D15*
X169812000Y-36444250D03*
D16*
X169812000Y-35265350D03*
D13*
%TO.P,U101,24,RAW*%
%TO.N,unconnected-(U101-RAW-Pad24)_7*%
X172860000Y-37650750D03*
D14*
%TO.N,unconnected-(U101-RAW-Pad24)_3*%
X172606000Y-37396750D03*
D15*
%TO.N,unconnected-(U101-RAW-Pad24)*%
X172352000Y-36444250D03*
D16*
%TO.N,unconnected-(U101-RAW-Pad24)_6*%
X172352000Y-35265350D03*
D13*
%TO.P,U101,25,BAT+*%
%TO.N,+BATT*%
X175400000Y-37650750D03*
D14*
X175146000Y-37396750D03*
D15*
X174892000Y-36444250D03*
D16*
X174892000Y-35265350D03*
D10*
%TO.P,U101,26,GND*%
%TO.N,GND*%
X174892000Y-42525350D03*
D11*
X174892000Y-41460750D03*
D12*
X174638000Y-40254250D03*
D13*
X174384000Y-40000250D03*
D17*
%TO.P,U101,100*%
%TO.N,unconnected-(U101-Pad100)_3*%
X144412000Y-33815350D03*
D18*
%TO.N,unconnected-(U101-Pad100)_2*%
X144412000Y-32545350D03*
D19*
%TO.N,unconnected-(U101-Pad100)_1*%
X144412000Y-31275350D03*
D17*
%TO.P,U101,101*%
%TO.N,unconnected-(U101-Pad101)_2*%
X146952000Y-33815350D03*
D18*
%TO.N,unconnected-(U101-Pad101)_1*%
X146952000Y-32545350D03*
D19*
%TO.N,unconnected-(U101-Pad101)_3*%
X146952000Y-31275350D03*
D17*
%TO.P,U101,102*%
%TO.N,unconnected-(U101-Pad102)*%
X149492000Y-33815350D03*
D18*
%TO.N,unconnected-(U101-Pad102)_3*%
X149492000Y-32545350D03*
D19*
%TO.N,unconnected-(U101-Pad102)_1*%
X149492000Y-31275350D03*
D17*
%TO.P,U101,103*%
%TO.N,unconnected-(U101-Pad103)*%
X152032000Y-33815350D03*
D18*
%TO.N,unconnected-(U101-Pad103)_3*%
X152032000Y-32545350D03*
D19*
%TO.N,unconnected-(U101-Pad103)_4*%
X152032000Y-31275350D03*
D17*
%TO.P,U101,104*%
%TO.N,unconnected-(U101-Pad104)_4*%
X154572000Y-33815350D03*
D18*
%TO.N,unconnected-(U101-Pad104)*%
X154572000Y-32545350D03*
D19*
%TO.N,unconnected-(U101-Pad104)_3*%
X154572000Y-31275350D03*
D17*
%TO.P,U101,105*%
%TO.N,unconnected-(U101-Pad105)_2*%
X157112000Y-33815350D03*
D18*
%TO.N,unconnected-(U101-Pad105)_3*%
X157112000Y-32545350D03*
D19*
%TO.N,unconnected-(U101-Pad105)*%
X157112000Y-31275350D03*
D17*
%TO.P,U101,106*%
%TO.N,unconnected-(U101-Pad106)*%
X159652000Y-33815350D03*
D18*
%TO.N,unconnected-(U101-Pad106)_2*%
X159652000Y-32545350D03*
D19*
%TO.N,unconnected-(U101-Pad106)_1*%
X159652000Y-31275350D03*
D17*
%TO.P,U101,107*%
%TO.N,unconnected-(U101-Pad107)*%
X162192000Y-33815350D03*
D18*
%TO.N,unconnected-(U101-Pad107)_1*%
X162192000Y-32545350D03*
D19*
%TO.N,unconnected-(U101-Pad107)_3*%
X162192000Y-31275350D03*
D17*
%TO.P,U101,108*%
%TO.N,unconnected-(U101-Pad108)_1*%
X164732000Y-33815350D03*
D18*
%TO.N,unconnected-(U101-Pad108)_3*%
X164732000Y-32545350D03*
D19*
%TO.N,unconnected-(U101-Pad108)*%
X164732000Y-31275350D03*
D17*
%TO.P,U101,109*%
%TO.N,unconnected-(U101-Pad109)_2*%
X167272000Y-33815350D03*
D18*
%TO.N,unconnected-(U101-Pad109)_3*%
X167272000Y-32545350D03*
D19*
%TO.N,unconnected-(U101-Pad109)*%
X167272000Y-31275350D03*
D17*
%TO.P,U101,110*%
%TO.N,unconnected-(U101-Pad110)*%
X169812000Y-33815350D03*
D18*
%TO.N,unconnected-(U101-Pad110)_2*%
X169812000Y-32545350D03*
D19*
%TO.N,unconnected-(U101-Pad110)_3*%
X169812000Y-31275350D03*
D17*
%TO.P,U101,111*%
%TO.N,unconnected-(U101-Pad111)_1*%
X172352000Y-33815350D03*
D18*
%TO.N,unconnected-(U101-Pad111)_4*%
X172352000Y-32545350D03*
D19*
%TO.N,unconnected-(U101-Pad111)_3*%
X172352000Y-31275350D03*
D17*
%TO.P,U101,112*%
%TO.N,unconnected-(U101-Pad112)_2*%
X174892000Y-33815350D03*
D18*
%TO.N,unconnected-(U101-Pad112)_1*%
X174892000Y-32545350D03*
D20*
%TO.N,unconnected-(U101-Pad112)*%
X174892000Y-31275350D03*
D19*
%TO.P,U101,113*%
%TO.N,unconnected-(U101-Pad113)_2*%
X174892000Y-46515350D03*
D18*
%TO.N,unconnected-(U101-Pad113)*%
X174892000Y-45245350D03*
D21*
%TO.N,unconnected-(U101-Pad113)_3*%
X174892000Y-43975350D03*
D19*
%TO.P,U101,114*%
%TO.N,unconnected-(U101-Pad114)_1*%
X172352000Y-46515350D03*
D18*
%TO.N,unconnected-(U101-Pad114)*%
X172352000Y-45245350D03*
D21*
%TO.N,unconnected-(U101-Pad114)_4*%
X172352000Y-43975350D03*
D19*
%TO.P,U101,115*%
%TO.N,unconnected-(U101-Pad115)*%
X169812000Y-46515350D03*
D18*
%TO.N,unconnected-(U101-Pad115)_4*%
X169812000Y-45245350D03*
D21*
%TO.N,unconnected-(U101-Pad115)_1*%
X169812000Y-43975350D03*
D19*
%TO.P,U101,116*%
%TO.N,unconnected-(U101-Pad116)_4*%
X167272000Y-46515350D03*
D18*
%TO.N,unconnected-(U101-Pad116)*%
X167272000Y-45245350D03*
D21*
%TO.N,unconnected-(U101-Pad116)_3*%
X167272000Y-43975350D03*
D19*
%TO.P,U101,117*%
%TO.N,unconnected-(U101-Pad117)_1*%
X164732000Y-46515350D03*
D18*
%TO.N,unconnected-(U101-Pad117)_4*%
X164732000Y-45245350D03*
D21*
%TO.N,unconnected-(U101-Pad117)*%
X164732000Y-43975350D03*
D19*
%TO.P,U101,118*%
%TO.N,unconnected-(U101-Pad118)_2*%
X162192000Y-46515350D03*
D18*
%TO.N,unconnected-(U101-Pad118)_1*%
X162192000Y-45245350D03*
D21*
%TO.N,unconnected-(U101-Pad118)_3*%
X162192000Y-43975350D03*
D19*
%TO.P,U101,119*%
%TO.N,unconnected-(U101-Pad119)*%
X159652000Y-46515350D03*
D18*
%TO.N,unconnected-(U101-Pad119)_2*%
X159652000Y-45245350D03*
D21*
%TO.N,unconnected-(U101-Pad119)_3*%
X159652000Y-43975350D03*
D19*
%TO.P,U101,120*%
%TO.N,unconnected-(U101-Pad120)_3*%
X157112000Y-46515350D03*
D18*
%TO.N,unconnected-(U101-Pad120)*%
X157112000Y-45245350D03*
D21*
%TO.N,unconnected-(U101-Pad120)_4*%
X157112000Y-43975350D03*
D19*
%TO.P,U101,121*%
%TO.N,unconnected-(U101-Pad121)_4*%
X154572000Y-46515350D03*
D18*
%TO.N,unconnected-(U101-Pad121)_2*%
X154572000Y-45245350D03*
D21*
%TO.N,unconnected-(U101-Pad121)_3*%
X154572000Y-43975350D03*
D19*
%TO.P,U101,122*%
%TO.N,unconnected-(U101-Pad122)_1*%
X152032000Y-46515350D03*
D18*
%TO.N,unconnected-(U101-Pad122)_4*%
X152032000Y-45245350D03*
D21*
%TO.N,unconnected-(U101-Pad122)_3*%
X152032000Y-43975350D03*
D19*
%TO.P,U101,123*%
%TO.N,unconnected-(U101-Pad123)*%
X149492000Y-46515350D03*
D18*
%TO.N,unconnected-(U101-Pad123)_1*%
X149492000Y-45245350D03*
D21*
%TO.N,unconnected-(U101-Pad123)_2*%
X149492000Y-43975350D03*
D19*
%TO.P,U101,124*%
%TO.N,unconnected-(U101-Pad124)*%
X146952000Y-46515350D03*
D18*
%TO.N,unconnected-(U101-Pad124)_3*%
X146952000Y-45245350D03*
D21*
%TO.N,unconnected-(U101-Pad124)_4*%
X146952000Y-43975350D03*
D19*
%TO.P,U101,125*%
%TO.N,unconnected-(U101-Pad125)_3*%
X144412000Y-46515350D03*
D18*
%TO.N,unconnected-(U101-Pad125)_4*%
X144412000Y-45245350D03*
D21*
%TO.N,unconnected-(U101-Pad125)_2*%
X144412000Y-43975350D03*
%TD*%
D22*
%TO.P,SW21,1,1*%
%TO.N,/ROW 0*%
X69793097Y-42052872D03*
D23*
X70993952Y-41551301D03*
D24*
X72251964Y-41014616D03*
D25*
X73332695Y-53367431D03*
D26*
X73484439Y-41333412D03*
D22*
X74853766Y-41610120D03*
D27*
%TO.P,SW21,2,2*%
%TO.N,/COL 2*%
X68277793Y-39304481D03*
D28*
X69483189Y-39199022D03*
D29*
X70429574Y-39116224D03*
D30*
%TO.P,SW21,3,3*%
%TO.N,unconnected-(SW21-Pad3)_18*%
X67932101Y-51531136D03*
D24*
%TO.N,unconnected-(SW21-Pad3)_1*%
X67454018Y-43542404D03*
D22*
%TO.N,unconnected-(SW21-Pad3)_10*%
X68749306Y-44693894D03*
D25*
%TO.N,unconnected-(SW21-Pad3)_21*%
X69311835Y-51008897D03*
D31*
%TO.N,unconnected-(SW21-Pad3)_20*%
X69239544Y-45925855D03*
D32*
%TO.N,unconnected-(SW21-Pad3)_9*%
X69593745Y-49974390D03*
D33*
%TO.N,unconnected-(SW21-Pad3)_4*%
X69670763Y-47940382D03*
D34*
%TO.N,unconnected-(SW21-Pad3)_12*%
X73098244Y-50687667D03*
D29*
%TO.N,unconnected-(SW21-Pad3)_6*%
X73717016Y-38828610D03*
D28*
%TO.N,unconnected-(SW21-Pad3)_2*%
X74563782Y-38754528D03*
D33*
%TO.N,unconnected-(SW21-Pad3)_13*%
X75996597Y-47386944D03*
D35*
%TO.N,unconnected-(SW21-Pad3)_19*%
X76071447Y-45328141D03*
D36*
%TO.N,unconnected-(SW21-Pad3)_11*%
X76425648Y-49376676D03*
D25*
%TO.N,unconnected-(SW21-Pad3)_17*%
X76882915Y-50346513D03*
D37*
%TO.N,unconnected-(SW21-Pad3)_8*%
X75868797Y-38640354D03*
D22*
%TO.N,unconnected-(SW21-Pad3)*%
X76340309Y-44029767D03*
D38*
%TO.N,unconnected-(SW21-Pad3)_14*%
X76400510Y-39095745D03*
D24*
%TO.N,unconnected-(SW21-Pad3)_16*%
X77415965Y-42670846D03*
D39*
%TO.N,unconnected-(SW21-Pad3)_5*%
X77267553Y-40957286D03*
D30*
%TO.N,unconnected-(SW21-Pad3)_3*%
X78332373Y-50621230D03*
%TD*%
D22*
%TO.P,SW16,1,1*%
%TO.N,/ROW 0*%
X47692126Y-57072337D03*
D40*
X48844696Y-56468014D03*
D24*
X50051146Y-55823728D03*
D25*
X52204383Y-68035344D03*
D41*
X51306716Y-56033894D03*
D22*
X52694949Y-56190204D03*
D42*
%TO.P,SW16,2,2*%
%TO.N,/COL 1*%
X45943049Y-54466472D03*
D43*
X47134667Y-54256358D03*
D44*
X48070234Y-54091392D03*
D30*
%TO.P,SW16,3,3*%
%TO.N,unconnected-(SW16-Pad3)_3*%
X46664296Y-66676730D03*
D24*
%TO.N,unconnected-(SW16-Pad3)_17*%
X45491768Y-58760065D03*
D22*
%TO.N,unconnected-(SW16-Pad3)_14*%
X46882486Y-59794282D03*
D25*
%TO.N,unconnected-(SW16-Pad3)_8*%
X47993264Y-66036227D03*
D45*
%TO.N,unconnected-(SW16-Pad3)_18*%
X47478231Y-60978828D03*
D46*
%TO.N,unconnected-(SW16-Pad3)_9*%
X48183937Y-64981086D03*
D47*
%TO.N,unconnected-(SW16-Pad3)_15*%
X48083387Y-62948106D03*
D48*
%TO.N,unconnected-(SW16-Pad3)_7*%
X51737268Y-65386212D03*
D44*
%TO.N,unconnected-(SW16-Pad3)_1*%
X51320100Y-53518353D03*
D43*
%TO.N,unconnected-(SW16-Pad3)_20*%
X52157186Y-53370752D03*
D47*
%TO.N,unconnected-(SW16-Pad3)_4*%
X54336915Y-61845441D03*
D49*
%TO.N,unconnected-(SW16-Pad3)_2*%
X54232043Y-59787949D03*
D50*
%TO.N,unconnected-(SW16-Pad3)_6*%
X54937749Y-63790207D03*
D25*
%TO.N,unconnected-(SW16-Pad3)_16*%
X55477803Y-64716500D03*
D51*
%TO.N,unconnected-(SW16-Pad3)_19*%
X53447285Y-53143273D03*
D22*
%TO.N,unconnected-(SW16-Pad3)_21*%
X54386721Y-58471083D03*
D52*
%TO.N,unconnected-(SW16-Pad3)_12*%
X54016664Y-53550589D03*
D24*
%TO.N,unconnected-(SW16-Pad3)_10*%
X55339846Y-57023584D03*
D53*
%TO.N,unconnected-(SW16-Pad3)_11*%
X55042652Y-55329478D03*
D30*
%TO.N,unconnected-(SW16-Pad3)_13*%
X56945689Y-64863843D03*
%TD*%
D22*
%TO.P,SW15,1,1*%
%TO.N,/ROW 0*%
X28931539Y-60380335D03*
D40*
X30084109Y-59776012D03*
D24*
X31290559Y-59131726D03*
D25*
X33443796Y-71343342D03*
D41*
X32546129Y-59341892D03*
D22*
X33934362Y-59498202D03*
D42*
%TO.P,SW15,2,2*%
%TO.N,/COL 0*%
X27182462Y-57774470D03*
D43*
X28374080Y-57564356D03*
D44*
X29309647Y-57399390D03*
D30*
%TO.P,SW15,3,3*%
%TO.N,unconnected-(SW15-Pad3)_5*%
X27903709Y-69984728D03*
D24*
%TO.N,unconnected-(SW15-Pad3)_1*%
X26731181Y-62068063D03*
D22*
%TO.N,unconnected-(SW15-Pad3)_15*%
X28121899Y-63102280D03*
D25*
%TO.N,unconnected-(SW15-Pad3)_4*%
X29232677Y-69344225D03*
D45*
%TO.N,unconnected-(SW15-Pad3)_3*%
X28717644Y-64286826D03*
D46*
%TO.N,unconnected-(SW15-Pad3)_8*%
X29423350Y-68289084D03*
D47*
%TO.N,unconnected-(SW15-Pad3)_21*%
X29322800Y-66256104D03*
D48*
%TO.N,unconnected-(SW15-Pad3)_11*%
X32976681Y-68694210D03*
D44*
%TO.N,unconnected-(SW15-Pad3)_12*%
X32559513Y-56826351D03*
D43*
%TO.N,unconnected-(SW15-Pad3)_20*%
X33396599Y-56678750D03*
D47*
%TO.N,unconnected-(SW15-Pad3)_10*%
X35576328Y-65153439D03*
D49*
%TO.N,unconnected-(SW15-Pad3)_9*%
X35471456Y-63095947D03*
D50*
%TO.N,unconnected-(SW15-Pad3)_17*%
X36177162Y-67098205D03*
D25*
%TO.N,unconnected-(SW15-Pad3)_16*%
X36717216Y-68024498D03*
D51*
%TO.N,unconnected-(SW15-Pad3)_6*%
X34686698Y-56451271D03*
D22*
%TO.N,unconnected-(SW15-Pad3)_7*%
X35626134Y-61779081D03*
D52*
%TO.N,unconnected-(SW15-Pad3)_2*%
X35256077Y-56858587D03*
D24*
%TO.N,unconnected-(SW15-Pad3)_14*%
X36579259Y-60331582D03*
D53*
%TO.N,unconnected-(SW15-Pad3)*%
X36282065Y-58637476D03*
D30*
%TO.N,unconnected-(SW15-Pad3)_18*%
X38185102Y-68171841D03*
%TD*%
D22*
%TO.P,SW23,1,1*%
%TO.N,/ROW 2*%
X73113731Y-80007890D03*
D23*
X74314586Y-79506319D03*
D24*
X75572598Y-78969634D03*
D25*
X76653329Y-91322449D03*
D26*
X76805073Y-79288430D03*
D22*
X78174400Y-79565138D03*
D27*
%TO.P,SW23,2,2*%
%TO.N,/COL 2*%
X71598427Y-77259499D03*
D28*
X72803823Y-77154040D03*
D29*
X73750208Y-77071242D03*
D30*
%TO.P,SW23,3,3*%
%TO.N,unconnected-(SW23-Pad3)_13*%
X71252735Y-89486154D03*
D24*
%TO.N,unconnected-(SW23-Pad3)_14*%
X70774652Y-81497422D03*
D22*
%TO.N,unconnected-(SW23-Pad3)_20*%
X72069940Y-82648912D03*
D25*
%TO.N,unconnected-(SW23-Pad3)_21*%
X72632469Y-88963915D03*
D31*
%TO.N,unconnected-(SW23-Pad3)_16*%
X72560178Y-83880873D03*
D32*
%TO.N,unconnected-(SW23-Pad3)_10*%
X72914379Y-87929408D03*
D33*
%TO.N,unconnected-(SW23-Pad3)_4*%
X72991397Y-85895400D03*
D34*
%TO.N,unconnected-(SW23-Pad3)_11*%
X76418878Y-88642685D03*
D29*
%TO.N,unconnected-(SW23-Pad3)_8*%
X77037650Y-76783628D03*
D28*
%TO.N,unconnected-(SW23-Pad3)_5*%
X77884416Y-76709546D03*
D33*
%TO.N,unconnected-(SW23-Pad3)_12*%
X79317231Y-85341962D03*
D35*
%TO.N,unconnected-(SW23-Pad3)_17*%
X79392081Y-83283159D03*
D36*
%TO.N,unconnected-(SW23-Pad3)*%
X79746282Y-87331694D03*
D25*
%TO.N,unconnected-(SW23-Pad3)_19*%
X80203549Y-88301531D03*
D37*
%TO.N,unconnected-(SW23-Pad3)_6*%
X79189431Y-76595372D03*
D22*
%TO.N,unconnected-(SW23-Pad3)_18*%
X79660943Y-81984785D03*
D38*
%TO.N,unconnected-(SW23-Pad3)_1*%
X79721144Y-77050763D03*
D24*
%TO.N,unconnected-(SW23-Pad3)_9*%
X80736599Y-80625864D03*
D39*
%TO.N,unconnected-(SW23-Pad3)_15*%
X80588187Y-78912304D03*
D30*
%TO.N,unconnected-(SW23-Pad3)_2*%
X81653007Y-88576248D03*
%TD*%
D22*
%TO.P,SW22,1,1*%
%TO.N,/ROW 1*%
X71453414Y-61030381D03*
D23*
X72654269Y-60528810D03*
D24*
X73912281Y-59992125D03*
D25*
X74993012Y-72344940D03*
D26*
X75144756Y-60310921D03*
D22*
X76514083Y-60587629D03*
D27*
%TO.P,SW22,2,2*%
%TO.N,/COL 2*%
X69938110Y-58281990D03*
D28*
X71143506Y-58176531D03*
D29*
X72089891Y-58093733D03*
D30*
%TO.P,SW22,3,3*%
%TO.N,unconnected-(SW22-Pad3)_14*%
X69592418Y-70508645D03*
D24*
%TO.N,unconnected-(SW22-Pad3)_19*%
X69114335Y-62519913D03*
D22*
%TO.N,unconnected-(SW22-Pad3)_13*%
X70409623Y-63671403D03*
D25*
%TO.N,unconnected-(SW22-Pad3)*%
X70972152Y-69986406D03*
D31*
%TO.N,unconnected-(SW22-Pad3)_9*%
X70899861Y-64903364D03*
D32*
%TO.N,unconnected-(SW22-Pad3)_20*%
X71254062Y-68951899D03*
D33*
%TO.N,unconnected-(SW22-Pad3)_4*%
X71331080Y-66917891D03*
D34*
%TO.N,unconnected-(SW22-Pad3)_5*%
X74758561Y-69665176D03*
D29*
%TO.N,unconnected-(SW22-Pad3)_21*%
X75377333Y-57806119D03*
D28*
%TO.N,unconnected-(SW22-Pad3)_1*%
X76224099Y-57732037D03*
D33*
%TO.N,unconnected-(SW22-Pad3)_6*%
X77656914Y-66364453D03*
D35*
%TO.N,unconnected-(SW22-Pad3)_11*%
X77731764Y-64305650D03*
D36*
%TO.N,unconnected-(SW22-Pad3)_8*%
X78085965Y-68354185D03*
D25*
%TO.N,unconnected-(SW22-Pad3)_12*%
X78543232Y-69324022D03*
D37*
%TO.N,unconnected-(SW22-Pad3)_2*%
X77529114Y-57617863D03*
D22*
%TO.N,unconnected-(SW22-Pad3)_7*%
X78000626Y-63007276D03*
D38*
%TO.N,unconnected-(SW22-Pad3)_10*%
X78060827Y-58073254D03*
D24*
%TO.N,unconnected-(SW22-Pad3)_18*%
X79076282Y-61648355D03*
D39*
%TO.N,unconnected-(SW22-Pad3)_15*%
X78927870Y-59934795D03*
D30*
%TO.N,unconnected-(SW22-Pad3)_16*%
X79992690Y-69598739D03*
%TD*%
D22*
%TO.P,SW20,1,1*%
%TO.N,/ROW 2*%
X54308122Y-94593512D03*
D40*
X55460692Y-93989189D03*
D24*
X56667142Y-93344903D03*
D25*
X58820379Y-105556519D03*
D41*
X57922712Y-93555069D03*
D22*
X59310945Y-93711379D03*
D42*
%TO.P,SW20,2,2*%
%TO.N,/COL 1*%
X52559045Y-91987647D03*
D43*
X53750663Y-91777533D03*
D44*
X54686230Y-91612567D03*
D30*
%TO.P,SW20,3,3*%
%TO.N,unconnected-(SW20-Pad3)_6*%
X53280292Y-104197905D03*
D24*
%TO.N,unconnected-(SW20-Pad3)_14*%
X52107764Y-96281240D03*
D22*
%TO.N,unconnected-(SW20-Pad3)_18*%
X53498482Y-97315457D03*
D25*
%TO.N,unconnected-(SW20-Pad3)_1*%
X54609260Y-103557402D03*
D45*
%TO.N,unconnected-(SW20-Pad3)_4*%
X54094227Y-98500003D03*
D46*
%TO.N,unconnected-(SW20-Pad3)_8*%
X54799933Y-102502261D03*
D47*
%TO.N,unconnected-(SW20-Pad3)_9*%
X54699383Y-100469281D03*
D48*
%TO.N,unconnected-(SW20-Pad3)_2*%
X58353264Y-102907387D03*
D44*
%TO.N,unconnected-(SW20-Pad3)_7*%
X57936096Y-91039528D03*
D43*
%TO.N,unconnected-(SW20-Pad3)_21*%
X58773182Y-90891927D03*
D47*
%TO.N,unconnected-(SW20-Pad3)_13*%
X60952911Y-99366616D03*
D49*
%TO.N,unconnected-(SW20-Pad3)_5*%
X60848039Y-97309124D03*
D50*
%TO.N,unconnected-(SW20-Pad3)_20*%
X61553745Y-101311382D03*
D25*
%TO.N,unconnected-(SW20-Pad3)_12*%
X62093799Y-102237675D03*
D51*
%TO.N,unconnected-(SW20-Pad3)_15*%
X60063281Y-90664448D03*
D22*
%TO.N,unconnected-(SW20-Pad3)_16*%
X61002717Y-95992258D03*
D52*
%TO.N,unconnected-(SW20-Pad3)_17*%
X60632660Y-91071764D03*
D24*
%TO.N,unconnected-(SW20-Pad3)_10*%
X61955842Y-94544759D03*
D53*
%TO.N,unconnected-(SW20-Pad3)*%
X61658648Y-92850653D03*
D30*
%TO.N,unconnected-(SW20-Pad3)_11*%
X63561685Y-102385018D03*
%TD*%
D22*
%TO.P,SW19,1,1*%
%TO.N,/ROW 2*%
X35547534Y-97901510D03*
D40*
X36700104Y-97297187D03*
D24*
X37906554Y-96652901D03*
D25*
X40059791Y-108864517D03*
D41*
X39162124Y-96863067D03*
D22*
X40550357Y-97019377D03*
D42*
%TO.P,SW19,2,2*%
%TO.N,/COL 0*%
X33798457Y-95295645D03*
D43*
X34990075Y-95085531D03*
D44*
X35925642Y-94920565D03*
D30*
%TO.P,SW19,3,3*%
%TO.N,unconnected-(SW19-Pad3)_9*%
X34519704Y-107505903D03*
D24*
%TO.N,unconnected-(SW19-Pad3)_10*%
X33347176Y-99589238D03*
D22*
%TO.N,unconnected-(SW19-Pad3)_11*%
X34737894Y-100623455D03*
D25*
%TO.N,unconnected-(SW19-Pad3)_20*%
X35848672Y-106865400D03*
D45*
%TO.N,unconnected-(SW19-Pad3)_16*%
X35333639Y-101808001D03*
D46*
%TO.N,unconnected-(SW19-Pad3)_2*%
X36039345Y-105810259D03*
D47*
%TO.N,unconnected-(SW19-Pad3)_1*%
X35938795Y-103777279D03*
D48*
%TO.N,unconnected-(SW19-Pad3)_6*%
X39592676Y-106215385D03*
D44*
%TO.N,unconnected-(SW19-Pad3)_5*%
X39175508Y-94347526D03*
D43*
%TO.N,unconnected-(SW19-Pad3)_7*%
X40012594Y-94199925D03*
D47*
%TO.N,unconnected-(SW19-Pad3)_19*%
X42192323Y-102674614D03*
D49*
%TO.N,unconnected-(SW19-Pad3)_15*%
X42087451Y-100617122D03*
D50*
%TO.N,unconnected-(SW19-Pad3)_17*%
X42793157Y-104619380D03*
D25*
%TO.N,unconnected-(SW19-Pad3)_14*%
X43333211Y-105545673D03*
D51*
%TO.N,unconnected-(SW19-Pad3)_18*%
X41302693Y-93972446D03*
D22*
%TO.N,unconnected-(SW19-Pad3)_4*%
X42242129Y-99300256D03*
D52*
%TO.N,unconnected-(SW19-Pad3)_3*%
X41872072Y-94379762D03*
D24*
%TO.N,unconnected-(SW19-Pad3)_12*%
X43195254Y-97852757D03*
D53*
%TO.N,unconnected-(SW19-Pad3)_21*%
X42898060Y-96158651D03*
D30*
%TO.N,unconnected-(SW19-Pad3)_8*%
X44801097Y-105693016D03*
%TD*%
D22*
%TO.P,SW18,1,1*%
%TO.N,/ROW 1*%
X51000124Y-75832925D03*
D40*
X52152694Y-75228602D03*
D24*
X53359144Y-74584316D03*
D25*
X55512381Y-86795932D03*
D41*
X54614714Y-74794482D03*
D22*
X56002947Y-74950792D03*
D42*
%TO.P,SW18,2,2*%
%TO.N,/COL 1*%
X49251047Y-73227060D03*
D43*
X50442665Y-73016946D03*
D44*
X51378232Y-72851980D03*
D30*
%TO.P,SW18,3,3*%
%TO.N,unconnected-(SW18-Pad3)_11*%
X49972294Y-85437318D03*
D24*
%TO.N,unconnected-(SW18-Pad3)*%
X48799766Y-77520653D03*
D22*
%TO.N,unconnected-(SW18-Pad3)_16*%
X50190484Y-78554870D03*
D25*
%TO.N,unconnected-(SW18-Pad3)_4*%
X51301262Y-84796815D03*
D45*
%TO.N,unconnected-(SW18-Pad3)_15*%
X50786229Y-79739416D03*
D46*
%TO.N,unconnected-(SW18-Pad3)_8*%
X51491935Y-83741674D03*
D47*
%TO.N,unconnected-(SW18-Pad3)_20*%
X51391385Y-81708694D03*
D48*
%TO.N,unconnected-(SW18-Pad3)_17*%
X55045266Y-84146800D03*
D44*
%TO.N,unconnected-(SW18-Pad3)_5*%
X54628098Y-72278941D03*
D43*
%TO.N,unconnected-(SW18-Pad3)_3*%
X55465184Y-72131340D03*
D47*
%TO.N,unconnected-(SW18-Pad3)_7*%
X57644913Y-80606029D03*
D49*
%TO.N,unconnected-(SW18-Pad3)_2*%
X57540041Y-78548537D03*
D50*
%TO.N,unconnected-(SW18-Pad3)_6*%
X58245747Y-82550795D03*
D25*
%TO.N,unconnected-(SW18-Pad3)_9*%
X58785801Y-83477088D03*
D51*
%TO.N,unconnected-(SW18-Pad3)_14*%
X56755283Y-71903861D03*
D22*
%TO.N,unconnected-(SW18-Pad3)_13*%
X57694719Y-77231671D03*
D52*
%TO.N,unconnected-(SW18-Pad3)_12*%
X57324662Y-72311177D03*
D24*
%TO.N,unconnected-(SW18-Pad3)_21*%
X58647844Y-75784172D03*
D53*
%TO.N,unconnected-(SW18-Pad3)_10*%
X58350650Y-74090066D03*
D30*
%TO.N,unconnected-(SW18-Pad3)_19*%
X60253687Y-83624431D03*
%TD*%
D22*
%TO.P,SW17,1,1*%
%TO.N,/ROW 1*%
X32239536Y-79140923D03*
D40*
X33392106Y-78536600D03*
D24*
X34598556Y-77892314D03*
D25*
X36751793Y-90103930D03*
D41*
X35854126Y-78102480D03*
D22*
X37242359Y-78258790D03*
D42*
%TO.P,SW17,2,2*%
%TO.N,/COL 0*%
X30490459Y-76535058D03*
D43*
X31682077Y-76324944D03*
D44*
X32617644Y-76159978D03*
D30*
%TO.P,SW17,3,3*%
%TO.N,unconnected-(SW17-Pad3)_9*%
X31211706Y-88745316D03*
D24*
%TO.N,unconnected-(SW17-Pad3)_6*%
X30039178Y-80828651D03*
D22*
%TO.N,unconnected-(SW17-Pad3)_4*%
X31429896Y-81862868D03*
D25*
%TO.N,unconnected-(SW17-Pad3)_1*%
X32540674Y-88104813D03*
D45*
%TO.N,unconnected-(SW17-Pad3)_8*%
X32025641Y-83047414D03*
D46*
%TO.N,unconnected-(SW17-Pad3)_3*%
X32731347Y-87049672D03*
D47*
%TO.N,unconnected-(SW17-Pad3)_12*%
X32630797Y-85016692D03*
D48*
%TO.N,unconnected-(SW17-Pad3)_14*%
X36284678Y-87454798D03*
D44*
%TO.N,unconnected-(SW17-Pad3)_20*%
X35867510Y-75586939D03*
D43*
%TO.N,unconnected-(SW17-Pad3)_17*%
X36704596Y-75439338D03*
D47*
%TO.N,unconnected-(SW17-Pad3)_11*%
X38884325Y-83914027D03*
D49*
%TO.N,unconnected-(SW17-Pad3)_15*%
X38779453Y-81856535D03*
D50*
%TO.N,unconnected-(SW17-Pad3)_7*%
X39485159Y-85858793D03*
D25*
%TO.N,unconnected-(SW17-Pad3)_5*%
X40025213Y-86785086D03*
D51*
%TO.N,unconnected-(SW17-Pad3)_18*%
X37994695Y-75211859D03*
D22*
%TO.N,unconnected-(SW17-Pad3)_2*%
X38934131Y-80539669D03*
D52*
%TO.N,unconnected-(SW17-Pad3)*%
X38564074Y-75619175D03*
D24*
%TO.N,unconnected-(SW17-Pad3)_16*%
X39887256Y-79092170D03*
D53*
%TO.N,unconnected-(SW17-Pad3)_13*%
X39590062Y-77398064D03*
D30*
%TO.N,unconnected-(SW17-Pad3)_19*%
X41493099Y-86932429D03*
%TD*%
D22*
%TO.P,SW14,1,1*%
%TO.N,/ROW 3*%
X162700295Y-119838602D03*
D54*
X163856415Y-120436108D03*
D24*
X165076174Y-121054826D03*
D25*
X156308050Y-129822950D03*
D55*
X165624182Y-122203875D03*
D22*
X166292398Y-123430705D03*
D56*
%TO.P,SW14,2,2*%
%TO.N,/COL 4*%
X163831666Y-116911180D03*
D57*
X164687265Y-117766779D03*
D58*
X165359017Y-118438531D03*
D30*
%TO.P,SW14,3,3*%
%TO.N,unconnected-(SW14-Pad3)_4*%
X154243298Y-124505507D03*
D24*
%TO.N,unconnected-(SW14-Pad3)_6*%
X160055716Y-119004216D03*
D22*
%TO.N,unconnected-(SW14-Pad3)_21*%
X160006218Y-120736628D03*
D25*
%TO.N,unconnected-(SW14-Pad3)_11*%
X155530232Y-125226756D03*
D59*
%TO.N,unconnected-(SW14-Pad3)_18*%
X159377600Y-121904061D03*
D60*
%TO.N,unconnected-(SW14-Pad3)_3*%
X156503919Y-124777743D03*
D61*
%TO.N,unconnected-(SW14-Pad3)_7*%
X158111565Y-123529308D03*
D62*
%TO.N,unconnected-(SW14-Pad3)_2*%
X158210166Y-127920831D03*
D58*
%TO.N,unconnected-(SW14-Pad3)_15*%
X167692469Y-120771983D03*
D57*
%TO.N,unconnected-(SW14-Pad3)_8*%
X168293510Y-121373024D03*
D61*
%TO.N,unconnected-(SW14-Pad3)_12*%
X162601692Y-128019435D03*
D63*
%TO.N,unconnected-(SW14-Pad3)_17*%
X164226939Y-126753400D03*
D64*
%TO.N,unconnected-(SW14-Pad3)_14*%
X161353257Y-129627081D03*
D25*
%TO.N,unconnected-(SW14-Pad3)_1*%
X160904244Y-130600768D03*
D65*
%TO.N,unconnected-(SW14-Pad3)_16*%
X169219820Y-122299334D03*
D22*
%TO.N,unconnected-(SW14-Pad3)_20*%
X165394372Y-126124782D03*
D66*
%TO.N,unconnected-(SW14-Pad3)_10*%
X169212749Y-122999370D03*
D24*
%TO.N,unconnected-(SW14-Pad3)_5*%
X167126784Y-126075284D03*
D67*
%TO.N,unconnected-(SW14-Pad3)*%
X168344050Y-124860139D03*
D30*
%TO.N,unconnected-(SW14-Pad3)_13*%
X161625493Y-131887702D03*
%TD*%
D22*
%TO.P,SW13,1,1*%
%TO.N,/ROW 3*%
X144358295Y-106600076D03*
D68*
X145629667Y-106877996D03*
D24*
X146968000Y-107159935D03*
D25*
X140768000Y-117898650D03*
D69*
X147794730Y-108127996D03*
D22*
X148757705Y-109140076D03*
D70*
%TO.P,SW13,2,2*%
%TO.N,/COL 3*%
X144693443Y-103479583D03*
D71*
X145741334Y-104084583D03*
D72*
X146564058Y-104559583D03*
D30*
%TO.P,SW13,3,3*%
%TO.N,unconnected-(SW13-Pad3)_4*%
X137397347Y-113296792D03*
D24*
%TO.N,unconnected-(SW13-Pad3)_17*%
X141587873Y-106478588D03*
D22*
%TO.N,unconnected-(SW13-Pad3)_7*%
X141988443Y-108164780D03*
D25*
%TO.N,unconnected-(SW13-Pad3)_21*%
X138827103Y-113660382D03*
D73*
%TO.N,unconnected-(SW13-Pad3)_11*%
X141683399Y-109455133D03*
D74*
%TO.N,unconnected-(SW13-Pad3)_1*%
X139651399Y-112974660D03*
D75*
%TO.N,unconnected-(SW13-Pad3)_8*%
X140881148Y-111352675D03*
D76*
%TO.N,unconnected-(SW13-Pad3)_10*%
X142112998Y-115569041D03*
D72*
%TO.N,unconnected-(SW13-Pad3)_20*%
X149421942Y-106209583D03*
D71*
%TO.N,unconnected-(SW13-Pad3)_18*%
X150158064Y-106634583D03*
D75*
%TO.N,unconnected-(SW13-Pad3)_2*%
X146380407Y-114527674D03*
D77*
%TO.N,unconnected-(SW13-Pad3)_13*%
X147622601Y-112884133D03*
D78*
%TO.N,unconnected-(SW13-Pad3)_9*%
X145590601Y-116403660D03*
D25*
%TO.N,unconnected-(SW13-Pad3)_14*%
X145408897Y-117460382D03*
D79*
%TO.N,unconnected-(SW13-Pad3)_6*%
X151292557Y-107289583D03*
D22*
%TO.N,unconnected-(SW13-Pad3)_5*%
X148587557Y-111974780D03*
D80*
%TO.N,unconnected-(SW13-Pad3)*%
X151466909Y-107967596D03*
D24*
%TO.N,unconnected-(SW13-Pad3)_19*%
X150248127Y-111478588D03*
D81*
%TO.N,unconnected-(SW13-Pad3)_15*%
X151109414Y-109989796D03*
D30*
%TO.N,unconnected-(SW13-Pad3)_12*%
X146438653Y-118516792D03*
%TD*%
D22*
%TO.P,SW12,1,1*%
%TO.N,/ROW 3*%
X153883295Y-90102292D03*
D68*
X155154667Y-90380212D03*
D24*
X156493000Y-90662151D03*
D25*
X150293000Y-101400866D03*
D69*
X157319730Y-91630212D03*
D22*
X158282705Y-92642292D03*
D70*
%TO.P,SW12,2,2*%
%TO.N,/COL 2*%
X154218443Y-86981799D03*
D71*
X155266334Y-87586799D03*
D72*
X156089058Y-88061799D03*
D30*
%TO.P,SW12,3,3*%
%TO.N,unconnected-(SW12-Pad3)_9*%
X146922347Y-96799008D03*
D24*
%TO.N,unconnected-(SW12-Pad3)_14*%
X151112873Y-89980804D03*
D22*
%TO.N,unconnected-(SW12-Pad3)_8*%
X151513443Y-91666996D03*
D25*
%TO.N,unconnected-(SW12-Pad3)_6*%
X148352103Y-97162598D03*
D73*
%TO.N,unconnected-(SW12-Pad3)_16*%
X151208399Y-92957349D03*
D74*
%TO.N,unconnected-(SW12-Pad3)_5*%
X149176399Y-96476876D03*
D75*
%TO.N,unconnected-(SW12-Pad3)_3*%
X150406148Y-94854891D03*
D76*
%TO.N,unconnected-(SW12-Pad3)_19*%
X151637998Y-99071257D03*
D72*
%TO.N,unconnected-(SW12-Pad3)_12*%
X158946942Y-89711799D03*
D71*
%TO.N,unconnected-(SW12-Pad3)_4*%
X159683064Y-90136799D03*
D75*
%TO.N,unconnected-(SW12-Pad3)*%
X155905407Y-98029890D03*
D77*
%TO.N,unconnected-(SW12-Pad3)_15*%
X157147601Y-96386349D03*
D78*
%TO.N,unconnected-(SW12-Pad3)_1*%
X155115601Y-99905876D03*
D25*
%TO.N,unconnected-(SW12-Pad3)_10*%
X154933897Y-100962598D03*
D79*
%TO.N,unconnected-(SW12-Pad3)_18*%
X160817557Y-90791799D03*
D22*
%TO.N,unconnected-(SW12-Pad3)_21*%
X158112557Y-95476996D03*
D80*
%TO.N,unconnected-(SW12-Pad3)_11*%
X160991909Y-91469812D03*
D24*
%TO.N,unconnected-(SW12-Pad3)_13*%
X159773127Y-94980804D03*
D81*
%TO.N,unconnected-(SW12-Pad3)_17*%
X160634414Y-93492012D03*
D30*
%TO.N,unconnected-(SW12-Pad3)_7*%
X155963653Y-102019008D03*
%TD*%
D22*
%TO.P,SW11,1,1*%
%TO.N,/ROW 3*%
X123214901Y-98559900D03*
D82*
X124514883Y-98499295D03*
D24*
X125880584Y-98425242D03*
D25*
X122671228Y-110402722D03*
D83*
X126929697Y-99146343D03*
D22*
X128121804Y-99874701D03*
D84*
%TO.P,SW11,2,2*%
%TO.N,/COL 1*%
X122730986Y-95458993D03*
D85*
X123899756Y-95772164D03*
D86*
X124817386Y-96018042D03*
D30*
%TO.P,SW11,3,3*%
%TO.N,unconnected-(SW11-Pad3)_7*%
X118224379Y-106830057D03*
D24*
%TO.N,unconnected-(SW11-Pad3)_19*%
X120507435Y-99159591D03*
D22*
%TO.N,unconnected-(SW11-Pad3)_2*%
X121330775Y-100684652D03*
D25*
%TO.N,unconnected-(SW11-Pad3)_9*%
X119699521Y-106811210D03*
D87*
%TO.N,unconnected-(SW11-Pad3)_20*%
X121370093Y-102009988D03*
D88*
%TO.N,unconnected-(SW11-Pad3)_3*%
X120318252Y-105935510D03*
D89*
%TO.N,unconnected-(SW11-Pad3)_15*%
X121086297Y-104050510D03*
D90*
%TO.N,unconnected-(SW11-Pad3)_21*%
X123367450Y-107804381D03*
D86*
%TO.N,unconnected-(SW11-Pad3)_10*%
X128004941Y-96872145D03*
D85*
%TO.N,unconnected-(SW11-Pad3)_4*%
X128825978Y-97092141D03*
D89*
%TO.N,unconnected-(SW11-Pad3)_8*%
X127219924Y-105694011D03*
D91*
%TO.N,unconnected-(SW11-Pad3)_14*%
X127994412Y-103784969D03*
D92*
%TO.N,unconnected-(SW11-Pad3)_13*%
X126942571Y-107710491D03*
D25*
%TO.N,unconnected-(SW11-Pad3)_16*%
X127040558Y-108778235D03*
D93*
%TO.N,unconnected-(SW11-Pad3)_18*%
X130091341Y-97431194D03*
D22*
%TO.N,unconnected-(SW11-Pad3)_1*%
X128691130Y-102656853D03*
D94*
%TO.N,unconnected-(SW11-Pad3)_6*%
X130435235Y-98040978D03*
D24*
%TO.N,unconnected-(SW11-Pad3)_17*%
X130166694Y-101747781D03*
D95*
%TO.N,unconnected-(SW11-Pad3)*%
X130613305Y-100086801D03*
D30*
%TO.N,unconnected-(SW11-Pad3)_11*%
X128308645Y-109532128D03*
%TD*%
D22*
%TO.P,SW10,1,1*%
%TO.N,/ROW 3*%
X100711000Y-96266000D03*
D96*
X101951000Y-95871000D03*
D24*
X103251000Y-95446000D03*
D25*
X103251000Y-107846000D03*
D97*
X104451000Y-95871000D03*
D22*
X105791000Y-96266000D03*
D20*
%TO.P,SW10,2,2*%
%TO.N,/COL 0*%
X99441000Y-93396000D03*
D98*
X100651000Y-93396000D03*
D99*
X101601000Y-93396000D03*
D30*
%TO.P,SW10,3,3*%
%TO.N,unconnected-(SW10-Pad3)_1*%
X98031000Y-105546000D03*
D24*
%TO.N,unconnected-(SW10-Pad3)_12*%
X98251000Y-97546000D03*
D22*
%TO.N,unconnected-(SW10-Pad3)_10*%
X99441000Y-98806000D03*
D25*
%TO.N,unconnected-(SW10-Pad3)_15*%
X99451000Y-105146000D03*
D100*
%TO.N,unconnected-(SW10-Pad3)_9*%
X99822000Y-100076000D03*
D101*
%TO.N,unconnected-(SW10-Pad3)_3*%
X99822000Y-104140000D03*
D102*
%TO.N,unconnected-(SW10-Pad3)_8*%
X100076001Y-102120445D03*
D103*
%TO.N,unconnected-(SW10-Pad3)_4*%
X103250998Y-105156000D03*
D99*
%TO.N,unconnected-(SW10-Pad3)_19*%
X104901000Y-93396000D03*
D98*
%TO.N,unconnected-(SW10-Pad3)_21*%
X105751000Y-93396000D03*
D102*
%TO.N,unconnected-(SW10-Pad3)_20*%
X106425999Y-102120445D03*
D104*
%TO.N,unconnected-(SW10-Pad3)_11*%
X106680000Y-100076000D03*
D105*
%TO.N,unconnected-(SW10-Pad3)_7*%
X106680000Y-104140000D03*
D25*
%TO.N,unconnected-(SW10-Pad3)_13*%
X107051000Y-105146000D03*
D106*
%TO.N,unconnected-(SW10-Pad3)_18*%
X107061000Y-93396000D03*
D22*
%TO.N,unconnected-(SW10-Pad3)_5*%
X107061000Y-98806000D03*
D107*
%TO.N,unconnected-(SW10-Pad3)_2*%
X107551000Y-93896000D03*
D24*
%TO.N,unconnected-(SW10-Pad3)_6*%
X108251000Y-97546000D03*
D108*
%TO.N,unconnected-(SW10-Pad3)*%
X108252500Y-95826025D03*
D30*
%TO.N,unconnected-(SW10-Pad3)_16*%
X108471000Y-105546000D03*
%TD*%
D22*
%TO.P,SW9,1,1*%
%TO.N,/ROW 2*%
X130810000Y-80073500D03*
D96*
X132050000Y-79678500D03*
D24*
X133350000Y-79253500D03*
D25*
X133350000Y-91653500D03*
D97*
X134550000Y-79678500D03*
D22*
X135890000Y-80073500D03*
D20*
%TO.P,SW9,2,2*%
%TO.N,/COL 5*%
X129540000Y-77203500D03*
D98*
X130750000Y-77203500D03*
D99*
X131700000Y-77203500D03*
D30*
%TO.P,SW9,3,3*%
%TO.N,unconnected-(SW9-Pad3)_7*%
X128130000Y-89353500D03*
D24*
%TO.N,unconnected-(SW9-Pad3)_9*%
X128350000Y-81353500D03*
D22*
%TO.N,unconnected-(SW9-Pad3)_10*%
X129540000Y-82613500D03*
D25*
%TO.N,unconnected-(SW9-Pad3)_13*%
X129550000Y-88953500D03*
D100*
%TO.N,unconnected-(SW9-Pad3)_1*%
X129921000Y-83883500D03*
D101*
%TO.N,unconnected-(SW9-Pad3)_3*%
X129921000Y-87947500D03*
D102*
%TO.N,unconnected-(SW9-Pad3)_12*%
X130175001Y-85927945D03*
D103*
%TO.N,unconnected-(SW9-Pad3)_18*%
X133349998Y-88963500D03*
D99*
%TO.N,unconnected-(SW9-Pad3)_19*%
X135000000Y-77203500D03*
D98*
%TO.N,unconnected-(SW9-Pad3)_20*%
X135850000Y-77203500D03*
D102*
%TO.N,unconnected-(SW9-Pad3)_17*%
X136524999Y-85927945D03*
D104*
%TO.N,unconnected-(SW9-Pad3)_21*%
X136779000Y-83883500D03*
D105*
%TO.N,unconnected-(SW9-Pad3)_14*%
X136779000Y-87947500D03*
D25*
%TO.N,unconnected-(SW9-Pad3)_15*%
X137150000Y-88953500D03*
D106*
%TO.N,unconnected-(SW9-Pad3)_16*%
X137160000Y-77203500D03*
D22*
%TO.N,unconnected-(SW9-Pad3)*%
X137160000Y-82613500D03*
D107*
%TO.N,unconnected-(SW9-Pad3)_11*%
X137650000Y-77703500D03*
D24*
%TO.N,unconnected-(SW9-Pad3)_5*%
X138350000Y-81353500D03*
D108*
%TO.N,unconnected-(SW9-Pad3)_8*%
X138351500Y-79633525D03*
D30*
%TO.N,unconnected-(SW9-Pad3)_6*%
X138570000Y-89353500D03*
%TD*%
D22*
%TO.P,SW8,1,1*%
%TO.N,/ROW 2*%
X111760000Y-77216000D03*
D96*
X113000000Y-76821000D03*
D24*
X114300000Y-76396000D03*
D25*
X114300000Y-88796000D03*
D97*
X115500000Y-76821000D03*
D22*
X116840000Y-77216000D03*
D20*
%TO.P,SW8,2,2*%
%TO.N,/COL 4*%
X110490000Y-74346000D03*
D98*
X111700000Y-74346000D03*
D99*
X112650000Y-74346000D03*
D30*
%TO.P,SW8,3,3*%
%TO.N,unconnected-(SW8-Pad3)_20*%
X109080000Y-86496000D03*
D24*
%TO.N,unconnected-(SW8-Pad3)_14*%
X109300000Y-78496000D03*
D22*
%TO.N,unconnected-(SW8-Pad3)_13*%
X110490000Y-79756000D03*
D25*
%TO.N,unconnected-(SW8-Pad3)_11*%
X110500000Y-86096000D03*
D100*
%TO.N,unconnected-(SW8-Pad3)_10*%
X110871000Y-81026000D03*
D101*
%TO.N,unconnected-(SW8-Pad3)_5*%
X110871000Y-85090000D03*
D102*
%TO.N,unconnected-(SW8-Pad3)_6*%
X111125001Y-83070445D03*
D103*
%TO.N,unconnected-(SW8-Pad3)_17*%
X114299998Y-86106000D03*
D99*
%TO.N,unconnected-(SW8-Pad3)_4*%
X115950000Y-74346000D03*
D98*
%TO.N,unconnected-(SW8-Pad3)_8*%
X116800000Y-74346000D03*
D102*
%TO.N,unconnected-(SW8-Pad3)_19*%
X117474999Y-83070445D03*
D104*
%TO.N,unconnected-(SW8-Pad3)_3*%
X117729000Y-81026000D03*
D105*
%TO.N,unconnected-(SW8-Pad3)_18*%
X117729000Y-85090000D03*
D25*
%TO.N,unconnected-(SW8-Pad3)_15*%
X118100000Y-86096000D03*
D106*
%TO.N,unconnected-(SW8-Pad3)_7*%
X118110000Y-74346000D03*
D22*
%TO.N,unconnected-(SW8-Pad3)_12*%
X118110000Y-79756000D03*
D107*
%TO.N,unconnected-(SW8-Pad3)_9*%
X118600000Y-74846000D03*
D24*
%TO.N,unconnected-(SW8-Pad3)_2*%
X119300000Y-78496000D03*
D108*
%TO.N,unconnected-(SW8-Pad3)_21*%
X119301500Y-76776025D03*
D30*
%TO.N,unconnected-(SW8-Pad3)_16*%
X119520000Y-86496000D03*
%TD*%
D22*
%TO.P,SW7,1,1*%
%TO.N,/ROW 2*%
X92710000Y-71120000D03*
D96*
X93950000Y-70725000D03*
D24*
X95250000Y-70300000D03*
D25*
X95250000Y-82700000D03*
D97*
X96450000Y-70725000D03*
D22*
X97790000Y-71120000D03*
D20*
%TO.P,SW7,2,2*%
%TO.N,/COL 3*%
X91440000Y-68250000D03*
D98*
X92650000Y-68250000D03*
D99*
X93600000Y-68250000D03*
D30*
%TO.P,SW7,3,3*%
%TO.N,unconnected-(SW7-Pad3)_18*%
X90030000Y-80400000D03*
D24*
%TO.N,unconnected-(SW7-Pad3)_21*%
X90250000Y-72400000D03*
D22*
%TO.N,unconnected-(SW7-Pad3)_1*%
X91440000Y-73660000D03*
D25*
%TO.N,unconnected-(SW7-Pad3)_9*%
X91450000Y-80000000D03*
D100*
%TO.N,unconnected-(SW7-Pad3)_13*%
X91821000Y-74930000D03*
D101*
%TO.N,unconnected-(SW7-Pad3)_17*%
X91821000Y-78994000D03*
D102*
%TO.N,unconnected-(SW7-Pad3)_20*%
X92075001Y-76974445D03*
D103*
%TO.N,unconnected-(SW7-Pad3)_5*%
X95249998Y-80010000D03*
D99*
%TO.N,unconnected-(SW7-Pad3)_6*%
X96900000Y-68250000D03*
D98*
%TO.N,unconnected-(SW7-Pad3)_2*%
X97750000Y-68250000D03*
D102*
%TO.N,unconnected-(SW7-Pad3)_7*%
X98424999Y-76974445D03*
D104*
%TO.N,unconnected-(SW7-Pad3)_8*%
X98679000Y-74930000D03*
D105*
%TO.N,unconnected-(SW7-Pad3)_16*%
X98679000Y-78994000D03*
D25*
%TO.N,unconnected-(SW7-Pad3)*%
X99050000Y-80000000D03*
D106*
%TO.N,unconnected-(SW7-Pad3)_15*%
X99060000Y-68250000D03*
D22*
%TO.N,unconnected-(SW7-Pad3)_10*%
X99060000Y-73660000D03*
D107*
%TO.N,unconnected-(SW7-Pad3)_4*%
X99550000Y-68750000D03*
D24*
%TO.N,unconnected-(SW7-Pad3)_3*%
X100250000Y-72400000D03*
D108*
%TO.N,unconnected-(SW7-Pad3)_14*%
X100251500Y-70680025D03*
D30*
%TO.N,unconnected-(SW7-Pad3)_19*%
X100470000Y-80400000D03*
%TD*%
D22*
%TO.P,SW6,1,1*%
%TO.N,/ROW 1*%
X130810000Y-61023500D03*
D96*
X132050000Y-60628500D03*
D24*
X133350000Y-60203500D03*
D25*
X133350000Y-72603500D03*
D97*
X134550000Y-60628500D03*
D22*
X135890000Y-61023500D03*
D20*
%TO.P,SW6,2,2*%
%TO.N,/COL 5*%
X129540000Y-58153500D03*
D98*
X130750000Y-58153500D03*
D99*
X131700000Y-58153500D03*
D30*
%TO.P,SW6,3,3*%
%TO.N,unconnected-(SW6-Pad3)_7*%
X128130000Y-70303500D03*
D24*
%TO.N,unconnected-(SW6-Pad3)_6*%
X128350000Y-62303500D03*
D22*
%TO.N,unconnected-(SW6-Pad3)_2*%
X129540000Y-63563500D03*
D25*
%TO.N,unconnected-(SW6-Pad3)_15*%
X129550000Y-69903500D03*
D100*
%TO.N,unconnected-(SW6-Pad3)_9*%
X129921000Y-64833500D03*
D101*
%TO.N,unconnected-(SW6-Pad3)*%
X129921000Y-68897500D03*
D102*
%TO.N,unconnected-(SW6-Pad3)_11*%
X130175001Y-66877945D03*
D103*
%TO.N,unconnected-(SW6-Pad3)_13*%
X133349998Y-69913500D03*
D99*
%TO.N,unconnected-(SW6-Pad3)_14*%
X135000000Y-58153500D03*
D98*
%TO.N,unconnected-(SW6-Pad3)_5*%
X135850000Y-58153500D03*
D102*
%TO.N,unconnected-(SW6-Pad3)_1*%
X136524999Y-66877945D03*
D104*
%TO.N,unconnected-(SW6-Pad3)_21*%
X136779000Y-64833500D03*
D105*
%TO.N,unconnected-(SW6-Pad3)_12*%
X136779000Y-68897500D03*
D25*
%TO.N,unconnected-(SW6-Pad3)_16*%
X137150000Y-69903500D03*
D106*
%TO.N,unconnected-(SW6-Pad3)_8*%
X137160000Y-58153500D03*
D22*
%TO.N,unconnected-(SW6-Pad3)_3*%
X137160000Y-63563500D03*
D107*
%TO.N,unconnected-(SW6-Pad3)_20*%
X137650000Y-58653500D03*
D24*
%TO.N,unconnected-(SW6-Pad3)_17*%
X138350000Y-62303500D03*
D108*
%TO.N,unconnected-(SW6-Pad3)_18*%
X138351500Y-60583525D03*
D30*
%TO.N,unconnected-(SW6-Pad3)_4*%
X138570000Y-70303500D03*
%TD*%
D22*
%TO.P,SW5,1,1*%
%TO.N,/ROW 1*%
X111760000Y-58166000D03*
D96*
X113000000Y-57771000D03*
D24*
X114300000Y-57346000D03*
D25*
X114300000Y-69746000D03*
D97*
X115500000Y-57771000D03*
D22*
X116840000Y-58166000D03*
D20*
%TO.P,SW5,2,2*%
%TO.N,/COL 4*%
X110490000Y-55296000D03*
D98*
X111700000Y-55296000D03*
D99*
X112650000Y-55296000D03*
D30*
%TO.P,SW5,3,3*%
%TO.N,unconnected-(SW5-Pad3)_5*%
X109080000Y-67446000D03*
D24*
%TO.N,unconnected-(SW5-Pad3)_20*%
X109300000Y-59446000D03*
D22*
%TO.N,unconnected-(SW5-Pad3)_1*%
X110490000Y-60706000D03*
D25*
%TO.N,unconnected-(SW5-Pad3)_12*%
X110500000Y-67046000D03*
D100*
%TO.N,unconnected-(SW5-Pad3)_2*%
X110871000Y-61976000D03*
D101*
%TO.N,unconnected-(SW5-Pad3)_10*%
X110871000Y-66040000D03*
D102*
%TO.N,unconnected-(SW5-Pad3)_18*%
X111125001Y-64020445D03*
D103*
%TO.N,unconnected-(SW5-Pad3)_14*%
X114299998Y-67056000D03*
D99*
%TO.N,unconnected-(SW5-Pad3)_13*%
X115950000Y-55296000D03*
D98*
%TO.N,unconnected-(SW5-Pad3)_4*%
X116800000Y-55296000D03*
D102*
%TO.N,unconnected-(SW5-Pad3)_21*%
X117474999Y-64020445D03*
D104*
%TO.N,unconnected-(SW5-Pad3)_3*%
X117729000Y-61976000D03*
D105*
%TO.N,unconnected-(SW5-Pad3)_6*%
X117729000Y-66040000D03*
D25*
%TO.N,unconnected-(SW5-Pad3)_17*%
X118100000Y-67046000D03*
D106*
%TO.N,unconnected-(SW5-Pad3)_16*%
X118110000Y-55296000D03*
D22*
%TO.N,unconnected-(SW5-Pad3)_15*%
X118110000Y-60706000D03*
D107*
%TO.N,unconnected-(SW5-Pad3)_9*%
X118600000Y-55796000D03*
D24*
%TO.N,unconnected-(SW5-Pad3)_7*%
X119300000Y-59446000D03*
D108*
%TO.N,unconnected-(SW5-Pad3)_8*%
X119301500Y-57726025D03*
D30*
%TO.N,unconnected-(SW5-Pad3)*%
X119520000Y-67446000D03*
%TD*%
D22*
%TO.P,SW4,1,1*%
%TO.N,/ROW 1*%
X92710000Y-52070000D03*
D96*
X93950000Y-51675000D03*
D24*
X95250000Y-51250000D03*
D25*
X95250000Y-63650000D03*
D97*
X96450000Y-51675000D03*
D22*
X97790000Y-52070000D03*
D20*
%TO.P,SW4,2,2*%
%TO.N,/COL 3*%
X91440000Y-49200000D03*
D98*
X92650000Y-49200000D03*
D99*
X93600000Y-49200000D03*
D30*
%TO.P,SW4,3,3*%
%TO.N,unconnected-(SW4-Pad3)_1*%
X90030000Y-61350000D03*
D24*
%TO.N,unconnected-(SW4-Pad3)_20*%
X90250000Y-53350000D03*
D22*
%TO.N,unconnected-(SW4-Pad3)_10*%
X91440000Y-54610000D03*
D25*
%TO.N,unconnected-(SW4-Pad3)_19*%
X91450000Y-60950000D03*
D100*
%TO.N,unconnected-(SW4-Pad3)_17*%
X91821000Y-55880000D03*
D101*
%TO.N,unconnected-(SW4-Pad3)_14*%
X91821000Y-59944000D03*
D102*
%TO.N,unconnected-(SW4-Pad3)_3*%
X92075001Y-57924445D03*
D103*
%TO.N,unconnected-(SW4-Pad3)*%
X95249998Y-60960000D03*
D99*
%TO.N,unconnected-(SW4-Pad3)_7*%
X96900000Y-49200000D03*
D98*
%TO.N,unconnected-(SW4-Pad3)_5*%
X97750000Y-49200000D03*
D102*
%TO.N,unconnected-(SW4-Pad3)_18*%
X98424999Y-57924445D03*
D104*
%TO.N,unconnected-(SW4-Pad3)_11*%
X98679000Y-55880000D03*
D105*
%TO.N,unconnected-(SW4-Pad3)_4*%
X98679000Y-59944000D03*
D25*
%TO.N,unconnected-(SW4-Pad3)_8*%
X99050000Y-60950000D03*
D106*
%TO.N,unconnected-(SW4-Pad3)_13*%
X99060000Y-49200000D03*
D22*
%TO.N,unconnected-(SW4-Pad3)_12*%
X99060000Y-54610000D03*
D107*
%TO.N,unconnected-(SW4-Pad3)_15*%
X99550000Y-49700000D03*
D24*
%TO.N,unconnected-(SW4-Pad3)_2*%
X100250000Y-53350000D03*
D108*
%TO.N,unconnected-(SW4-Pad3)_6*%
X100251500Y-51630025D03*
D30*
%TO.N,unconnected-(SW4-Pad3)_16*%
X100470000Y-61350000D03*
%TD*%
D22*
%TO.P,SW3,1,1*%
%TO.N,/ROW 0*%
X130810000Y-41973500D03*
D96*
X132050000Y-41578500D03*
D24*
X133350000Y-41153500D03*
D25*
X133350000Y-53553500D03*
D97*
X134550000Y-41578500D03*
D22*
X135890000Y-41973500D03*
D20*
%TO.P,SW3,2,2*%
%TO.N,/COL 5*%
X129540000Y-39103500D03*
D98*
X130750000Y-39103500D03*
D99*
X131700000Y-39103500D03*
D30*
%TO.P,SW3,3,3*%
%TO.N,unconnected-(SW3-Pad3)_6*%
X128130000Y-51253500D03*
D24*
%TO.N,unconnected-(SW3-Pad3)_3*%
X128350000Y-43253500D03*
D22*
%TO.N,unconnected-(SW3-Pad3)_10*%
X129540000Y-44513500D03*
D25*
%TO.N,unconnected-(SW3-Pad3)*%
X129550000Y-50853500D03*
D100*
%TO.N,unconnected-(SW3-Pad3)_9*%
X129921000Y-45783500D03*
D101*
%TO.N,unconnected-(SW3-Pad3)_15*%
X129921000Y-49847500D03*
D102*
%TO.N,unconnected-(SW3-Pad3)_8*%
X130175001Y-47827945D03*
D103*
%TO.N,unconnected-(SW3-Pad3)_2*%
X133349998Y-50863500D03*
D99*
%TO.N,unconnected-(SW3-Pad3)_7*%
X135000000Y-39103500D03*
D98*
%TO.N,unconnected-(SW3-Pad3)_11*%
X135850000Y-39103500D03*
D102*
%TO.N,unconnected-(SW3-Pad3)_4*%
X136524999Y-47827945D03*
D104*
%TO.N,unconnected-(SW3-Pad3)_1*%
X136779000Y-45783500D03*
D105*
%TO.N,unconnected-(SW3-Pad3)_17*%
X136779000Y-49847500D03*
D25*
%TO.N,unconnected-(SW3-Pad3)_14*%
X137150000Y-50853500D03*
D106*
%TO.N,unconnected-(SW3-Pad3)_20*%
X137160000Y-39103500D03*
D22*
%TO.N,unconnected-(SW3-Pad3)_5*%
X137160000Y-44513500D03*
D107*
%TO.N,unconnected-(SW3-Pad3)_21*%
X137650000Y-39603500D03*
D24*
%TO.N,unconnected-(SW3-Pad3)_13*%
X138350000Y-43253500D03*
D108*
%TO.N,unconnected-(SW3-Pad3)_16*%
X138351500Y-41533525D03*
D30*
%TO.N,unconnected-(SW3-Pad3)_18*%
X138570000Y-51253500D03*
%TD*%
D22*
%TO.P,SW2,1,1*%
%TO.N,/ROW 0*%
X111760000Y-39116000D03*
D96*
X113000000Y-38721000D03*
D24*
X114300000Y-38296000D03*
D25*
X114300000Y-50696000D03*
D97*
X115500000Y-38721000D03*
D22*
X116840000Y-39116000D03*
D20*
%TO.P,SW2,2,2*%
%TO.N,/COL 4*%
X110490000Y-36246000D03*
D98*
X111700000Y-36246000D03*
D99*
X112650000Y-36246000D03*
D30*
%TO.P,SW2,3,3*%
%TO.N,unconnected-(SW2-Pad3)_5*%
X109080000Y-48396000D03*
D24*
%TO.N,unconnected-(SW2-Pad3)_8*%
X109300000Y-40396000D03*
D22*
%TO.N,unconnected-(SW2-Pad3)_18*%
X110490000Y-41656000D03*
D25*
%TO.N,unconnected-(SW2-Pad3)_17*%
X110500000Y-47996000D03*
D100*
%TO.N,unconnected-(SW2-Pad3)_14*%
X110871000Y-42926000D03*
D101*
%TO.N,unconnected-(SW2-Pad3)_7*%
X110871000Y-46990000D03*
D102*
%TO.N,unconnected-(SW2-Pad3)_15*%
X111125001Y-44970445D03*
D103*
%TO.N,unconnected-(SW2-Pad3)_20*%
X114299998Y-48006000D03*
D99*
%TO.N,unconnected-(SW2-Pad3)_1*%
X115950000Y-36246000D03*
D98*
%TO.N,unconnected-(SW2-Pad3)_4*%
X116800000Y-36246000D03*
D102*
%TO.N,unconnected-(SW2-Pad3)_6*%
X117474999Y-44970445D03*
D104*
%TO.N,unconnected-(SW2-Pad3)_13*%
X117729000Y-42926000D03*
D105*
%TO.N,unconnected-(SW2-Pad3)_10*%
X117729000Y-46990000D03*
D25*
%TO.N,unconnected-(SW2-Pad3)_19*%
X118100000Y-47996000D03*
D106*
%TO.N,unconnected-(SW2-Pad3)_9*%
X118110000Y-36246000D03*
D22*
%TO.N,unconnected-(SW2-Pad3)_11*%
X118110000Y-41656000D03*
D107*
%TO.N,unconnected-(SW2-Pad3)_12*%
X118600000Y-36746000D03*
D24*
%TO.N,unconnected-(SW2-Pad3)*%
X119300000Y-40396000D03*
D108*
%TO.N,unconnected-(SW2-Pad3)_3*%
X119301500Y-38676025D03*
D30*
%TO.N,unconnected-(SW2-Pad3)_2*%
X119520000Y-48396000D03*
%TD*%
D22*
%TO.P,SW1,1,1*%
%TO.N,/ROW 0*%
X92710000Y-33020000D03*
D96*
X93950000Y-32625000D03*
D24*
X95250000Y-32200000D03*
D25*
X95250000Y-44600000D03*
D97*
X96450000Y-32625000D03*
D22*
X97790000Y-33020000D03*
D20*
%TO.P,SW1,2,2*%
%TO.N,/COL 3*%
X91440000Y-30150000D03*
D98*
X92650000Y-30150000D03*
D99*
X93600000Y-30150000D03*
D30*
%TO.P,SW1,3,3*%
%TO.N,unconnected-(SW1-Pad3)_19*%
X90030000Y-42300000D03*
D24*
%TO.N,unconnected-(SW1-Pad3)_13*%
X90250000Y-34300000D03*
D22*
%TO.N,unconnected-(SW1-Pad3)_11*%
X91440000Y-35560000D03*
D25*
%TO.N,unconnected-(SW1-Pad3)*%
X91450000Y-41900000D03*
D100*
%TO.N,unconnected-(SW1-Pad3)_6*%
X91821000Y-36830000D03*
D101*
%TO.N,unconnected-(SW1-Pad3)_21*%
X91821000Y-40894000D03*
D102*
%TO.N,unconnected-(SW1-Pad3)_10*%
X92075001Y-38874445D03*
D103*
%TO.N,unconnected-(SW1-Pad3)_1*%
X95249998Y-41910000D03*
D99*
%TO.N,unconnected-(SW1-Pad3)_18*%
X96900000Y-30150000D03*
D98*
%TO.N,unconnected-(SW1-Pad3)_14*%
X97750000Y-30150000D03*
D102*
%TO.N,unconnected-(SW1-Pad3)_8*%
X98424999Y-38874445D03*
D104*
%TO.N,unconnected-(SW1-Pad3)_12*%
X98679000Y-36830000D03*
D105*
%TO.N,unconnected-(SW1-Pad3)_3*%
X98679000Y-40894000D03*
D25*
%TO.N,unconnected-(SW1-Pad3)_15*%
X99050000Y-41900000D03*
D106*
%TO.N,unconnected-(SW1-Pad3)_17*%
X99060000Y-30150000D03*
D22*
%TO.N,unconnected-(SW1-Pad3)_2*%
X99060000Y-35560000D03*
D107*
%TO.N,unconnected-(SW1-Pad3)_4*%
X99550000Y-30650000D03*
D24*
%TO.N,unconnected-(SW1-Pad3)_16*%
X100250000Y-34300000D03*
D108*
%TO.N,unconnected-(SW1-Pad3)_20*%
X100251500Y-32580025D03*
D30*
%TO.N,unconnected-(SW1-Pad3)_5*%
X100470000Y-42300000D03*
%TD*%
D109*
%TO.P,MSW1,1,1*%
%TO.N,Net-(U101-RST)*%
X149168000Y-58205350D03*
D110*
X149168000Y-58205350D03*
D109*
%TO.P,MSW1,2,2*%
%TO.N,+BATT*%
X149168000Y-61605350D03*
D110*
X149168000Y-61605350D03*
%TD*%
D111*
%TO.P,J2,1,Pin_1*%
%TO.N,GND*%
X175584000Y-55587350D03*
%TD*%
%TO.P,J1,1,Pin_1*%
%TO.N,+BATT*%
X169996000Y-49745350D03*
%TD*%
D112*
%TO.N,/COL 4*%
X148152000Y-102831350D03*
%TO.N,/ROW 0*%
X150494079Y-50959271D03*
X162147159Y-49516509D03*
X145866000Y-53553500D03*
%TO.N,/ROW 1*%
X145866000Y-58635350D03*
%TO.N,/ROW 2*%
X144850000Y-73875350D03*
%TO.N,/ROW 3*%
X145793011Y-87294391D03*
%TO.N,/COL 0*%
X135960000Y-93433350D03*
%TO.N,/COL 1*%
X141040000Y-91147350D03*
%TD*%
D113*
%TO.N,/COL 2*%
X159860981Y-88061799D02*
X156089058Y-88061799D01*
X164154000Y-92354818D02*
X159860981Y-88061799D01*
X164154000Y-105371350D02*
X164154000Y-92354818D01*
X149854558Y-119670792D02*
X164154000Y-105371350D01*
X145612000Y-119341350D02*
X145941442Y-119670792D01*
X145941442Y-119670792D02*
X149854558Y-119670792D01*
X139516000Y-119341350D02*
X145612000Y-119341350D01*
X133928000Y-113753350D02*
X139516000Y-119341350D01*
X133928000Y-97751350D02*
X133928000Y-113753350D01*
X130201847Y-94025197D02*
X133928000Y-97751350D01*
X123089847Y-94025197D02*
X130201847Y-94025197D01*
X86430000Y-89623350D02*
X88240650Y-91434000D01*
X120498650Y-91434000D02*
X123089847Y-94025197D01*
X86430000Y-82003350D02*
X86430000Y-89623350D01*
X88240650Y-91434000D02*
X120498650Y-91434000D01*
X79768022Y-75341372D02*
X86430000Y-82003350D01*
X75480078Y-75341372D02*
X79768022Y-75341372D01*
X73750208Y-77071242D02*
X75480078Y-75341372D01*
%TO.N,GND*%
X174451778Y-42516447D02*
X174892000Y-42516447D01*
X173606000Y-47034774D02*
X173606000Y-43362225D01*
X173044000Y-47596774D02*
X173606000Y-47034774D01*
X175584000Y-53594639D02*
X173044000Y-51054639D01*
X173044000Y-51054639D02*
X173044000Y-47596774D01*
X173606000Y-43362225D02*
X174451778Y-42516447D01*
X175584000Y-55587350D02*
X175584000Y-53594639D01*
%TO.N,/ROW 1*%
X145866000Y-56857350D02*
X145866000Y-58635350D01*
X151962000Y-50761350D02*
X145866000Y-56857350D01*
X166831424Y-48729350D02*
X161868000Y-48729350D01*
X168526000Y-47034774D02*
X166831424Y-48729350D01*
X168526000Y-40868250D02*
X168526000Y-47034774D01*
X168481000Y-40823250D02*
X168526000Y-40868250D01*
X159836000Y-50761350D02*
X151962000Y-50761350D01*
X161868000Y-48729350D02*
X159836000Y-50761350D01*
X169304000Y-40000250D02*
X168481000Y-40823250D01*
%TO.N,/ROW 0*%
X147899850Y-53553500D02*
X145866000Y-53553500D01*
X150494079Y-50959271D02*
X147899850Y-53553500D01*
%TO.N,/ROW 3*%
X158398000Y-40746250D02*
X159144000Y-40000250D01*
X158398000Y-47373350D02*
X158398000Y-40746250D01*
X156586000Y-49185350D02*
X158398000Y-47373350D01*
X143780000Y-53355350D02*
X147950000Y-49185350D01*
X147950000Y-49185350D02*
X156586000Y-49185350D01*
X143780000Y-79663350D02*
X143780000Y-53355350D01*
X145793011Y-81676361D02*
X143780000Y-79663350D01*
X145793011Y-87294391D02*
X145793011Y-81676361D01*
%TO.N,/COL 4*%
X146374000Y-101053350D02*
X148152000Y-102831350D01*
X143072000Y-101053350D02*
X146374000Y-101053350D01*
X139008000Y-96989350D02*
X143072000Y-101053350D01*
X127832000Y-91147350D02*
X130858294Y-91147350D01*
X130858294Y-91147350D02*
X136700294Y-96989350D01*
X136700294Y-96989350D02*
X139008000Y-96989350D01*
X121778150Y-85093500D02*
X127832000Y-91147350D01*
X121778150Y-75949500D02*
X121778150Y-85093500D01*
X112650000Y-74346000D02*
X113904000Y-73092000D01*
X113904000Y-73092000D02*
X118920650Y-73092000D01*
X118920650Y-73092000D02*
X121778150Y-75949500D01*
%TO.N,/ROW 3*%
X150293000Y-103834935D02*
X146968000Y-107159935D01*
X150293000Y-101400866D02*
X150293000Y-103834935D01*
%TO.N,/ROW 0*%
X171066000Y-40778250D02*
X171844000Y-40000250D01*
X171066000Y-47034774D02*
X171066000Y-40778250D01*
X169178000Y-47769350D02*
X170331424Y-47769350D01*
X162147159Y-49516509D02*
X167430841Y-49516509D01*
X167430841Y-49516509D02*
X169178000Y-47769350D01*
X170331424Y-47769350D02*
X171066000Y-47034774D01*
%TO.N,/ROW 2*%
X148243264Y-49893350D02*
X144850000Y-53286614D01*
X144850000Y-53286614D02*
X144850000Y-73875350D01*
X160906000Y-47034774D02*
X158047424Y-49893350D01*
X160906000Y-40778250D02*
X160906000Y-47034774D01*
X158047424Y-49893350D02*
X148243264Y-49893350D01*
X161684000Y-40000250D02*
X160906000Y-40778250D01*
%TO.N,/COL 0*%
X140836318Y-93433350D02*
X135960000Y-93433350D01*
X143072000Y-91197668D02*
X140836318Y-93433350D01*
X143072000Y-52285350D02*
X143072000Y-91197668D01*
X146880000Y-48477350D02*
X143072000Y-52285350D01*
X155826000Y-45469926D02*
X155826000Y-47034774D01*
X155781000Y-45424926D02*
X155826000Y-45469926D01*
X155781000Y-40823250D02*
X155781000Y-45424926D01*
X156604000Y-40000250D02*
X155781000Y-40823250D01*
X155826000Y-47034774D02*
X154383424Y-48477350D01*
X154383424Y-48477350D02*
X146880000Y-48477350D01*
%TO.N,GND*%
X173235185Y-40000250D02*
X174384000Y-40000250D01*
X170885685Y-37650750D02*
X173235185Y-40000250D01*
X170320000Y-37650750D02*
X170885685Y-37650750D01*
X167970500Y-40000250D02*
X170320000Y-37650750D01*
X166764000Y-40000250D02*
X167970500Y-40000250D01*
X164224000Y-40000250D02*
X166764000Y-40000250D01*
%TO.N,/COL 1*%
X153286000Y-40778250D02*
X154064000Y-40000250D01*
X153286000Y-47034774D02*
X153286000Y-40778250D01*
X152551424Y-47769350D02*
X153286000Y-47034774D01*
X142310000Y-51523350D02*
X146064000Y-47769350D01*
X141040000Y-91147350D02*
X142310000Y-89877350D01*
X142310000Y-89877350D02*
X142310000Y-51523350D01*
X146064000Y-47769350D02*
X152551424Y-47769350D01*
%TO.N,/COL 3*%
X138636527Y-30021350D02*
X135676527Y-32981350D01*
X145666000Y-30755926D02*
X144931424Y-30021350D01*
X148477239Y-40000250D02*
X145666000Y-37189011D01*
X144931424Y-30021350D02*
X138636527Y-30021350D01*
X148984000Y-40000250D02*
X148477239Y-40000250D01*
X145666000Y-37189011D02*
X145666000Y-30755926D01*
%TO.N,/COL 4*%
X140870065Y-34992000D02*
X113904000Y-34992000D01*
X145878315Y-40000250D02*
X140870065Y-34992000D01*
X146444000Y-40000250D02*
X145878315Y-40000250D01*
X113904000Y-34992000D02*
X112650000Y-36246000D01*
%TO.N,/COL 5*%
X131852150Y-36791350D02*
X129540000Y-39103500D01*
X140695100Y-36791350D02*
X131852150Y-36791350D01*
X143904000Y-40000250D02*
X140695100Y-36791350D01*
%TO.N,/COL 3*%
X91440000Y-47529350D02*
X91440000Y-49200000D01*
X104210000Y-46697350D02*
X92272000Y-46697350D01*
X92272000Y-46697350D02*
X91440000Y-47529350D01*
X135676527Y-32981350D02*
X109544000Y-32981350D01*
X109544000Y-32981350D02*
X104210000Y-38315350D01*
X104210000Y-38315350D02*
X104210000Y-46697350D01*
%TO.N,/COL 5*%
X126245100Y-73908600D02*
X129540000Y-77203500D01*
X126245100Y-61448400D02*
X126245100Y-73908600D01*
X129540000Y-58153500D02*
X126245100Y-61448400D01*
X126245100Y-54858600D02*
X129540000Y-58153500D01*
X129540000Y-39103500D02*
X126245100Y-42398400D01*
X126245100Y-42398400D02*
X126245100Y-54858600D01*
%TO.N,/COL 3*%
X140657497Y-103479583D02*
X144693443Y-103479583D01*
X130495111Y-93317197D02*
X140657497Y-103479583D01*
X105040650Y-90200000D02*
X122312650Y-90200000D01*
X104718000Y-89877350D02*
X105040650Y-90200000D01*
X122312650Y-90200000D02*
X125429847Y-93317197D01*
X97860000Y-89877350D02*
X104718000Y-89877350D01*
X125429847Y-93317197D02*
X130495111Y-93317197D01*
X88145100Y-71544900D02*
X88145100Y-80162450D01*
X88145100Y-80162450D02*
X97860000Y-89877350D01*
X91440000Y-68250000D02*
X88145100Y-71544900D01*
%TO.N,/COL 4*%
X107195100Y-58590900D02*
X110490000Y-55296000D01*
X107195100Y-71051100D02*
X107195100Y-58590900D01*
X110490000Y-74346000D02*
X107195100Y-71051100D01*
X107195100Y-39540900D02*
X107195100Y-52001100D01*
X110490000Y-36246000D02*
X107195100Y-39540900D01*
X107195100Y-52001100D02*
X110490000Y-55296000D01*
%TO.N,/COL 3*%
X88145100Y-64955100D02*
X91440000Y-68250000D01*
X88145100Y-52494900D02*
X88145100Y-64955100D01*
X91440000Y-49200000D02*
X88145100Y-52494900D01*
X88145100Y-45905100D02*
X91440000Y-49200000D01*
X88145100Y-33444900D02*
X88145100Y-45905100D01*
X91440000Y-30150000D02*
X88145100Y-33444900D01*
%TO.N,/COL 2*%
X67290696Y-72951768D02*
X67290696Y-60929404D01*
X67290696Y-60929404D02*
X69938110Y-58281990D01*
X71598427Y-77259499D02*
X67290696Y-72951768D01*
X65630379Y-53974259D02*
X69938110Y-58281990D01*
X65630379Y-41951895D02*
X65630379Y-53974259D01*
X68277793Y-39304481D02*
X65630379Y-41951895D01*
%TO.N,/COL 1*%
X86684000Y-94703350D02*
X89245350Y-92142000D01*
X70682000Y-94703350D02*
X86684000Y-94703350D01*
X64586000Y-88607350D02*
X70682000Y-94703350D01*
X57691447Y-88607350D02*
X64586000Y-88607350D01*
X54686230Y-91612567D02*
X57691447Y-88607350D01*
X89245350Y-92142000D02*
X119413993Y-92142000D01*
X119413993Y-92142000D02*
X122730986Y-95458993D01*
X47360766Y-75117341D02*
X49251047Y-73227060D01*
X47360766Y-86789368D02*
X47360766Y-75117341D01*
X52559045Y-91987647D02*
X47360766Y-86789368D01*
%TO.N,/COL 0*%
X89515350Y-93396000D02*
X99441000Y-93396000D01*
X44138584Y-110451350D02*
X61177350Y-107446956D01*
X86747044Y-96164306D02*
X89515350Y-93396000D01*
X34868000Y-110451350D02*
X44138584Y-110451350D01*
X31058000Y-106641350D02*
X34868000Y-110451350D01*
X31058000Y-98036102D02*
X31058000Y-106641350D01*
X72460000Y-96164306D02*
X86747044Y-96164306D01*
X33798457Y-95295645D02*
X31058000Y-98036102D01*
X61177350Y-107446956D02*
X72460000Y-96164306D01*
%TO.N,/COL 1*%
X43963273Y-56446248D02*
X43963273Y-67939286D01*
X45943049Y-54466472D02*
X43963273Y-56446248D01*
X43963273Y-67939286D02*
X49251047Y-73227060D01*
%TO.N,/COL 0*%
X28510683Y-90007871D02*
X33798457Y-95295645D01*
X30490459Y-76535058D02*
X28510683Y-78514834D01*
X28510683Y-78514834D02*
X28510683Y-90007871D01*
X25202686Y-71247285D02*
X30490459Y-76535058D01*
X25202686Y-60735750D02*
X25202686Y-71247285D01*
X28374080Y-57564356D02*
X25202686Y-60735750D01*
%TD*%
M02*
