%TF.GenerationSoftware,KiCad,Pcbnew,8.0.6*%
%TF.CreationDate,2025-05-26T15:16:57+09:00*%
%TF.ProjectId,hillside_speedrun,68696c6c-7369-4646-955f-737065656472,rev?*%
%TF.SameCoordinates,Original*%
%TF.FileFunction,Soldermask,Bot*%
%TF.FilePolarity,Negative*%
%FSLAX46Y46*%
G04 Gerber Fmt 4.6, Leading zero omitted, Abs format (unit mm)*
G04 Created by KiCad (PCBNEW 8.0.6) date 2025-05-26 15:16:57*
%MOMM*%
%LPD*%
G01*
G04 APERTURE LIST*
G04 Aperture macros list*
%AMRoundRect*
0 Rectangle with rounded corners*
0 $1 Rounding radius*
0 $2 $3 $4 $5 $6 $7 $8 $9 X,Y pos of 4 corners*
0 Add a 4 corners polygon primitive as box body*
4,1,4,$2,$3,$4,$5,$6,$7,$8,$9,$2,$3,0*
0 Add four circle primitives for the rounded corners*
1,1,$1+$1,$2,$3*
1,1,$1+$1,$4,$5*
1,1,$1+$1,$6,$7*
1,1,$1+$1,$8,$9*
0 Add four rect primitives between the rounded corners*
20,1,$1+$1,$2,$3,$4,$5,0*
20,1,$1+$1,$4,$5,$6,$7,0*
20,1,$1+$1,$6,$7,$8,$9,0*
20,1,$1+$1,$8,$9,$2,$3,0*%
%AMHorizOval*
0 Thick line with rounded ends*
0 $1 width*
0 $2 $3 position (X,Y) of the first rounded end (center of the circle)*
0 $4 $5 position (X,Y) of the second rounded end (center of the circle)*
0 Add line between two ends*
20,1,$1,$2,$3,$4,$5,0*
0 Add two circle primitives to create the rounded ends*
1,1,$1,$2,$3*
1,1,$1,$4,$5*%
%AMRotRect*
0 Rectangle, with rotation*
0 The origin of the aperture is its center*
0 $1 length*
0 $2 width*
0 $3 Rotation angle, in degrees counterclockwise*
0 Add horizontal line*
21,1,$1,$2,0,0,$3*%
%AMFreePoly0*
4,1,6,0.150000,0.000000,0.650000,-0.750000,-0.500000,-0.750000,-0.500000,0.750000,0.650000,0.750000,0.150000,0.000000,0.150000,0.000000,$1*%
%AMFreePoly1*
4,1,6,0.500000,-0.750000,-0.500000,-0.750000,-1.000000,0.000000,-0.500000,0.750000,0.500000,0.750000,0.500000,-0.750000,0.500000,-0.750000,$1*%
G04 Aperture macros list end*
%ADD10FreePoly0,90.000000*%
%ADD11FreePoly0,270.000000*%
%ADD12FreePoly1,90.000000*%
%ADD13C,1.600000*%
%ADD14R,1.600000X1.600000*%
%ADD15FreePoly1,270.000000*%
%ADD16HorizOval,1.701800X-0.209201X-0.018303X0.209201X0.018303X0*%
%ADD17C,4.400000*%
%ADD18C,2.200000*%
%ADD19C,1.970000*%
%ADD20C,1.900000*%
%ADD21RotRect,1.600000X1.600000X95.000000*%
%ADD22RoundRect,0.225000X0.191460X0.393183X-0.256827X0.353963X-0.191460X-0.393183X0.256827X-0.353963X0*%
%ADD23C,1.400000*%
%ADD24HorizOval,1.600000X0.000000X0.000000X0.000000X0.000000X0*%
%ADD25HorizOval,1.701800X-0.206810X-0.036466X0.206810X0.036466X0*%
%ADD26RotRect,1.600000X1.600000X100.000000*%
%ADD27RoundRect,0.225000X0.156464X0.408374X-0.286700X0.330232X-0.156464X-0.408374X0.286700X-0.330232X0*%
%ADD28HorizOval,1.600000X0.000000X0.000000X0.000000X0.000000X0*%
%ADD29HorizOval,1.701800X-0.148492X0.148492X0.148492X-0.148492X0*%
%ADD30RotRect,1.600000X1.600000X45.000000*%
%ADD31RoundRect,0.225000X0.424264X0.106066X0.106066X0.424264X-0.424264X-0.106066X-0.106066X-0.424264X0*%
%ADD32HorizOval,1.600000X0.000000X0.000000X0.000000X0.000000X0*%
%ADD33HorizOval,1.701800X-0.181865X0.105000X0.181865X-0.105000X0*%
%ADD34RotRect,1.600000X1.600000X60.000000*%
%ADD35RoundRect,0.225000X0.382356X0.212260X-0.007356X0.437260X-0.382356X-0.212260X0.007356X-0.437260X0*%
%ADD36HorizOval,1.600000X0.000000X0.000000X0.000000X0.000000X0*%
%ADD37HorizOval,1.701800X-0.202844X0.054352X0.202844X-0.054352X0*%
%ADD38RotRect,1.600000X1.600000X75.000000*%
%ADD39RoundRect,0.225000X0.314390X0.303988X-0.120276X0.420456X-0.314390X-0.303988X0.120276X-0.420456X0*%
%ADD40HorizOval,1.600000X0.000000X0.000000X0.000000X0.000000X0*%
%ADD41O,2.121800X1.701800*%
%ADD42RoundRect,0.225000X0.225000X0.375000X-0.225000X0.375000X-0.225000X-0.375000X0.225000X-0.375000X0*%
%ADD43O,1.600000X1.600000*%
%ADD44RoundRect,0.170000X-0.780000X0.170000X-0.780000X-0.170000X0.780000X-0.170000X0.780000X0.170000X0*%
%ADD45C,0.700000*%
%ADD46C,2.000000*%
G04 APERTURE END LIST*
%TO.C,U101*%
G36*
X175642000Y-44475350D02*
G01*
X174142000Y-44475350D01*
X174142000Y-42025350D01*
X175642000Y-42025350D01*
X175642000Y-44475350D01*
G37*
G36*
X175642000Y-35765350D02*
G01*
X174142000Y-35765350D01*
X174142000Y-33315350D01*
X175642000Y-33315350D01*
X175642000Y-35765350D01*
G37*
G36*
X173102000Y-44475350D02*
G01*
X171602000Y-44475350D01*
X171602000Y-42025350D01*
X173102000Y-42025350D01*
X173102000Y-44475350D01*
G37*
G36*
X173102000Y-35765350D02*
G01*
X171602000Y-35765350D01*
X171602000Y-33315350D01*
X173102000Y-33315350D01*
X173102000Y-35765350D01*
G37*
G36*
X170562000Y-44475350D02*
G01*
X169062000Y-44475350D01*
X169062000Y-42025350D01*
X170562000Y-42025350D01*
X170562000Y-44475350D01*
G37*
G36*
X170562000Y-35765350D02*
G01*
X169062000Y-35765350D01*
X169062000Y-33315350D01*
X170562000Y-33315350D01*
X170562000Y-35765350D01*
G37*
G36*
X168022000Y-44475350D02*
G01*
X166522000Y-44475350D01*
X166522000Y-42025350D01*
X168022000Y-42025350D01*
X168022000Y-44475350D01*
G37*
G36*
X168022000Y-35765350D02*
G01*
X166522000Y-35765350D01*
X166522000Y-33315350D01*
X168022000Y-33315350D01*
X168022000Y-35765350D01*
G37*
G36*
X165482000Y-44475350D02*
G01*
X163982000Y-44475350D01*
X163982000Y-42025350D01*
X165482000Y-42025350D01*
X165482000Y-44475350D01*
G37*
G36*
X165482000Y-35765350D02*
G01*
X163982000Y-35765350D01*
X163982000Y-33315350D01*
X165482000Y-33315350D01*
X165482000Y-35765350D01*
G37*
G36*
X162942000Y-44475350D02*
G01*
X161442000Y-44475350D01*
X161442000Y-42025350D01*
X162942000Y-42025350D01*
X162942000Y-44475350D01*
G37*
G36*
X162942000Y-35765350D02*
G01*
X161442000Y-35765350D01*
X161442000Y-33315350D01*
X162942000Y-33315350D01*
X162942000Y-35765350D01*
G37*
G36*
X160402000Y-44475350D02*
G01*
X158902000Y-44475350D01*
X158902000Y-42025350D01*
X160402000Y-42025350D01*
X160402000Y-44475350D01*
G37*
G36*
X160402000Y-35765350D02*
G01*
X158902000Y-35765350D01*
X158902000Y-33315350D01*
X160402000Y-33315350D01*
X160402000Y-35765350D01*
G37*
G36*
X157862000Y-44475350D02*
G01*
X156362000Y-44475350D01*
X156362000Y-42025350D01*
X157862000Y-42025350D01*
X157862000Y-44475350D01*
G37*
G36*
X157862000Y-35765350D02*
G01*
X156362000Y-35765350D01*
X156362000Y-33315350D01*
X157862000Y-33315350D01*
X157862000Y-35765350D01*
G37*
G36*
X155322000Y-44475350D02*
G01*
X153822000Y-44475350D01*
X153822000Y-42025350D01*
X155322000Y-42025350D01*
X155322000Y-44475350D01*
G37*
G36*
X155322000Y-35765350D02*
G01*
X153822000Y-35765350D01*
X153822000Y-33315350D01*
X155322000Y-33315350D01*
X155322000Y-35765350D01*
G37*
G36*
X152782000Y-44475350D02*
G01*
X151282000Y-44475350D01*
X151282000Y-42025350D01*
X152782000Y-42025350D01*
X152782000Y-44475350D01*
G37*
G36*
X152782000Y-35765350D02*
G01*
X151282000Y-35765350D01*
X151282000Y-33315350D01*
X152782000Y-33315350D01*
X152782000Y-35765350D01*
G37*
G36*
X150242000Y-44475350D02*
G01*
X148742000Y-44475350D01*
X148742000Y-42025350D01*
X150242000Y-42025350D01*
X150242000Y-44475350D01*
G37*
G36*
X150242000Y-35765350D02*
G01*
X148742000Y-35765350D01*
X148742000Y-33315350D01*
X150242000Y-33315350D01*
X150242000Y-35765350D01*
G37*
G36*
X147702000Y-44475350D02*
G01*
X146202000Y-44475350D01*
X146202000Y-42025350D01*
X147702000Y-42025350D01*
X147702000Y-44475350D01*
G37*
G36*
X147702000Y-35765350D02*
G01*
X146202000Y-35765350D01*
X146202000Y-33315350D01*
X147702000Y-33315350D01*
X147702000Y-35765350D01*
G37*
G36*
X145162000Y-44475350D02*
G01*
X143662000Y-44475350D01*
X143662000Y-42025350D01*
X145162000Y-42025350D01*
X145162000Y-44475350D01*
G37*
G36*
X145162000Y-35765350D02*
G01*
X143662000Y-35765350D01*
X143662000Y-33315350D01*
X145162000Y-33315350D01*
X145162000Y-35765350D01*
G37*
%TD*%
D10*
%TO.C,U101*%
X172352000Y-35265350D03*
X169812000Y-35265350D03*
X167272000Y-35265350D03*
X164732000Y-35265350D03*
X162192000Y-35265350D03*
X159652000Y-35265350D03*
X157112000Y-35265350D03*
X154572000Y-35265350D03*
X152032000Y-35265350D03*
X149492000Y-35265350D03*
X146952000Y-35265350D03*
X144412000Y-35265350D03*
D11*
X144412000Y-42525350D03*
X146952000Y-42525350D03*
X149492000Y-42525350D03*
X152032000Y-42525350D03*
X154572000Y-42525350D03*
X157112000Y-42525350D03*
X159652000Y-42525350D03*
X162192000Y-42525350D03*
X164732000Y-42525350D03*
X167272000Y-42525350D03*
X169812000Y-42525350D03*
X172352000Y-42525350D03*
X174892000Y-42525350D03*
D10*
X174892000Y-35265350D03*
D12*
X144412000Y-33815350D03*
D13*
X144412000Y-31275350D03*
D12*
X146952000Y-33815350D03*
D13*
X146952000Y-31275350D03*
D12*
X149492000Y-33815350D03*
D13*
X149492000Y-31275350D03*
D12*
X152032000Y-33815350D03*
D13*
X152032000Y-31275350D03*
D12*
X154572000Y-33815350D03*
D13*
X154572000Y-31275350D03*
D12*
X157112000Y-33815350D03*
D13*
X157112000Y-31275350D03*
D12*
X159652000Y-33815350D03*
D13*
X159652000Y-31275350D03*
D12*
X162192000Y-33815350D03*
D13*
X162192000Y-31275350D03*
D12*
X164732000Y-33815350D03*
D13*
X164732000Y-31275350D03*
D12*
X167272000Y-33815350D03*
D13*
X167272000Y-31275350D03*
D12*
X169812000Y-33815350D03*
D13*
X169812000Y-31275350D03*
D12*
X172352000Y-33815350D03*
D13*
X172352000Y-31275350D03*
D12*
X174892000Y-33815350D03*
D14*
X174892000Y-31275350D03*
D13*
X174892000Y-46515350D03*
D15*
X174892000Y-43975350D03*
D13*
X172352000Y-46515350D03*
D15*
X172352000Y-43975350D03*
D13*
X169812000Y-46515350D03*
D15*
X169812000Y-43975350D03*
D13*
X167272000Y-46515350D03*
D15*
X167272000Y-43975350D03*
D13*
X164732000Y-46515350D03*
D15*
X164732000Y-43975350D03*
D13*
X162192000Y-46515350D03*
D15*
X162192000Y-43975350D03*
D13*
X159652000Y-46515350D03*
D15*
X159652000Y-43975350D03*
D13*
X157112000Y-46515350D03*
D15*
X157112000Y-43975350D03*
D13*
X154572000Y-46515350D03*
D15*
X154572000Y-43975350D03*
D13*
X152032000Y-46515350D03*
D15*
X152032000Y-43975350D03*
D13*
X149492000Y-46515350D03*
D15*
X149492000Y-43975350D03*
D13*
X146952000Y-46515350D03*
D15*
X146952000Y-43975350D03*
D13*
X144412000Y-46515350D03*
D15*
X144412000Y-43975350D03*
%TD*%
D16*
%TO.C,SW21*%
X67496313Y-47353219D03*
D17*
X72766183Y-46892165D03*
D16*
X78036053Y-46431111D03*
D18*
X69793097Y-42052872D03*
D19*
X72251964Y-41014616D03*
D20*
X73332695Y-53367431D03*
D18*
X74853766Y-41610120D03*
D21*
X68277793Y-39304481D03*
D22*
X70429574Y-39116224D03*
D23*
X67932101Y-51531136D03*
D19*
X67454018Y-43542404D03*
D18*
X68749306Y-44693894D03*
D20*
X69311835Y-51008897D03*
D22*
X73718012Y-38828523D03*
D20*
X76882915Y-50346513D03*
D24*
X75868797Y-38640354D03*
D18*
X76340309Y-44029767D03*
D19*
X77415965Y-42670846D03*
D23*
X78332373Y-50621230D03*
%TD*%
D25*
%TO.C,SW16*%
X45866037Y-62552693D03*
D17*
X51075670Y-61634094D03*
D25*
X56285303Y-60715495D03*
D18*
X47692126Y-57072337D03*
D19*
X50051146Y-55823728D03*
D20*
X52204383Y-68035344D03*
D18*
X52694949Y-56190204D03*
D26*
X45943049Y-54466472D03*
D27*
X48070234Y-54091392D03*
D23*
X46664296Y-66676730D03*
D19*
X45491768Y-58760065D03*
D18*
X46882486Y-59794282D03*
D20*
X47993264Y-66036227D03*
D27*
X51321085Y-53518179D03*
D20*
X55477803Y-64716500D03*
D28*
X53447285Y-53143273D03*
D18*
X54386721Y-58471083D03*
D19*
X55339846Y-57023584D03*
D23*
X56945689Y-64863843D03*
%TD*%
D25*
%TO.C,SW15*%
X27105450Y-65860691D03*
D17*
X32315083Y-64942092D03*
D25*
X37524716Y-64023493D03*
D18*
X28931539Y-60380335D03*
D19*
X31290559Y-59131726D03*
D20*
X33443796Y-71343342D03*
D18*
X33934362Y-59498202D03*
D26*
X27182462Y-57774470D03*
D27*
X29309647Y-57399390D03*
D23*
X27903709Y-69984728D03*
D19*
X26731181Y-62068063D03*
D18*
X28121899Y-63102280D03*
D20*
X29232677Y-69344225D03*
D27*
X32560498Y-56826177D03*
D20*
X36717216Y-68024498D03*
D28*
X34686698Y-56451271D03*
D18*
X35626134Y-61779081D03*
D19*
X36579259Y-60331582D03*
D23*
X38185102Y-68171841D03*
%TD*%
D16*
%TO.C,SW23*%
X70816947Y-85308237D03*
D17*
X76086817Y-84847183D03*
D16*
X81356687Y-84386129D03*
D18*
X73113731Y-80007890D03*
D19*
X75572598Y-78969634D03*
D20*
X76653329Y-91322449D03*
D18*
X78174400Y-79565138D03*
D21*
X71598427Y-77259499D03*
D22*
X73750208Y-77071242D03*
D23*
X71252735Y-89486154D03*
D19*
X70774652Y-81497422D03*
D18*
X72069940Y-82648912D03*
D20*
X72632469Y-88963915D03*
D22*
X77038646Y-76783541D03*
D20*
X80203549Y-88301531D03*
D24*
X79189431Y-76595372D03*
D18*
X79660943Y-81984785D03*
D19*
X80736599Y-80625864D03*
D23*
X81653007Y-88576248D03*
%TD*%
D16*
%TO.C,SW22*%
X69156630Y-66330728D03*
D17*
X74426500Y-65869674D03*
D16*
X79696370Y-65408620D03*
D18*
X71453414Y-61030381D03*
D19*
X73912281Y-59992125D03*
D20*
X74993012Y-72344940D03*
D18*
X76514083Y-60587629D03*
D21*
X69938110Y-58281990D03*
D22*
X72089891Y-58093733D03*
D23*
X69592418Y-70508645D03*
D19*
X69114335Y-62519913D03*
D18*
X70409623Y-63671403D03*
D20*
X70972152Y-69986406D03*
D22*
X75378329Y-57806032D03*
D20*
X78543232Y-69324022D03*
D24*
X77529114Y-57617863D03*
D18*
X78000626Y-63007276D03*
D19*
X79076282Y-61648355D03*
D23*
X79992690Y-69598739D03*
%TD*%
D25*
%TO.C,SW20*%
X52482033Y-100073868D03*
D17*
X57691666Y-99155269D03*
D25*
X62901299Y-98236670D03*
D18*
X54308122Y-94593512D03*
D19*
X56667142Y-93344903D03*
D20*
X58820379Y-105556519D03*
D18*
X59310945Y-93711379D03*
D26*
X52559045Y-91987647D03*
D27*
X54686230Y-91612567D03*
D23*
X53280292Y-104197905D03*
D19*
X52107764Y-96281240D03*
D18*
X53498482Y-97315457D03*
D20*
X54609260Y-103557402D03*
D27*
X57937081Y-91039354D03*
D20*
X62093799Y-102237675D03*
D28*
X60063281Y-90664448D03*
D18*
X61002717Y-95992258D03*
D19*
X61955842Y-94544759D03*
D23*
X63561685Y-102385018D03*
%TD*%
D25*
%TO.C,SW19*%
X33721445Y-103381866D03*
D17*
X38931078Y-102463267D03*
D25*
X44140711Y-101544668D03*
D18*
X35547534Y-97901510D03*
D19*
X37906554Y-96652901D03*
D20*
X40059791Y-108864517D03*
D18*
X40550357Y-97019377D03*
D26*
X33798457Y-95295645D03*
D27*
X35925642Y-94920565D03*
D23*
X34519704Y-107505903D03*
D19*
X33347176Y-99589238D03*
D18*
X34737894Y-100623455D03*
D20*
X35848672Y-106865400D03*
D27*
X39176493Y-94347352D03*
D20*
X43333211Y-105545673D03*
D28*
X41302693Y-93972446D03*
D18*
X42242129Y-99300256D03*
D19*
X43195254Y-97852757D03*
D23*
X44801097Y-105693016D03*
%TD*%
D25*
%TO.C,SW18*%
X49174035Y-81313281D03*
D17*
X54383668Y-80394682D03*
D25*
X59593301Y-79476083D03*
D18*
X51000124Y-75832925D03*
D19*
X53359144Y-74584316D03*
D20*
X55512381Y-86795932D03*
D18*
X56002947Y-74950792D03*
D26*
X49251047Y-73227060D03*
D27*
X51378232Y-72851980D03*
D23*
X49972294Y-85437318D03*
D19*
X48799766Y-77520653D03*
D18*
X50190484Y-78554870D03*
D20*
X51301262Y-84796815D03*
D27*
X54629083Y-72278767D03*
D20*
X58785801Y-83477088D03*
D28*
X56755283Y-71903861D03*
D18*
X57694719Y-77231671D03*
D19*
X58647844Y-75784172D03*
D23*
X60253687Y-83624431D03*
%TD*%
D25*
%TO.C,SW17*%
X30413447Y-84621279D03*
D17*
X35623080Y-83702680D03*
D25*
X40832713Y-82784081D03*
D18*
X32239536Y-79140923D03*
D19*
X34598556Y-77892314D03*
D20*
X36751793Y-90103930D03*
D18*
X37242359Y-78258790D03*
D26*
X30490459Y-76535058D03*
D27*
X32617644Y-76159978D03*
D23*
X31211706Y-88745316D03*
D19*
X30039178Y-80828651D03*
D18*
X31429896Y-81862868D03*
D20*
X32540674Y-88104813D03*
D27*
X35868495Y-75586765D03*
D20*
X40025213Y-86785086D03*
D28*
X37994695Y-75211859D03*
D18*
X38934131Y-80539669D03*
D19*
X39887256Y-79092170D03*
D23*
X41493099Y-86932429D03*
%TD*%
D29*
%TO.C,SW14*%
X157163649Y-121486161D03*
D17*
X160904244Y-125226756D03*
D29*
X164644839Y-128967351D03*
D18*
X162700295Y-119838602D03*
D19*
X165076174Y-121054826D03*
D20*
X156308050Y-129822950D03*
D18*
X166292398Y-123430705D03*
D30*
X163831666Y-116911180D03*
D31*
X165359017Y-118438531D03*
D23*
X154243298Y-124505507D03*
D19*
X160055716Y-119004216D03*
D18*
X160006218Y-120736628D03*
D20*
X155530232Y-125226756D03*
D31*
X167693176Y-120772690D03*
D20*
X160904244Y-130600768D03*
D32*
X169219820Y-122299334D03*
D18*
X165394372Y-126124782D03*
D19*
X167126784Y-126075284D03*
D23*
X161625493Y-131887702D03*
%TD*%
D33*
%TO.C,SW13*%
X139436726Y-109624485D03*
D17*
X144018000Y-112269485D03*
D33*
X148599274Y-114914485D03*
D18*
X144358295Y-106600076D03*
D19*
X146968000Y-107159935D03*
D20*
X140768000Y-117898650D03*
D18*
X148757705Y-109140076D03*
D34*
X144693443Y-103479583D03*
D35*
X146564058Y-104559583D03*
D23*
X137397347Y-113296792D03*
D19*
X141587873Y-106478588D03*
D18*
X141988443Y-108164780D03*
D20*
X138827103Y-113660382D03*
D35*
X149422808Y-106210083D03*
D20*
X145408897Y-117460382D03*
D36*
X151292557Y-107289583D03*
D18*
X148587557Y-111974780D03*
D19*
X150248127Y-111478588D03*
D23*
X146438653Y-118516792D03*
%TD*%
D33*
%TO.C,SW12*%
X148961726Y-93126701D03*
D17*
X153543000Y-95771701D03*
D33*
X158124274Y-98416701D03*
D18*
X153883295Y-90102292D03*
D19*
X156493000Y-90662151D03*
D20*
X150293000Y-101400866D03*
D18*
X158282705Y-92642292D03*
D34*
X154218443Y-86981799D03*
D35*
X156089058Y-88061799D03*
D23*
X146922347Y-96799008D03*
D19*
X151112873Y-89980804D03*
D18*
X151513443Y-91666996D03*
D20*
X148352103Y-97162598D03*
D35*
X158947808Y-89712299D03*
D20*
X154933897Y-100962598D03*
D36*
X160817557Y-90791799D03*
D18*
X158112557Y-95476996D03*
D19*
X159773127Y-94980804D03*
D23*
X155963653Y-102019008D03*
%TD*%
D37*
%TO.C,SW11*%
X119243804Y-102755051D03*
D17*
X124353552Y-104124204D03*
D37*
X129463300Y-105493357D03*
D18*
X123214901Y-98559900D03*
D19*
X125880584Y-98425242D03*
D20*
X122671228Y-110402722D03*
D18*
X128121804Y-99874701D03*
D38*
X122730986Y-95458993D03*
D39*
X124817386Y-96018042D03*
D23*
X118224379Y-106830057D03*
D19*
X120507435Y-99159591D03*
D18*
X121330775Y-100684652D03*
D20*
X119699521Y-106811210D03*
D39*
X128005907Y-96872404D03*
D20*
X127040558Y-108778235D03*
D40*
X130091341Y-97431194D03*
D18*
X128691130Y-102656853D03*
D19*
X130166694Y-101747781D03*
D23*
X128308645Y-109532128D03*
%TD*%
D41*
%TO.C,SW10*%
X97961000Y-101346000D03*
D17*
X103251000Y-101346000D03*
D41*
X108541000Y-101346000D03*
D18*
X100711000Y-96266000D03*
D19*
X103251000Y-95446000D03*
D20*
X103251000Y-107846000D03*
D18*
X105791000Y-96266000D03*
D14*
X99441000Y-93396000D03*
D42*
X101601000Y-93396000D03*
D23*
X98031000Y-105546000D03*
D19*
X98251000Y-97546000D03*
D18*
X99441000Y-98806000D03*
D20*
X99451000Y-105146000D03*
D42*
X104902000Y-93396000D03*
D20*
X107051000Y-105146000D03*
D43*
X107061000Y-93396000D03*
D18*
X107061000Y-98806000D03*
D19*
X108251000Y-97546000D03*
D23*
X108471000Y-105546000D03*
%TD*%
D41*
%TO.C,SW9*%
X128060000Y-85153500D03*
D17*
X133350000Y-85153500D03*
D41*
X138640000Y-85153500D03*
D18*
X130810000Y-80073500D03*
D19*
X133350000Y-79253500D03*
D20*
X133350000Y-91653500D03*
D18*
X135890000Y-80073500D03*
D14*
X129540000Y-77203500D03*
D42*
X131700000Y-77203500D03*
D23*
X128130000Y-89353500D03*
D19*
X128350000Y-81353500D03*
D18*
X129540000Y-82613500D03*
D20*
X129550000Y-88953500D03*
D42*
X135001000Y-77203500D03*
D20*
X137150000Y-88953500D03*
D43*
X137160000Y-77203500D03*
D18*
X137160000Y-82613500D03*
D19*
X138350000Y-81353500D03*
D23*
X138570000Y-89353500D03*
%TD*%
D41*
%TO.C,SW8*%
X109010000Y-82296000D03*
D17*
X114300000Y-82296000D03*
D41*
X119590000Y-82296000D03*
D18*
X111760000Y-77216000D03*
D19*
X114300000Y-76396000D03*
D20*
X114300000Y-88796000D03*
D18*
X116840000Y-77216000D03*
D14*
X110490000Y-74346000D03*
D42*
X112650000Y-74346000D03*
D23*
X109080000Y-86496000D03*
D19*
X109300000Y-78496000D03*
D18*
X110490000Y-79756000D03*
D20*
X110500000Y-86096000D03*
D42*
X115951000Y-74346000D03*
D20*
X118100000Y-86096000D03*
D43*
X118110000Y-74346000D03*
D18*
X118110000Y-79756000D03*
D19*
X119300000Y-78496000D03*
D23*
X119520000Y-86496000D03*
%TD*%
D41*
%TO.C,SW7*%
X89960000Y-76200000D03*
D17*
X95250000Y-76200000D03*
D41*
X100540000Y-76200000D03*
D18*
X92710000Y-71120000D03*
D19*
X95250000Y-70300000D03*
D20*
X95250000Y-82700000D03*
D18*
X97790000Y-71120000D03*
D14*
X91440000Y-68250000D03*
D42*
X93600000Y-68250000D03*
D23*
X90030000Y-80400000D03*
D19*
X90250000Y-72400000D03*
D18*
X91440000Y-73660000D03*
D20*
X91450000Y-80000000D03*
D42*
X96901000Y-68250000D03*
D20*
X99050000Y-80000000D03*
D43*
X99060000Y-68250000D03*
D18*
X99060000Y-73660000D03*
D19*
X100250000Y-72400000D03*
D23*
X100470000Y-80400000D03*
%TD*%
D41*
%TO.C,SW6*%
X128060000Y-66103500D03*
D17*
X133350000Y-66103500D03*
D41*
X138640000Y-66103500D03*
D18*
X130810000Y-61023500D03*
D19*
X133350000Y-60203500D03*
D20*
X133350000Y-72603500D03*
D18*
X135890000Y-61023500D03*
D14*
X129540000Y-58153500D03*
D42*
X131700000Y-58153500D03*
D23*
X128130000Y-70303500D03*
D19*
X128350000Y-62303500D03*
D18*
X129540000Y-63563500D03*
D20*
X129550000Y-69903500D03*
D42*
X135001000Y-58153500D03*
D20*
X137150000Y-69903500D03*
D43*
X137160000Y-58153500D03*
D18*
X137160000Y-63563500D03*
D19*
X138350000Y-62303500D03*
D23*
X138570000Y-70303500D03*
%TD*%
D41*
%TO.C,SW5*%
X109010000Y-63246000D03*
D17*
X114300000Y-63246000D03*
D41*
X119590000Y-63246000D03*
D18*
X111760000Y-58166000D03*
D19*
X114300000Y-57346000D03*
D20*
X114300000Y-69746000D03*
D18*
X116840000Y-58166000D03*
D14*
X110490000Y-55296000D03*
D42*
X112650000Y-55296000D03*
D23*
X109080000Y-67446000D03*
D19*
X109300000Y-59446000D03*
D18*
X110490000Y-60706000D03*
D20*
X110500000Y-67046000D03*
D42*
X115951000Y-55296000D03*
D20*
X118100000Y-67046000D03*
D43*
X118110000Y-55296000D03*
D18*
X118110000Y-60706000D03*
D19*
X119300000Y-59446000D03*
D23*
X119520000Y-67446000D03*
%TD*%
D41*
%TO.C,SW4*%
X89960000Y-57150000D03*
D17*
X95250000Y-57150000D03*
D41*
X100540000Y-57150000D03*
D18*
X92710000Y-52070000D03*
D19*
X95250000Y-51250000D03*
D20*
X95250000Y-63650000D03*
D18*
X97790000Y-52070000D03*
D14*
X91440000Y-49200000D03*
D42*
X93600000Y-49200000D03*
D23*
X90030000Y-61350000D03*
D19*
X90250000Y-53350000D03*
D18*
X91440000Y-54610000D03*
D20*
X91450000Y-60950000D03*
D42*
X96901000Y-49200000D03*
D20*
X99050000Y-60950000D03*
D43*
X99060000Y-49200000D03*
D18*
X99060000Y-54610000D03*
D19*
X100250000Y-53350000D03*
D23*
X100470000Y-61350000D03*
%TD*%
D41*
%TO.C,SW3*%
X128060000Y-47053500D03*
D17*
X133350000Y-47053500D03*
D41*
X138640000Y-47053500D03*
D18*
X130810000Y-41973500D03*
D19*
X133350000Y-41153500D03*
D20*
X133350000Y-53553500D03*
D18*
X135890000Y-41973500D03*
D14*
X129540000Y-39103500D03*
D42*
X131700000Y-39103500D03*
D23*
X128130000Y-51253500D03*
D19*
X128350000Y-43253500D03*
D18*
X129540000Y-44513500D03*
D20*
X129550000Y-50853500D03*
D42*
X135001000Y-39103500D03*
D20*
X137150000Y-50853500D03*
D43*
X137160000Y-39103500D03*
D18*
X137160000Y-44513500D03*
D19*
X138350000Y-43253500D03*
D23*
X138570000Y-51253500D03*
%TD*%
D41*
%TO.C,SW2*%
X109010000Y-44196000D03*
D17*
X114300000Y-44196000D03*
D41*
X119590000Y-44196000D03*
D18*
X111760000Y-39116000D03*
D19*
X114300000Y-38296000D03*
D20*
X114300000Y-50696000D03*
D18*
X116840000Y-39116000D03*
D14*
X110490000Y-36246000D03*
D42*
X112650000Y-36246000D03*
D23*
X109080000Y-48396000D03*
D19*
X109300000Y-40396000D03*
D18*
X110490000Y-41656000D03*
D20*
X110500000Y-47996000D03*
D42*
X115951000Y-36246000D03*
D20*
X118100000Y-47996000D03*
D43*
X118110000Y-36246000D03*
D18*
X118110000Y-41656000D03*
D19*
X119300000Y-40396000D03*
D23*
X119520000Y-48396000D03*
%TD*%
D41*
%TO.C,SW1*%
X89960000Y-38100000D03*
D17*
X95250000Y-38100000D03*
D41*
X100540000Y-38100000D03*
D18*
X92710000Y-33020000D03*
D19*
X95250000Y-32200000D03*
D20*
X95250000Y-44600000D03*
D18*
X97790000Y-33020000D03*
D14*
X91440000Y-30150000D03*
D42*
X93600000Y-30150000D03*
D23*
X90030000Y-42300000D03*
D19*
X90250000Y-34300000D03*
D18*
X91440000Y-35560000D03*
D20*
X91450000Y-41900000D03*
D42*
X96901000Y-30150000D03*
D20*
X99050000Y-41900000D03*
D43*
X99060000Y-30150000D03*
D18*
X99060000Y-35560000D03*
D19*
X100250000Y-34300000D03*
D23*
X100470000Y-42300000D03*
%TD*%
D44*
%TO.C,MSW1*%
X149168000Y-58205350D03*
D45*
X149168000Y-58205350D03*
D44*
X149168000Y-61605350D03*
D45*
X149168000Y-61605350D03*
%TD*%
D46*
%TO.C,J2*%
X175584000Y-55587350D03*
%TD*%
%TO.C,J1*%
X169996000Y-49745350D03*
%TD*%
D18*
%TO.C,H4*%
X49346000Y-106387350D03*
%TD*%
%TO.C,H3*%
X39694000Y-51523350D03*
%TD*%
%TO.C,H2*%
X171831000Y-119253000D03*
%TD*%
%TO.C,H1*%
X175000866Y-50253350D03*
%TD*%
M02*
