%TF.GenerationSoftware,KiCad,Pcbnew,8.0.6*%
%TF.CreationDate,2025-05-26T15:16:57+09:00*%
%TF.ProjectId,hillside_speedrun,68696c6c-7369-4646-955f-737065656472,rev?*%
%TF.SameCoordinates,Original*%
%TF.FileFunction,Profile,NP*%
%FSLAX46Y46*%
G04 Gerber Fmt 4.6, Leading zero omitted, Abs format (unit mm)*
G04 Created by KiCad (PCBNEW 8.0.6) date 2025-05-26 15:16:57*
%MOMM*%
%LPD*%
G01*
G04 APERTURE LIST*
%TA.AperFunction,Profile*%
%ADD10C,0.100000*%
%TD*%
%TA.AperFunction,Profile*%
%ADD11C,0.050000*%
%TD*%
%TA.AperFunction,Profile*%
%ADD12C,0.120000*%
%TD*%
G04 APERTURE END LIST*
D10*
X161611351Y-137990033D02*
G75*
G02*
X160197137Y-137990033I-707107J707108D01*
G01*
X21548539Y-58734277D02*
G75*
G02*
X22681184Y-56570528I1969661J347277D01*
G01*
X32189591Y-113323912D02*
G75*
G02*
X31031083Y-112512761I-173691J984812D01*
G01*
X79455424Y-30410522D02*
G75*
G02*
X87825117Y-28575007I8369676J-18164478D01*
G01*
D11*
X176362000Y-28575000D02*
G75*
G02*
X177362000Y-29575000I0J-1000000D01*
G01*
D10*
X177362000Y-49397713D02*
G75*
G02*
X177322206Y-51392193I-49996800J-87D01*
G01*
X174530608Y-121319577D02*
G75*
G02*
X171609637Y-127991751I-9992008J398877D01*
G01*
X97690350Y-110871000D02*
G75*
G02*
X89811183Y-110246279I50J50000200D01*
G01*
X141780258Y-121971374D02*
G75*
G02*
X152109099Y-129901999I-25026558J-43286026D01*
G01*
X124731460Y-114082300D02*
G75*
G02*
X136787456Y-119084687I-12970460J-48288400D01*
G01*
X106177809Y-110871000D02*
G75*
G02*
X119148316Y-112582637I-9J-50000100D01*
G01*
X60456498Y-108339693D02*
G75*
G02*
X77018076Y-108204798I8682402J-49240307D01*
G01*
X21548539Y-58734277D02*
X31031135Y-112512752D01*
X104775000Y-28575000D02*
X176362000Y-28575000D01*
D11*
X177362000Y-49397713D02*
X177362000Y-29575000D01*
D10*
X79455424Y-30410522D02*
X22681186Y-56570533D01*
X104775000Y-28575000D02*
X87825117Y-28575000D01*
X136787449Y-119084699D02*
X141780258Y-121971374D01*
X77018076Y-108204797D02*
X89811182Y-110246285D01*
X161611351Y-137990033D02*
X171609635Y-127991749D01*
X97690350Y-110871000D02*
X106177809Y-110871000D01*
X152109101Y-129901997D02*
X160197137Y-137990033D01*
X119148316Y-112582638D02*
X124731460Y-114082300D01*
X32189591Y-113323912D02*
X60456498Y-108339693D01*
X174530608Y-121319577D02*
X177322205Y-51392193D01*
D12*
%TO.C,BT1*%
X173259360Y-52547775D02*
X173259360Y-84547775D01*
X172759360Y-85047775D02*
X152259360Y-85047775D01*
X152259360Y-52047775D02*
X172759360Y-52047775D01*
X151759360Y-84547775D02*
X151759360Y-52547775D01*
X173259360Y-84547775D02*
G75*
G02*
X172759360Y-85047775I-500000J0D01*
G01*
X172759360Y-52047775D02*
G75*
G02*
X173259360Y-52547775I0J-500000D01*
G01*
X152259360Y-85047775D02*
G75*
G02*
X151759360Y-84547775I0J500000D01*
G01*
X151759360Y-52547775D02*
G75*
G02*
X152259360Y-52047775I500000J0D01*
G01*
%TD*%
M02*
