%TF.GenerationSoftware,KiCad,Pcbnew,8.0.6*%
%TF.CreationDate,2025-05-26T15:17:00+09:00*%
%TF.ProjectId,hillside_speedrun,68696c6c-7369-4646-955f-737065656472,rev?*%
%TF.SameCoordinates,Original*%
%TF.FileFunction,Drillmap*%
%TF.FilePolarity,Positive*%
%FSLAX45Y45*%
G04 Gerber Fmt 4.5, Leading zero omitted, Abs format (unit mm)*
G04 Created by KiCad (PCBNEW 8.0.6) date 2025-05-26 15:17:00*
%MOMM*%
%LPD*%
G01*
G04 APERTURE LIST*
%ADD10C,0.100000*%
%ADD11C,0.050000*%
%ADD12C,0.120000*%
%ADD13C,0.200000*%
%ADD14C,0.170180*%
%ADD15C,0.220000*%
%ADD16C,0.440000*%
G04 APERTURE END LIST*
D10*
X16161135Y-13799003D02*
G75*
G02*
X16019714Y-13799003I-70711J70711D01*
G01*
X2154854Y-5873428D02*
G75*
G02*
X2268118Y-5657053I196966J34728D01*
G01*
X3218959Y-11332391D02*
G75*
G02*
X3103108Y-11251276I-17369J98481D01*
G01*
X7945542Y-3041052D02*
G75*
G02*
X8782512Y-2857501I836968J-1816448D01*
G01*
D11*
X17636200Y-2857500D02*
G75*
G02*
X17736200Y-2957500I0J-100000D01*
G01*
D10*
X17736200Y-4939771D02*
G75*
G02*
X17732221Y-5139219I-4999680J-9D01*
G01*
X17453061Y-12131958D02*
G75*
G02*
X17160964Y-12799175I-999201J39888D01*
G01*
X9769035Y-11087100D02*
G75*
G02*
X8981118Y-11024628I5J5000020D01*
G01*
X14178026Y-12197137D02*
G75*
G02*
X15210910Y-12990200I-2502656J-4328603D01*
G01*
X12473146Y-11408230D02*
G75*
G02*
X13678746Y-11908469I-1297046J-4828840D01*
G01*
X10617781Y-11087100D02*
G75*
G02*
X11914832Y-11258264I-1J-5000010D01*
G01*
X6045650Y-10833969D02*
G75*
G02*
X7701808Y-10820480I868240J-4924031D01*
G01*
X2154854Y-5873428D02*
X3103113Y-11251275D01*
X10477500Y-2857500D02*
X17636200Y-2857500D01*
D11*
X17736200Y-4939771D02*
X17736200Y-2957500D01*
D10*
X7945542Y-3041052D02*
X2268119Y-5657053D01*
X10477500Y-2857500D02*
X8782512Y-2857500D01*
X13678745Y-11908470D02*
X14178026Y-12197137D01*
X7701808Y-10820480D02*
X8981118Y-11024629D01*
X16161135Y-13799003D02*
X17160964Y-12799175D01*
X9769035Y-11087100D02*
X10617781Y-11087100D01*
X15210910Y-12990200D02*
X16019714Y-13799003D01*
X11914832Y-11258264D02*
X12473146Y-11408230D01*
X3218959Y-11332391D02*
X6045650Y-10833969D01*
X17453061Y-12131958D02*
X17732221Y-5139219D01*
D12*
X17325936Y-5254778D02*
X17325936Y-8454778D01*
X17275936Y-8504778D02*
X15225936Y-8504778D01*
X15225936Y-5204778D02*
X17275936Y-5204778D01*
X15175936Y-8454778D02*
X15175936Y-5254778D01*
X17325936Y-8454778D02*
G75*
G02*
X17275936Y-8504778I-50000J0D01*
G01*
X17275936Y-5204778D02*
G75*
G02*
X17325936Y-5254778I0J-50000D01*
G01*
X15225936Y-8504778D02*
G75*
G02*
X15175936Y-8454778I0J50000D01*
G01*
X15175936Y-5254778D02*
G75*
G02*
X15225936Y-5204778I50000J0D01*
G01*
D13*
D14*
X2625455Y-6500979D02*
X2795635Y-6671159D01*
X2795635Y-6500979D02*
X2625455Y-6671159D01*
D10*
X2716450Y-6498625D02*
X2675088Y-6505918D01*
X2704640Y-6673513D02*
G75*
G02*
X2675088Y-6505918I-14776J83797D01*
G01*
X2704640Y-6673513D02*
X2746002Y-6666220D01*
X2746002Y-6666220D02*
G75*
G03*
X2716450Y-6498625I-14776J83797D01*
G01*
D14*
X2956255Y-8377038D02*
X3126435Y-8547218D01*
X3126435Y-8377038D02*
X2956255Y-8547218D01*
D10*
X3047250Y-8374684D02*
X3005888Y-8381977D01*
X3035439Y-8549572D02*
G75*
G02*
X3005888Y-8381977I-14776J83797D01*
G01*
X3035439Y-8549572D02*
X3076801Y-8542279D01*
X3076801Y-8542279D02*
G75*
G03*
X3047250Y-8374684I-14776J83797D01*
G01*
D14*
X3287054Y-10253097D02*
X3457234Y-10423277D01*
X3457234Y-10253097D02*
X3287054Y-10423277D01*
D10*
X3378050Y-10250743D02*
X3336688Y-10258036D01*
X3366239Y-10425631D02*
G75*
G02*
X3336688Y-10258036I-14776J83797D01*
G01*
X3366239Y-10425631D02*
X3407601Y-10418337D01*
X3407601Y-10418337D02*
G75*
G03*
X3378050Y-10250743I-14776J83797D01*
G01*
D14*
X3667382Y-6317259D02*
X3837562Y-6487439D01*
X3837562Y-6317259D02*
X3667382Y-6487439D01*
D10*
X3758377Y-6314905D02*
X3717015Y-6322199D01*
X3746566Y-6489793D02*
G75*
G02*
X3717015Y-6322199I-14776J83797D01*
G01*
X3746566Y-6489793D02*
X3787928Y-6482500D01*
X3787928Y-6482500D02*
G75*
G03*
X3758377Y-6314905I-14776J83797D01*
G01*
D14*
X3998181Y-8193318D02*
X4168361Y-8363498D01*
X4168361Y-8193318D02*
X3998181Y-8363498D01*
D10*
X4089176Y-8190964D02*
X4047815Y-8198257D01*
X4077366Y-8365852D02*
G75*
G02*
X4047815Y-8198257I-14776J83797D01*
G01*
X4077366Y-8365852D02*
X4118728Y-8358559D01*
X4118728Y-8358559D02*
G75*
G03*
X4089177Y-8190964I-14776J83797D01*
G01*
D14*
X4328981Y-10069377D02*
X4499161Y-10239557D01*
X4499161Y-10069377D02*
X4328981Y-10239557D01*
D10*
X4419976Y-10067023D02*
X4378614Y-10074316D01*
X4408166Y-10241911D02*
G75*
G02*
X4378614Y-10074316I-14776J83797D01*
G01*
X4408166Y-10241911D02*
X4449528Y-10234618D01*
X4449528Y-10234618D02*
G75*
G03*
X4419976Y-10067023I-14776J83797D01*
G01*
D14*
X4501514Y-6170179D02*
X4671694Y-6340359D01*
X4671694Y-6170179D02*
X4501514Y-6340359D01*
D10*
X4592509Y-6167825D02*
X4551147Y-6175119D01*
X4580698Y-6342713D02*
G75*
G02*
X4551147Y-6175119I-14776J83797D01*
G01*
X4580699Y-6342713D02*
X4622060Y-6335420D01*
X4622060Y-6335420D02*
G75*
G03*
X4592509Y-6167825I-14776J83797D01*
G01*
D14*
X4832314Y-8046238D02*
X5002494Y-8216418D01*
X5002494Y-8046238D02*
X4832314Y-8216418D01*
D10*
X4923309Y-8043884D02*
X4881947Y-8051177D01*
X4911498Y-8218772D02*
G75*
G02*
X4881947Y-8051177I-14776J83797D01*
G01*
X4911498Y-8218772D02*
X4952860Y-8211479D01*
X4952860Y-8211479D02*
G75*
G03*
X4923309Y-8043884I-14776J83797D01*
G01*
D14*
X5163113Y-9922297D02*
X5333293Y-10092477D01*
X5333293Y-9922297D02*
X5163113Y-10092477D01*
D10*
X5254109Y-9919943D02*
X5212747Y-9927236D01*
X5242298Y-10094831D02*
G75*
G02*
X5212747Y-9927236I-14776J83797D01*
G01*
X5242298Y-10094831D02*
X5283660Y-10087538D01*
X5283660Y-10087538D02*
G75*
G03*
X5254109Y-9919943I-14776J83797D01*
G01*
D14*
X5543440Y-5986459D02*
X5713620Y-6156639D01*
X5713620Y-5986459D02*
X5543440Y-6156639D01*
D10*
X5634435Y-5984106D02*
X5593074Y-5991399D01*
X5622625Y-6158993D02*
G75*
G02*
X5593074Y-5991399I-14776J83797D01*
G01*
X5622625Y-6158993D02*
X5663987Y-6151700D01*
X5663987Y-6151700D02*
G75*
G03*
X5634436Y-5984106I-14776J83797D01*
G01*
D14*
X5874240Y-7862518D02*
X6044420Y-8032698D01*
X6044420Y-7862518D02*
X5874240Y-8032698D01*
D10*
X5965235Y-7860164D02*
X5923873Y-7867458D01*
X5953425Y-8035052D02*
G75*
G02*
X5923873Y-7867458I-14776J83797D01*
G01*
X5953425Y-8035052D02*
X5994787Y-8027759D01*
X5994787Y-8027759D02*
G75*
G03*
X5965235Y-7860164I-14776J83797D01*
G01*
D14*
X6205040Y-9738577D02*
X6375220Y-9908757D01*
X6375220Y-9738577D02*
X6205040Y-9908757D01*
D10*
X6296035Y-9736223D02*
X6254673Y-9743516D01*
X6284225Y-9911111D02*
G75*
G02*
X6254673Y-9743516I-14776J83797D01*
G01*
X6284225Y-9911111D02*
X6325587Y-9903818D01*
X6325587Y-9903818D02*
G75*
G03*
X6296035Y-9736223I-14776J83797D01*
G01*
D14*
X6664541Y-4650232D02*
X6834721Y-4820412D01*
X6834721Y-4650232D02*
X6664541Y-4820412D01*
D10*
X6763135Y-4648725D02*
X6721295Y-4652386D01*
X6736127Y-4821918D02*
G75*
G02*
X6721295Y-4652386I-7416J84766D01*
G01*
X6736127Y-4821918D02*
X6777967Y-4818258D01*
X6777967Y-4818258D02*
G75*
G03*
X6763135Y-4648725I-7416J84766D01*
G01*
D14*
X6830573Y-6547983D02*
X7000753Y-6718163D01*
X7000753Y-6547983D02*
X6830573Y-6718163D01*
D10*
X6929167Y-6546476D02*
X6887327Y-6550137D01*
X6902159Y-6719669D02*
G75*
G02*
X6887327Y-6550137I-7416J84766D01*
G01*
X6902159Y-6719669D02*
X6943999Y-6716009D01*
X6943999Y-6716009D02*
G75*
G03*
X6929167Y-6546476I-7416J84766D01*
G01*
D14*
X6996605Y-8445734D02*
X7166785Y-8615914D01*
X7166785Y-8445734D02*
X6996605Y-8615914D01*
D10*
X7095199Y-8444227D02*
X7053358Y-8447888D01*
X7068191Y-8617420D02*
G75*
G02*
X7053358Y-8447888I-7416J84766D01*
G01*
X7068191Y-8617420D02*
X7110031Y-8613760D01*
X7110031Y-8613760D02*
G75*
G03*
X7095199Y-8444227I-7416J84766D01*
G01*
D14*
X7718515Y-4558021D02*
X7888695Y-4728201D01*
X7888695Y-4558021D02*
X7718515Y-4728201D01*
D10*
X7817109Y-4556515D02*
X7775269Y-4560175D01*
X7790101Y-4729708D02*
G75*
G02*
X7775269Y-4560175I-7416J84766D01*
G01*
X7790101Y-4729708D02*
X7831941Y-4726047D01*
X7831941Y-4726047D02*
G75*
G03*
X7817109Y-4556515I-7416J84766D01*
G01*
D14*
X7884547Y-6455772D02*
X8054727Y-6625952D01*
X8054727Y-6455772D02*
X7884547Y-6625952D01*
D10*
X7983141Y-6454265D02*
X7941301Y-6457926D01*
X7956133Y-6627458D02*
G75*
G02*
X7941301Y-6457926I-7416J84766D01*
G01*
X7956133Y-6627458D02*
X7997973Y-6623798D01*
X7997973Y-6623798D02*
G75*
G03*
X7983141Y-6454265I-7416J84766D01*
G01*
D14*
X8050579Y-8353523D02*
X8220759Y-8523703D01*
X8220759Y-8353523D02*
X8050579Y-8523703D01*
D10*
X8149173Y-8352016D02*
X8107332Y-8355677D01*
X8122165Y-8525209D02*
G75*
G02*
X8107332Y-8355677I-7416J84766D01*
G01*
X8122165Y-8525209D02*
X8164005Y-8521549D01*
X8164005Y-8521549D02*
G75*
G03*
X8149173Y-8352016I-7416J84766D01*
G01*
D14*
X8910910Y-3724910D02*
X9081090Y-3895090D01*
X9081090Y-3724910D02*
X8910910Y-3895090D01*
D10*
X9017000Y-3724910D02*
X8975000Y-3724910D01*
X8975000Y-3895090D02*
G75*
G02*
X8975000Y-3724910I0J85090D01*
G01*
X8975000Y-3895090D02*
X9017000Y-3895090D01*
X9017000Y-3895090D02*
G75*
G03*
X9017000Y-3724910I0J85090D01*
G01*
D14*
X8910910Y-5629910D02*
X9081090Y-5800090D01*
X9081090Y-5629910D02*
X8910910Y-5800090D01*
D10*
X9017000Y-5629910D02*
X8975000Y-5629910D01*
X8975000Y-5800090D02*
G75*
G02*
X8975000Y-5629910I0J85090D01*
G01*
X8975000Y-5800090D02*
X9017000Y-5800090D01*
X9017000Y-5800090D02*
G75*
G03*
X9017000Y-5629910I0J85090D01*
G01*
D14*
X8910910Y-7534910D02*
X9081090Y-7705090D01*
X9081090Y-7534910D02*
X8910910Y-7705090D01*
D10*
X9017000Y-7534910D02*
X8975000Y-7534910D01*
X8975000Y-7705090D02*
G75*
G02*
X8975000Y-7534910I0J85090D01*
G01*
X8975000Y-7705090D02*
X9017000Y-7705090D01*
X9017000Y-7705090D02*
G75*
G03*
X9017000Y-7534910I0J85090D01*
G01*
D14*
X9711010Y-10049510D02*
X9881190Y-10219690D01*
X9881190Y-10049510D02*
X9711010Y-10219690D01*
D10*
X9817100Y-10049510D02*
X9775100Y-10049510D01*
X9775100Y-10219690D02*
G75*
G02*
X9775100Y-10049510I0J85090D01*
G01*
X9775100Y-10219690D02*
X9817100Y-10219690D01*
X9817100Y-10219690D02*
G75*
G03*
X9817100Y-10049510I0J85090D01*
G01*
D14*
X9968910Y-3724910D02*
X10139090Y-3895090D01*
X10139090Y-3724910D02*
X9968910Y-3895090D01*
D10*
X10075000Y-3724910D02*
X10033000Y-3724910D01*
X10033000Y-3895090D02*
G75*
G02*
X10033000Y-3724910I0J85090D01*
G01*
X10033000Y-3895090D02*
X10075000Y-3895090D01*
X10075000Y-3895090D02*
G75*
G03*
X10075000Y-3724910I0J85090D01*
G01*
D14*
X9968910Y-5629910D02*
X10139090Y-5800090D01*
X10139090Y-5629910D02*
X9968910Y-5800090D01*
D10*
X10075000Y-5629910D02*
X10033000Y-5629910D01*
X10033000Y-5800090D02*
G75*
G02*
X10033000Y-5629910I0J85090D01*
G01*
X10033000Y-5800090D02*
X10075000Y-5800090D01*
X10075000Y-5800090D02*
G75*
G03*
X10075000Y-5629910I0J85090D01*
G01*
D14*
X9968910Y-7534910D02*
X10139090Y-7705090D01*
X10139090Y-7534910D02*
X9968910Y-7705090D01*
D10*
X10075000Y-7534910D02*
X10033000Y-7534910D01*
X10033000Y-7705090D02*
G75*
G02*
X10033000Y-7534910I0J85090D01*
G01*
X10033000Y-7705090D02*
X10075000Y-7705090D01*
X10075000Y-7705090D02*
G75*
G03*
X10075000Y-7534910I0J85090D01*
G01*
D14*
X10769010Y-10049510D02*
X10939190Y-10219690D01*
X10939190Y-10049510D02*
X10769010Y-10219690D01*
D10*
X10875100Y-10049510D02*
X10833100Y-10049510D01*
X10833100Y-10219690D02*
G75*
G02*
X10833100Y-10049510I0J85090D01*
G01*
X10833100Y-10219690D02*
X10875100Y-10219690D01*
X10875100Y-10219690D02*
G75*
G03*
X10875100Y-10049510I0J85090D01*
G01*
D14*
X10815910Y-4334510D02*
X10986090Y-4504690D01*
X10986090Y-4334510D02*
X10815910Y-4504690D01*
D10*
X10922000Y-4334510D02*
X10880000Y-4334510D01*
X10880000Y-4504690D02*
G75*
G02*
X10880000Y-4334510I0J85090D01*
G01*
X10880000Y-4504690D02*
X10922000Y-4504690D01*
X10922000Y-4504690D02*
G75*
G03*
X10922000Y-4334510I0J85090D01*
G01*
D14*
X10815910Y-6239510D02*
X10986090Y-6409690D01*
X10986090Y-6239510D02*
X10815910Y-6409690D01*
D10*
X10922000Y-6239510D02*
X10880000Y-6239510D01*
X10880000Y-6409690D02*
G75*
G02*
X10880000Y-6239510I0J85090D01*
G01*
X10880000Y-6409690D02*
X10922000Y-6409690D01*
X10922000Y-6409690D02*
G75*
G03*
X10922000Y-6239510I0J85090D01*
G01*
D14*
X10815910Y-8144510D02*
X10986090Y-8314690D01*
X10986090Y-8144510D02*
X10815910Y-8314690D01*
D10*
X10922000Y-8144510D02*
X10880000Y-8144510D01*
X10880000Y-8314690D02*
G75*
G02*
X10880000Y-8144510I0J85090D01*
G01*
X10880000Y-8314690D02*
X10922000Y-8314690D01*
X10922000Y-8314690D02*
G75*
G03*
X10922000Y-8144510I0J85090D01*
G01*
D14*
X11839290Y-10190415D02*
X12009470Y-10360595D01*
X12009470Y-10190415D02*
X11839290Y-10360595D01*
D10*
X11966688Y-10198750D02*
X11926119Y-10187879D01*
X11882073Y-10352261D02*
G75*
G02*
X11926119Y-10187879I22023J82191D01*
G01*
X11882073Y-10352261D02*
X11922642Y-10363131D01*
X11922642Y-10363131D02*
G75*
G03*
X11966688Y-10198750I22023J82191D01*
G01*
D14*
X11873910Y-4334510D02*
X12044090Y-4504690D01*
X12044090Y-4334510D02*
X11873910Y-4504690D01*
D10*
X11980000Y-4334510D02*
X11938000Y-4334510D01*
X11938000Y-4504690D02*
G75*
G02*
X11938000Y-4334510I0J85090D01*
G01*
X11938000Y-4504690D02*
X11980000Y-4504690D01*
X11980000Y-4504690D02*
G75*
G03*
X11980000Y-4334510I0J85090D01*
G01*
D14*
X11873910Y-6239510D02*
X12044090Y-6409690D01*
X12044090Y-6239510D02*
X11873910Y-6409690D01*
D10*
X11980000Y-6239510D02*
X11938000Y-6239510D01*
X11938000Y-6409690D02*
G75*
G02*
X11938000Y-6239510I0J85090D01*
G01*
X11938000Y-6409690D02*
X11980000Y-6409690D01*
X11980000Y-6409690D02*
G75*
G03*
X11980000Y-6239510I0J85090D01*
G01*
D14*
X11873910Y-8144510D02*
X12044090Y-8314690D01*
X12044090Y-8144510D02*
X11873910Y-8314690D01*
D10*
X11980000Y-8144510D02*
X11938000Y-8144510D01*
X11938000Y-8314690D02*
G75*
G02*
X11938000Y-8144510I0J85090D01*
G01*
X11938000Y-8314690D02*
X11980000Y-8314690D01*
X11980000Y-8314690D02*
G75*
G03*
X11980000Y-8144510I0J85090D01*
G01*
D14*
X12720910Y-4620260D02*
X12891090Y-4790440D01*
X12891090Y-4620260D02*
X12720910Y-4790440D01*
D10*
X12827000Y-4620260D02*
X12785000Y-4620260D01*
X12785000Y-4790440D02*
G75*
G02*
X12785000Y-4620260I0J85090D01*
G01*
X12785000Y-4790440D02*
X12827000Y-4790440D01*
X12827000Y-4790440D02*
G75*
G03*
X12827000Y-4620260I0J85090D01*
G01*
D14*
X12720910Y-6525260D02*
X12891090Y-6695440D01*
X12891090Y-6525260D02*
X12720910Y-6695440D01*
D10*
X12827000Y-6525260D02*
X12785000Y-6525260D01*
X12785000Y-6695440D02*
G75*
G02*
X12785000Y-6525260I0J85090D01*
G01*
X12785000Y-6695440D02*
X12827000Y-6695440D01*
X12827000Y-6695440D02*
G75*
G03*
X12827000Y-6525260I0J85090D01*
G01*
D14*
X12720910Y-8430260D02*
X12891090Y-8600440D01*
X12891090Y-8430260D02*
X12720910Y-8600440D01*
D10*
X12827000Y-8430260D02*
X12785000Y-8430260D01*
X12785000Y-8600440D02*
G75*
G02*
X12785000Y-8430260I0J85090D01*
G01*
X12785000Y-8600440D02*
X12827000Y-8600440D01*
X12827000Y-8600440D02*
G75*
G03*
X12827000Y-8430260I0J85090D01*
G01*
D14*
X12861240Y-10464246D02*
X13031420Y-10634426D01*
X13031420Y-10464246D02*
X12861240Y-10634426D01*
D10*
X12988637Y-10472580D02*
X12948068Y-10461710D01*
X12904023Y-10626091D02*
G75*
G02*
X12948068Y-10461710I22023J82191D01*
G01*
X12904023Y-10626091D02*
X12944591Y-10636962D01*
X12944591Y-10636962D02*
G75*
G03*
X12988637Y-10472580I22023J82191D01*
G01*
D14*
X13778910Y-4620260D02*
X13949090Y-4790440D01*
X13949090Y-4620260D02*
X13778910Y-4790440D01*
D10*
X13885000Y-4620260D02*
X13843000Y-4620260D01*
X13843000Y-4790440D02*
G75*
G02*
X13843000Y-4620260I0J85090D01*
G01*
X13843000Y-4790440D02*
X13885000Y-4790440D01*
X13885000Y-4790440D02*
G75*
G03*
X13885000Y-4620260I0J85090D01*
G01*
D14*
X13778910Y-6525260D02*
X13949090Y-6695440D01*
X13949090Y-6525260D02*
X13778910Y-6695440D01*
D10*
X13885000Y-6525260D02*
X13843000Y-6525260D01*
X13843000Y-6695440D02*
G75*
G02*
X13843000Y-6525260I0J85090D01*
G01*
X13843000Y-6695440D02*
X13885000Y-6695440D01*
X13885000Y-6695440D02*
G75*
G03*
X13885000Y-6525260I0J85090D01*
G01*
D14*
X13778910Y-8430260D02*
X13949090Y-8600440D01*
X13949090Y-8430260D02*
X13778910Y-8600440D01*
D10*
X13885000Y-8430260D02*
X13843000Y-8430260D01*
X13843000Y-8600440D02*
G75*
G02*
X13843000Y-8430260I0J85090D01*
G01*
X13843000Y-8600440D02*
X13885000Y-8600440D01*
X13885000Y-8600440D02*
G75*
G03*
X13885000Y-8430260I0J85090D01*
G01*
D14*
X13858583Y-10877359D02*
X14028763Y-11047539D01*
X14028763Y-10877359D02*
X13858583Y-11047539D01*
D10*
X14004404Y-10899258D02*
X13968031Y-10878258D01*
X13882941Y-11025639D02*
G75*
G02*
X13968031Y-10878258I42545J73690D01*
G01*
X13882941Y-11025639D02*
X13919314Y-11046639D01*
X13919314Y-11046639D02*
G75*
G03*
X14004404Y-10899258I42545J73690D01*
G01*
D14*
X14774837Y-11406358D02*
X14945017Y-11576538D01*
X14945017Y-11406358D02*
X14774837Y-11576538D01*
D10*
X14920659Y-11428258D02*
X14884286Y-11407258D01*
X14799196Y-11554639D02*
G75*
G02*
X14884286Y-11407258I42545J73690D01*
G01*
X14799196Y-11554639D02*
X14835569Y-11575639D01*
X14835569Y-11575639D02*
G75*
G03*
X14920659Y-11428258I42545J73690D01*
G01*
D14*
X14811083Y-9227580D02*
X14981263Y-9397760D01*
X14981263Y-9227580D02*
X14811083Y-9397760D01*
D10*
X14956904Y-9249480D02*
X14920531Y-9228480D01*
X14835441Y-9375860D02*
G75*
G02*
X14920531Y-9228480I42545J73690D01*
G01*
X14835441Y-9375860D02*
X14871814Y-9396860D01*
X14871814Y-9396860D02*
G75*
G03*
X14956904Y-9249480I42545J73690D01*
G01*
D14*
X15631275Y-12063526D02*
X15801455Y-12233706D01*
X15801455Y-12063526D02*
X15631275Y-12233706D01*
D10*
X15791382Y-12103298D02*
X15761683Y-12073599D01*
X15641348Y-12193935D02*
G75*
G02*
X15761683Y-12073599I60168J60168D01*
G01*
X15641348Y-12193935D02*
X15671046Y-12223633D01*
X15671046Y-12223633D02*
G75*
G03*
X15791382Y-12103298I60168J60168D01*
G01*
D14*
X15727337Y-9756580D02*
X15897517Y-9926760D01*
X15897517Y-9756580D02*
X15727337Y-9926760D01*
D10*
X15873159Y-9778480D02*
X15836786Y-9757480D01*
X15751696Y-9904860D02*
G75*
G02*
X15836786Y-9757480I42545J73690D01*
G01*
X15751696Y-9904860D02*
X15788069Y-9925860D01*
X15788069Y-9925860D02*
G75*
G03*
X15873159Y-9778480I42545J73690D01*
G01*
D14*
X16379394Y-12811645D02*
X16549574Y-12981825D01*
X16549574Y-12811645D02*
X16379394Y-12981825D01*
D10*
X16539501Y-12851417D02*
X16509802Y-12821718D01*
X16389467Y-12942054D02*
G75*
G02*
X16509802Y-12821718I60168J60168D01*
G01*
X16389467Y-12942054D02*
X16419165Y-12971752D01*
X16419165Y-12971752D02*
G75*
G03*
X16539501Y-12851417I60168J60168D01*
G01*
D15*
X4079400Y-5152335D02*
G75*
G02*
X3859400Y-5152335I-110000J0D01*
G01*
X3859400Y-5152335D02*
G75*
G02*
X4079400Y-5152335I110000J0D01*
G01*
X5044600Y-10638735D02*
G75*
G02*
X4824600Y-10638735I-110000J0D01*
G01*
X4824600Y-10638735D02*
G75*
G02*
X5044600Y-10638735I110000J0D01*
G01*
X17293100Y-11925300D02*
G75*
G02*
X17073100Y-11925300I-110000J0D01*
G01*
X17073100Y-11925300D02*
G75*
G02*
X17293100Y-11925300I110000J0D01*
G01*
X17610087Y-5025335D02*
G75*
G02*
X17390087Y-5025335I-110000J0D01*
G01*
X17390087Y-5025335D02*
G75*
G02*
X17610087Y-5025335I110000J0D01*
G01*
D16*
X3231508Y-6274209D02*
X3231508Y-6714209D01*
X3011508Y-6494209D02*
X3451508Y-6494209D01*
X3562308Y-8150268D02*
X3562308Y-8590268D01*
X3342308Y-8370268D02*
X3782308Y-8370268D01*
X3893108Y-10026327D02*
X3893108Y-10466327D01*
X3673108Y-10246327D02*
X4113108Y-10246327D01*
X5107567Y-5943409D02*
X5107567Y-6383409D01*
X4887567Y-6163409D02*
X5327567Y-6163409D01*
X5438367Y-7819468D02*
X5438367Y-8259468D01*
X5218367Y-8039468D02*
X5658367Y-8039468D01*
X5769167Y-9695527D02*
X5769167Y-10135527D01*
X5549167Y-9915527D02*
X5989167Y-9915527D01*
X7276618Y-4469217D02*
X7276618Y-4909217D01*
X7056618Y-4689217D02*
X7496618Y-4689217D01*
X7442650Y-6366967D02*
X7442650Y-6806967D01*
X7222650Y-6586967D02*
X7662650Y-6586967D01*
X7608682Y-8264718D02*
X7608682Y-8704718D01*
X7388682Y-8484718D02*
X7828682Y-8484718D01*
X9525000Y-3590000D02*
X9525000Y-4030000D01*
X9305000Y-3810000D02*
X9745000Y-3810000D01*
X9525000Y-5495000D02*
X9525000Y-5935000D01*
X9305000Y-5715000D02*
X9745000Y-5715000D01*
X9525000Y-7400000D02*
X9525000Y-7840000D01*
X9305000Y-7620000D02*
X9745000Y-7620000D01*
X10325100Y-9914600D02*
X10325100Y-10354600D01*
X10105100Y-10134600D02*
X10545100Y-10134600D01*
X11430000Y-4199600D02*
X11430000Y-4639600D01*
X11210000Y-4419600D02*
X11650000Y-4419600D01*
X11430000Y-6104600D02*
X11430000Y-6544600D01*
X11210000Y-6324600D02*
X11650000Y-6324600D01*
X11430000Y-8009600D02*
X11430000Y-8449600D01*
X11210000Y-8229600D02*
X11650000Y-8229600D01*
X12435355Y-10192420D02*
X12435355Y-10632420D01*
X12215355Y-10412420D02*
X12655355Y-10412420D01*
X13335000Y-4485350D02*
X13335000Y-4925350D01*
X13115000Y-4705350D02*
X13555000Y-4705350D01*
X13335000Y-6390350D02*
X13335000Y-6830350D01*
X13115000Y-6610350D02*
X13555000Y-6610350D01*
X13335000Y-8295350D02*
X13335000Y-8735350D01*
X13115000Y-8515350D02*
X13555000Y-8515350D01*
X14401800Y-11006949D02*
X14401800Y-11446948D01*
X14181800Y-11226948D02*
X14621800Y-11226948D01*
X15354300Y-9357170D02*
X15354300Y-9797170D01*
X15134300Y-9577170D02*
X15574300Y-9577170D01*
X16090424Y-12302676D02*
X16090424Y-12742676D01*
X15870424Y-12522676D02*
X16310424Y-12522676D01*
D13*
X2407593Y-14144776D02*
X2407593Y-13944776D01*
X2407593Y-13944776D02*
X2455212Y-13944776D01*
X2455212Y-13944776D02*
X2483783Y-13954300D01*
X2483783Y-13954300D02*
X2502831Y-13973348D01*
X2502831Y-13973348D02*
X2512355Y-13992395D01*
X2512355Y-13992395D02*
X2521878Y-14030491D01*
X2521878Y-14030491D02*
X2521878Y-14059062D01*
X2521878Y-14059062D02*
X2512355Y-14097157D01*
X2512355Y-14097157D02*
X2502831Y-14116205D01*
X2502831Y-14116205D02*
X2483783Y-14135253D01*
X2483783Y-14135253D02*
X2455212Y-14144776D01*
X2455212Y-14144776D02*
X2407593Y-14144776D01*
X2607593Y-14144776D02*
X2607593Y-14011443D01*
X2607593Y-14049538D02*
X2617117Y-14030491D01*
X2617117Y-14030491D02*
X2626640Y-14020967D01*
X2626640Y-14020967D02*
X2645688Y-14011443D01*
X2645688Y-14011443D02*
X2664736Y-14011443D01*
X2731402Y-14144776D02*
X2731402Y-14011443D01*
X2731402Y-13944776D02*
X2721878Y-13954300D01*
X2721878Y-13954300D02*
X2731402Y-13963824D01*
X2731402Y-13963824D02*
X2740926Y-13954300D01*
X2740926Y-13954300D02*
X2731402Y-13944776D01*
X2731402Y-13944776D02*
X2731402Y-13963824D01*
X2855212Y-14144776D02*
X2836164Y-14135253D01*
X2836164Y-14135253D02*
X2826640Y-14116205D01*
X2826640Y-14116205D02*
X2826640Y-13944776D01*
X2959974Y-14144776D02*
X2940926Y-14135253D01*
X2940926Y-14135253D02*
X2931402Y-14116205D01*
X2931402Y-14116205D02*
X2931402Y-13944776D01*
X3188545Y-14144776D02*
X3188545Y-13944776D01*
X3188545Y-13944776D02*
X3255212Y-14087633D01*
X3255212Y-14087633D02*
X3321878Y-13944776D01*
X3321878Y-13944776D02*
X3321878Y-14144776D01*
X3502831Y-14144776D02*
X3502831Y-14040014D01*
X3502831Y-14040014D02*
X3493307Y-14020967D01*
X3493307Y-14020967D02*
X3474259Y-14011443D01*
X3474259Y-14011443D02*
X3436164Y-14011443D01*
X3436164Y-14011443D02*
X3417116Y-14020967D01*
X3502831Y-14135253D02*
X3483783Y-14144776D01*
X3483783Y-14144776D02*
X3436164Y-14144776D01*
X3436164Y-14144776D02*
X3417116Y-14135253D01*
X3417116Y-14135253D02*
X3407593Y-14116205D01*
X3407593Y-14116205D02*
X3407593Y-14097157D01*
X3407593Y-14097157D02*
X3417116Y-14078110D01*
X3417116Y-14078110D02*
X3436164Y-14068586D01*
X3436164Y-14068586D02*
X3483783Y-14068586D01*
X3483783Y-14068586D02*
X3502831Y-14059062D01*
X3598069Y-14011443D02*
X3598069Y-14211443D01*
X3598069Y-14020967D02*
X3617116Y-14011443D01*
X3617116Y-14011443D02*
X3655212Y-14011443D01*
X3655212Y-14011443D02*
X3674259Y-14020967D01*
X3674259Y-14020967D02*
X3683783Y-14030491D01*
X3683783Y-14030491D02*
X3693307Y-14049538D01*
X3693307Y-14049538D02*
X3693307Y-14106681D01*
X3693307Y-14106681D02*
X3683783Y-14125729D01*
X3683783Y-14125729D02*
X3674259Y-14135253D01*
X3674259Y-14135253D02*
X3655212Y-14144776D01*
X3655212Y-14144776D02*
X3617116Y-14144776D01*
X3617116Y-14144776D02*
X3598069Y-14135253D01*
X3779021Y-14125729D02*
X3788545Y-14135253D01*
X3788545Y-14135253D02*
X3779021Y-14144776D01*
X3779021Y-14144776D02*
X3769497Y-14135253D01*
X3769497Y-14135253D02*
X3779021Y-14125729D01*
X3779021Y-14125729D02*
X3779021Y-14144776D01*
X3779021Y-14020967D02*
X3788545Y-14030491D01*
X3788545Y-14030491D02*
X3779021Y-14040014D01*
X3779021Y-14040014D02*
X3769497Y-14030491D01*
X3769497Y-14030491D02*
X3779021Y-14020967D01*
X3779021Y-14020967D02*
X3779021Y-14040014D01*
D14*
X1976636Y-14388203D02*
X2146816Y-14558383D01*
X2146816Y-14388203D02*
X1976636Y-14558383D01*
D13*
X2512355Y-14564776D02*
X2398069Y-14564776D01*
X2455212Y-14564776D02*
X2455212Y-14364776D01*
X2455212Y-14364776D02*
X2436164Y-14393348D01*
X2436164Y-14393348D02*
X2417117Y-14412395D01*
X2417117Y-14412395D02*
X2398069Y-14421919D01*
X2598069Y-14545729D02*
X2607593Y-14555253D01*
X2607593Y-14555253D02*
X2598069Y-14564776D01*
X2598069Y-14564776D02*
X2588545Y-14555253D01*
X2588545Y-14555253D02*
X2598069Y-14545729D01*
X2598069Y-14545729D02*
X2598069Y-14564776D01*
X2674259Y-14364776D02*
X2807593Y-14364776D01*
X2807593Y-14364776D02*
X2721878Y-14564776D01*
X2921878Y-14364776D02*
X2940926Y-14364776D01*
X2940926Y-14364776D02*
X2959974Y-14374300D01*
X2959974Y-14374300D02*
X2969497Y-14383824D01*
X2969497Y-14383824D02*
X2979021Y-14402872D01*
X2979021Y-14402872D02*
X2988545Y-14440967D01*
X2988545Y-14440967D02*
X2988545Y-14488586D01*
X2988545Y-14488586D02*
X2979021Y-14526681D01*
X2979021Y-14526681D02*
X2969497Y-14545729D01*
X2969497Y-14545729D02*
X2959974Y-14555253D01*
X2959974Y-14555253D02*
X2940926Y-14564776D01*
X2940926Y-14564776D02*
X2921878Y-14564776D01*
X2921878Y-14564776D02*
X2902831Y-14555253D01*
X2902831Y-14555253D02*
X2893307Y-14545729D01*
X2893307Y-14545729D02*
X2883783Y-14526681D01*
X2883783Y-14526681D02*
X2874259Y-14488586D01*
X2874259Y-14488586D02*
X2874259Y-14440967D01*
X2874259Y-14440967D02*
X2883783Y-14402872D01*
X2883783Y-14402872D02*
X2893307Y-14383824D01*
X2893307Y-14383824D02*
X2902831Y-14374300D01*
X2902831Y-14374300D02*
X2921878Y-14364776D01*
X3064736Y-14383824D02*
X3074259Y-14374300D01*
X3074259Y-14374300D02*
X3093307Y-14364776D01*
X3093307Y-14364776D02*
X3140926Y-14364776D01*
X3140926Y-14364776D02*
X3159974Y-14374300D01*
X3159974Y-14374300D02*
X3169497Y-14383824D01*
X3169497Y-14383824D02*
X3179021Y-14402872D01*
X3179021Y-14402872D02*
X3179021Y-14421919D01*
X3179021Y-14421919D02*
X3169497Y-14450491D01*
X3169497Y-14450491D02*
X3055212Y-14564776D01*
X3055212Y-14564776D02*
X3179021Y-14564776D01*
X3264736Y-14564776D02*
X3264736Y-14431443D01*
X3264736Y-14450491D02*
X3274259Y-14440967D01*
X3274259Y-14440967D02*
X3293307Y-14431443D01*
X3293307Y-14431443D02*
X3321878Y-14431443D01*
X3321878Y-14431443D02*
X3340926Y-14440967D01*
X3340926Y-14440967D02*
X3350450Y-14460014D01*
X3350450Y-14460014D02*
X3350450Y-14564776D01*
X3350450Y-14460014D02*
X3359974Y-14440967D01*
X3359974Y-14440967D02*
X3379021Y-14431443D01*
X3379021Y-14431443D02*
X3407593Y-14431443D01*
X3407593Y-14431443D02*
X3426640Y-14440967D01*
X3426640Y-14440967D02*
X3436164Y-14460014D01*
X3436164Y-14460014D02*
X3436164Y-14564776D01*
X3531402Y-14564776D02*
X3531402Y-14431443D01*
X3531402Y-14450491D02*
X3540926Y-14440967D01*
X3540926Y-14440967D02*
X3559974Y-14431443D01*
X3559974Y-14431443D02*
X3588545Y-14431443D01*
X3588545Y-14431443D02*
X3607593Y-14440967D01*
X3607593Y-14440967D02*
X3617117Y-14460014D01*
X3617117Y-14460014D02*
X3617117Y-14564776D01*
X3617117Y-14460014D02*
X3626640Y-14440967D01*
X3626640Y-14440967D02*
X3645688Y-14431443D01*
X3645688Y-14431443D02*
X3674259Y-14431443D01*
X3674259Y-14431443D02*
X3693307Y-14440967D01*
X3693307Y-14440967D02*
X3702831Y-14460014D01*
X3702831Y-14460014D02*
X3702831Y-14564776D01*
X4093307Y-14355253D02*
X3921879Y-14612395D01*
X4350450Y-14364776D02*
X4369498Y-14364776D01*
X4369498Y-14364776D02*
X4388545Y-14374300D01*
X4388545Y-14374300D02*
X4398069Y-14383824D01*
X4398069Y-14383824D02*
X4407593Y-14402872D01*
X4407593Y-14402872D02*
X4417117Y-14440967D01*
X4417117Y-14440967D02*
X4417117Y-14488586D01*
X4417117Y-14488586D02*
X4407593Y-14526681D01*
X4407593Y-14526681D02*
X4398069Y-14545729D01*
X4398069Y-14545729D02*
X4388545Y-14555253D01*
X4388545Y-14555253D02*
X4369498Y-14564776D01*
X4369498Y-14564776D02*
X4350450Y-14564776D01*
X4350450Y-14564776D02*
X4331402Y-14555253D01*
X4331402Y-14555253D02*
X4321879Y-14545729D01*
X4321879Y-14545729D02*
X4312355Y-14526681D01*
X4312355Y-14526681D02*
X4302831Y-14488586D01*
X4302831Y-14488586D02*
X4302831Y-14440967D01*
X4302831Y-14440967D02*
X4312355Y-14402872D01*
X4312355Y-14402872D02*
X4321879Y-14383824D01*
X4321879Y-14383824D02*
X4331402Y-14374300D01*
X4331402Y-14374300D02*
X4350450Y-14364776D01*
X4502831Y-14545729D02*
X4512355Y-14555253D01*
X4512355Y-14555253D02*
X4502831Y-14564776D01*
X4502831Y-14564776D02*
X4493307Y-14555253D01*
X4493307Y-14555253D02*
X4502831Y-14545729D01*
X4502831Y-14545729D02*
X4502831Y-14564776D01*
X4636164Y-14364776D02*
X4655212Y-14364776D01*
X4655212Y-14364776D02*
X4674260Y-14374300D01*
X4674260Y-14374300D02*
X4683783Y-14383824D01*
X4683783Y-14383824D02*
X4693307Y-14402872D01*
X4693307Y-14402872D02*
X4702831Y-14440967D01*
X4702831Y-14440967D02*
X4702831Y-14488586D01*
X4702831Y-14488586D02*
X4693307Y-14526681D01*
X4693307Y-14526681D02*
X4683783Y-14545729D01*
X4683783Y-14545729D02*
X4674260Y-14555253D01*
X4674260Y-14555253D02*
X4655212Y-14564776D01*
X4655212Y-14564776D02*
X4636164Y-14564776D01*
X4636164Y-14564776D02*
X4617117Y-14555253D01*
X4617117Y-14555253D02*
X4607593Y-14545729D01*
X4607593Y-14545729D02*
X4598069Y-14526681D01*
X4598069Y-14526681D02*
X4588545Y-14488586D01*
X4588545Y-14488586D02*
X4588545Y-14440967D01*
X4588545Y-14440967D02*
X4598069Y-14402872D01*
X4598069Y-14402872D02*
X4607593Y-14383824D01*
X4607593Y-14383824D02*
X4617117Y-14374300D01*
X4617117Y-14374300D02*
X4636164Y-14364776D01*
X4874260Y-14364776D02*
X4836164Y-14364776D01*
X4836164Y-14364776D02*
X4817117Y-14374300D01*
X4817117Y-14374300D02*
X4807593Y-14383824D01*
X4807593Y-14383824D02*
X4788545Y-14412395D01*
X4788545Y-14412395D02*
X4779022Y-14450491D01*
X4779022Y-14450491D02*
X4779022Y-14526681D01*
X4779022Y-14526681D02*
X4788545Y-14545729D01*
X4788545Y-14545729D02*
X4798069Y-14555253D01*
X4798069Y-14555253D02*
X4817117Y-14564776D01*
X4817117Y-14564776D02*
X4855212Y-14564776D01*
X4855212Y-14564776D02*
X4874260Y-14555253D01*
X4874260Y-14555253D02*
X4883783Y-14545729D01*
X4883783Y-14545729D02*
X4893307Y-14526681D01*
X4893307Y-14526681D02*
X4893307Y-14479062D01*
X4893307Y-14479062D02*
X4883783Y-14460014D01*
X4883783Y-14460014D02*
X4874260Y-14450491D01*
X4874260Y-14450491D02*
X4855212Y-14440967D01*
X4855212Y-14440967D02*
X4817117Y-14440967D01*
X4817117Y-14440967D02*
X4798069Y-14450491D01*
X4798069Y-14450491D02*
X4788545Y-14460014D01*
X4788545Y-14460014D02*
X4779022Y-14479062D01*
X4959974Y-14364776D02*
X5093307Y-14364776D01*
X5093307Y-14364776D02*
X5007593Y-14564776D01*
X5207593Y-14364776D02*
X5226641Y-14364776D01*
X5226641Y-14364776D02*
X5245688Y-14374300D01*
X5245688Y-14374300D02*
X5255212Y-14383824D01*
X5255212Y-14383824D02*
X5264736Y-14402872D01*
X5264736Y-14402872D02*
X5274260Y-14440967D01*
X5274260Y-14440967D02*
X5274260Y-14488586D01*
X5274260Y-14488586D02*
X5264736Y-14526681D01*
X5264736Y-14526681D02*
X5255212Y-14545729D01*
X5255212Y-14545729D02*
X5245688Y-14555253D01*
X5245688Y-14555253D02*
X5226641Y-14564776D01*
X5226641Y-14564776D02*
X5207593Y-14564776D01*
X5207593Y-14564776D02*
X5188545Y-14555253D01*
X5188545Y-14555253D02*
X5179022Y-14545729D01*
X5179022Y-14545729D02*
X5169498Y-14526681D01*
X5169498Y-14526681D02*
X5159974Y-14488586D01*
X5159974Y-14488586D02*
X5159974Y-14440967D01*
X5159974Y-14440967D02*
X5169498Y-14402872D01*
X5169498Y-14402872D02*
X5179022Y-14383824D01*
X5179022Y-14383824D02*
X5188545Y-14374300D01*
X5188545Y-14374300D02*
X5207593Y-14364776D01*
X5350450Y-14364776D02*
X5350450Y-14402872D01*
X5426641Y-14364776D02*
X5426641Y-14402872D01*
X5721879Y-14640967D02*
X5712355Y-14631443D01*
X5712355Y-14631443D02*
X5693307Y-14602872D01*
X5693307Y-14602872D02*
X5683783Y-14583824D01*
X5683783Y-14583824D02*
X5674260Y-14555253D01*
X5674260Y-14555253D02*
X5664736Y-14507633D01*
X5664736Y-14507633D02*
X5664736Y-14469538D01*
X5664736Y-14469538D02*
X5674260Y-14421919D01*
X5674260Y-14421919D02*
X5683783Y-14393348D01*
X5683783Y-14393348D02*
X5693307Y-14374300D01*
X5693307Y-14374300D02*
X5712355Y-14345729D01*
X5712355Y-14345729D02*
X5721879Y-14336205D01*
X5836164Y-14364776D02*
X5855212Y-14364776D01*
X5855212Y-14364776D02*
X5874260Y-14374300D01*
X5874260Y-14374300D02*
X5883783Y-14383824D01*
X5883783Y-14383824D02*
X5893307Y-14402872D01*
X5893307Y-14402872D02*
X5902831Y-14440967D01*
X5902831Y-14440967D02*
X5902831Y-14488586D01*
X5902831Y-14488586D02*
X5893307Y-14526681D01*
X5893307Y-14526681D02*
X5883783Y-14545729D01*
X5883783Y-14545729D02*
X5874260Y-14555253D01*
X5874260Y-14555253D02*
X5855212Y-14564776D01*
X5855212Y-14564776D02*
X5836164Y-14564776D01*
X5836164Y-14564776D02*
X5817117Y-14555253D01*
X5817117Y-14555253D02*
X5807593Y-14545729D01*
X5807593Y-14545729D02*
X5798069Y-14526681D01*
X5798069Y-14526681D02*
X5788545Y-14488586D01*
X5788545Y-14488586D02*
X5788545Y-14440967D01*
X5788545Y-14440967D02*
X5798069Y-14402872D01*
X5798069Y-14402872D02*
X5807593Y-14383824D01*
X5807593Y-14383824D02*
X5817117Y-14374300D01*
X5817117Y-14374300D02*
X5836164Y-14364776D01*
X6140926Y-14564776D02*
X6140926Y-14364776D01*
X6226641Y-14564776D02*
X6226641Y-14460014D01*
X6226641Y-14460014D02*
X6217117Y-14440967D01*
X6217117Y-14440967D02*
X6198069Y-14431443D01*
X6198069Y-14431443D02*
X6169498Y-14431443D01*
X6169498Y-14431443D02*
X6150450Y-14440967D01*
X6150450Y-14440967D02*
X6140926Y-14450491D01*
X6350450Y-14564776D02*
X6331403Y-14555253D01*
X6331403Y-14555253D02*
X6321879Y-14545729D01*
X6321879Y-14545729D02*
X6312355Y-14526681D01*
X6312355Y-14526681D02*
X6312355Y-14469538D01*
X6312355Y-14469538D02*
X6321879Y-14450491D01*
X6321879Y-14450491D02*
X6331403Y-14440967D01*
X6331403Y-14440967D02*
X6350450Y-14431443D01*
X6350450Y-14431443D02*
X6379022Y-14431443D01*
X6379022Y-14431443D02*
X6398069Y-14440967D01*
X6398069Y-14440967D02*
X6407593Y-14450491D01*
X6407593Y-14450491D02*
X6417117Y-14469538D01*
X6417117Y-14469538D02*
X6417117Y-14526681D01*
X6417117Y-14526681D02*
X6407593Y-14545729D01*
X6407593Y-14545729D02*
X6398069Y-14555253D01*
X6398069Y-14555253D02*
X6379022Y-14564776D01*
X6379022Y-14564776D02*
X6350450Y-14564776D01*
X6531403Y-14564776D02*
X6512355Y-14555253D01*
X6512355Y-14555253D02*
X6502831Y-14536205D01*
X6502831Y-14536205D02*
X6502831Y-14364776D01*
X6683784Y-14555253D02*
X6664736Y-14564776D01*
X6664736Y-14564776D02*
X6626641Y-14564776D01*
X6626641Y-14564776D02*
X6607593Y-14555253D01*
X6607593Y-14555253D02*
X6598069Y-14536205D01*
X6598069Y-14536205D02*
X6598069Y-14460014D01*
X6598069Y-14460014D02*
X6607593Y-14440967D01*
X6607593Y-14440967D02*
X6626641Y-14431443D01*
X6626641Y-14431443D02*
X6664736Y-14431443D01*
X6664736Y-14431443D02*
X6683784Y-14440967D01*
X6683784Y-14440967D02*
X6693307Y-14460014D01*
X6693307Y-14460014D02*
X6693307Y-14479062D01*
X6693307Y-14479062D02*
X6598069Y-14498110D01*
X6769498Y-14555253D02*
X6788545Y-14564776D01*
X6788545Y-14564776D02*
X6826641Y-14564776D01*
X6826641Y-14564776D02*
X6845688Y-14555253D01*
X6845688Y-14555253D02*
X6855212Y-14536205D01*
X6855212Y-14536205D02*
X6855212Y-14526681D01*
X6855212Y-14526681D02*
X6845688Y-14507633D01*
X6845688Y-14507633D02*
X6826641Y-14498110D01*
X6826641Y-14498110D02*
X6798069Y-14498110D01*
X6798069Y-14498110D02*
X6779022Y-14488586D01*
X6779022Y-14488586D02*
X6769498Y-14469538D01*
X6769498Y-14469538D02*
X6769498Y-14460014D01*
X6769498Y-14460014D02*
X6779022Y-14440967D01*
X6779022Y-14440967D02*
X6798069Y-14431443D01*
X6798069Y-14431443D02*
X6826641Y-14431443D01*
X6826641Y-14431443D02*
X6845688Y-14440967D01*
X7093307Y-14488586D02*
X7245688Y-14488586D01*
X7169498Y-14564776D02*
X7169498Y-14412395D01*
X7579022Y-14431443D02*
X7579022Y-14564776D01*
X7531403Y-14355253D02*
X7483784Y-14498110D01*
X7483784Y-14498110D02*
X7607593Y-14498110D01*
X7769498Y-14364776D02*
X7731403Y-14364776D01*
X7731403Y-14364776D02*
X7712355Y-14374300D01*
X7712355Y-14374300D02*
X7702831Y-14383824D01*
X7702831Y-14383824D02*
X7683784Y-14412395D01*
X7683784Y-14412395D02*
X7674260Y-14450491D01*
X7674260Y-14450491D02*
X7674260Y-14526681D01*
X7674260Y-14526681D02*
X7683784Y-14545729D01*
X7683784Y-14545729D02*
X7693307Y-14555253D01*
X7693307Y-14555253D02*
X7712355Y-14564776D01*
X7712355Y-14564776D02*
X7750450Y-14564776D01*
X7750450Y-14564776D02*
X7769498Y-14555253D01*
X7769498Y-14555253D02*
X7779022Y-14545729D01*
X7779022Y-14545729D02*
X7788546Y-14526681D01*
X7788546Y-14526681D02*
X7788546Y-14479062D01*
X7788546Y-14479062D02*
X7779022Y-14460014D01*
X7779022Y-14460014D02*
X7769498Y-14450491D01*
X7769498Y-14450491D02*
X7750450Y-14440967D01*
X7750450Y-14440967D02*
X7712355Y-14440967D01*
X7712355Y-14440967D02*
X7693307Y-14450491D01*
X7693307Y-14450491D02*
X7683784Y-14460014D01*
X7683784Y-14460014D02*
X7674260Y-14479062D01*
X8017117Y-14555253D02*
X8036165Y-14564776D01*
X8036165Y-14564776D02*
X8074260Y-14564776D01*
X8074260Y-14564776D02*
X8093308Y-14555253D01*
X8093308Y-14555253D02*
X8102831Y-14536205D01*
X8102831Y-14536205D02*
X8102831Y-14526681D01*
X8102831Y-14526681D02*
X8093308Y-14507633D01*
X8093308Y-14507633D02*
X8074260Y-14498110D01*
X8074260Y-14498110D02*
X8045688Y-14498110D01*
X8045688Y-14498110D02*
X8026641Y-14488586D01*
X8026641Y-14488586D02*
X8017117Y-14469538D01*
X8017117Y-14469538D02*
X8017117Y-14460014D01*
X8017117Y-14460014D02*
X8026641Y-14440967D01*
X8026641Y-14440967D02*
X8045688Y-14431443D01*
X8045688Y-14431443D02*
X8074260Y-14431443D01*
X8074260Y-14431443D02*
X8093308Y-14440967D01*
X8217117Y-14564776D02*
X8198069Y-14555253D01*
X8198069Y-14555253D02*
X8188546Y-14536205D01*
X8188546Y-14536205D02*
X8188546Y-14364776D01*
X8321879Y-14564776D02*
X8302831Y-14555253D01*
X8302831Y-14555253D02*
X8293308Y-14545729D01*
X8293308Y-14545729D02*
X8283784Y-14526681D01*
X8283784Y-14526681D02*
X8283784Y-14469538D01*
X8283784Y-14469538D02*
X8293308Y-14450491D01*
X8293308Y-14450491D02*
X8302831Y-14440967D01*
X8302831Y-14440967D02*
X8321879Y-14431443D01*
X8321879Y-14431443D02*
X8350450Y-14431443D01*
X8350450Y-14431443D02*
X8369498Y-14440967D01*
X8369498Y-14440967D02*
X8379022Y-14450491D01*
X8379022Y-14450491D02*
X8388546Y-14469538D01*
X8388546Y-14469538D02*
X8388546Y-14526681D01*
X8388546Y-14526681D02*
X8379022Y-14545729D01*
X8379022Y-14545729D02*
X8369498Y-14555253D01*
X8369498Y-14555253D02*
X8350450Y-14564776D01*
X8350450Y-14564776D02*
X8321879Y-14564776D01*
X8445689Y-14431443D02*
X8521879Y-14431443D01*
X8474260Y-14364776D02*
X8474260Y-14536205D01*
X8474260Y-14536205D02*
X8483784Y-14555253D01*
X8483784Y-14555253D02*
X8502831Y-14564776D01*
X8502831Y-14564776D02*
X8521879Y-14564776D01*
X8579022Y-14555253D02*
X8598070Y-14564776D01*
X8598070Y-14564776D02*
X8636165Y-14564776D01*
X8636165Y-14564776D02*
X8655212Y-14555253D01*
X8655212Y-14555253D02*
X8664736Y-14536205D01*
X8664736Y-14536205D02*
X8664736Y-14526681D01*
X8664736Y-14526681D02*
X8655212Y-14507633D01*
X8655212Y-14507633D02*
X8636165Y-14498110D01*
X8636165Y-14498110D02*
X8607593Y-14498110D01*
X8607593Y-14498110D02*
X8588546Y-14488586D01*
X8588546Y-14488586D02*
X8579022Y-14469538D01*
X8579022Y-14469538D02*
X8579022Y-14460014D01*
X8579022Y-14460014D02*
X8588546Y-14440967D01*
X8588546Y-14440967D02*
X8607593Y-14431443D01*
X8607593Y-14431443D02*
X8636165Y-14431443D01*
X8636165Y-14431443D02*
X8655212Y-14440967D01*
X8731403Y-14640967D02*
X8740927Y-14631443D01*
X8740927Y-14631443D02*
X8759974Y-14602872D01*
X8759974Y-14602872D02*
X8769498Y-14583824D01*
X8769498Y-14583824D02*
X8779022Y-14555253D01*
X8779022Y-14555253D02*
X8788546Y-14507633D01*
X8788546Y-14507633D02*
X8788546Y-14469538D01*
X8788546Y-14469538D02*
X8779022Y-14421919D01*
X8779022Y-14421919D02*
X8769498Y-14393348D01*
X8769498Y-14393348D02*
X8759974Y-14374300D01*
X8759974Y-14374300D02*
X8740927Y-14345729D01*
X8740927Y-14345729D02*
X8731403Y-14336205D01*
X9093308Y-14640967D02*
X9083784Y-14631443D01*
X9083784Y-14631443D02*
X9064736Y-14602872D01*
X9064736Y-14602872D02*
X9055212Y-14583824D01*
X9055212Y-14583824D02*
X9045689Y-14555253D01*
X9045689Y-14555253D02*
X9036165Y-14507633D01*
X9036165Y-14507633D02*
X9036165Y-14469538D01*
X9036165Y-14469538D02*
X9045689Y-14421919D01*
X9045689Y-14421919D02*
X9055212Y-14393348D01*
X9055212Y-14393348D02*
X9064736Y-14374300D01*
X9064736Y-14374300D02*
X9083784Y-14345729D01*
X9083784Y-14345729D02*
X9093308Y-14336205D01*
X9169498Y-14431443D02*
X9169498Y-14564776D01*
X9169498Y-14450491D02*
X9179022Y-14440967D01*
X9179022Y-14440967D02*
X9198070Y-14431443D01*
X9198070Y-14431443D02*
X9226641Y-14431443D01*
X9226641Y-14431443D02*
X9245689Y-14440967D01*
X9245689Y-14440967D02*
X9255212Y-14460014D01*
X9255212Y-14460014D02*
X9255212Y-14564776D01*
X9379022Y-14564776D02*
X9359974Y-14555253D01*
X9359974Y-14555253D02*
X9350451Y-14545729D01*
X9350451Y-14545729D02*
X9340927Y-14526681D01*
X9340927Y-14526681D02*
X9340927Y-14469538D01*
X9340927Y-14469538D02*
X9350451Y-14450491D01*
X9350451Y-14450491D02*
X9359974Y-14440967D01*
X9359974Y-14440967D02*
X9379022Y-14431443D01*
X9379022Y-14431443D02*
X9407593Y-14431443D01*
X9407593Y-14431443D02*
X9426641Y-14440967D01*
X9426641Y-14440967D02*
X9436165Y-14450491D01*
X9436165Y-14450491D02*
X9445689Y-14469538D01*
X9445689Y-14469538D02*
X9445689Y-14526681D01*
X9445689Y-14526681D02*
X9436165Y-14545729D01*
X9436165Y-14545729D02*
X9426641Y-14555253D01*
X9426641Y-14555253D02*
X9407593Y-14564776D01*
X9407593Y-14564776D02*
X9379022Y-14564776D01*
X9502832Y-14431443D02*
X9579022Y-14431443D01*
X9531403Y-14364776D02*
X9531403Y-14536205D01*
X9531403Y-14536205D02*
X9540927Y-14555253D01*
X9540927Y-14555253D02*
X9559974Y-14564776D01*
X9559974Y-14564776D02*
X9579022Y-14564776D01*
X9798070Y-14431443D02*
X9798070Y-14631443D01*
X9798070Y-14440967D02*
X9817117Y-14431443D01*
X9817117Y-14431443D02*
X9855213Y-14431443D01*
X9855213Y-14431443D02*
X9874260Y-14440967D01*
X9874260Y-14440967D02*
X9883784Y-14450491D01*
X9883784Y-14450491D02*
X9893308Y-14469538D01*
X9893308Y-14469538D02*
X9893308Y-14526681D01*
X9893308Y-14526681D02*
X9883784Y-14545729D01*
X9883784Y-14545729D02*
X9874260Y-14555253D01*
X9874260Y-14555253D02*
X9855213Y-14564776D01*
X9855213Y-14564776D02*
X9817117Y-14564776D01*
X9817117Y-14564776D02*
X9798070Y-14555253D01*
X10007593Y-14564776D02*
X9988546Y-14555253D01*
X9988546Y-14555253D02*
X9979022Y-14536205D01*
X9979022Y-14536205D02*
X9979022Y-14364776D01*
X10169498Y-14564776D02*
X10169498Y-14460014D01*
X10169498Y-14460014D02*
X10159974Y-14440967D01*
X10159974Y-14440967D02*
X10140927Y-14431443D01*
X10140927Y-14431443D02*
X10102832Y-14431443D01*
X10102832Y-14431443D02*
X10083784Y-14440967D01*
X10169498Y-14555253D02*
X10150451Y-14564776D01*
X10150451Y-14564776D02*
X10102832Y-14564776D01*
X10102832Y-14564776D02*
X10083784Y-14555253D01*
X10083784Y-14555253D02*
X10074260Y-14536205D01*
X10074260Y-14536205D02*
X10074260Y-14517157D01*
X10074260Y-14517157D02*
X10083784Y-14498110D01*
X10083784Y-14498110D02*
X10102832Y-14488586D01*
X10102832Y-14488586D02*
X10150451Y-14488586D01*
X10150451Y-14488586D02*
X10169498Y-14479062D01*
X10236165Y-14431443D02*
X10312355Y-14431443D01*
X10264736Y-14364776D02*
X10264736Y-14536205D01*
X10264736Y-14536205D02*
X10274260Y-14555253D01*
X10274260Y-14555253D02*
X10293308Y-14564776D01*
X10293308Y-14564776D02*
X10312355Y-14564776D01*
X10455213Y-14555253D02*
X10436165Y-14564776D01*
X10436165Y-14564776D02*
X10398070Y-14564776D01*
X10398070Y-14564776D02*
X10379022Y-14555253D01*
X10379022Y-14555253D02*
X10369498Y-14536205D01*
X10369498Y-14536205D02*
X10369498Y-14460014D01*
X10369498Y-14460014D02*
X10379022Y-14440967D01*
X10379022Y-14440967D02*
X10398070Y-14431443D01*
X10398070Y-14431443D02*
X10436165Y-14431443D01*
X10436165Y-14431443D02*
X10455213Y-14440967D01*
X10455213Y-14440967D02*
X10464736Y-14460014D01*
X10464736Y-14460014D02*
X10464736Y-14479062D01*
X10464736Y-14479062D02*
X10369498Y-14498110D01*
X10636165Y-14564776D02*
X10636165Y-14364776D01*
X10636165Y-14555253D02*
X10617117Y-14564776D01*
X10617117Y-14564776D02*
X10579022Y-14564776D01*
X10579022Y-14564776D02*
X10559974Y-14555253D01*
X10559974Y-14555253D02*
X10550451Y-14545729D01*
X10550451Y-14545729D02*
X10540927Y-14526681D01*
X10540927Y-14526681D02*
X10540927Y-14469538D01*
X10540927Y-14469538D02*
X10550451Y-14450491D01*
X10550451Y-14450491D02*
X10559974Y-14440967D01*
X10559974Y-14440967D02*
X10579022Y-14431443D01*
X10579022Y-14431443D02*
X10617117Y-14431443D01*
X10617117Y-14431443D02*
X10636165Y-14440967D01*
X10712355Y-14640967D02*
X10721879Y-14631443D01*
X10721879Y-14631443D02*
X10740927Y-14602872D01*
X10740927Y-14602872D02*
X10750451Y-14583824D01*
X10750451Y-14583824D02*
X10759974Y-14555253D01*
X10759974Y-14555253D02*
X10769498Y-14507633D01*
X10769498Y-14507633D02*
X10769498Y-14469538D01*
X10769498Y-14469538D02*
X10759974Y-14421919D01*
X10759974Y-14421919D02*
X10750451Y-14393348D01*
X10750451Y-14393348D02*
X10740927Y-14374300D01*
X10740927Y-14374300D02*
X10721879Y-14345729D01*
X10721879Y-14345729D02*
X10712355Y-14336205D01*
X2146816Y-14763473D02*
G75*
G02*
X1946816Y-14763473I-100000J0D01*
G01*
X1946816Y-14763473D02*
G75*
G02*
X2146816Y-14763473I100000J0D01*
G01*
X2398069Y-14674004D02*
X2407593Y-14664480D01*
X2407593Y-14664480D02*
X2426640Y-14654956D01*
X2426640Y-14654956D02*
X2474259Y-14654956D01*
X2474259Y-14654956D02*
X2493307Y-14664480D01*
X2493307Y-14664480D02*
X2502831Y-14674004D01*
X2502831Y-14674004D02*
X2512355Y-14693052D01*
X2512355Y-14693052D02*
X2512355Y-14712099D01*
X2512355Y-14712099D02*
X2502831Y-14740671D01*
X2502831Y-14740671D02*
X2388545Y-14854956D01*
X2388545Y-14854956D02*
X2512355Y-14854956D01*
X2598069Y-14835909D02*
X2607593Y-14845433D01*
X2607593Y-14845433D02*
X2598069Y-14854956D01*
X2598069Y-14854956D02*
X2588545Y-14845433D01*
X2588545Y-14845433D02*
X2598069Y-14835909D01*
X2598069Y-14835909D02*
X2598069Y-14854956D01*
X2683783Y-14674004D02*
X2693307Y-14664480D01*
X2693307Y-14664480D02*
X2712355Y-14654956D01*
X2712355Y-14654956D02*
X2759974Y-14654956D01*
X2759974Y-14654956D02*
X2779021Y-14664480D01*
X2779021Y-14664480D02*
X2788545Y-14674004D01*
X2788545Y-14674004D02*
X2798069Y-14693052D01*
X2798069Y-14693052D02*
X2798069Y-14712099D01*
X2798069Y-14712099D02*
X2788545Y-14740671D01*
X2788545Y-14740671D02*
X2674259Y-14854956D01*
X2674259Y-14854956D02*
X2798069Y-14854956D01*
X2921878Y-14654956D02*
X2940926Y-14654956D01*
X2940926Y-14654956D02*
X2959974Y-14664480D01*
X2959974Y-14664480D02*
X2969497Y-14674004D01*
X2969497Y-14674004D02*
X2979021Y-14693052D01*
X2979021Y-14693052D02*
X2988545Y-14731147D01*
X2988545Y-14731147D02*
X2988545Y-14778766D01*
X2988545Y-14778766D02*
X2979021Y-14816861D01*
X2979021Y-14816861D02*
X2969497Y-14835909D01*
X2969497Y-14835909D02*
X2959974Y-14845433D01*
X2959974Y-14845433D02*
X2940926Y-14854956D01*
X2940926Y-14854956D02*
X2921878Y-14854956D01*
X2921878Y-14854956D02*
X2902831Y-14845433D01*
X2902831Y-14845433D02*
X2893307Y-14835909D01*
X2893307Y-14835909D02*
X2883783Y-14816861D01*
X2883783Y-14816861D02*
X2874259Y-14778766D01*
X2874259Y-14778766D02*
X2874259Y-14731147D01*
X2874259Y-14731147D02*
X2883783Y-14693052D01*
X2883783Y-14693052D02*
X2893307Y-14674004D01*
X2893307Y-14674004D02*
X2902831Y-14664480D01*
X2902831Y-14664480D02*
X2921878Y-14654956D01*
X3112355Y-14654956D02*
X3131402Y-14654956D01*
X3131402Y-14654956D02*
X3150450Y-14664480D01*
X3150450Y-14664480D02*
X3159974Y-14674004D01*
X3159974Y-14674004D02*
X3169497Y-14693052D01*
X3169497Y-14693052D02*
X3179021Y-14731147D01*
X3179021Y-14731147D02*
X3179021Y-14778766D01*
X3179021Y-14778766D02*
X3169497Y-14816861D01*
X3169497Y-14816861D02*
X3159974Y-14835909D01*
X3159974Y-14835909D02*
X3150450Y-14845433D01*
X3150450Y-14845433D02*
X3131402Y-14854956D01*
X3131402Y-14854956D02*
X3112355Y-14854956D01*
X3112355Y-14854956D02*
X3093307Y-14845433D01*
X3093307Y-14845433D02*
X3083783Y-14835909D01*
X3083783Y-14835909D02*
X3074259Y-14816861D01*
X3074259Y-14816861D02*
X3064736Y-14778766D01*
X3064736Y-14778766D02*
X3064736Y-14731147D01*
X3064736Y-14731147D02*
X3074259Y-14693052D01*
X3074259Y-14693052D02*
X3083783Y-14674004D01*
X3083783Y-14674004D02*
X3093307Y-14664480D01*
X3093307Y-14664480D02*
X3112355Y-14654956D01*
X3264736Y-14854956D02*
X3264736Y-14721623D01*
X3264736Y-14740671D02*
X3274259Y-14731147D01*
X3274259Y-14731147D02*
X3293307Y-14721623D01*
X3293307Y-14721623D02*
X3321878Y-14721623D01*
X3321878Y-14721623D02*
X3340926Y-14731147D01*
X3340926Y-14731147D02*
X3350450Y-14750194D01*
X3350450Y-14750194D02*
X3350450Y-14854956D01*
X3350450Y-14750194D02*
X3359974Y-14731147D01*
X3359974Y-14731147D02*
X3379021Y-14721623D01*
X3379021Y-14721623D02*
X3407593Y-14721623D01*
X3407593Y-14721623D02*
X3426640Y-14731147D01*
X3426640Y-14731147D02*
X3436164Y-14750194D01*
X3436164Y-14750194D02*
X3436164Y-14854956D01*
X3531402Y-14854956D02*
X3531402Y-14721623D01*
X3531402Y-14740671D02*
X3540926Y-14731147D01*
X3540926Y-14731147D02*
X3559974Y-14721623D01*
X3559974Y-14721623D02*
X3588545Y-14721623D01*
X3588545Y-14721623D02*
X3607593Y-14731147D01*
X3607593Y-14731147D02*
X3617117Y-14750194D01*
X3617117Y-14750194D02*
X3617117Y-14854956D01*
X3617117Y-14750194D02*
X3626640Y-14731147D01*
X3626640Y-14731147D02*
X3645688Y-14721623D01*
X3645688Y-14721623D02*
X3674259Y-14721623D01*
X3674259Y-14721623D02*
X3693307Y-14731147D01*
X3693307Y-14731147D02*
X3702831Y-14750194D01*
X3702831Y-14750194D02*
X3702831Y-14854956D01*
X4093307Y-14645433D02*
X3921879Y-14902575D01*
X4350450Y-14654956D02*
X4369498Y-14654956D01*
X4369498Y-14654956D02*
X4388545Y-14664480D01*
X4388545Y-14664480D02*
X4398069Y-14674004D01*
X4398069Y-14674004D02*
X4407593Y-14693052D01*
X4407593Y-14693052D02*
X4417117Y-14731147D01*
X4417117Y-14731147D02*
X4417117Y-14778766D01*
X4417117Y-14778766D02*
X4407593Y-14816861D01*
X4407593Y-14816861D02*
X4398069Y-14835909D01*
X4398069Y-14835909D02*
X4388545Y-14845433D01*
X4388545Y-14845433D02*
X4369498Y-14854956D01*
X4369498Y-14854956D02*
X4350450Y-14854956D01*
X4350450Y-14854956D02*
X4331402Y-14845433D01*
X4331402Y-14845433D02*
X4321879Y-14835909D01*
X4321879Y-14835909D02*
X4312355Y-14816861D01*
X4312355Y-14816861D02*
X4302831Y-14778766D01*
X4302831Y-14778766D02*
X4302831Y-14731147D01*
X4302831Y-14731147D02*
X4312355Y-14693052D01*
X4312355Y-14693052D02*
X4321879Y-14674004D01*
X4321879Y-14674004D02*
X4331402Y-14664480D01*
X4331402Y-14664480D02*
X4350450Y-14654956D01*
X4502831Y-14835909D02*
X4512355Y-14845433D01*
X4512355Y-14845433D02*
X4502831Y-14854956D01*
X4502831Y-14854956D02*
X4493307Y-14845433D01*
X4493307Y-14845433D02*
X4502831Y-14835909D01*
X4502831Y-14835909D02*
X4502831Y-14854956D01*
X4636164Y-14654956D02*
X4655212Y-14654956D01*
X4655212Y-14654956D02*
X4674260Y-14664480D01*
X4674260Y-14664480D02*
X4683783Y-14674004D01*
X4683783Y-14674004D02*
X4693307Y-14693052D01*
X4693307Y-14693052D02*
X4702831Y-14731147D01*
X4702831Y-14731147D02*
X4702831Y-14778766D01*
X4702831Y-14778766D02*
X4693307Y-14816861D01*
X4693307Y-14816861D02*
X4683783Y-14835909D01*
X4683783Y-14835909D02*
X4674260Y-14845433D01*
X4674260Y-14845433D02*
X4655212Y-14854956D01*
X4655212Y-14854956D02*
X4636164Y-14854956D01*
X4636164Y-14854956D02*
X4617117Y-14845433D01*
X4617117Y-14845433D02*
X4607593Y-14835909D01*
X4607593Y-14835909D02*
X4598069Y-14816861D01*
X4598069Y-14816861D02*
X4588545Y-14778766D01*
X4588545Y-14778766D02*
X4588545Y-14731147D01*
X4588545Y-14731147D02*
X4598069Y-14693052D01*
X4598069Y-14693052D02*
X4607593Y-14674004D01*
X4607593Y-14674004D02*
X4617117Y-14664480D01*
X4617117Y-14664480D02*
X4636164Y-14654956D01*
X4817117Y-14740671D02*
X4798069Y-14731147D01*
X4798069Y-14731147D02*
X4788545Y-14721623D01*
X4788545Y-14721623D02*
X4779022Y-14702575D01*
X4779022Y-14702575D02*
X4779022Y-14693052D01*
X4779022Y-14693052D02*
X4788545Y-14674004D01*
X4788545Y-14674004D02*
X4798069Y-14664480D01*
X4798069Y-14664480D02*
X4817117Y-14654956D01*
X4817117Y-14654956D02*
X4855212Y-14654956D01*
X4855212Y-14654956D02*
X4874260Y-14664480D01*
X4874260Y-14664480D02*
X4883783Y-14674004D01*
X4883783Y-14674004D02*
X4893307Y-14693052D01*
X4893307Y-14693052D02*
X4893307Y-14702575D01*
X4893307Y-14702575D02*
X4883783Y-14721623D01*
X4883783Y-14721623D02*
X4874260Y-14731147D01*
X4874260Y-14731147D02*
X4855212Y-14740671D01*
X4855212Y-14740671D02*
X4817117Y-14740671D01*
X4817117Y-14740671D02*
X4798069Y-14750194D01*
X4798069Y-14750194D02*
X4788545Y-14759718D01*
X4788545Y-14759718D02*
X4779022Y-14778766D01*
X4779022Y-14778766D02*
X4779022Y-14816861D01*
X4779022Y-14816861D02*
X4788545Y-14835909D01*
X4788545Y-14835909D02*
X4798069Y-14845433D01*
X4798069Y-14845433D02*
X4817117Y-14854956D01*
X4817117Y-14854956D02*
X4855212Y-14854956D01*
X4855212Y-14854956D02*
X4874260Y-14845433D01*
X4874260Y-14845433D02*
X4883783Y-14835909D01*
X4883783Y-14835909D02*
X4893307Y-14816861D01*
X4893307Y-14816861D02*
X4893307Y-14778766D01*
X4893307Y-14778766D02*
X4883783Y-14759718D01*
X4883783Y-14759718D02*
X4874260Y-14750194D01*
X4874260Y-14750194D02*
X4855212Y-14740671D01*
X5064736Y-14654956D02*
X5026641Y-14654956D01*
X5026641Y-14654956D02*
X5007593Y-14664480D01*
X5007593Y-14664480D02*
X4998069Y-14674004D01*
X4998069Y-14674004D02*
X4979022Y-14702575D01*
X4979022Y-14702575D02*
X4969498Y-14740671D01*
X4969498Y-14740671D02*
X4969498Y-14816861D01*
X4969498Y-14816861D02*
X4979022Y-14835909D01*
X4979022Y-14835909D02*
X4988545Y-14845433D01*
X4988545Y-14845433D02*
X5007593Y-14854956D01*
X5007593Y-14854956D02*
X5045688Y-14854956D01*
X5045688Y-14854956D02*
X5064736Y-14845433D01*
X5064736Y-14845433D02*
X5074260Y-14835909D01*
X5074260Y-14835909D02*
X5083783Y-14816861D01*
X5083783Y-14816861D02*
X5083783Y-14769242D01*
X5083783Y-14769242D02*
X5074260Y-14750194D01*
X5074260Y-14750194D02*
X5064736Y-14740671D01*
X5064736Y-14740671D02*
X5045688Y-14731147D01*
X5045688Y-14731147D02*
X5007593Y-14731147D01*
X5007593Y-14731147D02*
X4988545Y-14740671D01*
X4988545Y-14740671D02*
X4979022Y-14750194D01*
X4979022Y-14750194D02*
X4969498Y-14769242D01*
X5255212Y-14654956D02*
X5217117Y-14654956D01*
X5217117Y-14654956D02*
X5198069Y-14664480D01*
X5198069Y-14664480D02*
X5188545Y-14674004D01*
X5188545Y-14674004D02*
X5169498Y-14702575D01*
X5169498Y-14702575D02*
X5159974Y-14740671D01*
X5159974Y-14740671D02*
X5159974Y-14816861D01*
X5159974Y-14816861D02*
X5169498Y-14835909D01*
X5169498Y-14835909D02*
X5179022Y-14845433D01*
X5179022Y-14845433D02*
X5198069Y-14854956D01*
X5198069Y-14854956D02*
X5236164Y-14854956D01*
X5236164Y-14854956D02*
X5255212Y-14845433D01*
X5255212Y-14845433D02*
X5264736Y-14835909D01*
X5264736Y-14835909D02*
X5274260Y-14816861D01*
X5274260Y-14816861D02*
X5274260Y-14769242D01*
X5274260Y-14769242D02*
X5264736Y-14750194D01*
X5264736Y-14750194D02*
X5255212Y-14740671D01*
X5255212Y-14740671D02*
X5236164Y-14731147D01*
X5236164Y-14731147D02*
X5198069Y-14731147D01*
X5198069Y-14731147D02*
X5179022Y-14740671D01*
X5179022Y-14740671D02*
X5169498Y-14750194D01*
X5169498Y-14750194D02*
X5159974Y-14769242D01*
X5350450Y-14654956D02*
X5350450Y-14693052D01*
X5426641Y-14654956D02*
X5426641Y-14693052D01*
X5721879Y-14931147D02*
X5712355Y-14921623D01*
X5712355Y-14921623D02*
X5693307Y-14893052D01*
X5693307Y-14893052D02*
X5683783Y-14874004D01*
X5683783Y-14874004D02*
X5674260Y-14845433D01*
X5674260Y-14845433D02*
X5664736Y-14797813D01*
X5664736Y-14797813D02*
X5664736Y-14759718D01*
X5664736Y-14759718D02*
X5674260Y-14712099D01*
X5674260Y-14712099D02*
X5683783Y-14683528D01*
X5683783Y-14683528D02*
X5693307Y-14664480D01*
X5693307Y-14664480D02*
X5712355Y-14635909D01*
X5712355Y-14635909D02*
X5721879Y-14626385D01*
X5883783Y-14721623D02*
X5883783Y-14854956D01*
X5836164Y-14645433D02*
X5788545Y-14788290D01*
X5788545Y-14788290D02*
X5912355Y-14788290D01*
X6140926Y-14854956D02*
X6140926Y-14654956D01*
X6226641Y-14854956D02*
X6226641Y-14750194D01*
X6226641Y-14750194D02*
X6217117Y-14731147D01*
X6217117Y-14731147D02*
X6198069Y-14721623D01*
X6198069Y-14721623D02*
X6169498Y-14721623D01*
X6169498Y-14721623D02*
X6150450Y-14731147D01*
X6150450Y-14731147D02*
X6140926Y-14740671D01*
X6350450Y-14854956D02*
X6331403Y-14845433D01*
X6331403Y-14845433D02*
X6321879Y-14835909D01*
X6321879Y-14835909D02*
X6312355Y-14816861D01*
X6312355Y-14816861D02*
X6312355Y-14759718D01*
X6312355Y-14759718D02*
X6321879Y-14740671D01*
X6321879Y-14740671D02*
X6331403Y-14731147D01*
X6331403Y-14731147D02*
X6350450Y-14721623D01*
X6350450Y-14721623D02*
X6379022Y-14721623D01*
X6379022Y-14721623D02*
X6398069Y-14731147D01*
X6398069Y-14731147D02*
X6407593Y-14740671D01*
X6407593Y-14740671D02*
X6417117Y-14759718D01*
X6417117Y-14759718D02*
X6417117Y-14816861D01*
X6417117Y-14816861D02*
X6407593Y-14835909D01*
X6407593Y-14835909D02*
X6398069Y-14845433D01*
X6398069Y-14845433D02*
X6379022Y-14854956D01*
X6379022Y-14854956D02*
X6350450Y-14854956D01*
X6531403Y-14854956D02*
X6512355Y-14845433D01*
X6512355Y-14845433D02*
X6502831Y-14826385D01*
X6502831Y-14826385D02*
X6502831Y-14654956D01*
X6683784Y-14845433D02*
X6664736Y-14854956D01*
X6664736Y-14854956D02*
X6626641Y-14854956D01*
X6626641Y-14854956D02*
X6607593Y-14845433D01*
X6607593Y-14845433D02*
X6598069Y-14826385D01*
X6598069Y-14826385D02*
X6598069Y-14750194D01*
X6598069Y-14750194D02*
X6607593Y-14731147D01*
X6607593Y-14731147D02*
X6626641Y-14721623D01*
X6626641Y-14721623D02*
X6664736Y-14721623D01*
X6664736Y-14721623D02*
X6683784Y-14731147D01*
X6683784Y-14731147D02*
X6693307Y-14750194D01*
X6693307Y-14750194D02*
X6693307Y-14769242D01*
X6693307Y-14769242D02*
X6598069Y-14788290D01*
X6769498Y-14845433D02*
X6788545Y-14854956D01*
X6788545Y-14854956D02*
X6826641Y-14854956D01*
X6826641Y-14854956D02*
X6845688Y-14845433D01*
X6845688Y-14845433D02*
X6855212Y-14826385D01*
X6855212Y-14826385D02*
X6855212Y-14816861D01*
X6855212Y-14816861D02*
X6845688Y-14797813D01*
X6845688Y-14797813D02*
X6826641Y-14788290D01*
X6826641Y-14788290D02*
X6798069Y-14788290D01*
X6798069Y-14788290D02*
X6779022Y-14778766D01*
X6779022Y-14778766D02*
X6769498Y-14759718D01*
X6769498Y-14759718D02*
X6769498Y-14750194D01*
X6769498Y-14750194D02*
X6779022Y-14731147D01*
X6779022Y-14731147D02*
X6798069Y-14721623D01*
X6798069Y-14721623D02*
X6826641Y-14721623D01*
X6826641Y-14721623D02*
X6845688Y-14731147D01*
X6921879Y-14931147D02*
X6931403Y-14921623D01*
X6931403Y-14921623D02*
X6950450Y-14893052D01*
X6950450Y-14893052D02*
X6959974Y-14874004D01*
X6959974Y-14874004D02*
X6969498Y-14845433D01*
X6969498Y-14845433D02*
X6979022Y-14797813D01*
X6979022Y-14797813D02*
X6979022Y-14759718D01*
X6979022Y-14759718D02*
X6969498Y-14712099D01*
X6969498Y-14712099D02*
X6959974Y-14683528D01*
X6959974Y-14683528D02*
X6950450Y-14664480D01*
X6950450Y-14664480D02*
X6931403Y-14635909D01*
X6931403Y-14635909D02*
X6921879Y-14626385D01*
X7283784Y-14931147D02*
X7274260Y-14921623D01*
X7274260Y-14921623D02*
X7255212Y-14893052D01*
X7255212Y-14893052D02*
X7245688Y-14874004D01*
X7245688Y-14874004D02*
X7236165Y-14845433D01*
X7236165Y-14845433D02*
X7226641Y-14797813D01*
X7226641Y-14797813D02*
X7226641Y-14759718D01*
X7226641Y-14759718D02*
X7236165Y-14712099D01*
X7236165Y-14712099D02*
X7245688Y-14683528D01*
X7245688Y-14683528D02*
X7255212Y-14664480D01*
X7255212Y-14664480D02*
X7274260Y-14635909D01*
X7274260Y-14635909D02*
X7283784Y-14626385D01*
X7359974Y-14721623D02*
X7359974Y-14854956D01*
X7359974Y-14740671D02*
X7369498Y-14731147D01*
X7369498Y-14731147D02*
X7388545Y-14721623D01*
X7388545Y-14721623D02*
X7417117Y-14721623D01*
X7417117Y-14721623D02*
X7436165Y-14731147D01*
X7436165Y-14731147D02*
X7445688Y-14750194D01*
X7445688Y-14750194D02*
X7445688Y-14854956D01*
X7569498Y-14854956D02*
X7550450Y-14845433D01*
X7550450Y-14845433D02*
X7540926Y-14835909D01*
X7540926Y-14835909D02*
X7531403Y-14816861D01*
X7531403Y-14816861D02*
X7531403Y-14759718D01*
X7531403Y-14759718D02*
X7540926Y-14740671D01*
X7540926Y-14740671D02*
X7550450Y-14731147D01*
X7550450Y-14731147D02*
X7569498Y-14721623D01*
X7569498Y-14721623D02*
X7598069Y-14721623D01*
X7598069Y-14721623D02*
X7617117Y-14731147D01*
X7617117Y-14731147D02*
X7626641Y-14740671D01*
X7626641Y-14740671D02*
X7636165Y-14759718D01*
X7636165Y-14759718D02*
X7636165Y-14816861D01*
X7636165Y-14816861D02*
X7626641Y-14835909D01*
X7626641Y-14835909D02*
X7617117Y-14845433D01*
X7617117Y-14845433D02*
X7598069Y-14854956D01*
X7598069Y-14854956D02*
X7569498Y-14854956D01*
X7693307Y-14721623D02*
X7769498Y-14721623D01*
X7721879Y-14654956D02*
X7721879Y-14826385D01*
X7721879Y-14826385D02*
X7731403Y-14845433D01*
X7731403Y-14845433D02*
X7750450Y-14854956D01*
X7750450Y-14854956D02*
X7769498Y-14854956D01*
X7988546Y-14721623D02*
X7988546Y-14921623D01*
X7988546Y-14731147D02*
X8007593Y-14721623D01*
X8007593Y-14721623D02*
X8045688Y-14721623D01*
X8045688Y-14721623D02*
X8064736Y-14731147D01*
X8064736Y-14731147D02*
X8074260Y-14740671D01*
X8074260Y-14740671D02*
X8083784Y-14759718D01*
X8083784Y-14759718D02*
X8083784Y-14816861D01*
X8083784Y-14816861D02*
X8074260Y-14835909D01*
X8074260Y-14835909D02*
X8064736Y-14845433D01*
X8064736Y-14845433D02*
X8045688Y-14854956D01*
X8045688Y-14854956D02*
X8007593Y-14854956D01*
X8007593Y-14854956D02*
X7988546Y-14845433D01*
X8198069Y-14854956D02*
X8179022Y-14845433D01*
X8179022Y-14845433D02*
X8169498Y-14826385D01*
X8169498Y-14826385D02*
X8169498Y-14654956D01*
X8359974Y-14854956D02*
X8359974Y-14750194D01*
X8359974Y-14750194D02*
X8350450Y-14731147D01*
X8350450Y-14731147D02*
X8331403Y-14721623D01*
X8331403Y-14721623D02*
X8293307Y-14721623D01*
X8293307Y-14721623D02*
X8274260Y-14731147D01*
X8359974Y-14845433D02*
X8340927Y-14854956D01*
X8340927Y-14854956D02*
X8293307Y-14854956D01*
X8293307Y-14854956D02*
X8274260Y-14845433D01*
X8274260Y-14845433D02*
X8264736Y-14826385D01*
X8264736Y-14826385D02*
X8264736Y-14807337D01*
X8264736Y-14807337D02*
X8274260Y-14788290D01*
X8274260Y-14788290D02*
X8293307Y-14778766D01*
X8293307Y-14778766D02*
X8340927Y-14778766D01*
X8340927Y-14778766D02*
X8359974Y-14769242D01*
X8426641Y-14721623D02*
X8502831Y-14721623D01*
X8455212Y-14654956D02*
X8455212Y-14826385D01*
X8455212Y-14826385D02*
X8464736Y-14845433D01*
X8464736Y-14845433D02*
X8483784Y-14854956D01*
X8483784Y-14854956D02*
X8502831Y-14854956D01*
X8645689Y-14845433D02*
X8626641Y-14854956D01*
X8626641Y-14854956D02*
X8588546Y-14854956D01*
X8588546Y-14854956D02*
X8569498Y-14845433D01*
X8569498Y-14845433D02*
X8559974Y-14826385D01*
X8559974Y-14826385D02*
X8559974Y-14750194D01*
X8559974Y-14750194D02*
X8569498Y-14731147D01*
X8569498Y-14731147D02*
X8588546Y-14721623D01*
X8588546Y-14721623D02*
X8626641Y-14721623D01*
X8626641Y-14721623D02*
X8645689Y-14731147D01*
X8645689Y-14731147D02*
X8655212Y-14750194D01*
X8655212Y-14750194D02*
X8655212Y-14769242D01*
X8655212Y-14769242D02*
X8559974Y-14788290D01*
X8826641Y-14854956D02*
X8826641Y-14654956D01*
X8826641Y-14845433D02*
X8807593Y-14854956D01*
X8807593Y-14854956D02*
X8769498Y-14854956D01*
X8769498Y-14854956D02*
X8750450Y-14845433D01*
X8750450Y-14845433D02*
X8740927Y-14835909D01*
X8740927Y-14835909D02*
X8731403Y-14816861D01*
X8731403Y-14816861D02*
X8731403Y-14759718D01*
X8731403Y-14759718D02*
X8740927Y-14740671D01*
X8740927Y-14740671D02*
X8750450Y-14731147D01*
X8750450Y-14731147D02*
X8769498Y-14721623D01*
X8769498Y-14721623D02*
X8807593Y-14721623D01*
X8807593Y-14721623D02*
X8826641Y-14731147D01*
X8902831Y-14931147D02*
X8912355Y-14921623D01*
X8912355Y-14921623D02*
X8931403Y-14893052D01*
X8931403Y-14893052D02*
X8940927Y-14874004D01*
X8940927Y-14874004D02*
X8950450Y-14845433D01*
X8950450Y-14845433D02*
X8959974Y-14797813D01*
X8959974Y-14797813D02*
X8959974Y-14759718D01*
X8959974Y-14759718D02*
X8950450Y-14712099D01*
X8950450Y-14712099D02*
X8940927Y-14683528D01*
X8940927Y-14683528D02*
X8931403Y-14664480D01*
X8931403Y-14664480D02*
X8912355Y-14635909D01*
X8912355Y-14635909D02*
X8902831Y-14626385D01*
X2046816Y-14983473D02*
X2046816Y-15183473D01*
X1946816Y-15083473D02*
X2146816Y-15083473D01*
X2493307Y-15041623D02*
X2493307Y-15174956D01*
X2445688Y-14965433D02*
X2398069Y-15108290D01*
X2398069Y-15108290D02*
X2521878Y-15108290D01*
X2598069Y-15155909D02*
X2607593Y-15165433D01*
X2607593Y-15165433D02*
X2598069Y-15174956D01*
X2598069Y-15174956D02*
X2588545Y-15165433D01*
X2588545Y-15165433D02*
X2598069Y-15155909D01*
X2598069Y-15155909D02*
X2598069Y-15174956D01*
X2779021Y-15041623D02*
X2779021Y-15174956D01*
X2731402Y-14965433D02*
X2683783Y-15108290D01*
X2683783Y-15108290D02*
X2807593Y-15108290D01*
X2921878Y-14974956D02*
X2940926Y-14974956D01*
X2940926Y-14974956D02*
X2959974Y-14984480D01*
X2959974Y-14984480D02*
X2969497Y-14994004D01*
X2969497Y-14994004D02*
X2979021Y-15013052D01*
X2979021Y-15013052D02*
X2988545Y-15051147D01*
X2988545Y-15051147D02*
X2988545Y-15098766D01*
X2988545Y-15098766D02*
X2979021Y-15136861D01*
X2979021Y-15136861D02*
X2969497Y-15155909D01*
X2969497Y-15155909D02*
X2959974Y-15165433D01*
X2959974Y-15165433D02*
X2940926Y-15174956D01*
X2940926Y-15174956D02*
X2921878Y-15174956D01*
X2921878Y-15174956D02*
X2902831Y-15165433D01*
X2902831Y-15165433D02*
X2893307Y-15155909D01*
X2893307Y-15155909D02*
X2883783Y-15136861D01*
X2883783Y-15136861D02*
X2874259Y-15098766D01*
X2874259Y-15098766D02*
X2874259Y-15051147D01*
X2874259Y-15051147D02*
X2883783Y-15013052D01*
X2883783Y-15013052D02*
X2893307Y-14994004D01*
X2893307Y-14994004D02*
X2902831Y-14984480D01*
X2902831Y-14984480D02*
X2921878Y-14974956D01*
X3112355Y-14974956D02*
X3131402Y-14974956D01*
X3131402Y-14974956D02*
X3150450Y-14984480D01*
X3150450Y-14984480D02*
X3159974Y-14994004D01*
X3159974Y-14994004D02*
X3169497Y-15013052D01*
X3169497Y-15013052D02*
X3179021Y-15051147D01*
X3179021Y-15051147D02*
X3179021Y-15098766D01*
X3179021Y-15098766D02*
X3169497Y-15136861D01*
X3169497Y-15136861D02*
X3159974Y-15155909D01*
X3159974Y-15155909D02*
X3150450Y-15165433D01*
X3150450Y-15165433D02*
X3131402Y-15174956D01*
X3131402Y-15174956D02*
X3112355Y-15174956D01*
X3112355Y-15174956D02*
X3093307Y-15165433D01*
X3093307Y-15165433D02*
X3083783Y-15155909D01*
X3083783Y-15155909D02*
X3074259Y-15136861D01*
X3074259Y-15136861D02*
X3064736Y-15098766D01*
X3064736Y-15098766D02*
X3064736Y-15051147D01*
X3064736Y-15051147D02*
X3074259Y-15013052D01*
X3074259Y-15013052D02*
X3083783Y-14994004D01*
X3083783Y-14994004D02*
X3093307Y-14984480D01*
X3093307Y-14984480D02*
X3112355Y-14974956D01*
X3264736Y-15174956D02*
X3264736Y-15041623D01*
X3264736Y-15060671D02*
X3274259Y-15051147D01*
X3274259Y-15051147D02*
X3293307Y-15041623D01*
X3293307Y-15041623D02*
X3321878Y-15041623D01*
X3321878Y-15041623D02*
X3340926Y-15051147D01*
X3340926Y-15051147D02*
X3350450Y-15070194D01*
X3350450Y-15070194D02*
X3350450Y-15174956D01*
X3350450Y-15070194D02*
X3359974Y-15051147D01*
X3359974Y-15051147D02*
X3379021Y-15041623D01*
X3379021Y-15041623D02*
X3407593Y-15041623D01*
X3407593Y-15041623D02*
X3426640Y-15051147D01*
X3426640Y-15051147D02*
X3436164Y-15070194D01*
X3436164Y-15070194D02*
X3436164Y-15174956D01*
X3531402Y-15174956D02*
X3531402Y-15041623D01*
X3531402Y-15060671D02*
X3540926Y-15051147D01*
X3540926Y-15051147D02*
X3559974Y-15041623D01*
X3559974Y-15041623D02*
X3588545Y-15041623D01*
X3588545Y-15041623D02*
X3607593Y-15051147D01*
X3607593Y-15051147D02*
X3617117Y-15070194D01*
X3617117Y-15070194D02*
X3617117Y-15174956D01*
X3617117Y-15070194D02*
X3626640Y-15051147D01*
X3626640Y-15051147D02*
X3645688Y-15041623D01*
X3645688Y-15041623D02*
X3674259Y-15041623D01*
X3674259Y-15041623D02*
X3693307Y-15051147D01*
X3693307Y-15051147D02*
X3702831Y-15070194D01*
X3702831Y-15070194D02*
X3702831Y-15174956D01*
X4093307Y-14965433D02*
X3921879Y-15222575D01*
X4350450Y-14974956D02*
X4369498Y-14974956D01*
X4369498Y-14974956D02*
X4388545Y-14984480D01*
X4388545Y-14984480D02*
X4398069Y-14994004D01*
X4398069Y-14994004D02*
X4407593Y-15013052D01*
X4407593Y-15013052D02*
X4417117Y-15051147D01*
X4417117Y-15051147D02*
X4417117Y-15098766D01*
X4417117Y-15098766D02*
X4407593Y-15136861D01*
X4407593Y-15136861D02*
X4398069Y-15155909D01*
X4398069Y-15155909D02*
X4388545Y-15165433D01*
X4388545Y-15165433D02*
X4369498Y-15174956D01*
X4369498Y-15174956D02*
X4350450Y-15174956D01*
X4350450Y-15174956D02*
X4331402Y-15165433D01*
X4331402Y-15165433D02*
X4321879Y-15155909D01*
X4321879Y-15155909D02*
X4312355Y-15136861D01*
X4312355Y-15136861D02*
X4302831Y-15098766D01*
X4302831Y-15098766D02*
X4302831Y-15051147D01*
X4302831Y-15051147D02*
X4312355Y-15013052D01*
X4312355Y-15013052D02*
X4321879Y-14994004D01*
X4321879Y-14994004D02*
X4331402Y-14984480D01*
X4331402Y-14984480D02*
X4350450Y-14974956D01*
X4502831Y-15155909D02*
X4512355Y-15165433D01*
X4512355Y-15165433D02*
X4502831Y-15174956D01*
X4502831Y-15174956D02*
X4493307Y-15165433D01*
X4493307Y-15165433D02*
X4502831Y-15155909D01*
X4502831Y-15155909D02*
X4502831Y-15174956D01*
X4702831Y-15174956D02*
X4588545Y-15174956D01*
X4645688Y-15174956D02*
X4645688Y-14974956D01*
X4645688Y-14974956D02*
X4626641Y-15003528D01*
X4626641Y-15003528D02*
X4607593Y-15022575D01*
X4607593Y-15022575D02*
X4588545Y-15032099D01*
X4769498Y-14974956D02*
X4902831Y-14974956D01*
X4902831Y-14974956D02*
X4817117Y-15174956D01*
X4959974Y-14974956D02*
X5083783Y-14974956D01*
X5083783Y-14974956D02*
X5017117Y-15051147D01*
X5017117Y-15051147D02*
X5045688Y-15051147D01*
X5045688Y-15051147D02*
X5064736Y-15060671D01*
X5064736Y-15060671D02*
X5074260Y-15070194D01*
X5074260Y-15070194D02*
X5083783Y-15089242D01*
X5083783Y-15089242D02*
X5083783Y-15136861D01*
X5083783Y-15136861D02*
X5074260Y-15155909D01*
X5074260Y-15155909D02*
X5064736Y-15165433D01*
X5064736Y-15165433D02*
X5045688Y-15174956D01*
X5045688Y-15174956D02*
X4988545Y-15174956D01*
X4988545Y-15174956D02*
X4969498Y-15165433D01*
X4969498Y-15165433D02*
X4959974Y-15155909D01*
X5159974Y-14994004D02*
X5169498Y-14984480D01*
X5169498Y-14984480D02*
X5188545Y-14974956D01*
X5188545Y-14974956D02*
X5236164Y-14974956D01*
X5236164Y-14974956D02*
X5255212Y-14984480D01*
X5255212Y-14984480D02*
X5264736Y-14994004D01*
X5264736Y-14994004D02*
X5274260Y-15013052D01*
X5274260Y-15013052D02*
X5274260Y-15032099D01*
X5274260Y-15032099D02*
X5264736Y-15060671D01*
X5264736Y-15060671D02*
X5150450Y-15174956D01*
X5150450Y-15174956D02*
X5274260Y-15174956D01*
X5350450Y-14974956D02*
X5350450Y-15013052D01*
X5426641Y-14974956D02*
X5426641Y-15013052D01*
X5721879Y-15251147D02*
X5712355Y-15241623D01*
X5712355Y-15241623D02*
X5693307Y-15213052D01*
X5693307Y-15213052D02*
X5683783Y-15194004D01*
X5683783Y-15194004D02*
X5674260Y-15165433D01*
X5674260Y-15165433D02*
X5664736Y-15117813D01*
X5664736Y-15117813D02*
X5664736Y-15079718D01*
X5664736Y-15079718D02*
X5674260Y-15032099D01*
X5674260Y-15032099D02*
X5683783Y-15003528D01*
X5683783Y-15003528D02*
X5693307Y-14984480D01*
X5693307Y-14984480D02*
X5712355Y-14955909D01*
X5712355Y-14955909D02*
X5721879Y-14946385D01*
X5788545Y-14994004D02*
X5798069Y-14984480D01*
X5798069Y-14984480D02*
X5817117Y-14974956D01*
X5817117Y-14974956D02*
X5864736Y-14974956D01*
X5864736Y-14974956D02*
X5883783Y-14984480D01*
X5883783Y-14984480D02*
X5893307Y-14994004D01*
X5893307Y-14994004D02*
X5902831Y-15013052D01*
X5902831Y-15013052D02*
X5902831Y-15032099D01*
X5902831Y-15032099D02*
X5893307Y-15060671D01*
X5893307Y-15060671D02*
X5779022Y-15174956D01*
X5779022Y-15174956D02*
X5902831Y-15174956D01*
X5969498Y-14974956D02*
X6093307Y-14974956D01*
X6093307Y-14974956D02*
X6026641Y-15051147D01*
X6026641Y-15051147D02*
X6055212Y-15051147D01*
X6055212Y-15051147D02*
X6074260Y-15060671D01*
X6074260Y-15060671D02*
X6083783Y-15070194D01*
X6083783Y-15070194D02*
X6093307Y-15089242D01*
X6093307Y-15089242D02*
X6093307Y-15136861D01*
X6093307Y-15136861D02*
X6083783Y-15155909D01*
X6083783Y-15155909D02*
X6074260Y-15165433D01*
X6074260Y-15165433D02*
X6055212Y-15174956D01*
X6055212Y-15174956D02*
X5998069Y-15174956D01*
X5998069Y-15174956D02*
X5979022Y-15165433D01*
X5979022Y-15165433D02*
X5969498Y-15155909D01*
X6331403Y-15174956D02*
X6331403Y-14974956D01*
X6417117Y-15174956D02*
X6417117Y-15070194D01*
X6417117Y-15070194D02*
X6407593Y-15051147D01*
X6407593Y-15051147D02*
X6388545Y-15041623D01*
X6388545Y-15041623D02*
X6359974Y-15041623D01*
X6359974Y-15041623D02*
X6340926Y-15051147D01*
X6340926Y-15051147D02*
X6331403Y-15060671D01*
X6540926Y-15174956D02*
X6521879Y-15165433D01*
X6521879Y-15165433D02*
X6512355Y-15155909D01*
X6512355Y-15155909D02*
X6502831Y-15136861D01*
X6502831Y-15136861D02*
X6502831Y-15079718D01*
X6502831Y-15079718D02*
X6512355Y-15060671D01*
X6512355Y-15060671D02*
X6521879Y-15051147D01*
X6521879Y-15051147D02*
X6540926Y-15041623D01*
X6540926Y-15041623D02*
X6569498Y-15041623D01*
X6569498Y-15041623D02*
X6588545Y-15051147D01*
X6588545Y-15051147D02*
X6598069Y-15060671D01*
X6598069Y-15060671D02*
X6607593Y-15079718D01*
X6607593Y-15079718D02*
X6607593Y-15136861D01*
X6607593Y-15136861D02*
X6598069Y-15155909D01*
X6598069Y-15155909D02*
X6588545Y-15165433D01*
X6588545Y-15165433D02*
X6569498Y-15174956D01*
X6569498Y-15174956D02*
X6540926Y-15174956D01*
X6721879Y-15174956D02*
X6702831Y-15165433D01*
X6702831Y-15165433D02*
X6693307Y-15146385D01*
X6693307Y-15146385D02*
X6693307Y-14974956D01*
X6874260Y-15165433D02*
X6855212Y-15174956D01*
X6855212Y-15174956D02*
X6817117Y-15174956D01*
X6817117Y-15174956D02*
X6798069Y-15165433D01*
X6798069Y-15165433D02*
X6788545Y-15146385D01*
X6788545Y-15146385D02*
X6788545Y-15070194D01*
X6788545Y-15070194D02*
X6798069Y-15051147D01*
X6798069Y-15051147D02*
X6817117Y-15041623D01*
X6817117Y-15041623D02*
X6855212Y-15041623D01*
X6855212Y-15041623D02*
X6874260Y-15051147D01*
X6874260Y-15051147D02*
X6883784Y-15070194D01*
X6883784Y-15070194D02*
X6883784Y-15089242D01*
X6883784Y-15089242D02*
X6788545Y-15108290D01*
X6959974Y-15165433D02*
X6979022Y-15174956D01*
X6979022Y-15174956D02*
X7017117Y-15174956D01*
X7017117Y-15174956D02*
X7036165Y-15165433D01*
X7036165Y-15165433D02*
X7045688Y-15146385D01*
X7045688Y-15146385D02*
X7045688Y-15136861D01*
X7045688Y-15136861D02*
X7036165Y-15117813D01*
X7036165Y-15117813D02*
X7017117Y-15108290D01*
X7017117Y-15108290D02*
X6988545Y-15108290D01*
X6988545Y-15108290D02*
X6969498Y-15098766D01*
X6969498Y-15098766D02*
X6959974Y-15079718D01*
X6959974Y-15079718D02*
X6959974Y-15070194D01*
X6959974Y-15070194D02*
X6969498Y-15051147D01*
X6969498Y-15051147D02*
X6988545Y-15041623D01*
X6988545Y-15041623D02*
X7017117Y-15041623D01*
X7017117Y-15041623D02*
X7036165Y-15051147D01*
X7112355Y-15251147D02*
X7121879Y-15241623D01*
X7121879Y-15241623D02*
X7140926Y-15213052D01*
X7140926Y-15213052D02*
X7150450Y-15194004D01*
X7150450Y-15194004D02*
X7159974Y-15165433D01*
X7159974Y-15165433D02*
X7169498Y-15117813D01*
X7169498Y-15117813D02*
X7169498Y-15079718D01*
X7169498Y-15079718D02*
X7159974Y-15032099D01*
X7159974Y-15032099D02*
X7150450Y-15003528D01*
X7150450Y-15003528D02*
X7140926Y-14984480D01*
X7140926Y-14984480D02*
X7121879Y-14955909D01*
X7121879Y-14955909D02*
X7112355Y-14946385D01*
X7474260Y-15251147D02*
X7464736Y-15241623D01*
X7464736Y-15241623D02*
X7445688Y-15213052D01*
X7445688Y-15213052D02*
X7436165Y-15194004D01*
X7436165Y-15194004D02*
X7426641Y-15165433D01*
X7426641Y-15165433D02*
X7417117Y-15117813D01*
X7417117Y-15117813D02*
X7417117Y-15079718D01*
X7417117Y-15079718D02*
X7426641Y-15032099D01*
X7426641Y-15032099D02*
X7436165Y-15003528D01*
X7436165Y-15003528D02*
X7445688Y-14984480D01*
X7445688Y-14984480D02*
X7464736Y-14955909D01*
X7464736Y-14955909D02*
X7474260Y-14946385D01*
X7550450Y-15041623D02*
X7550450Y-15174956D01*
X7550450Y-15060671D02*
X7559974Y-15051147D01*
X7559974Y-15051147D02*
X7579022Y-15041623D01*
X7579022Y-15041623D02*
X7607593Y-15041623D01*
X7607593Y-15041623D02*
X7626641Y-15051147D01*
X7626641Y-15051147D02*
X7636165Y-15070194D01*
X7636165Y-15070194D02*
X7636165Y-15174956D01*
X7759974Y-15174956D02*
X7740926Y-15165433D01*
X7740926Y-15165433D02*
X7731403Y-15155909D01*
X7731403Y-15155909D02*
X7721879Y-15136861D01*
X7721879Y-15136861D02*
X7721879Y-15079718D01*
X7721879Y-15079718D02*
X7731403Y-15060671D01*
X7731403Y-15060671D02*
X7740926Y-15051147D01*
X7740926Y-15051147D02*
X7759974Y-15041623D01*
X7759974Y-15041623D02*
X7788546Y-15041623D01*
X7788546Y-15041623D02*
X7807593Y-15051147D01*
X7807593Y-15051147D02*
X7817117Y-15060671D01*
X7817117Y-15060671D02*
X7826641Y-15079718D01*
X7826641Y-15079718D02*
X7826641Y-15136861D01*
X7826641Y-15136861D02*
X7817117Y-15155909D01*
X7817117Y-15155909D02*
X7807593Y-15165433D01*
X7807593Y-15165433D02*
X7788546Y-15174956D01*
X7788546Y-15174956D02*
X7759974Y-15174956D01*
X7883784Y-15041623D02*
X7959974Y-15041623D01*
X7912355Y-14974956D02*
X7912355Y-15146385D01*
X7912355Y-15146385D02*
X7921879Y-15165433D01*
X7921879Y-15165433D02*
X7940926Y-15174956D01*
X7940926Y-15174956D02*
X7959974Y-15174956D01*
X8179022Y-15041623D02*
X8179022Y-15241623D01*
X8179022Y-15051147D02*
X8198069Y-15041623D01*
X8198069Y-15041623D02*
X8236165Y-15041623D01*
X8236165Y-15041623D02*
X8255212Y-15051147D01*
X8255212Y-15051147D02*
X8264736Y-15060671D01*
X8264736Y-15060671D02*
X8274260Y-15079718D01*
X8274260Y-15079718D02*
X8274260Y-15136861D01*
X8274260Y-15136861D02*
X8264736Y-15155909D01*
X8264736Y-15155909D02*
X8255212Y-15165433D01*
X8255212Y-15165433D02*
X8236165Y-15174956D01*
X8236165Y-15174956D02*
X8198069Y-15174956D01*
X8198069Y-15174956D02*
X8179022Y-15165433D01*
X8388546Y-15174956D02*
X8369498Y-15165433D01*
X8369498Y-15165433D02*
X8359974Y-15146385D01*
X8359974Y-15146385D02*
X8359974Y-14974956D01*
X8550450Y-15174956D02*
X8550450Y-15070194D01*
X8550450Y-15070194D02*
X8540927Y-15051147D01*
X8540927Y-15051147D02*
X8521879Y-15041623D01*
X8521879Y-15041623D02*
X8483784Y-15041623D01*
X8483784Y-15041623D02*
X8464736Y-15051147D01*
X8550450Y-15165433D02*
X8531403Y-15174956D01*
X8531403Y-15174956D02*
X8483784Y-15174956D01*
X8483784Y-15174956D02*
X8464736Y-15165433D01*
X8464736Y-15165433D02*
X8455212Y-15146385D01*
X8455212Y-15146385D02*
X8455212Y-15127337D01*
X8455212Y-15127337D02*
X8464736Y-15108290D01*
X8464736Y-15108290D02*
X8483784Y-15098766D01*
X8483784Y-15098766D02*
X8531403Y-15098766D01*
X8531403Y-15098766D02*
X8550450Y-15089242D01*
X8617117Y-15041623D02*
X8693308Y-15041623D01*
X8645689Y-14974956D02*
X8645689Y-15146385D01*
X8645689Y-15146385D02*
X8655212Y-15165433D01*
X8655212Y-15165433D02*
X8674260Y-15174956D01*
X8674260Y-15174956D02*
X8693308Y-15174956D01*
X8836165Y-15165433D02*
X8817117Y-15174956D01*
X8817117Y-15174956D02*
X8779022Y-15174956D01*
X8779022Y-15174956D02*
X8759974Y-15165433D01*
X8759974Y-15165433D02*
X8750450Y-15146385D01*
X8750450Y-15146385D02*
X8750450Y-15070194D01*
X8750450Y-15070194D02*
X8759974Y-15051147D01*
X8759974Y-15051147D02*
X8779022Y-15041623D01*
X8779022Y-15041623D02*
X8817117Y-15041623D01*
X8817117Y-15041623D02*
X8836165Y-15051147D01*
X8836165Y-15051147D02*
X8845689Y-15070194D01*
X8845689Y-15070194D02*
X8845689Y-15089242D01*
X8845689Y-15089242D02*
X8750450Y-15108290D01*
X9017117Y-15174956D02*
X9017117Y-14974956D01*
X9017117Y-15165433D02*
X8998070Y-15174956D01*
X8998070Y-15174956D02*
X8959974Y-15174956D01*
X8959974Y-15174956D02*
X8940927Y-15165433D01*
X8940927Y-15165433D02*
X8931403Y-15155909D01*
X8931403Y-15155909D02*
X8921879Y-15136861D01*
X8921879Y-15136861D02*
X8921879Y-15079718D01*
X8921879Y-15079718D02*
X8931403Y-15060671D01*
X8931403Y-15060671D02*
X8940927Y-15051147D01*
X8940927Y-15051147D02*
X8959974Y-15041623D01*
X8959974Y-15041623D02*
X8998070Y-15041623D01*
X8998070Y-15041623D02*
X9017117Y-15051147D01*
X9093308Y-15251147D02*
X9102831Y-15241623D01*
X9102831Y-15241623D02*
X9121879Y-15213052D01*
X9121879Y-15213052D02*
X9131403Y-15194004D01*
X9131403Y-15194004D02*
X9140927Y-15165433D01*
X9140927Y-15165433D02*
X9150450Y-15117813D01*
X9150450Y-15117813D02*
X9150450Y-15079718D01*
X9150450Y-15079718D02*
X9140927Y-15032099D01*
X9140927Y-15032099D02*
X9131403Y-15003528D01*
X9131403Y-15003528D02*
X9121879Y-14984480D01*
X9121879Y-14984480D02*
X9102831Y-14955909D01*
X9102831Y-14955909D02*
X9093308Y-14946385D01*
M02*
