%TF.GenerationSoftware,KiCad,Pcbnew,8.0.6*%
%TF.CreationDate,2025-05-26T15:16:57+09:00*%
%TF.ProjectId,hillside_speedrun,68696c6c-7369-4646-955f-737065656472,rev?*%
%TF.SameCoordinates,Original*%
%TF.FileFunction,Legend,Top*%
%TF.FilePolarity,Positive*%
%FSLAX46Y46*%
G04 Gerber Fmt 4.6, Leading zero omitted, Abs format (unit mm)*
G04 Created by KiCad (PCBNEW 8.0.6) date 2025-05-26 15:16:57*
%MOMM*%
%LPD*%
G01*
G04 APERTURE LIST*
%ADD10C,0.200000*%
%ADD11C,0.150000*%
%ADD12C,0.010000*%
%ADD13C,0.120000*%
G04 APERTURE END LIST*
D10*
X69749863Y-104476569D02*
X69273673Y-104476569D01*
X69273673Y-104476569D02*
X69273673Y-103476569D01*
X70511768Y-104476569D02*
X70511768Y-103952759D01*
X70511768Y-103952759D02*
X70464149Y-103857521D01*
X70464149Y-103857521D02*
X70368911Y-103809902D01*
X70368911Y-103809902D02*
X70178435Y-103809902D01*
X70178435Y-103809902D02*
X70083197Y-103857521D01*
X70511768Y-104428950D02*
X70416530Y-104476569D01*
X70416530Y-104476569D02*
X70178435Y-104476569D01*
X70178435Y-104476569D02*
X70083197Y-104428950D01*
X70083197Y-104428950D02*
X70035578Y-104333711D01*
X70035578Y-104333711D02*
X70035578Y-104238473D01*
X70035578Y-104238473D02*
X70083197Y-104143235D01*
X70083197Y-104143235D02*
X70178435Y-104095616D01*
X70178435Y-104095616D02*
X70416530Y-104095616D01*
X70416530Y-104095616D02*
X70511768Y-104047997D01*
X70892721Y-103809902D02*
X71130816Y-104476569D01*
X71368911Y-103809902D02*
X71130816Y-104476569D01*
X71130816Y-104476569D02*
X71035578Y-104714664D01*
X71035578Y-104714664D02*
X70987959Y-104762283D01*
X70987959Y-104762283D02*
X70892721Y-104809902D01*
X71892721Y-104476569D02*
X71797483Y-104428950D01*
X71797483Y-104428950D02*
X71749864Y-104381330D01*
X71749864Y-104381330D02*
X71702245Y-104286092D01*
X71702245Y-104286092D02*
X71702245Y-104000378D01*
X71702245Y-104000378D02*
X71749864Y-103905140D01*
X71749864Y-103905140D02*
X71797483Y-103857521D01*
X71797483Y-103857521D02*
X71892721Y-103809902D01*
X71892721Y-103809902D02*
X72035578Y-103809902D01*
X72035578Y-103809902D02*
X72130816Y-103857521D01*
X72130816Y-103857521D02*
X72178435Y-103905140D01*
X72178435Y-103905140D02*
X72226054Y-104000378D01*
X72226054Y-104000378D02*
X72226054Y-104286092D01*
X72226054Y-104286092D02*
X72178435Y-104381330D01*
X72178435Y-104381330D02*
X72130816Y-104428950D01*
X72130816Y-104428950D02*
X72035578Y-104476569D01*
X72035578Y-104476569D02*
X71892721Y-104476569D01*
X73083197Y-103809902D02*
X73083197Y-104476569D01*
X72654626Y-103809902D02*
X72654626Y-104333711D01*
X72654626Y-104333711D02*
X72702245Y-104428950D01*
X72702245Y-104428950D02*
X72797483Y-104476569D01*
X72797483Y-104476569D02*
X72940340Y-104476569D01*
X72940340Y-104476569D02*
X73035578Y-104428950D01*
X73035578Y-104428950D02*
X73083197Y-104381330D01*
X73416531Y-103809902D02*
X73797483Y-103809902D01*
X73559388Y-103476569D02*
X73559388Y-104333711D01*
X73559388Y-104333711D02*
X73607007Y-104428950D01*
X73607007Y-104428950D02*
X73702245Y-104476569D01*
X73702245Y-104476569D02*
X73797483Y-104476569D01*
X75464150Y-104381330D02*
X75416531Y-104428950D01*
X75416531Y-104428950D02*
X75273674Y-104476569D01*
X75273674Y-104476569D02*
X75178436Y-104476569D01*
X75178436Y-104476569D02*
X75035579Y-104428950D01*
X75035579Y-104428950D02*
X74940341Y-104333711D01*
X74940341Y-104333711D02*
X74892722Y-104238473D01*
X74892722Y-104238473D02*
X74845103Y-104047997D01*
X74845103Y-104047997D02*
X74845103Y-103905140D01*
X74845103Y-103905140D02*
X74892722Y-103714664D01*
X74892722Y-103714664D02*
X74940341Y-103619426D01*
X74940341Y-103619426D02*
X75035579Y-103524188D01*
X75035579Y-103524188D02*
X75178436Y-103476569D01*
X75178436Y-103476569D02*
X75273674Y-103476569D01*
X75273674Y-103476569D02*
X75416531Y-103524188D01*
X75416531Y-103524188D02*
X75464150Y-103571807D01*
X75892722Y-104476569D02*
X75892722Y-103809902D01*
X75892722Y-104000378D02*
X75940341Y-103905140D01*
X75940341Y-103905140D02*
X75987960Y-103857521D01*
X75987960Y-103857521D02*
X76083198Y-103809902D01*
X76083198Y-103809902D02*
X76178436Y-103809902D01*
X76892722Y-104428950D02*
X76797484Y-104476569D01*
X76797484Y-104476569D02*
X76607008Y-104476569D01*
X76607008Y-104476569D02*
X76511770Y-104428950D01*
X76511770Y-104428950D02*
X76464151Y-104333711D01*
X76464151Y-104333711D02*
X76464151Y-103952759D01*
X76464151Y-103952759D02*
X76511770Y-103857521D01*
X76511770Y-103857521D02*
X76607008Y-103809902D01*
X76607008Y-103809902D02*
X76797484Y-103809902D01*
X76797484Y-103809902D02*
X76892722Y-103857521D01*
X76892722Y-103857521D02*
X76940341Y-103952759D01*
X76940341Y-103952759D02*
X76940341Y-104047997D01*
X76940341Y-104047997D02*
X76464151Y-104143235D01*
X77797484Y-104476569D02*
X77797484Y-103952759D01*
X77797484Y-103952759D02*
X77749865Y-103857521D01*
X77749865Y-103857521D02*
X77654627Y-103809902D01*
X77654627Y-103809902D02*
X77464151Y-103809902D01*
X77464151Y-103809902D02*
X77368913Y-103857521D01*
X77797484Y-104428950D02*
X77702246Y-104476569D01*
X77702246Y-104476569D02*
X77464151Y-104476569D01*
X77464151Y-104476569D02*
X77368913Y-104428950D01*
X77368913Y-104428950D02*
X77321294Y-104333711D01*
X77321294Y-104333711D02*
X77321294Y-104238473D01*
X77321294Y-104238473D02*
X77368913Y-104143235D01*
X77368913Y-104143235D02*
X77464151Y-104095616D01*
X77464151Y-104095616D02*
X77702246Y-104095616D01*
X77702246Y-104095616D02*
X77797484Y-104047997D01*
X78130818Y-103809902D02*
X78511770Y-103809902D01*
X78273675Y-103476569D02*
X78273675Y-104333711D01*
X78273675Y-104333711D02*
X78321294Y-104428950D01*
X78321294Y-104428950D02*
X78416532Y-104476569D01*
X78416532Y-104476569D02*
X78511770Y-104476569D01*
X78987961Y-104476569D02*
X78892723Y-104428950D01*
X78892723Y-104428950D02*
X78845104Y-104381330D01*
X78845104Y-104381330D02*
X78797485Y-104286092D01*
X78797485Y-104286092D02*
X78797485Y-104000378D01*
X78797485Y-104000378D02*
X78845104Y-103905140D01*
X78845104Y-103905140D02*
X78892723Y-103857521D01*
X78892723Y-103857521D02*
X78987961Y-103809902D01*
X78987961Y-103809902D02*
X79130818Y-103809902D01*
X79130818Y-103809902D02*
X79226056Y-103857521D01*
X79226056Y-103857521D02*
X79273675Y-103905140D01*
X79273675Y-103905140D02*
X79321294Y-104000378D01*
X79321294Y-104000378D02*
X79321294Y-104286092D01*
X79321294Y-104286092D02*
X79273675Y-104381330D01*
X79273675Y-104381330D02*
X79226056Y-104428950D01*
X79226056Y-104428950D02*
X79130818Y-104476569D01*
X79130818Y-104476569D02*
X78987961Y-104476569D01*
X79749866Y-104476569D02*
X79749866Y-103809902D01*
X79749866Y-104000378D02*
X79797485Y-103905140D01*
X79797485Y-103905140D02*
X79845104Y-103857521D01*
X79845104Y-103857521D02*
X79940342Y-103809902D01*
X79940342Y-103809902D02*
X80035580Y-103809902D01*
X81130819Y-104381330D02*
X81178438Y-104428950D01*
X81178438Y-104428950D02*
X81130819Y-104476569D01*
X81130819Y-104476569D02*
X81083200Y-104428950D01*
X81083200Y-104428950D02*
X81130819Y-104381330D01*
X81130819Y-104381330D02*
X81130819Y-104476569D01*
X81130819Y-103857521D02*
X81178438Y-103905140D01*
X81178438Y-103905140D02*
X81130819Y-103952759D01*
X81130819Y-103952759D02*
X81083200Y-103905140D01*
X81083200Y-103905140D02*
X81130819Y-103857521D01*
X81130819Y-103857521D02*
X81130819Y-103952759D01*
X82368914Y-104476569D02*
X82368914Y-103476569D01*
X82368914Y-103476569D02*
X82702247Y-104190854D01*
X82702247Y-104190854D02*
X83035580Y-103476569D01*
X83035580Y-103476569D02*
X83035580Y-104476569D01*
X83511771Y-104476569D02*
X83511771Y-103809902D01*
X83511771Y-103476569D02*
X83464152Y-103524188D01*
X83464152Y-103524188D02*
X83511771Y-103571807D01*
X83511771Y-103571807D02*
X83559390Y-103524188D01*
X83559390Y-103524188D02*
X83511771Y-103476569D01*
X83511771Y-103476569D02*
X83511771Y-103571807D01*
X84416532Y-104428950D02*
X84321294Y-104476569D01*
X84321294Y-104476569D02*
X84130818Y-104476569D01*
X84130818Y-104476569D02*
X84035580Y-104428950D01*
X84035580Y-104428950D02*
X83987961Y-104381330D01*
X83987961Y-104381330D02*
X83940342Y-104286092D01*
X83940342Y-104286092D02*
X83940342Y-104000378D01*
X83940342Y-104000378D02*
X83987961Y-103905140D01*
X83987961Y-103905140D02*
X84035580Y-103857521D01*
X84035580Y-103857521D02*
X84130818Y-103809902D01*
X84130818Y-103809902D02*
X84321294Y-103809902D01*
X84321294Y-103809902D02*
X84416532Y-103857521D01*
X84845104Y-104476569D02*
X84845104Y-103476569D01*
X85273675Y-104476569D02*
X85273675Y-103952759D01*
X85273675Y-103952759D02*
X85226056Y-103857521D01*
X85226056Y-103857521D02*
X85130818Y-103809902D01*
X85130818Y-103809902D02*
X84987961Y-103809902D01*
X84987961Y-103809902D02*
X84892723Y-103857521D01*
X84892723Y-103857521D02*
X84845104Y-103905140D01*
X86178437Y-104476569D02*
X86178437Y-103952759D01*
X86178437Y-103952759D02*
X86130818Y-103857521D01*
X86130818Y-103857521D02*
X86035580Y-103809902D01*
X86035580Y-103809902D02*
X85845104Y-103809902D01*
X85845104Y-103809902D02*
X85749866Y-103857521D01*
X86178437Y-104428950D02*
X86083199Y-104476569D01*
X86083199Y-104476569D02*
X85845104Y-104476569D01*
X85845104Y-104476569D02*
X85749866Y-104428950D01*
X85749866Y-104428950D02*
X85702247Y-104333711D01*
X85702247Y-104333711D02*
X85702247Y-104238473D01*
X85702247Y-104238473D02*
X85749866Y-104143235D01*
X85749866Y-104143235D02*
X85845104Y-104095616D01*
X85845104Y-104095616D02*
X86083199Y-104095616D01*
X86083199Y-104095616D02*
X86178437Y-104047997D01*
X87035580Y-104428950D02*
X86940342Y-104476569D01*
X86940342Y-104476569D02*
X86749866Y-104476569D01*
X86749866Y-104476569D02*
X86654628Y-104428950D01*
X86654628Y-104428950D02*
X86607009Y-104333711D01*
X86607009Y-104333711D02*
X86607009Y-103952759D01*
X86607009Y-103952759D02*
X86654628Y-103857521D01*
X86654628Y-103857521D02*
X86749866Y-103809902D01*
X86749866Y-103809902D02*
X86940342Y-103809902D01*
X86940342Y-103809902D02*
X87035580Y-103857521D01*
X87035580Y-103857521D02*
X87083199Y-103952759D01*
X87083199Y-103952759D02*
X87083199Y-104047997D01*
X87083199Y-104047997D02*
X86607009Y-104143235D01*
X87654628Y-104476569D02*
X87559390Y-104428950D01*
X87559390Y-104428950D02*
X87511771Y-104333711D01*
X87511771Y-104333711D02*
X87511771Y-103476569D01*
X88797486Y-104476569D02*
X88797486Y-103476569D01*
X88797486Y-103476569D02*
X89130819Y-104190854D01*
X89130819Y-104190854D02*
X89464152Y-103476569D01*
X89464152Y-103476569D02*
X89464152Y-104476569D01*
X90368914Y-104428950D02*
X90273676Y-104476569D01*
X90273676Y-104476569D02*
X90083200Y-104476569D01*
X90083200Y-104476569D02*
X89987962Y-104428950D01*
X89987962Y-104428950D02*
X89940343Y-104381330D01*
X89940343Y-104381330D02*
X89892724Y-104286092D01*
X89892724Y-104286092D02*
X89892724Y-104000378D01*
X89892724Y-104000378D02*
X89940343Y-103905140D01*
X89940343Y-103905140D02*
X89987962Y-103857521D01*
X89987962Y-103857521D02*
X90083200Y-103809902D01*
X90083200Y-103809902D02*
X90273676Y-103809902D01*
X90273676Y-103809902D02*
X90368914Y-103857521D01*
X91368914Y-104381330D02*
X91321295Y-104428950D01*
X91321295Y-104428950D02*
X91178438Y-104476569D01*
X91178438Y-104476569D02*
X91083200Y-104476569D01*
X91083200Y-104476569D02*
X90940343Y-104428950D01*
X90940343Y-104428950D02*
X90845105Y-104333711D01*
X90845105Y-104333711D02*
X90797486Y-104238473D01*
X90797486Y-104238473D02*
X90749867Y-104047997D01*
X90749867Y-104047997D02*
X90749867Y-103905140D01*
X90749867Y-103905140D02*
X90797486Y-103714664D01*
X90797486Y-103714664D02*
X90845105Y-103619426D01*
X90845105Y-103619426D02*
X90940343Y-103524188D01*
X90940343Y-103524188D02*
X91083200Y-103476569D01*
X91083200Y-103476569D02*
X91178438Y-103476569D01*
X91178438Y-103476569D02*
X91321295Y-103524188D01*
X91321295Y-103524188D02*
X91368914Y-103571807D01*
X91987962Y-103476569D02*
X92178438Y-103476569D01*
X92178438Y-103476569D02*
X92273676Y-103524188D01*
X92273676Y-103524188D02*
X92368914Y-103619426D01*
X92368914Y-103619426D02*
X92416533Y-103809902D01*
X92416533Y-103809902D02*
X92416533Y-104143235D01*
X92416533Y-104143235D02*
X92368914Y-104333711D01*
X92368914Y-104333711D02*
X92273676Y-104428950D01*
X92273676Y-104428950D02*
X92178438Y-104476569D01*
X92178438Y-104476569D02*
X91987962Y-104476569D01*
X91987962Y-104476569D02*
X91892724Y-104428950D01*
X91892724Y-104428950D02*
X91797486Y-104333711D01*
X91797486Y-104333711D02*
X91749867Y-104143235D01*
X91749867Y-104143235D02*
X91749867Y-103809902D01*
X91749867Y-103809902D02*
X91797486Y-103619426D01*
X91797486Y-103619426D02*
X91892724Y-103524188D01*
X91892724Y-103524188D02*
X91987962Y-103476569D01*
X93035581Y-104000378D02*
X93035581Y-104476569D01*
X92702248Y-103476569D02*
X93035581Y-104000378D01*
X93035581Y-104000378D02*
X93368914Y-103476569D01*
X93702248Y-104476569D02*
X93702248Y-103476569D01*
X93702248Y-103476569D02*
X93940343Y-103476569D01*
X93940343Y-103476569D02*
X94083200Y-103524188D01*
X94083200Y-103524188D02*
X94178438Y-103619426D01*
X94178438Y-103619426D02*
X94226057Y-103714664D01*
X94226057Y-103714664D02*
X94273676Y-103905140D01*
X94273676Y-103905140D02*
X94273676Y-104047997D01*
X94273676Y-104047997D02*
X94226057Y-104238473D01*
X94226057Y-104238473D02*
X94178438Y-104333711D01*
X94178438Y-104333711D02*
X94083200Y-104428950D01*
X94083200Y-104428950D02*
X93940343Y-104476569D01*
X93940343Y-104476569D02*
X93702248Y-104476569D01*
X69226054Y-102666854D02*
X69702244Y-102666854D01*
X69130816Y-102952569D02*
X69464149Y-101952569D01*
X69464149Y-101952569D02*
X69797482Y-102952569D01*
X70559387Y-102285902D02*
X70559387Y-102952569D01*
X70130816Y-102285902D02*
X70130816Y-102809711D01*
X70130816Y-102809711D02*
X70178435Y-102904950D01*
X70178435Y-102904950D02*
X70273673Y-102952569D01*
X70273673Y-102952569D02*
X70416530Y-102952569D01*
X70416530Y-102952569D02*
X70511768Y-102904950D01*
X70511768Y-102904950D02*
X70559387Y-102857330D01*
X70892721Y-102285902D02*
X71273673Y-102285902D01*
X71035578Y-101952569D02*
X71035578Y-102809711D01*
X71035578Y-102809711D02*
X71083197Y-102904950D01*
X71083197Y-102904950D02*
X71178435Y-102952569D01*
X71178435Y-102952569D02*
X71273673Y-102952569D01*
X71607007Y-102952569D02*
X71607007Y-101952569D01*
X72035578Y-102952569D02*
X72035578Y-102428759D01*
X72035578Y-102428759D02*
X71987959Y-102333521D01*
X71987959Y-102333521D02*
X71892721Y-102285902D01*
X71892721Y-102285902D02*
X71749864Y-102285902D01*
X71749864Y-102285902D02*
X71654626Y-102333521D01*
X71654626Y-102333521D02*
X71607007Y-102381140D01*
X72654626Y-102952569D02*
X72559388Y-102904950D01*
X72559388Y-102904950D02*
X72511769Y-102857330D01*
X72511769Y-102857330D02*
X72464150Y-102762092D01*
X72464150Y-102762092D02*
X72464150Y-102476378D01*
X72464150Y-102476378D02*
X72511769Y-102381140D01*
X72511769Y-102381140D02*
X72559388Y-102333521D01*
X72559388Y-102333521D02*
X72654626Y-102285902D01*
X72654626Y-102285902D02*
X72797483Y-102285902D01*
X72797483Y-102285902D02*
X72892721Y-102333521D01*
X72892721Y-102333521D02*
X72940340Y-102381140D01*
X72940340Y-102381140D02*
X72987959Y-102476378D01*
X72987959Y-102476378D02*
X72987959Y-102762092D01*
X72987959Y-102762092D02*
X72940340Y-102857330D01*
X72940340Y-102857330D02*
X72892721Y-102904950D01*
X72892721Y-102904950D02*
X72797483Y-102952569D01*
X72797483Y-102952569D02*
X72654626Y-102952569D01*
X73416531Y-102952569D02*
X73416531Y-102285902D01*
X73416531Y-102476378D02*
X73464150Y-102381140D01*
X73464150Y-102381140D02*
X73511769Y-102333521D01*
X73511769Y-102333521D02*
X73607007Y-102285902D01*
X73607007Y-102285902D02*
X73702245Y-102285902D01*
X74035579Y-102857330D02*
X74083198Y-102904950D01*
X74083198Y-102904950D02*
X74035579Y-102952569D01*
X74035579Y-102952569D02*
X73987960Y-102904950D01*
X73987960Y-102904950D02*
X74035579Y-102857330D01*
X74035579Y-102857330D02*
X74035579Y-102952569D01*
X74035579Y-102333521D02*
X74083198Y-102381140D01*
X74083198Y-102381140D02*
X74035579Y-102428759D01*
X74035579Y-102428759D02*
X73987960Y-102381140D01*
X73987960Y-102381140D02*
X74035579Y-102333521D01*
X74035579Y-102333521D02*
X74035579Y-102428759D01*
X75273674Y-102428759D02*
X75607007Y-102428759D01*
X75749864Y-102952569D02*
X75273674Y-102952569D01*
X75273674Y-102952569D02*
X75273674Y-101952569D01*
X75273674Y-101952569D02*
X75749864Y-101952569D01*
X76083198Y-102285902D02*
X76321293Y-102952569D01*
X76559388Y-102285902D02*
X76321293Y-102952569D01*
X76321293Y-102952569D02*
X76226055Y-103190664D01*
X76226055Y-103190664D02*
X76178436Y-103238283D01*
X76178436Y-103238283D02*
X76083198Y-103285902D01*
X76940341Y-102952569D02*
X76940341Y-102285902D01*
X76940341Y-102381140D02*
X76987960Y-102333521D01*
X76987960Y-102333521D02*
X77083198Y-102285902D01*
X77083198Y-102285902D02*
X77226055Y-102285902D01*
X77226055Y-102285902D02*
X77321293Y-102333521D01*
X77321293Y-102333521D02*
X77368912Y-102428759D01*
X77368912Y-102428759D02*
X77368912Y-102952569D01*
X77368912Y-102428759D02*
X77416531Y-102333521D01*
X77416531Y-102333521D02*
X77511769Y-102285902D01*
X77511769Y-102285902D02*
X77654626Y-102285902D01*
X77654626Y-102285902D02*
X77749865Y-102333521D01*
X77749865Y-102333521D02*
X77797484Y-102428759D01*
X77797484Y-102428759D02*
X77797484Y-102952569D01*
X78654626Y-102904950D02*
X78559388Y-102952569D01*
X78559388Y-102952569D02*
X78368912Y-102952569D01*
X78368912Y-102952569D02*
X78273674Y-102904950D01*
X78273674Y-102904950D02*
X78226055Y-102809711D01*
X78226055Y-102809711D02*
X78226055Y-102428759D01*
X78226055Y-102428759D02*
X78273674Y-102333521D01*
X78273674Y-102333521D02*
X78368912Y-102285902D01*
X78368912Y-102285902D02*
X78559388Y-102285902D01*
X78559388Y-102285902D02*
X78654626Y-102333521D01*
X78654626Y-102333521D02*
X78702245Y-102428759D01*
X78702245Y-102428759D02*
X78702245Y-102523997D01*
X78702245Y-102523997D02*
X78226055Y-102619235D01*
X79130817Y-102952569D02*
X79130817Y-102285902D01*
X79130817Y-102476378D02*
X79178436Y-102381140D01*
X79178436Y-102381140D02*
X79226055Y-102333521D01*
X79226055Y-102333521D02*
X79321293Y-102285902D01*
X79321293Y-102285902D02*
X79416531Y-102285902D01*
X79749865Y-102952569D02*
X79749865Y-102285902D01*
X79749865Y-101952569D02*
X79702246Y-102000188D01*
X79702246Y-102000188D02*
X79749865Y-102047807D01*
X79749865Y-102047807D02*
X79797484Y-102000188D01*
X79797484Y-102000188D02*
X79749865Y-101952569D01*
X79749865Y-101952569D02*
X79749865Y-102047807D01*
X80654626Y-102904950D02*
X80559388Y-102952569D01*
X80559388Y-102952569D02*
X80368912Y-102952569D01*
X80368912Y-102952569D02*
X80273674Y-102904950D01*
X80273674Y-102904950D02*
X80226055Y-102857330D01*
X80226055Y-102857330D02*
X80178436Y-102762092D01*
X80178436Y-102762092D02*
X80178436Y-102476378D01*
X80178436Y-102476378D02*
X80226055Y-102381140D01*
X80226055Y-102381140D02*
X80273674Y-102333521D01*
X80273674Y-102333521D02*
X80368912Y-102285902D01*
X80368912Y-102285902D02*
X80559388Y-102285902D01*
X80559388Y-102285902D02*
X80654626Y-102333521D01*
X82416531Y-102857330D02*
X82368912Y-102904950D01*
X82368912Y-102904950D02*
X82226055Y-102952569D01*
X82226055Y-102952569D02*
X82130817Y-102952569D01*
X82130817Y-102952569D02*
X81987960Y-102904950D01*
X81987960Y-102904950D02*
X81892722Y-102809711D01*
X81892722Y-102809711D02*
X81845103Y-102714473D01*
X81845103Y-102714473D02*
X81797484Y-102523997D01*
X81797484Y-102523997D02*
X81797484Y-102381140D01*
X81797484Y-102381140D02*
X81845103Y-102190664D01*
X81845103Y-102190664D02*
X81892722Y-102095426D01*
X81892722Y-102095426D02*
X81987960Y-102000188D01*
X81987960Y-102000188D02*
X82130817Y-101952569D01*
X82130817Y-101952569D02*
X82226055Y-101952569D01*
X82226055Y-101952569D02*
X82368912Y-102000188D01*
X82368912Y-102000188D02*
X82416531Y-102047807D01*
X82845103Y-102952569D02*
X82845103Y-101952569D01*
X82845103Y-102428759D02*
X83416531Y-102428759D01*
X83416531Y-102952569D02*
X83416531Y-101952569D01*
X83845103Y-102666854D02*
X84321293Y-102666854D01*
X83749865Y-102952569D02*
X84083198Y-101952569D01*
X84083198Y-101952569D02*
X84416531Y-102952569D01*
X84749865Y-101952569D02*
X84749865Y-102762092D01*
X84749865Y-102762092D02*
X84797484Y-102857330D01*
X84797484Y-102857330D02*
X84845103Y-102904950D01*
X84845103Y-102904950D02*
X84940341Y-102952569D01*
X84940341Y-102952569D02*
X85130817Y-102952569D01*
X85130817Y-102952569D02*
X85226055Y-102904950D01*
X85226055Y-102904950D02*
X85273674Y-102857330D01*
X85273674Y-102857330D02*
X85321293Y-102762092D01*
X85321293Y-102762092D02*
X85321293Y-101952569D01*
X86368912Y-102857330D02*
X86321293Y-102904950D01*
X86321293Y-102904950D02*
X86178436Y-102952569D01*
X86178436Y-102952569D02*
X86083198Y-102952569D01*
X86083198Y-102952569D02*
X85940341Y-102904950D01*
X85940341Y-102904950D02*
X85845103Y-102809711D01*
X85845103Y-102809711D02*
X85797484Y-102714473D01*
X85797484Y-102714473D02*
X85749865Y-102523997D01*
X85749865Y-102523997D02*
X85749865Y-102381140D01*
X85749865Y-102381140D02*
X85797484Y-102190664D01*
X85797484Y-102190664D02*
X85845103Y-102095426D01*
X85845103Y-102095426D02*
X85940341Y-102000188D01*
X85940341Y-102000188D02*
X86083198Y-101952569D01*
X86083198Y-101952569D02*
X86178436Y-101952569D01*
X86178436Y-101952569D02*
X86321293Y-102000188D01*
X86321293Y-102000188D02*
X86368912Y-102047807D01*
X86797484Y-102952569D02*
X86797484Y-101952569D01*
X86797484Y-102428759D02*
X87368912Y-102428759D01*
X87368912Y-102952569D02*
X87368912Y-101952569D01*
X87797484Y-102666854D02*
X88273674Y-102666854D01*
X87702246Y-102952569D02*
X88035579Y-101952569D01*
X88035579Y-101952569D02*
X88368912Y-102952569D01*
X88559389Y-101952569D02*
X89130817Y-101952569D01*
X88845103Y-102952569D02*
X88845103Y-101952569D01*
X67749673Y-99904569D02*
X67749673Y-98904569D01*
X67749673Y-99380759D02*
X68321101Y-99380759D01*
X68321101Y-99904569D02*
X68321101Y-98904569D01*
X68797292Y-99904569D02*
X68797292Y-99237902D01*
X68797292Y-98904569D02*
X68749673Y-98952188D01*
X68749673Y-98952188D02*
X68797292Y-98999807D01*
X68797292Y-98999807D02*
X68844911Y-98952188D01*
X68844911Y-98952188D02*
X68797292Y-98904569D01*
X68797292Y-98904569D02*
X68797292Y-98999807D01*
X69416339Y-99904569D02*
X69321101Y-99856950D01*
X69321101Y-99856950D02*
X69273482Y-99761711D01*
X69273482Y-99761711D02*
X69273482Y-98904569D01*
X69940149Y-99904569D02*
X69844911Y-99856950D01*
X69844911Y-99856950D02*
X69797292Y-99761711D01*
X69797292Y-99761711D02*
X69797292Y-98904569D01*
X70273483Y-99856950D02*
X70368721Y-99904569D01*
X70368721Y-99904569D02*
X70559197Y-99904569D01*
X70559197Y-99904569D02*
X70654435Y-99856950D01*
X70654435Y-99856950D02*
X70702054Y-99761711D01*
X70702054Y-99761711D02*
X70702054Y-99714092D01*
X70702054Y-99714092D02*
X70654435Y-99618854D01*
X70654435Y-99618854D02*
X70559197Y-99571235D01*
X70559197Y-99571235D02*
X70416340Y-99571235D01*
X70416340Y-99571235D02*
X70321102Y-99523616D01*
X70321102Y-99523616D02*
X70273483Y-99428378D01*
X70273483Y-99428378D02*
X70273483Y-99380759D01*
X70273483Y-99380759D02*
X70321102Y-99285521D01*
X70321102Y-99285521D02*
X70416340Y-99237902D01*
X70416340Y-99237902D02*
X70559197Y-99237902D01*
X70559197Y-99237902D02*
X70654435Y-99285521D01*
X71130626Y-99904569D02*
X71130626Y-99237902D01*
X71130626Y-98904569D02*
X71083007Y-98952188D01*
X71083007Y-98952188D02*
X71130626Y-98999807D01*
X71130626Y-98999807D02*
X71178245Y-98952188D01*
X71178245Y-98952188D02*
X71130626Y-98904569D01*
X71130626Y-98904569D02*
X71130626Y-98999807D01*
X72035387Y-99904569D02*
X72035387Y-98904569D01*
X72035387Y-99856950D02*
X71940149Y-99904569D01*
X71940149Y-99904569D02*
X71749673Y-99904569D01*
X71749673Y-99904569D02*
X71654435Y-99856950D01*
X71654435Y-99856950D02*
X71606816Y-99809330D01*
X71606816Y-99809330D02*
X71559197Y-99714092D01*
X71559197Y-99714092D02*
X71559197Y-99428378D01*
X71559197Y-99428378D02*
X71606816Y-99333140D01*
X71606816Y-99333140D02*
X71654435Y-99285521D01*
X71654435Y-99285521D02*
X71749673Y-99237902D01*
X71749673Y-99237902D02*
X71940149Y-99237902D01*
X71940149Y-99237902D02*
X72035387Y-99285521D01*
X72892530Y-99856950D02*
X72797292Y-99904569D01*
X72797292Y-99904569D02*
X72606816Y-99904569D01*
X72606816Y-99904569D02*
X72511578Y-99856950D01*
X72511578Y-99856950D02*
X72463959Y-99761711D01*
X72463959Y-99761711D02*
X72463959Y-99380759D01*
X72463959Y-99380759D02*
X72511578Y-99285521D01*
X72511578Y-99285521D02*
X72606816Y-99237902D01*
X72606816Y-99237902D02*
X72797292Y-99237902D01*
X72797292Y-99237902D02*
X72892530Y-99285521D01*
X72892530Y-99285521D02*
X72940149Y-99380759D01*
X72940149Y-99380759D02*
X72940149Y-99475997D01*
X72940149Y-99475997D02*
X72463959Y-99571235D01*
X74130626Y-99904569D02*
X74130626Y-99237902D01*
X74130626Y-99428378D02*
X74178245Y-99333140D01*
X74178245Y-99333140D02*
X74225864Y-99285521D01*
X74225864Y-99285521D02*
X74321102Y-99237902D01*
X74321102Y-99237902D02*
X74416340Y-99237902D01*
X75130626Y-99856950D02*
X75035388Y-99904569D01*
X75035388Y-99904569D02*
X74844912Y-99904569D01*
X74844912Y-99904569D02*
X74749674Y-99856950D01*
X74749674Y-99856950D02*
X74702055Y-99761711D01*
X74702055Y-99761711D02*
X74702055Y-99380759D01*
X74702055Y-99380759D02*
X74749674Y-99285521D01*
X74749674Y-99285521D02*
X74844912Y-99237902D01*
X74844912Y-99237902D02*
X75035388Y-99237902D01*
X75035388Y-99237902D02*
X75130626Y-99285521D01*
X75130626Y-99285521D02*
X75178245Y-99380759D01*
X75178245Y-99380759D02*
X75178245Y-99475997D01*
X75178245Y-99475997D02*
X74702055Y-99571235D01*
X75606817Y-99904569D02*
X75606817Y-99237902D01*
X75606817Y-99333140D02*
X75654436Y-99285521D01*
X75654436Y-99285521D02*
X75749674Y-99237902D01*
X75749674Y-99237902D02*
X75892531Y-99237902D01*
X75892531Y-99237902D02*
X75987769Y-99285521D01*
X75987769Y-99285521D02*
X76035388Y-99380759D01*
X76035388Y-99380759D02*
X76035388Y-99904569D01*
X76035388Y-99380759D02*
X76083007Y-99285521D01*
X76083007Y-99285521D02*
X76178245Y-99237902D01*
X76178245Y-99237902D02*
X76321102Y-99237902D01*
X76321102Y-99237902D02*
X76416341Y-99285521D01*
X76416341Y-99285521D02*
X76463960Y-99380759D01*
X76463960Y-99380759D02*
X76463960Y-99904569D01*
X77368721Y-99904569D02*
X77368721Y-99380759D01*
X77368721Y-99380759D02*
X77321102Y-99285521D01*
X77321102Y-99285521D02*
X77225864Y-99237902D01*
X77225864Y-99237902D02*
X77035388Y-99237902D01*
X77035388Y-99237902D02*
X76940150Y-99285521D01*
X77368721Y-99856950D02*
X77273483Y-99904569D01*
X77273483Y-99904569D02*
X77035388Y-99904569D01*
X77035388Y-99904569D02*
X76940150Y-99856950D01*
X76940150Y-99856950D02*
X76892531Y-99761711D01*
X76892531Y-99761711D02*
X76892531Y-99666473D01*
X76892531Y-99666473D02*
X76940150Y-99571235D01*
X76940150Y-99571235D02*
X77035388Y-99523616D01*
X77035388Y-99523616D02*
X77273483Y-99523616D01*
X77273483Y-99523616D02*
X77368721Y-99475997D01*
X77844912Y-99904569D02*
X77844912Y-98904569D01*
X77940150Y-99523616D02*
X78225864Y-99904569D01*
X78225864Y-99237902D02*
X77844912Y-99618854D01*
X79035388Y-99856950D02*
X78940150Y-99904569D01*
X78940150Y-99904569D02*
X78749674Y-99904569D01*
X78749674Y-99904569D02*
X78654436Y-99856950D01*
X78654436Y-99856950D02*
X78606817Y-99761711D01*
X78606817Y-99761711D02*
X78606817Y-99380759D01*
X78606817Y-99380759D02*
X78654436Y-99285521D01*
X78654436Y-99285521D02*
X78749674Y-99237902D01*
X78749674Y-99237902D02*
X78940150Y-99237902D01*
X78940150Y-99237902D02*
X79035388Y-99285521D01*
X79035388Y-99285521D02*
X79083007Y-99380759D01*
X79083007Y-99380759D02*
X79083007Y-99475997D01*
X79083007Y-99475997D02*
X78606817Y-99571235D01*
X80178246Y-99237902D02*
X80416341Y-99904569D01*
X80416341Y-99904569D02*
X80654436Y-99237902D01*
X81559198Y-99904569D02*
X80987770Y-99904569D01*
X81273484Y-99904569D02*
X81273484Y-98904569D01*
X81273484Y-98904569D02*
X81178246Y-99047426D01*
X81178246Y-99047426D02*
X81083008Y-99142664D01*
X81083008Y-99142664D02*
X80987770Y-99190283D01*
X81987770Y-99809330D02*
X82035389Y-99856950D01*
X82035389Y-99856950D02*
X81987770Y-99904569D01*
X81987770Y-99904569D02*
X81940151Y-99856950D01*
X81940151Y-99856950D02*
X81987770Y-99809330D01*
X81987770Y-99809330D02*
X81987770Y-99904569D01*
X82654436Y-98904569D02*
X82749674Y-98904569D01*
X82749674Y-98904569D02*
X82844912Y-98952188D01*
X82844912Y-98952188D02*
X82892531Y-98999807D01*
X82892531Y-98999807D02*
X82940150Y-99095045D01*
X82940150Y-99095045D02*
X82987769Y-99285521D01*
X82987769Y-99285521D02*
X82987769Y-99523616D01*
X82987769Y-99523616D02*
X82940150Y-99714092D01*
X82940150Y-99714092D02*
X82892531Y-99809330D01*
X82892531Y-99809330D02*
X82844912Y-99856950D01*
X82844912Y-99856950D02*
X82749674Y-99904569D01*
X82749674Y-99904569D02*
X82654436Y-99904569D01*
X82654436Y-99904569D02*
X82559198Y-99856950D01*
X82559198Y-99856950D02*
X82511579Y-99809330D01*
X82511579Y-99809330D02*
X82463960Y-99714092D01*
X82463960Y-99714092D02*
X82416341Y-99523616D01*
X82416341Y-99523616D02*
X82416341Y-99285521D01*
X82416341Y-99285521D02*
X82463960Y-99095045D01*
X82463960Y-99095045D02*
X82511579Y-98999807D01*
X82511579Y-98999807D02*
X82559198Y-98952188D01*
X82559198Y-98952188D02*
X82654436Y-98904569D01*
X175036381Y-58055759D02*
X175179238Y-58103378D01*
X175179238Y-58103378D02*
X175226857Y-58150997D01*
X175226857Y-58150997D02*
X175274476Y-58246235D01*
X175274476Y-58246235D02*
X175274476Y-58389092D01*
X175274476Y-58389092D02*
X175226857Y-58484330D01*
X175226857Y-58484330D02*
X175179238Y-58531950D01*
X175179238Y-58531950D02*
X175084000Y-58579569D01*
X175084000Y-58579569D02*
X174703048Y-58579569D01*
X174703048Y-58579569D02*
X174703048Y-57579569D01*
X174703048Y-57579569D02*
X175036381Y-57579569D01*
X175036381Y-57579569D02*
X175131619Y-57627188D01*
X175131619Y-57627188D02*
X175179238Y-57674807D01*
X175179238Y-57674807D02*
X175226857Y-57770045D01*
X175226857Y-57770045D02*
X175226857Y-57865283D01*
X175226857Y-57865283D02*
X175179238Y-57960521D01*
X175179238Y-57960521D02*
X175131619Y-58008140D01*
X175131619Y-58008140D02*
X175036381Y-58055759D01*
X175036381Y-58055759D02*
X174703048Y-58055759D01*
X175703048Y-58198616D02*
X176464953Y-58198616D01*
X166654381Y-50689759D02*
X166797238Y-50737378D01*
X166797238Y-50737378D02*
X166844857Y-50784997D01*
X166844857Y-50784997D02*
X166892476Y-50880235D01*
X166892476Y-50880235D02*
X166892476Y-51023092D01*
X166892476Y-51023092D02*
X166844857Y-51118330D01*
X166844857Y-51118330D02*
X166797238Y-51165950D01*
X166797238Y-51165950D02*
X166702000Y-51213569D01*
X166702000Y-51213569D02*
X166321048Y-51213569D01*
X166321048Y-51213569D02*
X166321048Y-50213569D01*
X166321048Y-50213569D02*
X166654381Y-50213569D01*
X166654381Y-50213569D02*
X166749619Y-50261188D01*
X166749619Y-50261188D02*
X166797238Y-50308807D01*
X166797238Y-50308807D02*
X166844857Y-50404045D01*
X166844857Y-50404045D02*
X166844857Y-50499283D01*
X166844857Y-50499283D02*
X166797238Y-50594521D01*
X166797238Y-50594521D02*
X166749619Y-50642140D01*
X166749619Y-50642140D02*
X166654381Y-50689759D01*
X166654381Y-50689759D02*
X166321048Y-50689759D01*
X167321048Y-50832616D02*
X168082953Y-50832616D01*
X167702000Y-51213569D02*
X167702000Y-50451664D01*
D11*
X75811436Y-55075091D02*
X75957900Y-55110078D01*
X75957900Y-55110078D02*
X76195089Y-55089327D01*
X76195089Y-55089327D02*
X76285815Y-55033589D01*
X76285815Y-55033589D02*
X76329102Y-54982001D01*
X76329102Y-54982001D02*
X76368240Y-54882975D01*
X76368240Y-54882975D02*
X76359939Y-54788099D01*
X76359939Y-54788099D02*
X76304201Y-54697373D01*
X76304201Y-54697373D02*
X76252613Y-54654086D01*
X76252613Y-54654086D02*
X76153587Y-54614949D01*
X76153587Y-54614949D02*
X75959685Y-54584112D01*
X75959685Y-54584112D02*
X75860659Y-54544975D01*
X75860659Y-54544975D02*
X75809071Y-54501687D01*
X75809071Y-54501687D02*
X75753332Y-54410962D01*
X75753332Y-54410962D02*
X75745032Y-54316086D01*
X75745032Y-54316086D02*
X75784169Y-54217060D01*
X75784169Y-54217060D02*
X75827457Y-54165472D01*
X75827457Y-54165472D02*
X75918182Y-54109733D01*
X75918182Y-54109733D02*
X76155371Y-54088982D01*
X76155371Y-54088982D02*
X76301835Y-54123969D01*
X76629750Y-54047479D02*
X76954095Y-55022923D01*
X76954095Y-55022923D02*
X77081592Y-54294754D01*
X77081592Y-54294754D02*
X77333598Y-54989720D01*
X77333598Y-54989720D02*
X77483631Y-53972774D01*
X77823996Y-54038598D02*
X77867284Y-53987010D01*
X77867284Y-53987010D02*
X77958009Y-53931272D01*
X77958009Y-53931272D02*
X78195199Y-53910520D01*
X78195199Y-53910520D02*
X78294225Y-53949658D01*
X78294225Y-53949658D02*
X78345813Y-53992945D01*
X78345813Y-53992945D02*
X78401551Y-54083671D01*
X78401551Y-54083671D02*
X78409852Y-54178546D01*
X78409852Y-54178546D02*
X78374865Y-54325010D01*
X78374865Y-54325010D02*
X77855414Y-54944067D01*
X77855414Y-54944067D02*
X78472106Y-54890114D01*
X79420863Y-54807108D02*
X78851608Y-54856912D01*
X79136236Y-54832010D02*
X79049080Y-53835815D01*
X79049080Y-53835815D02*
X78966655Y-53986429D01*
X78966655Y-53986429D02*
X78880080Y-54089606D01*
X78880080Y-54089606D02*
X78789354Y-54145344D01*
X54822524Y-69520471D02*
X54971480Y-69542559D01*
X54971480Y-69542559D02*
X55205958Y-69501215D01*
X55205958Y-69501215D02*
X55291480Y-69437781D01*
X55291480Y-69437781D02*
X55330107Y-69382617D01*
X55330107Y-69382617D02*
X55360464Y-69280556D01*
X55360464Y-69280556D02*
X55343926Y-69186765D01*
X55343926Y-69186765D02*
X55280493Y-69101243D01*
X55280493Y-69101243D02*
X55225328Y-69062616D01*
X55225328Y-69062616D02*
X55123268Y-69032259D01*
X55123268Y-69032259D02*
X54927417Y-69018439D01*
X54927417Y-69018439D02*
X54825357Y-68988081D01*
X54825357Y-68988081D02*
X54770192Y-68949454D01*
X54770192Y-68949454D02*
X54706759Y-68863932D01*
X54706759Y-68863932D02*
X54690221Y-68770141D01*
X54690221Y-68770141D02*
X54720578Y-68668081D01*
X54720578Y-68668081D02*
X54759205Y-68612916D01*
X54759205Y-68612916D02*
X54844727Y-68549483D01*
X54844727Y-68549483D02*
X55079205Y-68508138D01*
X55079205Y-68508138D02*
X55228161Y-68530227D01*
X55548161Y-68425448D02*
X55956288Y-69368911D01*
X55956288Y-69368911D02*
X56019836Y-68632401D01*
X56019836Y-68632401D02*
X56331452Y-69302760D01*
X56331452Y-69302760D02*
X56392282Y-68276607D01*
X57456947Y-69104305D02*
X56894200Y-69203532D01*
X57175573Y-69153918D02*
X57001925Y-68169111D01*
X57001925Y-68169111D02*
X56932941Y-68326335D01*
X56932941Y-68326335D02*
X56855687Y-68436664D01*
X56855687Y-68436664D02*
X56770165Y-68500098D01*
X58127420Y-67970655D02*
X57939837Y-68003731D01*
X57939837Y-68003731D02*
X57854315Y-68067165D01*
X57854315Y-68067165D02*
X57815688Y-68122329D01*
X57815688Y-68122329D02*
X57746704Y-68279554D01*
X57746704Y-68279554D02*
X57732884Y-68475406D01*
X57732884Y-68475406D02*
X57799036Y-68850570D01*
X57799036Y-68850570D02*
X57862469Y-68936093D01*
X57862469Y-68936093D02*
X57917634Y-68974719D01*
X57917634Y-68974719D02*
X58019694Y-69005077D01*
X58019694Y-69005077D02*
X58207277Y-68972001D01*
X58207277Y-68972001D02*
X58292799Y-68908568D01*
X58292799Y-68908568D02*
X58331425Y-68853403D01*
X58331425Y-68853403D02*
X58361783Y-68751343D01*
X58361783Y-68751343D02*
X58320438Y-68516865D01*
X58320438Y-68516865D02*
X58257005Y-68431343D01*
X58257005Y-68431343D02*
X58201840Y-68392716D01*
X58201840Y-68392716D02*
X58099780Y-68362358D01*
X58099780Y-68362358D02*
X57912198Y-68395434D01*
X57912198Y-68395434D02*
X57826675Y-68458868D01*
X57826675Y-68458868D02*
X57788049Y-68514032D01*
X57788049Y-68514032D02*
X57757691Y-68616092D01*
X36061937Y-72828469D02*
X36210893Y-72850557D01*
X36210893Y-72850557D02*
X36445371Y-72809213D01*
X36445371Y-72809213D02*
X36530893Y-72745779D01*
X36530893Y-72745779D02*
X36569520Y-72690615D01*
X36569520Y-72690615D02*
X36599877Y-72588554D01*
X36599877Y-72588554D02*
X36583339Y-72494763D01*
X36583339Y-72494763D02*
X36519906Y-72409241D01*
X36519906Y-72409241D02*
X36464741Y-72370614D01*
X36464741Y-72370614D02*
X36362681Y-72340257D01*
X36362681Y-72340257D02*
X36166830Y-72326437D01*
X36166830Y-72326437D02*
X36064770Y-72296079D01*
X36064770Y-72296079D02*
X36009605Y-72257452D01*
X36009605Y-72257452D02*
X35946172Y-72171930D01*
X35946172Y-72171930D02*
X35929634Y-72078139D01*
X35929634Y-72078139D02*
X35959991Y-71976079D01*
X35959991Y-71976079D02*
X35998618Y-71920914D01*
X35998618Y-71920914D02*
X36084140Y-71857481D01*
X36084140Y-71857481D02*
X36318618Y-71816136D01*
X36318618Y-71816136D02*
X36467574Y-71838225D01*
X36787574Y-71733446D02*
X37195701Y-72676909D01*
X37195701Y-72676909D02*
X37259249Y-71940399D01*
X37259249Y-71940399D02*
X37570865Y-72610758D01*
X37570865Y-72610758D02*
X37631695Y-71584605D01*
X38696360Y-72412303D02*
X38133613Y-72511530D01*
X38414986Y-72461916D02*
X38241338Y-71477109D01*
X38241338Y-71477109D02*
X38172354Y-71634333D01*
X38172354Y-71634333D02*
X38095100Y-71744662D01*
X38095100Y-71744662D02*
X38009578Y-71808096D01*
X39413728Y-71270385D02*
X38944772Y-71353074D01*
X38944772Y-71353074D02*
X38980566Y-71830299D01*
X38980566Y-71830299D02*
X39019193Y-71775135D01*
X39019193Y-71775135D02*
X39104715Y-71711701D01*
X39104715Y-71711701D02*
X39339193Y-71670356D01*
X39339193Y-71670356D02*
X39441253Y-71700714D01*
X39441253Y-71700714D02*
X39496418Y-71739341D01*
X39496418Y-71739341D02*
X39559851Y-71824863D01*
X39559851Y-71824863D02*
X39601196Y-72059341D01*
X39601196Y-72059341D02*
X39570838Y-72161401D01*
X39570838Y-72161401D02*
X39532212Y-72216566D01*
X39532212Y-72216566D02*
X39446690Y-72279999D01*
X39446690Y-72279999D02*
X39212212Y-72321344D01*
X39212212Y-72321344D02*
X39110151Y-72290986D01*
X39110151Y-72290986D02*
X39054987Y-72252360D01*
X79132070Y-93030109D02*
X79278534Y-93065096D01*
X79278534Y-93065096D02*
X79515723Y-93044345D01*
X79515723Y-93044345D02*
X79606449Y-92988607D01*
X79606449Y-92988607D02*
X79649736Y-92937019D01*
X79649736Y-92937019D02*
X79688874Y-92837993D01*
X79688874Y-92837993D02*
X79680573Y-92743117D01*
X79680573Y-92743117D02*
X79624835Y-92652391D01*
X79624835Y-92652391D02*
X79573247Y-92609104D01*
X79573247Y-92609104D02*
X79474221Y-92569967D01*
X79474221Y-92569967D02*
X79280319Y-92539130D01*
X79280319Y-92539130D02*
X79181293Y-92499993D01*
X79181293Y-92499993D02*
X79129705Y-92456705D01*
X79129705Y-92456705D02*
X79073966Y-92365980D01*
X79073966Y-92365980D02*
X79065666Y-92271104D01*
X79065666Y-92271104D02*
X79104803Y-92172078D01*
X79104803Y-92172078D02*
X79148091Y-92120490D01*
X79148091Y-92120490D02*
X79238816Y-92064751D01*
X79238816Y-92064751D02*
X79476005Y-92044000D01*
X79476005Y-92044000D02*
X79622469Y-92078987D01*
X79950384Y-92002497D02*
X80274729Y-92977941D01*
X80274729Y-92977941D02*
X80402226Y-92249772D01*
X80402226Y-92249772D02*
X80654232Y-92944738D01*
X80654232Y-92944738D02*
X80804265Y-91927792D01*
X81144630Y-91993616D02*
X81187918Y-91942028D01*
X81187918Y-91942028D02*
X81278643Y-91886290D01*
X81278643Y-91886290D02*
X81515833Y-91865538D01*
X81515833Y-91865538D02*
X81614859Y-91904676D01*
X81614859Y-91904676D02*
X81666447Y-91947963D01*
X81666447Y-91947963D02*
X81722185Y-92038689D01*
X81722185Y-92038689D02*
X81730486Y-92133564D01*
X81730486Y-92133564D02*
X81695499Y-92280028D01*
X81695499Y-92280028D02*
X81176048Y-92899085D01*
X81176048Y-92899085D02*
X81792740Y-92845132D01*
X82037649Y-91819885D02*
X82654341Y-91765932D01*
X82654341Y-91765932D02*
X82355478Y-92174486D01*
X82355478Y-92174486D02*
X82497792Y-92162036D01*
X82497792Y-92162036D02*
X82596818Y-92201173D01*
X82596818Y-92201173D02*
X82648406Y-92244460D01*
X82648406Y-92244460D02*
X82704144Y-92335186D01*
X82704144Y-92335186D02*
X82724895Y-92572375D01*
X82724895Y-92572375D02*
X82685758Y-92671401D01*
X82685758Y-92671401D02*
X82642471Y-92722989D01*
X82642471Y-92722989D02*
X82551745Y-92778728D01*
X82551745Y-92778728D02*
X82267118Y-92803629D01*
X82267118Y-92803629D02*
X82168092Y-92764492D01*
X82168092Y-92764492D02*
X82116504Y-92721204D01*
X77471753Y-74052600D02*
X77618217Y-74087587D01*
X77618217Y-74087587D02*
X77855406Y-74066836D01*
X77855406Y-74066836D02*
X77946132Y-74011098D01*
X77946132Y-74011098D02*
X77989419Y-73959510D01*
X77989419Y-73959510D02*
X78028557Y-73860484D01*
X78028557Y-73860484D02*
X78020256Y-73765608D01*
X78020256Y-73765608D02*
X77964518Y-73674882D01*
X77964518Y-73674882D02*
X77912930Y-73631595D01*
X77912930Y-73631595D02*
X77813904Y-73592458D01*
X77813904Y-73592458D02*
X77620002Y-73561621D01*
X77620002Y-73561621D02*
X77520976Y-73522484D01*
X77520976Y-73522484D02*
X77469388Y-73479196D01*
X77469388Y-73479196D02*
X77413649Y-73388471D01*
X77413649Y-73388471D02*
X77405349Y-73293595D01*
X77405349Y-73293595D02*
X77444486Y-73194569D01*
X77444486Y-73194569D02*
X77487774Y-73142981D01*
X77487774Y-73142981D02*
X77578499Y-73087242D01*
X77578499Y-73087242D02*
X77815688Y-73066491D01*
X77815688Y-73066491D02*
X77962152Y-73101478D01*
X78290067Y-73024988D02*
X78614412Y-74000432D01*
X78614412Y-74000432D02*
X78741909Y-73272263D01*
X78741909Y-73272263D02*
X78993915Y-73967229D01*
X78993915Y-73967229D02*
X79143948Y-72950283D01*
X79484313Y-73016107D02*
X79527601Y-72964519D01*
X79527601Y-72964519D02*
X79618326Y-72908781D01*
X79618326Y-72908781D02*
X79855516Y-72888029D01*
X79855516Y-72888029D02*
X79954542Y-72927167D01*
X79954542Y-72927167D02*
X80006130Y-72970454D01*
X80006130Y-72970454D02*
X80061868Y-73061180D01*
X80061868Y-73061180D02*
X80070169Y-73156055D01*
X80070169Y-73156055D02*
X80035182Y-73302519D01*
X80035182Y-73302519D02*
X79515731Y-73921576D01*
X79515731Y-73921576D02*
X80132423Y-73867623D01*
X80433070Y-72933102D02*
X80476358Y-72881514D01*
X80476358Y-72881514D02*
X80567083Y-72825775D01*
X80567083Y-72825775D02*
X80804272Y-72805024D01*
X80804272Y-72805024D02*
X80903298Y-72844161D01*
X80903298Y-72844161D02*
X80954887Y-72887449D01*
X80954887Y-72887449D02*
X81010625Y-72978174D01*
X81010625Y-72978174D02*
X81018925Y-73073050D01*
X81018925Y-73073050D02*
X80983938Y-73219514D01*
X80983938Y-73219514D02*
X80464488Y-73838571D01*
X80464488Y-73838571D02*
X81081180Y-73784617D01*
X61438520Y-107041646D02*
X61587476Y-107063734D01*
X61587476Y-107063734D02*
X61821954Y-107022390D01*
X61821954Y-107022390D02*
X61907476Y-106958956D01*
X61907476Y-106958956D02*
X61946103Y-106903792D01*
X61946103Y-106903792D02*
X61976460Y-106801731D01*
X61976460Y-106801731D02*
X61959922Y-106707940D01*
X61959922Y-106707940D02*
X61896489Y-106622418D01*
X61896489Y-106622418D02*
X61841324Y-106583791D01*
X61841324Y-106583791D02*
X61739264Y-106553434D01*
X61739264Y-106553434D02*
X61543413Y-106539614D01*
X61543413Y-106539614D02*
X61441353Y-106509256D01*
X61441353Y-106509256D02*
X61386188Y-106470629D01*
X61386188Y-106470629D02*
X61322755Y-106385107D01*
X61322755Y-106385107D02*
X61306217Y-106291316D01*
X61306217Y-106291316D02*
X61336574Y-106189256D01*
X61336574Y-106189256D02*
X61375201Y-106134091D01*
X61375201Y-106134091D02*
X61460723Y-106070658D01*
X61460723Y-106070658D02*
X61695201Y-106029313D01*
X61695201Y-106029313D02*
X61844157Y-106051402D01*
X62164157Y-105946623D02*
X62572284Y-106890086D01*
X62572284Y-106890086D02*
X62635832Y-106153576D01*
X62635832Y-106153576D02*
X62947448Y-106823935D01*
X62947448Y-106823935D02*
X63008278Y-105797782D01*
X63353085Y-105833691D02*
X63391712Y-105778526D01*
X63391712Y-105778526D02*
X63477234Y-105715092D01*
X63477234Y-105715092D02*
X63711712Y-105673748D01*
X63711712Y-105673748D02*
X63813772Y-105704105D01*
X63813772Y-105704105D02*
X63868937Y-105742732D01*
X63868937Y-105742732D02*
X63932371Y-105828254D01*
X63932371Y-105828254D02*
X63948908Y-105922045D01*
X63948908Y-105922045D02*
X63926820Y-106071001D01*
X63926820Y-106071001D02*
X63463300Y-106732976D01*
X63463300Y-106732976D02*
X64072943Y-106625480D01*
X64508938Y-105533175D02*
X64602729Y-105516637D01*
X64602729Y-105516637D02*
X64704789Y-105546995D01*
X64704789Y-105546995D02*
X64759954Y-105585622D01*
X64759954Y-105585622D02*
X64823387Y-105671144D01*
X64823387Y-105671144D02*
X64903359Y-105850457D01*
X64903359Y-105850457D02*
X64944703Y-106084935D01*
X64944703Y-106084935D02*
X64930884Y-106280787D01*
X64930884Y-106280787D02*
X64900526Y-106382847D01*
X64900526Y-106382847D02*
X64861899Y-106438012D01*
X64861899Y-106438012D02*
X64776377Y-106501445D01*
X64776377Y-106501445D02*
X64682586Y-106517983D01*
X64682586Y-106517983D02*
X64580526Y-106487625D01*
X64580526Y-106487625D02*
X64525361Y-106448999D01*
X64525361Y-106448999D02*
X64461928Y-106363476D01*
X64461928Y-106363476D02*
X64381956Y-106184163D01*
X64381956Y-106184163D02*
X64340611Y-105949685D01*
X64340611Y-105949685D02*
X64354431Y-105753834D01*
X64354431Y-105753834D02*
X64384789Y-105651773D01*
X64384789Y-105651773D02*
X64423415Y-105596609D01*
X64423415Y-105596609D02*
X64508938Y-105533175D01*
X42677932Y-110349644D02*
X42826888Y-110371732D01*
X42826888Y-110371732D02*
X43061366Y-110330388D01*
X43061366Y-110330388D02*
X43146888Y-110266954D01*
X43146888Y-110266954D02*
X43185515Y-110211790D01*
X43185515Y-110211790D02*
X43215872Y-110109729D01*
X43215872Y-110109729D02*
X43199334Y-110015938D01*
X43199334Y-110015938D02*
X43135901Y-109930416D01*
X43135901Y-109930416D02*
X43080736Y-109891789D01*
X43080736Y-109891789D02*
X42978676Y-109861432D01*
X42978676Y-109861432D02*
X42782825Y-109847612D01*
X42782825Y-109847612D02*
X42680765Y-109817254D01*
X42680765Y-109817254D02*
X42625600Y-109778627D01*
X42625600Y-109778627D02*
X42562167Y-109693105D01*
X42562167Y-109693105D02*
X42545629Y-109599314D01*
X42545629Y-109599314D02*
X42575986Y-109497254D01*
X42575986Y-109497254D02*
X42614613Y-109442089D01*
X42614613Y-109442089D02*
X42700135Y-109378656D01*
X42700135Y-109378656D02*
X42934613Y-109337311D01*
X42934613Y-109337311D02*
X43083569Y-109359400D01*
X43403569Y-109254621D02*
X43811696Y-110198084D01*
X43811696Y-110198084D02*
X43875244Y-109461574D01*
X43875244Y-109461574D02*
X44186860Y-110131933D01*
X44186860Y-110131933D02*
X44247690Y-109105780D01*
X45312355Y-109933478D02*
X44749608Y-110032705D01*
X45030981Y-109983091D02*
X44857333Y-108998284D01*
X44857333Y-108998284D02*
X44788349Y-109155508D01*
X44788349Y-109155508D02*
X44711095Y-109265837D01*
X44711095Y-109265837D02*
X44625573Y-109329271D01*
X45781311Y-109850788D02*
X45968893Y-109817712D01*
X45968893Y-109817712D02*
X46054416Y-109754279D01*
X46054416Y-109754279D02*
X46093042Y-109699114D01*
X46093042Y-109699114D02*
X46162027Y-109541889D01*
X46162027Y-109541889D02*
X46175846Y-109346038D01*
X46175846Y-109346038D02*
X46109695Y-108970873D01*
X46109695Y-108970873D02*
X46046261Y-108885351D01*
X46046261Y-108885351D02*
X45991097Y-108846724D01*
X45991097Y-108846724D02*
X45889036Y-108816366D01*
X45889036Y-108816366D02*
X45701454Y-108849442D01*
X45701454Y-108849442D02*
X45615932Y-108912876D01*
X45615932Y-108912876D02*
X45577305Y-108968040D01*
X45577305Y-108968040D02*
X45546947Y-109070101D01*
X45546947Y-109070101D02*
X45588292Y-109304579D01*
X45588292Y-109304579D02*
X45651726Y-109390101D01*
X45651726Y-109390101D02*
X45706890Y-109428727D01*
X45706890Y-109428727D02*
X45808950Y-109459085D01*
X45808950Y-109459085D02*
X45996533Y-109426009D01*
X45996533Y-109426009D02*
X46082055Y-109362576D01*
X46082055Y-109362576D02*
X46120682Y-109307411D01*
X46120682Y-109307411D02*
X46151039Y-109205351D01*
X58130522Y-88281059D02*
X58279478Y-88303147D01*
X58279478Y-88303147D02*
X58513956Y-88261803D01*
X58513956Y-88261803D02*
X58599478Y-88198369D01*
X58599478Y-88198369D02*
X58638105Y-88143205D01*
X58638105Y-88143205D02*
X58668462Y-88041144D01*
X58668462Y-88041144D02*
X58651924Y-87947353D01*
X58651924Y-87947353D02*
X58588491Y-87861831D01*
X58588491Y-87861831D02*
X58533326Y-87823204D01*
X58533326Y-87823204D02*
X58431266Y-87792847D01*
X58431266Y-87792847D02*
X58235415Y-87779027D01*
X58235415Y-87779027D02*
X58133355Y-87748669D01*
X58133355Y-87748669D02*
X58078190Y-87710042D01*
X58078190Y-87710042D02*
X58014757Y-87624520D01*
X58014757Y-87624520D02*
X57998219Y-87530729D01*
X57998219Y-87530729D02*
X58028576Y-87428669D01*
X58028576Y-87428669D02*
X58067203Y-87373504D01*
X58067203Y-87373504D02*
X58152725Y-87310071D01*
X58152725Y-87310071D02*
X58387203Y-87268726D01*
X58387203Y-87268726D02*
X58536159Y-87290815D01*
X58856159Y-87186036D02*
X59264286Y-88129499D01*
X59264286Y-88129499D02*
X59327834Y-87392989D01*
X59327834Y-87392989D02*
X59639450Y-88063348D01*
X59639450Y-88063348D02*
X59700280Y-87037195D01*
X60764945Y-87864893D02*
X60202198Y-87964120D01*
X60483571Y-87914506D02*
X60309923Y-86929699D01*
X60309923Y-86929699D02*
X60240939Y-87086923D01*
X60240939Y-87086923D02*
X60163685Y-87197252D01*
X60163685Y-87197252D02*
X60078163Y-87260686D01*
X61228465Y-87202918D02*
X61126404Y-87172560D01*
X61126404Y-87172560D02*
X61071240Y-87133933D01*
X61071240Y-87133933D02*
X61007806Y-87048411D01*
X61007806Y-87048411D02*
X60999537Y-87001516D01*
X60999537Y-87001516D02*
X61029895Y-86899455D01*
X61029895Y-86899455D02*
X61068522Y-86844291D01*
X61068522Y-86844291D02*
X61154044Y-86780857D01*
X61154044Y-86780857D02*
X61341626Y-86747781D01*
X61341626Y-86747781D02*
X61443687Y-86778139D01*
X61443687Y-86778139D02*
X61498851Y-86816766D01*
X61498851Y-86816766D02*
X61562285Y-86902288D01*
X61562285Y-86902288D02*
X61570554Y-86949184D01*
X61570554Y-86949184D02*
X61540196Y-87051244D01*
X61540196Y-87051244D02*
X61501569Y-87106408D01*
X61501569Y-87106408D02*
X61416047Y-87169842D01*
X61416047Y-87169842D02*
X61228465Y-87202918D01*
X61228465Y-87202918D02*
X61142942Y-87266351D01*
X61142942Y-87266351D02*
X61104316Y-87321516D01*
X61104316Y-87321516D02*
X61073958Y-87423576D01*
X61073958Y-87423576D02*
X61107034Y-87611158D01*
X61107034Y-87611158D02*
X61170467Y-87696681D01*
X61170467Y-87696681D02*
X61225632Y-87735307D01*
X61225632Y-87735307D02*
X61327692Y-87765665D01*
X61327692Y-87765665D02*
X61515275Y-87732589D01*
X61515275Y-87732589D02*
X61600797Y-87669156D01*
X61600797Y-87669156D02*
X61639423Y-87613991D01*
X61639423Y-87613991D02*
X61669781Y-87511931D01*
X61669781Y-87511931D02*
X61636705Y-87324348D01*
X61636705Y-87324348D02*
X61573272Y-87238826D01*
X61573272Y-87238826D02*
X61518107Y-87200200D01*
X61518107Y-87200200D02*
X61416047Y-87169842D01*
X39369934Y-91589057D02*
X39518890Y-91611145D01*
X39518890Y-91611145D02*
X39753368Y-91569801D01*
X39753368Y-91569801D02*
X39838890Y-91506367D01*
X39838890Y-91506367D02*
X39877517Y-91451203D01*
X39877517Y-91451203D02*
X39907874Y-91349142D01*
X39907874Y-91349142D02*
X39891336Y-91255351D01*
X39891336Y-91255351D02*
X39827903Y-91169829D01*
X39827903Y-91169829D02*
X39772738Y-91131202D01*
X39772738Y-91131202D02*
X39670678Y-91100845D01*
X39670678Y-91100845D02*
X39474827Y-91087025D01*
X39474827Y-91087025D02*
X39372767Y-91056667D01*
X39372767Y-91056667D02*
X39317602Y-91018040D01*
X39317602Y-91018040D02*
X39254169Y-90932518D01*
X39254169Y-90932518D02*
X39237631Y-90838727D01*
X39237631Y-90838727D02*
X39267988Y-90736667D01*
X39267988Y-90736667D02*
X39306615Y-90681502D01*
X39306615Y-90681502D02*
X39392137Y-90618069D01*
X39392137Y-90618069D02*
X39626615Y-90576724D01*
X39626615Y-90576724D02*
X39775571Y-90598813D01*
X40095571Y-90494034D02*
X40503698Y-91437497D01*
X40503698Y-91437497D02*
X40567246Y-90700987D01*
X40567246Y-90700987D02*
X40878862Y-91371346D01*
X40878862Y-91371346D02*
X40939692Y-90345193D01*
X42004357Y-91172891D02*
X41441610Y-91272118D01*
X41722983Y-91222504D02*
X41549335Y-90237697D01*
X41549335Y-90237697D02*
X41480351Y-90394921D01*
X41480351Y-90394921D02*
X41403097Y-90505250D01*
X41403097Y-90505250D02*
X41317575Y-90568684D01*
X42158978Y-90130200D02*
X42815516Y-90014435D01*
X42815516Y-90014435D02*
X42567104Y-91073663D01*
X156593209Y-132819439D02*
X156660553Y-132954126D01*
X156660553Y-132954126D02*
X156828911Y-133122485D01*
X156828911Y-133122485D02*
X156929927Y-133156156D01*
X156929927Y-133156156D02*
X156997270Y-133156156D01*
X156997270Y-133156156D02*
X157098285Y-133122485D01*
X157098285Y-133122485D02*
X157165629Y-133055141D01*
X157165629Y-133055141D02*
X157199301Y-132954126D01*
X157199301Y-132954126D02*
X157199301Y-132886782D01*
X157199301Y-132886782D02*
X157165629Y-132785767D01*
X157165629Y-132785767D02*
X157064614Y-132617408D01*
X157064614Y-132617408D02*
X157030942Y-132516393D01*
X157030942Y-132516393D02*
X157030942Y-132449050D01*
X157030942Y-132449050D02*
X157064614Y-132348034D01*
X157064614Y-132348034D02*
X157131957Y-132280691D01*
X157131957Y-132280691D02*
X157232972Y-132247019D01*
X157232972Y-132247019D02*
X157300316Y-132247019D01*
X157300316Y-132247019D02*
X157401331Y-132280691D01*
X157401331Y-132280691D02*
X157569690Y-132449050D01*
X157569690Y-132449050D02*
X157637033Y-132583737D01*
X157906407Y-132785767D02*
X157367659Y-133661233D01*
X157367659Y-133661233D02*
X158007423Y-133290843D01*
X158007423Y-133290843D02*
X157637033Y-133930607D01*
X157637033Y-133930607D02*
X158512499Y-133391859D01*
X158445155Y-134738729D02*
X158041094Y-134334668D01*
X158243125Y-134536698D02*
X158950232Y-133829591D01*
X158950232Y-133829591D02*
X158781873Y-133863263D01*
X158781873Y-133863263D02*
X158647186Y-133863263D01*
X158647186Y-133863263D02*
X158546171Y-133829591D01*
X159522651Y-134873416D02*
X159051247Y-135344820D01*
X159623667Y-134435683D02*
X158950232Y-134772400D01*
X158950232Y-134772400D02*
X159387964Y-135210133D01*
X141818991Y-120719231D02*
X141918899Y-120831899D01*
X141918899Y-120831899D02*
X142125096Y-120950947D01*
X142125096Y-120950947D02*
X142231384Y-120957326D01*
X142231384Y-120957326D02*
X142296433Y-120939897D01*
X142296433Y-120939897D02*
X142385291Y-120881228D01*
X142385291Y-120881228D02*
X142432910Y-120798749D01*
X142432910Y-120798749D02*
X142439290Y-120692461D01*
X142439290Y-120692461D02*
X142421860Y-120627412D01*
X142421860Y-120627412D02*
X142363191Y-120538554D01*
X142363191Y-120538554D02*
X142222043Y-120402076D01*
X142222043Y-120402076D02*
X142163374Y-120313218D01*
X142163374Y-120313218D02*
X142145945Y-120248169D01*
X142145945Y-120248169D02*
X142152324Y-120141881D01*
X142152324Y-120141881D02*
X142199943Y-120059402D01*
X142199943Y-120059402D02*
X142288802Y-120000733D01*
X142288802Y-120000733D02*
X142353850Y-119983303D01*
X142353850Y-119983303D02*
X142460139Y-119989683D01*
X142460139Y-119989683D02*
X142666335Y-120108731D01*
X142666335Y-120108731D02*
X142766244Y-120221399D01*
X143078728Y-120346826D02*
X142784925Y-121331899D01*
X142784925Y-121331899D02*
X143307025Y-120808548D01*
X143307025Y-120808548D02*
X143114839Y-121522375D01*
X143114839Y-121522375D02*
X143821036Y-120775397D01*
X144104582Y-122093804D02*
X143609711Y-121808089D01*
X143857147Y-121950947D02*
X144357147Y-121084921D01*
X144357147Y-121084921D02*
X144203239Y-121161020D01*
X144203239Y-121161020D02*
X144073142Y-121195880D01*
X144073142Y-121195880D02*
X143966854Y-121189500D01*
X144893258Y-121394445D02*
X145429369Y-121703969D01*
X145429369Y-121703969D02*
X144950217Y-121867217D01*
X144950217Y-121867217D02*
X145073935Y-121938645D01*
X145073935Y-121938645D02*
X145132604Y-122027504D01*
X145132604Y-122027504D02*
X145150034Y-122092552D01*
X145150034Y-122092552D02*
X145143654Y-122198840D01*
X145143654Y-122198840D02*
X145024607Y-122405037D01*
X145024607Y-122405037D02*
X144935748Y-122463706D01*
X144935748Y-122463706D02*
X144870699Y-122481136D01*
X144870699Y-122481136D02*
X144764411Y-122474756D01*
X144764411Y-122474756D02*
X144516975Y-122331899D01*
X144516975Y-122331899D02*
X144458306Y-122243041D01*
X144458306Y-122243041D02*
X144440877Y-122177992D01*
X151343991Y-104221447D02*
X151443899Y-104334115D01*
X151443899Y-104334115D02*
X151650096Y-104453163D01*
X151650096Y-104453163D02*
X151756384Y-104459542D01*
X151756384Y-104459542D02*
X151821433Y-104442113D01*
X151821433Y-104442113D02*
X151910291Y-104383444D01*
X151910291Y-104383444D02*
X151957910Y-104300965D01*
X151957910Y-104300965D02*
X151964290Y-104194677D01*
X151964290Y-104194677D02*
X151946860Y-104129628D01*
X151946860Y-104129628D02*
X151888191Y-104040770D01*
X151888191Y-104040770D02*
X151747043Y-103904292D01*
X151747043Y-103904292D02*
X151688374Y-103815434D01*
X151688374Y-103815434D02*
X151670945Y-103750385D01*
X151670945Y-103750385D02*
X151677324Y-103644097D01*
X151677324Y-103644097D02*
X151724943Y-103561618D01*
X151724943Y-103561618D02*
X151813802Y-103502949D01*
X151813802Y-103502949D02*
X151878850Y-103485519D01*
X151878850Y-103485519D02*
X151985139Y-103491899D01*
X151985139Y-103491899D02*
X152191335Y-103610947D01*
X152191335Y-103610947D02*
X152291244Y-103723615D01*
X152603728Y-103849042D02*
X152309925Y-104834115D01*
X152309925Y-104834115D02*
X152832025Y-104310764D01*
X152832025Y-104310764D02*
X152639839Y-105024591D01*
X152639839Y-105024591D02*
X153346036Y-104277613D01*
X153629582Y-105596020D02*
X153134711Y-105310305D01*
X153382147Y-105453163D02*
X153882147Y-104587137D01*
X153882147Y-104587137D02*
X153728239Y-104663236D01*
X153728239Y-104663236D02*
X153598142Y-104698096D01*
X153598142Y-104698096D02*
X153491854Y-104691716D01*
X154411878Y-105002949D02*
X154476927Y-104985519D01*
X154476927Y-104985519D02*
X154583215Y-104991899D01*
X154583215Y-104991899D02*
X154789411Y-105110947D01*
X154789411Y-105110947D02*
X154848080Y-105199805D01*
X154848080Y-105199805D02*
X154865510Y-105264854D01*
X154865510Y-105264854D02*
X154859130Y-105371142D01*
X154859130Y-105371142D02*
X154811511Y-105453621D01*
X154811511Y-105453621D02*
X154698844Y-105553529D01*
X154698844Y-105553529D02*
X153918258Y-105762686D01*
X153918258Y-105762686D02*
X154454369Y-106072210D01*
X124416428Y-112855178D02*
X124542092Y-112938149D01*
X124542092Y-112938149D02*
X124772075Y-112999772D01*
X124772075Y-112999772D02*
X124876392Y-112978425D01*
X124876392Y-112978425D02*
X124934713Y-112944754D01*
X124934713Y-112944754D02*
X125005359Y-112865085D01*
X125005359Y-112865085D02*
X125030009Y-112773093D01*
X125030009Y-112773093D02*
X125008662Y-112668775D01*
X125008662Y-112668775D02*
X124974990Y-112610454D01*
X124974990Y-112610454D02*
X124895322Y-112539808D01*
X124895322Y-112539808D02*
X124723661Y-112444512D01*
X124723661Y-112444512D02*
X124643992Y-112373867D01*
X124643992Y-112373867D02*
X124610321Y-112315545D01*
X124610321Y-112315545D02*
X124588974Y-112211228D01*
X124588974Y-112211228D02*
X124613623Y-112119235D01*
X124613623Y-112119235D02*
X124684269Y-112039567D01*
X124684269Y-112039567D02*
X124742590Y-112005895D01*
X124742590Y-112005895D02*
X124846908Y-111984548D01*
X124846908Y-111984548D02*
X125076890Y-112046171D01*
X125076890Y-112046171D02*
X125202555Y-112129142D01*
X125536855Y-112169419D02*
X125508018Y-113196968D01*
X125508018Y-113196968D02*
X125876875Y-112556320D01*
X125876875Y-112556320D02*
X125875990Y-113295566D01*
X125875990Y-113295566D02*
X126364791Y-112391263D01*
X126979905Y-113591359D02*
X126427947Y-113443462D01*
X126703926Y-113517411D02*
X126962745Y-112551485D01*
X126962745Y-112551485D02*
X126833778Y-112664825D01*
X126833778Y-112664825D02*
X126717136Y-112732168D01*
X126717136Y-112732168D02*
X126612818Y-112753515D01*
X127899834Y-113837853D02*
X127347877Y-113689957D01*
X127623856Y-113763905D02*
X127882675Y-112797979D01*
X127882675Y-112797979D02*
X127753708Y-112911319D01*
X127753708Y-112911319D02*
X127637065Y-112978663D01*
X127637065Y-112978663D02*
X127532748Y-113000010D01*
X105571476Y-109763200D02*
X105714333Y-109810819D01*
X105714333Y-109810819D02*
X105952428Y-109810819D01*
X105952428Y-109810819D02*
X106047666Y-109763200D01*
X106047666Y-109763200D02*
X106095285Y-109715580D01*
X106095285Y-109715580D02*
X106142904Y-109620342D01*
X106142904Y-109620342D02*
X106142904Y-109525104D01*
X106142904Y-109525104D02*
X106095285Y-109429866D01*
X106095285Y-109429866D02*
X106047666Y-109382247D01*
X106047666Y-109382247D02*
X105952428Y-109334628D01*
X105952428Y-109334628D02*
X105761952Y-109287009D01*
X105761952Y-109287009D02*
X105666714Y-109239390D01*
X105666714Y-109239390D02*
X105619095Y-109191771D01*
X105619095Y-109191771D02*
X105571476Y-109096533D01*
X105571476Y-109096533D02*
X105571476Y-109001295D01*
X105571476Y-109001295D02*
X105619095Y-108906057D01*
X105619095Y-108906057D02*
X105666714Y-108858438D01*
X105666714Y-108858438D02*
X105761952Y-108810819D01*
X105761952Y-108810819D02*
X106000047Y-108810819D01*
X106000047Y-108810819D02*
X106142904Y-108858438D01*
X106476238Y-108810819D02*
X106714333Y-109810819D01*
X106714333Y-109810819D02*
X106904809Y-109096533D01*
X106904809Y-109096533D02*
X107095285Y-109810819D01*
X107095285Y-109810819D02*
X107333381Y-108810819D01*
X108238142Y-109810819D02*
X107666714Y-109810819D01*
X107952428Y-109810819D02*
X107952428Y-108810819D01*
X107952428Y-108810819D02*
X107857190Y-108953676D01*
X107857190Y-108953676D02*
X107761952Y-109048914D01*
X107761952Y-109048914D02*
X107666714Y-109096533D01*
X108857190Y-108810819D02*
X108952428Y-108810819D01*
X108952428Y-108810819D02*
X109047666Y-108858438D01*
X109047666Y-108858438D02*
X109095285Y-108906057D01*
X109095285Y-108906057D02*
X109142904Y-109001295D01*
X109142904Y-109001295D02*
X109190523Y-109191771D01*
X109190523Y-109191771D02*
X109190523Y-109429866D01*
X109190523Y-109429866D02*
X109142904Y-109620342D01*
X109142904Y-109620342D02*
X109095285Y-109715580D01*
X109095285Y-109715580D02*
X109047666Y-109763200D01*
X109047666Y-109763200D02*
X108952428Y-109810819D01*
X108952428Y-109810819D02*
X108857190Y-109810819D01*
X108857190Y-109810819D02*
X108761952Y-109763200D01*
X108761952Y-109763200D02*
X108714333Y-109715580D01*
X108714333Y-109715580D02*
X108666714Y-109620342D01*
X108666714Y-109620342D02*
X108619095Y-109429866D01*
X108619095Y-109429866D02*
X108619095Y-109191771D01*
X108619095Y-109191771D02*
X108666714Y-109001295D01*
X108666714Y-109001295D02*
X108714333Y-108906057D01*
X108714333Y-108906057D02*
X108761952Y-108858438D01*
X108761952Y-108858438D02*
X108857190Y-108810819D01*
X136146667Y-93570700D02*
X136289524Y-93618319D01*
X136289524Y-93618319D02*
X136527619Y-93618319D01*
X136527619Y-93618319D02*
X136622857Y-93570700D01*
X136622857Y-93570700D02*
X136670476Y-93523080D01*
X136670476Y-93523080D02*
X136718095Y-93427842D01*
X136718095Y-93427842D02*
X136718095Y-93332604D01*
X136718095Y-93332604D02*
X136670476Y-93237366D01*
X136670476Y-93237366D02*
X136622857Y-93189747D01*
X136622857Y-93189747D02*
X136527619Y-93142128D01*
X136527619Y-93142128D02*
X136337143Y-93094509D01*
X136337143Y-93094509D02*
X136241905Y-93046890D01*
X136241905Y-93046890D02*
X136194286Y-92999271D01*
X136194286Y-92999271D02*
X136146667Y-92904033D01*
X136146667Y-92904033D02*
X136146667Y-92808795D01*
X136146667Y-92808795D02*
X136194286Y-92713557D01*
X136194286Y-92713557D02*
X136241905Y-92665938D01*
X136241905Y-92665938D02*
X136337143Y-92618319D01*
X136337143Y-92618319D02*
X136575238Y-92618319D01*
X136575238Y-92618319D02*
X136718095Y-92665938D01*
X137051429Y-92618319D02*
X137289524Y-93618319D01*
X137289524Y-93618319D02*
X137480000Y-92904033D01*
X137480000Y-92904033D02*
X137670476Y-93618319D01*
X137670476Y-93618319D02*
X137908572Y-92618319D01*
X138337143Y-93618319D02*
X138527619Y-93618319D01*
X138527619Y-93618319D02*
X138622857Y-93570700D01*
X138622857Y-93570700D02*
X138670476Y-93523080D01*
X138670476Y-93523080D02*
X138765714Y-93380223D01*
X138765714Y-93380223D02*
X138813333Y-93189747D01*
X138813333Y-93189747D02*
X138813333Y-92808795D01*
X138813333Y-92808795D02*
X138765714Y-92713557D01*
X138765714Y-92713557D02*
X138718095Y-92665938D01*
X138718095Y-92665938D02*
X138622857Y-92618319D01*
X138622857Y-92618319D02*
X138432381Y-92618319D01*
X138432381Y-92618319D02*
X138337143Y-92665938D01*
X138337143Y-92665938D02*
X138289524Y-92713557D01*
X138289524Y-92713557D02*
X138241905Y-92808795D01*
X138241905Y-92808795D02*
X138241905Y-93046890D01*
X138241905Y-93046890D02*
X138289524Y-93142128D01*
X138289524Y-93142128D02*
X138337143Y-93189747D01*
X138337143Y-93189747D02*
X138432381Y-93237366D01*
X138432381Y-93237366D02*
X138622857Y-93237366D01*
X138622857Y-93237366D02*
X138718095Y-93189747D01*
X138718095Y-93189747D02*
X138765714Y-93142128D01*
X138765714Y-93142128D02*
X138813333Y-93046890D01*
X117096667Y-90713200D02*
X117239524Y-90760819D01*
X117239524Y-90760819D02*
X117477619Y-90760819D01*
X117477619Y-90760819D02*
X117572857Y-90713200D01*
X117572857Y-90713200D02*
X117620476Y-90665580D01*
X117620476Y-90665580D02*
X117668095Y-90570342D01*
X117668095Y-90570342D02*
X117668095Y-90475104D01*
X117668095Y-90475104D02*
X117620476Y-90379866D01*
X117620476Y-90379866D02*
X117572857Y-90332247D01*
X117572857Y-90332247D02*
X117477619Y-90284628D01*
X117477619Y-90284628D02*
X117287143Y-90237009D01*
X117287143Y-90237009D02*
X117191905Y-90189390D01*
X117191905Y-90189390D02*
X117144286Y-90141771D01*
X117144286Y-90141771D02*
X117096667Y-90046533D01*
X117096667Y-90046533D02*
X117096667Y-89951295D01*
X117096667Y-89951295D02*
X117144286Y-89856057D01*
X117144286Y-89856057D02*
X117191905Y-89808438D01*
X117191905Y-89808438D02*
X117287143Y-89760819D01*
X117287143Y-89760819D02*
X117525238Y-89760819D01*
X117525238Y-89760819D02*
X117668095Y-89808438D01*
X118001429Y-89760819D02*
X118239524Y-90760819D01*
X118239524Y-90760819D02*
X118430000Y-90046533D01*
X118430000Y-90046533D02*
X118620476Y-90760819D01*
X118620476Y-90760819D02*
X118858572Y-89760819D01*
X119382381Y-90189390D02*
X119287143Y-90141771D01*
X119287143Y-90141771D02*
X119239524Y-90094152D01*
X119239524Y-90094152D02*
X119191905Y-89998914D01*
X119191905Y-89998914D02*
X119191905Y-89951295D01*
X119191905Y-89951295D02*
X119239524Y-89856057D01*
X119239524Y-89856057D02*
X119287143Y-89808438D01*
X119287143Y-89808438D02*
X119382381Y-89760819D01*
X119382381Y-89760819D02*
X119572857Y-89760819D01*
X119572857Y-89760819D02*
X119668095Y-89808438D01*
X119668095Y-89808438D02*
X119715714Y-89856057D01*
X119715714Y-89856057D02*
X119763333Y-89951295D01*
X119763333Y-89951295D02*
X119763333Y-89998914D01*
X119763333Y-89998914D02*
X119715714Y-90094152D01*
X119715714Y-90094152D02*
X119668095Y-90141771D01*
X119668095Y-90141771D02*
X119572857Y-90189390D01*
X119572857Y-90189390D02*
X119382381Y-90189390D01*
X119382381Y-90189390D02*
X119287143Y-90237009D01*
X119287143Y-90237009D02*
X119239524Y-90284628D01*
X119239524Y-90284628D02*
X119191905Y-90379866D01*
X119191905Y-90379866D02*
X119191905Y-90570342D01*
X119191905Y-90570342D02*
X119239524Y-90665580D01*
X119239524Y-90665580D02*
X119287143Y-90713200D01*
X119287143Y-90713200D02*
X119382381Y-90760819D01*
X119382381Y-90760819D02*
X119572857Y-90760819D01*
X119572857Y-90760819D02*
X119668095Y-90713200D01*
X119668095Y-90713200D02*
X119715714Y-90665580D01*
X119715714Y-90665580D02*
X119763333Y-90570342D01*
X119763333Y-90570342D02*
X119763333Y-90379866D01*
X119763333Y-90379866D02*
X119715714Y-90284628D01*
X119715714Y-90284628D02*
X119668095Y-90237009D01*
X119668095Y-90237009D02*
X119572857Y-90189390D01*
X98046667Y-84617200D02*
X98189524Y-84664819D01*
X98189524Y-84664819D02*
X98427619Y-84664819D01*
X98427619Y-84664819D02*
X98522857Y-84617200D01*
X98522857Y-84617200D02*
X98570476Y-84569580D01*
X98570476Y-84569580D02*
X98618095Y-84474342D01*
X98618095Y-84474342D02*
X98618095Y-84379104D01*
X98618095Y-84379104D02*
X98570476Y-84283866D01*
X98570476Y-84283866D02*
X98522857Y-84236247D01*
X98522857Y-84236247D02*
X98427619Y-84188628D01*
X98427619Y-84188628D02*
X98237143Y-84141009D01*
X98237143Y-84141009D02*
X98141905Y-84093390D01*
X98141905Y-84093390D02*
X98094286Y-84045771D01*
X98094286Y-84045771D02*
X98046667Y-83950533D01*
X98046667Y-83950533D02*
X98046667Y-83855295D01*
X98046667Y-83855295D02*
X98094286Y-83760057D01*
X98094286Y-83760057D02*
X98141905Y-83712438D01*
X98141905Y-83712438D02*
X98237143Y-83664819D01*
X98237143Y-83664819D02*
X98475238Y-83664819D01*
X98475238Y-83664819D02*
X98618095Y-83712438D01*
X98951429Y-83664819D02*
X99189524Y-84664819D01*
X99189524Y-84664819D02*
X99380000Y-83950533D01*
X99380000Y-83950533D02*
X99570476Y-84664819D01*
X99570476Y-84664819D02*
X99808572Y-83664819D01*
X100094286Y-83664819D02*
X100760952Y-83664819D01*
X100760952Y-83664819D02*
X100332381Y-84664819D01*
X136146667Y-74520700D02*
X136289524Y-74568319D01*
X136289524Y-74568319D02*
X136527619Y-74568319D01*
X136527619Y-74568319D02*
X136622857Y-74520700D01*
X136622857Y-74520700D02*
X136670476Y-74473080D01*
X136670476Y-74473080D02*
X136718095Y-74377842D01*
X136718095Y-74377842D02*
X136718095Y-74282604D01*
X136718095Y-74282604D02*
X136670476Y-74187366D01*
X136670476Y-74187366D02*
X136622857Y-74139747D01*
X136622857Y-74139747D02*
X136527619Y-74092128D01*
X136527619Y-74092128D02*
X136337143Y-74044509D01*
X136337143Y-74044509D02*
X136241905Y-73996890D01*
X136241905Y-73996890D02*
X136194286Y-73949271D01*
X136194286Y-73949271D02*
X136146667Y-73854033D01*
X136146667Y-73854033D02*
X136146667Y-73758795D01*
X136146667Y-73758795D02*
X136194286Y-73663557D01*
X136194286Y-73663557D02*
X136241905Y-73615938D01*
X136241905Y-73615938D02*
X136337143Y-73568319D01*
X136337143Y-73568319D02*
X136575238Y-73568319D01*
X136575238Y-73568319D02*
X136718095Y-73615938D01*
X137051429Y-73568319D02*
X137289524Y-74568319D01*
X137289524Y-74568319D02*
X137480000Y-73854033D01*
X137480000Y-73854033D02*
X137670476Y-74568319D01*
X137670476Y-74568319D02*
X137908572Y-73568319D01*
X138718095Y-73568319D02*
X138527619Y-73568319D01*
X138527619Y-73568319D02*
X138432381Y-73615938D01*
X138432381Y-73615938D02*
X138384762Y-73663557D01*
X138384762Y-73663557D02*
X138289524Y-73806414D01*
X138289524Y-73806414D02*
X138241905Y-73996890D01*
X138241905Y-73996890D02*
X138241905Y-74377842D01*
X138241905Y-74377842D02*
X138289524Y-74473080D01*
X138289524Y-74473080D02*
X138337143Y-74520700D01*
X138337143Y-74520700D02*
X138432381Y-74568319D01*
X138432381Y-74568319D02*
X138622857Y-74568319D01*
X138622857Y-74568319D02*
X138718095Y-74520700D01*
X138718095Y-74520700D02*
X138765714Y-74473080D01*
X138765714Y-74473080D02*
X138813333Y-74377842D01*
X138813333Y-74377842D02*
X138813333Y-74139747D01*
X138813333Y-74139747D02*
X138765714Y-74044509D01*
X138765714Y-74044509D02*
X138718095Y-73996890D01*
X138718095Y-73996890D02*
X138622857Y-73949271D01*
X138622857Y-73949271D02*
X138432381Y-73949271D01*
X138432381Y-73949271D02*
X138337143Y-73996890D01*
X138337143Y-73996890D02*
X138289524Y-74044509D01*
X138289524Y-74044509D02*
X138241905Y-74139747D01*
X117096667Y-71663200D02*
X117239524Y-71710819D01*
X117239524Y-71710819D02*
X117477619Y-71710819D01*
X117477619Y-71710819D02*
X117572857Y-71663200D01*
X117572857Y-71663200D02*
X117620476Y-71615580D01*
X117620476Y-71615580D02*
X117668095Y-71520342D01*
X117668095Y-71520342D02*
X117668095Y-71425104D01*
X117668095Y-71425104D02*
X117620476Y-71329866D01*
X117620476Y-71329866D02*
X117572857Y-71282247D01*
X117572857Y-71282247D02*
X117477619Y-71234628D01*
X117477619Y-71234628D02*
X117287143Y-71187009D01*
X117287143Y-71187009D02*
X117191905Y-71139390D01*
X117191905Y-71139390D02*
X117144286Y-71091771D01*
X117144286Y-71091771D02*
X117096667Y-70996533D01*
X117096667Y-70996533D02*
X117096667Y-70901295D01*
X117096667Y-70901295D02*
X117144286Y-70806057D01*
X117144286Y-70806057D02*
X117191905Y-70758438D01*
X117191905Y-70758438D02*
X117287143Y-70710819D01*
X117287143Y-70710819D02*
X117525238Y-70710819D01*
X117525238Y-70710819D02*
X117668095Y-70758438D01*
X118001429Y-70710819D02*
X118239524Y-71710819D01*
X118239524Y-71710819D02*
X118430000Y-70996533D01*
X118430000Y-70996533D02*
X118620476Y-71710819D01*
X118620476Y-71710819D02*
X118858572Y-70710819D01*
X119715714Y-70710819D02*
X119239524Y-70710819D01*
X119239524Y-70710819D02*
X119191905Y-71187009D01*
X119191905Y-71187009D02*
X119239524Y-71139390D01*
X119239524Y-71139390D02*
X119334762Y-71091771D01*
X119334762Y-71091771D02*
X119572857Y-71091771D01*
X119572857Y-71091771D02*
X119668095Y-71139390D01*
X119668095Y-71139390D02*
X119715714Y-71187009D01*
X119715714Y-71187009D02*
X119763333Y-71282247D01*
X119763333Y-71282247D02*
X119763333Y-71520342D01*
X119763333Y-71520342D02*
X119715714Y-71615580D01*
X119715714Y-71615580D02*
X119668095Y-71663200D01*
X119668095Y-71663200D02*
X119572857Y-71710819D01*
X119572857Y-71710819D02*
X119334762Y-71710819D01*
X119334762Y-71710819D02*
X119239524Y-71663200D01*
X119239524Y-71663200D02*
X119191905Y-71615580D01*
X98046667Y-65567200D02*
X98189524Y-65614819D01*
X98189524Y-65614819D02*
X98427619Y-65614819D01*
X98427619Y-65614819D02*
X98522857Y-65567200D01*
X98522857Y-65567200D02*
X98570476Y-65519580D01*
X98570476Y-65519580D02*
X98618095Y-65424342D01*
X98618095Y-65424342D02*
X98618095Y-65329104D01*
X98618095Y-65329104D02*
X98570476Y-65233866D01*
X98570476Y-65233866D02*
X98522857Y-65186247D01*
X98522857Y-65186247D02*
X98427619Y-65138628D01*
X98427619Y-65138628D02*
X98237143Y-65091009D01*
X98237143Y-65091009D02*
X98141905Y-65043390D01*
X98141905Y-65043390D02*
X98094286Y-64995771D01*
X98094286Y-64995771D02*
X98046667Y-64900533D01*
X98046667Y-64900533D02*
X98046667Y-64805295D01*
X98046667Y-64805295D02*
X98094286Y-64710057D01*
X98094286Y-64710057D02*
X98141905Y-64662438D01*
X98141905Y-64662438D02*
X98237143Y-64614819D01*
X98237143Y-64614819D02*
X98475238Y-64614819D01*
X98475238Y-64614819D02*
X98618095Y-64662438D01*
X98951429Y-64614819D02*
X99189524Y-65614819D01*
X99189524Y-65614819D02*
X99380000Y-64900533D01*
X99380000Y-64900533D02*
X99570476Y-65614819D01*
X99570476Y-65614819D02*
X99808572Y-64614819D01*
X100618095Y-64948152D02*
X100618095Y-65614819D01*
X100380000Y-64567200D02*
X100141905Y-65281485D01*
X100141905Y-65281485D02*
X100760952Y-65281485D01*
X136146667Y-55470700D02*
X136289524Y-55518319D01*
X136289524Y-55518319D02*
X136527619Y-55518319D01*
X136527619Y-55518319D02*
X136622857Y-55470700D01*
X136622857Y-55470700D02*
X136670476Y-55423080D01*
X136670476Y-55423080D02*
X136718095Y-55327842D01*
X136718095Y-55327842D02*
X136718095Y-55232604D01*
X136718095Y-55232604D02*
X136670476Y-55137366D01*
X136670476Y-55137366D02*
X136622857Y-55089747D01*
X136622857Y-55089747D02*
X136527619Y-55042128D01*
X136527619Y-55042128D02*
X136337143Y-54994509D01*
X136337143Y-54994509D02*
X136241905Y-54946890D01*
X136241905Y-54946890D02*
X136194286Y-54899271D01*
X136194286Y-54899271D02*
X136146667Y-54804033D01*
X136146667Y-54804033D02*
X136146667Y-54708795D01*
X136146667Y-54708795D02*
X136194286Y-54613557D01*
X136194286Y-54613557D02*
X136241905Y-54565938D01*
X136241905Y-54565938D02*
X136337143Y-54518319D01*
X136337143Y-54518319D02*
X136575238Y-54518319D01*
X136575238Y-54518319D02*
X136718095Y-54565938D01*
X137051429Y-54518319D02*
X137289524Y-55518319D01*
X137289524Y-55518319D02*
X137480000Y-54804033D01*
X137480000Y-54804033D02*
X137670476Y-55518319D01*
X137670476Y-55518319D02*
X137908572Y-54518319D01*
X138194286Y-54518319D02*
X138813333Y-54518319D01*
X138813333Y-54518319D02*
X138480000Y-54899271D01*
X138480000Y-54899271D02*
X138622857Y-54899271D01*
X138622857Y-54899271D02*
X138718095Y-54946890D01*
X138718095Y-54946890D02*
X138765714Y-54994509D01*
X138765714Y-54994509D02*
X138813333Y-55089747D01*
X138813333Y-55089747D02*
X138813333Y-55327842D01*
X138813333Y-55327842D02*
X138765714Y-55423080D01*
X138765714Y-55423080D02*
X138718095Y-55470700D01*
X138718095Y-55470700D02*
X138622857Y-55518319D01*
X138622857Y-55518319D02*
X138337143Y-55518319D01*
X138337143Y-55518319D02*
X138241905Y-55470700D01*
X138241905Y-55470700D02*
X138194286Y-55423080D01*
X117096667Y-52613200D02*
X117239524Y-52660819D01*
X117239524Y-52660819D02*
X117477619Y-52660819D01*
X117477619Y-52660819D02*
X117572857Y-52613200D01*
X117572857Y-52613200D02*
X117620476Y-52565580D01*
X117620476Y-52565580D02*
X117668095Y-52470342D01*
X117668095Y-52470342D02*
X117668095Y-52375104D01*
X117668095Y-52375104D02*
X117620476Y-52279866D01*
X117620476Y-52279866D02*
X117572857Y-52232247D01*
X117572857Y-52232247D02*
X117477619Y-52184628D01*
X117477619Y-52184628D02*
X117287143Y-52137009D01*
X117287143Y-52137009D02*
X117191905Y-52089390D01*
X117191905Y-52089390D02*
X117144286Y-52041771D01*
X117144286Y-52041771D02*
X117096667Y-51946533D01*
X117096667Y-51946533D02*
X117096667Y-51851295D01*
X117096667Y-51851295D02*
X117144286Y-51756057D01*
X117144286Y-51756057D02*
X117191905Y-51708438D01*
X117191905Y-51708438D02*
X117287143Y-51660819D01*
X117287143Y-51660819D02*
X117525238Y-51660819D01*
X117525238Y-51660819D02*
X117668095Y-51708438D01*
X118001429Y-51660819D02*
X118239524Y-52660819D01*
X118239524Y-52660819D02*
X118430000Y-51946533D01*
X118430000Y-51946533D02*
X118620476Y-52660819D01*
X118620476Y-52660819D02*
X118858572Y-51660819D01*
X119191905Y-51756057D02*
X119239524Y-51708438D01*
X119239524Y-51708438D02*
X119334762Y-51660819D01*
X119334762Y-51660819D02*
X119572857Y-51660819D01*
X119572857Y-51660819D02*
X119668095Y-51708438D01*
X119668095Y-51708438D02*
X119715714Y-51756057D01*
X119715714Y-51756057D02*
X119763333Y-51851295D01*
X119763333Y-51851295D02*
X119763333Y-51946533D01*
X119763333Y-51946533D02*
X119715714Y-52089390D01*
X119715714Y-52089390D02*
X119144286Y-52660819D01*
X119144286Y-52660819D02*
X119763333Y-52660819D01*
X98046667Y-46517200D02*
X98189524Y-46564819D01*
X98189524Y-46564819D02*
X98427619Y-46564819D01*
X98427619Y-46564819D02*
X98522857Y-46517200D01*
X98522857Y-46517200D02*
X98570476Y-46469580D01*
X98570476Y-46469580D02*
X98618095Y-46374342D01*
X98618095Y-46374342D02*
X98618095Y-46279104D01*
X98618095Y-46279104D02*
X98570476Y-46183866D01*
X98570476Y-46183866D02*
X98522857Y-46136247D01*
X98522857Y-46136247D02*
X98427619Y-46088628D01*
X98427619Y-46088628D02*
X98237143Y-46041009D01*
X98237143Y-46041009D02*
X98141905Y-45993390D01*
X98141905Y-45993390D02*
X98094286Y-45945771D01*
X98094286Y-45945771D02*
X98046667Y-45850533D01*
X98046667Y-45850533D02*
X98046667Y-45755295D01*
X98046667Y-45755295D02*
X98094286Y-45660057D01*
X98094286Y-45660057D02*
X98141905Y-45612438D01*
X98141905Y-45612438D02*
X98237143Y-45564819D01*
X98237143Y-45564819D02*
X98475238Y-45564819D01*
X98475238Y-45564819D02*
X98618095Y-45612438D01*
X98951429Y-45564819D02*
X99189524Y-46564819D01*
X99189524Y-46564819D02*
X99380000Y-45850533D01*
X99380000Y-45850533D02*
X99570476Y-46564819D01*
X99570476Y-46564819D02*
X99808572Y-45564819D01*
X100713333Y-46564819D02*
X100141905Y-46564819D01*
X100427619Y-46564819D02*
X100427619Y-45564819D01*
X100427619Y-45564819D02*
X100332381Y-45707676D01*
X100332381Y-45707676D02*
X100237143Y-45802914D01*
X100237143Y-45802914D02*
X100141905Y-45850533D01*
X146548857Y-63662169D02*
X146548857Y-62662169D01*
X146548857Y-62662169D02*
X146882190Y-63376454D01*
X146882190Y-63376454D02*
X147215523Y-62662169D01*
X147215523Y-62662169D02*
X147215523Y-63662169D01*
X147644095Y-63614550D02*
X147786952Y-63662169D01*
X147786952Y-63662169D02*
X148025047Y-63662169D01*
X148025047Y-63662169D02*
X148120285Y-63614550D01*
X148120285Y-63614550D02*
X148167904Y-63566930D01*
X148167904Y-63566930D02*
X148215523Y-63471692D01*
X148215523Y-63471692D02*
X148215523Y-63376454D01*
X148215523Y-63376454D02*
X148167904Y-63281216D01*
X148167904Y-63281216D02*
X148120285Y-63233597D01*
X148120285Y-63233597D02*
X148025047Y-63185978D01*
X148025047Y-63185978D02*
X147834571Y-63138359D01*
X147834571Y-63138359D02*
X147739333Y-63090740D01*
X147739333Y-63090740D02*
X147691714Y-63043121D01*
X147691714Y-63043121D02*
X147644095Y-62947883D01*
X147644095Y-62947883D02*
X147644095Y-62852645D01*
X147644095Y-62852645D02*
X147691714Y-62757407D01*
X147691714Y-62757407D02*
X147739333Y-62709788D01*
X147739333Y-62709788D02*
X147834571Y-62662169D01*
X147834571Y-62662169D02*
X148072666Y-62662169D01*
X148072666Y-62662169D02*
X148215523Y-62709788D01*
X148548857Y-62662169D02*
X148786952Y-63662169D01*
X148786952Y-63662169D02*
X148977428Y-62947883D01*
X148977428Y-62947883D02*
X149167904Y-63662169D01*
X149167904Y-63662169D02*
X149406000Y-62662169D01*
X150310761Y-63662169D02*
X149739333Y-63662169D01*
X150025047Y-63662169D02*
X150025047Y-62662169D01*
X150025047Y-62662169D02*
X149929809Y-62805026D01*
X149929809Y-62805026D02*
X149834571Y-62900264D01*
X149834571Y-62900264D02*
X149739333Y-62947883D01*
X169972285Y-86506359D02*
X170115142Y-86553978D01*
X170115142Y-86553978D02*
X170162761Y-86601597D01*
X170162761Y-86601597D02*
X170210380Y-86696835D01*
X170210380Y-86696835D02*
X170210380Y-86839692D01*
X170210380Y-86839692D02*
X170162761Y-86934930D01*
X170162761Y-86934930D02*
X170115142Y-86982550D01*
X170115142Y-86982550D02*
X170019904Y-87030169D01*
X170019904Y-87030169D02*
X169638952Y-87030169D01*
X169638952Y-87030169D02*
X169638952Y-86030169D01*
X169638952Y-86030169D02*
X169972285Y-86030169D01*
X169972285Y-86030169D02*
X170067523Y-86077788D01*
X170067523Y-86077788D02*
X170115142Y-86125407D01*
X170115142Y-86125407D02*
X170162761Y-86220645D01*
X170162761Y-86220645D02*
X170162761Y-86315883D01*
X170162761Y-86315883D02*
X170115142Y-86411121D01*
X170115142Y-86411121D02*
X170067523Y-86458740D01*
X170067523Y-86458740D02*
X169972285Y-86506359D01*
X169972285Y-86506359D02*
X169638952Y-86506359D01*
X170496095Y-86030169D02*
X171067523Y-86030169D01*
X170781809Y-87030169D02*
X170781809Y-86030169D01*
X171924666Y-87030169D02*
X171353238Y-87030169D01*
X171638952Y-87030169D02*
X171638952Y-86030169D01*
X171638952Y-86030169D02*
X171543714Y-86173026D01*
X171543714Y-86173026D02*
X171448476Y-86268264D01*
X171448476Y-86268264D02*
X171353238Y-86315883D01*
D12*
%TO.C,Sk1*%
X84504157Y-97389771D02*
X84553782Y-97431646D01*
X84626769Y-97496607D01*
X84719785Y-97581465D01*
X84829498Y-97683033D01*
X84952577Y-97798123D01*
X85085690Y-97923546D01*
X85225505Y-98056116D01*
X85368690Y-98192643D01*
X85511914Y-98329940D01*
X85651845Y-98464819D01*
X85785151Y-98594092D01*
X85908499Y-98714572D01*
X86018560Y-98823069D01*
X86111999Y-98916396D01*
X86185487Y-98991366D01*
X86235691Y-99044790D01*
X86259279Y-99073480D01*
X86260667Y-99076795D01*
X86251506Y-99100898D01*
X86220760Y-99119425D01*
X86163532Y-99133474D01*
X86074926Y-99144142D01*
X85950046Y-99152525D01*
X85914829Y-99154286D01*
X85816454Y-99159644D01*
X85734661Y-99165371D01*
X85678071Y-99170776D01*
X85655356Y-99175106D01*
X85661694Y-99195760D01*
X85683740Y-99250382D01*
X85719535Y-99334470D01*
X85767120Y-99443522D01*
X85824533Y-99573036D01*
X85889816Y-99718509D01*
X85943275Y-99836504D01*
X86029097Y-100026443D01*
X86097675Y-100181522D01*
X86150141Y-100305019D01*
X86187627Y-100400210D01*
X86211263Y-100470372D01*
X86222182Y-100518783D01*
X86221515Y-100548720D01*
X86210393Y-100563461D01*
X86195351Y-100566517D01*
X86173816Y-100552642D01*
X86127564Y-100514354D01*
X86062316Y-100456661D01*
X85983795Y-100384571D01*
X85935312Y-100338975D01*
X85711565Y-100126354D01*
X85500390Y-99924870D01*
X85303635Y-99736327D01*
X85123147Y-99562526D01*
X84960775Y-99405269D01*
X84818366Y-99266359D01*
X84697770Y-99147596D01*
X84600834Y-99050784D01*
X84529406Y-98977724D01*
X84485334Y-98930217D01*
X84470592Y-98910816D01*
X84464904Y-98879837D01*
X84474420Y-98857968D01*
X84504687Y-98843674D01*
X84561249Y-98835416D01*
X84649654Y-98831657D01*
X84759083Y-98830850D01*
X84861195Y-98829900D01*
X84946024Y-98827300D01*
X85005692Y-98823427D01*
X85032323Y-98818659D01*
X85033000Y-98817736D01*
X85024734Y-98795973D01*
X85001242Y-98740038D01*
X84964483Y-98654446D01*
X84916415Y-98543714D01*
X84858998Y-98412358D01*
X84794190Y-98264893D01*
X84736667Y-98134577D01*
X84666913Y-97975486D01*
X84603003Y-97827094D01*
X84546928Y-97694221D01*
X84500673Y-97581688D01*
X84466228Y-97494318D01*
X84445581Y-97436931D01*
X84440333Y-97415969D01*
X84449554Y-97379385D01*
X84481225Y-97374170D01*
X84504157Y-97389771D01*
G36*
X84504157Y-97389771D02*
G01*
X84553782Y-97431646D01*
X84626769Y-97496607D01*
X84719785Y-97581465D01*
X84829498Y-97683033D01*
X84952577Y-97798123D01*
X85085690Y-97923546D01*
X85225505Y-98056116D01*
X85368690Y-98192643D01*
X85511914Y-98329940D01*
X85651845Y-98464819D01*
X85785151Y-98594092D01*
X85908499Y-98714572D01*
X86018560Y-98823069D01*
X86111999Y-98916396D01*
X86185487Y-98991366D01*
X86235691Y-99044790D01*
X86259279Y-99073480D01*
X86260667Y-99076795D01*
X86251506Y-99100898D01*
X86220760Y-99119425D01*
X86163532Y-99133474D01*
X86074926Y-99144142D01*
X85950046Y-99152525D01*
X85914829Y-99154286D01*
X85816454Y-99159644D01*
X85734661Y-99165371D01*
X85678071Y-99170776D01*
X85655356Y-99175106D01*
X85661694Y-99195760D01*
X85683740Y-99250382D01*
X85719535Y-99334470D01*
X85767120Y-99443522D01*
X85824533Y-99573036D01*
X85889816Y-99718509D01*
X85943275Y-99836504D01*
X86029097Y-100026443D01*
X86097675Y-100181522D01*
X86150141Y-100305019D01*
X86187627Y-100400210D01*
X86211263Y-100470372D01*
X86222182Y-100518783D01*
X86221515Y-100548720D01*
X86210393Y-100563461D01*
X86195351Y-100566517D01*
X86173816Y-100552642D01*
X86127564Y-100514354D01*
X86062316Y-100456661D01*
X85983795Y-100384571D01*
X85935312Y-100338975D01*
X85711565Y-100126354D01*
X85500390Y-99924870D01*
X85303635Y-99736327D01*
X85123147Y-99562526D01*
X84960775Y-99405269D01*
X84818366Y-99266359D01*
X84697770Y-99147596D01*
X84600834Y-99050784D01*
X84529406Y-98977724D01*
X84485334Y-98930217D01*
X84470592Y-98910816D01*
X84464904Y-98879837D01*
X84474420Y-98857968D01*
X84504687Y-98843674D01*
X84561249Y-98835416D01*
X84649654Y-98831657D01*
X84759083Y-98830850D01*
X84861195Y-98829900D01*
X84946024Y-98827300D01*
X85005692Y-98823427D01*
X85032323Y-98818659D01*
X85033000Y-98817736D01*
X85024734Y-98795973D01*
X85001242Y-98740038D01*
X84964483Y-98654446D01*
X84916415Y-98543714D01*
X84858998Y-98412358D01*
X84794190Y-98264893D01*
X84736667Y-98134577D01*
X84666913Y-97975486D01*
X84603003Y-97827094D01*
X84546928Y-97694221D01*
X84500673Y-97581688D01*
X84466228Y-97494318D01*
X84445581Y-97436931D01*
X84440333Y-97415969D01*
X84449554Y-97379385D01*
X84481225Y-97374170D01*
X84504157Y-97389771D01*
G37*
X84731427Y-96382717D02*
X84763694Y-96413273D01*
X84816700Y-96461193D01*
X84847503Y-96478236D01*
X84861316Y-96465783D01*
X84863667Y-96439762D01*
X84881669Y-96396497D01*
X84923286Y-96369584D01*
X84964209Y-96369558D01*
X84986597Y-96395980D01*
X84990667Y-96418283D01*
X84997114Y-96443520D01*
X85024067Y-96450220D01*
X85066450Y-96445224D01*
X85116232Y-96439357D01*
X85135767Y-96449376D01*
X85136395Y-96483272D01*
X85135242Y-96493689D01*
X85110715Y-96553442D01*
X85079407Y-96578669D01*
X85047807Y-96597885D01*
X85052710Y-96610628D01*
X85065263Y-96616201D01*
X85115460Y-96628647D01*
X85137054Y-96614465D01*
X85138834Y-96601047D01*
X85153270Y-96565176D01*
X85186503Y-96530832D01*
X85223421Y-96510855D01*
X85243333Y-96512276D01*
X85264620Y-96546161D01*
X85252048Y-96593369D01*
X85224802Y-96628215D01*
X85198157Y-96658299D01*
X85201925Y-96671532D01*
X85219510Y-96676316D01*
X85256194Y-96665338D01*
X85276948Y-96640764D01*
X85313074Y-96602227D01*
X85359584Y-96588999D01*
X85397043Y-96604093D01*
X85404950Y-96640699D01*
X85392670Y-96672157D01*
X85379198Y-96712490D01*
X85395665Y-96746673D01*
X85409535Y-96761459D01*
X85437050Y-96794642D01*
X85437195Y-96824612D01*
X85418919Y-96860611D01*
X85396221Y-96927095D01*
X85409292Y-96990500D01*
X85460106Y-97055440D01*
X85525065Y-97108574D01*
X85603421Y-97165628D01*
X85709483Y-97243248D01*
X85836945Y-97336795D01*
X85979497Y-97441634D01*
X86130832Y-97553127D01*
X86284643Y-97666637D01*
X86366500Y-97727132D01*
X86455341Y-97792819D01*
X86532757Y-97850049D01*
X86592001Y-97893834D01*
X86626325Y-97919189D01*
X86631213Y-97922793D01*
X86659695Y-97924738D01*
X86719200Y-97917324D01*
X86799827Y-97902035D01*
X86857316Y-97888952D01*
X87188739Y-97824648D01*
X87500007Y-97796785D01*
X87790772Y-97805343D01*
X88060686Y-97850303D01*
X88309403Y-97931644D01*
X88407907Y-97976876D01*
X88580677Y-98074228D01*
X88717688Y-98176082D01*
X88825512Y-98287470D01*
X88843573Y-98310565D01*
X88959563Y-98498559D01*
X89038979Y-98704320D01*
X89081106Y-98923112D01*
X89085228Y-99150200D01*
X89050628Y-99380847D01*
X89021455Y-99487017D01*
X88941316Y-99677479D01*
X88825631Y-99863081D01*
X88681149Y-100037209D01*
X88514621Y-100193251D01*
X88332798Y-100324592D01*
X88142429Y-100424618D01*
X88018950Y-100469227D01*
X87904489Y-100491557D01*
X87767297Y-100501320D01*
X87624029Y-100498681D01*
X87491340Y-100483807D01*
X87403667Y-100463102D01*
X87195957Y-100374332D01*
X87009852Y-100249990D01*
X86846046Y-100091310D01*
X86705231Y-99899529D01*
X86588100Y-99675880D01*
X86495347Y-99421601D01*
X86427665Y-99137925D01*
X86385747Y-98826088D01*
X86373289Y-98626974D01*
X86360402Y-98285514D01*
X85843338Y-97843807D01*
X85713718Y-97733294D01*
X85591153Y-97629203D01*
X85480219Y-97535389D01*
X85385492Y-97455707D01*
X85311546Y-97394012D01*
X85262958Y-97354159D01*
X85249950Y-97343892D01*
X85173444Y-97297846D01*
X85110347Y-97288987D01*
X85055133Y-97316635D01*
X85051774Y-97319599D01*
X85021430Y-97340747D01*
X84989731Y-97339104D01*
X84950447Y-97321660D01*
X84903876Y-97302264D01*
X84876847Y-97305369D01*
X84861956Y-97319495D01*
X84825755Y-97343771D01*
X84786307Y-97347089D01*
X84760529Y-97329784D01*
X84757834Y-97317433D01*
X84771845Y-97279874D01*
X84800167Y-97243350D01*
X84835160Y-97203907D01*
X84838034Y-97189257D01*
X84809350Y-97201198D01*
X84790620Y-97212868D01*
X84734441Y-97235221D01*
X84686645Y-97230359D01*
X84658543Y-97201655D01*
X84656058Y-97172740D01*
X84679264Y-97128928D01*
X84710209Y-97106039D01*
X84751398Y-97079885D01*
X84751100Y-97054605D01*
X84733762Y-97040472D01*
X84705232Y-97044550D01*
X84672971Y-97074277D01*
X84631671Y-97109089D01*
X84601792Y-97109735D01*
X84571020Y-97082075D01*
X84576565Y-97041624D01*
X84617350Y-96995433D01*
X84619532Y-96993696D01*
X84651795Y-96961777D01*
X84659110Y-96940149D01*
X84658473Y-96939378D01*
X84638210Y-96943989D01*
X84615657Y-96968318D01*
X84574677Y-97001023D01*
X84524145Y-97010069D01*
X84477243Y-96998095D01*
X84447156Y-96967739D01*
X84443666Y-96933897D01*
X84467590Y-96894788D01*
X84498665Y-96873206D01*
X84534936Y-96853032D01*
X84546167Y-96840460D01*
X84532262Y-96820317D01*
X84496482Y-96781074D01*
X84463711Y-96748092D01*
X84416863Y-96699997D01*
X84396326Y-96667817D01*
X84397063Y-96639016D01*
X84408836Y-96611505D01*
X84439199Y-96548510D01*
X84445118Y-96535907D01*
X84937544Y-96535907D01*
X84939121Y-96547068D01*
X84965796Y-96565597D01*
X84987615Y-96551047D01*
X84990667Y-96534931D01*
X84976621Y-96513568D01*
X84959038Y-96515982D01*
X84937544Y-96535907D01*
X84445118Y-96535907D01*
X84464491Y-96494662D01*
X84493889Y-96448616D01*
X84524657Y-96423824D01*
X84564834Y-96407775D01*
X84619719Y-96382159D01*
X84625103Y-96379477D01*
X84668296Y-96360080D01*
X84698345Y-96359845D01*
X84731427Y-96382717D01*
G36*
X84731427Y-96382717D02*
G01*
X84763694Y-96413273D01*
X84816700Y-96461193D01*
X84847503Y-96478236D01*
X84861316Y-96465783D01*
X84863667Y-96439762D01*
X84881669Y-96396497D01*
X84923286Y-96369584D01*
X84964209Y-96369558D01*
X84986597Y-96395980D01*
X84990667Y-96418283D01*
X84997114Y-96443520D01*
X85024067Y-96450220D01*
X85066450Y-96445224D01*
X85116232Y-96439357D01*
X85135767Y-96449376D01*
X85136395Y-96483272D01*
X85135242Y-96493689D01*
X85110715Y-96553442D01*
X85079407Y-96578669D01*
X85047807Y-96597885D01*
X85052710Y-96610628D01*
X85065263Y-96616201D01*
X85115460Y-96628647D01*
X85137054Y-96614465D01*
X85138834Y-96601047D01*
X85153270Y-96565176D01*
X85186503Y-96530832D01*
X85223421Y-96510855D01*
X85243333Y-96512276D01*
X85264620Y-96546161D01*
X85252048Y-96593369D01*
X85224802Y-96628215D01*
X85198157Y-96658299D01*
X85201925Y-96671532D01*
X85219510Y-96676316D01*
X85256194Y-96665338D01*
X85276948Y-96640764D01*
X85313074Y-96602227D01*
X85359584Y-96588999D01*
X85397043Y-96604093D01*
X85404950Y-96640699D01*
X85392670Y-96672157D01*
X85379198Y-96712490D01*
X85395665Y-96746673D01*
X85409535Y-96761459D01*
X85437050Y-96794642D01*
X85437195Y-96824612D01*
X85418919Y-96860611D01*
X85396221Y-96927095D01*
X85409292Y-96990500D01*
X85460106Y-97055440D01*
X85525065Y-97108574D01*
X85603421Y-97165628D01*
X85709483Y-97243248D01*
X85836945Y-97336795D01*
X85979497Y-97441634D01*
X86130832Y-97553127D01*
X86284643Y-97666637D01*
X86366500Y-97727132D01*
X86455341Y-97792819D01*
X86532757Y-97850049D01*
X86592001Y-97893834D01*
X86626325Y-97919189D01*
X86631213Y-97922793D01*
X86659695Y-97924738D01*
X86719200Y-97917324D01*
X86799827Y-97902035D01*
X86857316Y-97888952D01*
X87188739Y-97824648D01*
X87500007Y-97796785D01*
X87790772Y-97805343D01*
X88060686Y-97850303D01*
X88309403Y-97931644D01*
X88407907Y-97976876D01*
X88580677Y-98074228D01*
X88717688Y-98176082D01*
X88825512Y-98287470D01*
X88843573Y-98310565D01*
X88959563Y-98498559D01*
X89038979Y-98704320D01*
X89081106Y-98923112D01*
X89085228Y-99150200D01*
X89050628Y-99380847D01*
X89021455Y-99487017D01*
X88941316Y-99677479D01*
X88825631Y-99863081D01*
X88681149Y-100037209D01*
X88514621Y-100193251D01*
X88332798Y-100324592D01*
X88142429Y-100424618D01*
X88018950Y-100469227D01*
X87904489Y-100491557D01*
X87767297Y-100501320D01*
X87624029Y-100498681D01*
X87491340Y-100483807D01*
X87403667Y-100463102D01*
X87195957Y-100374332D01*
X87009852Y-100249990D01*
X86846046Y-100091310D01*
X86705231Y-99899529D01*
X86588100Y-99675880D01*
X86495347Y-99421601D01*
X86427665Y-99137925D01*
X86385747Y-98826088D01*
X86373289Y-98626974D01*
X86360402Y-98285514D01*
X85843338Y-97843807D01*
X85713718Y-97733294D01*
X85591153Y-97629203D01*
X85480219Y-97535389D01*
X85385492Y-97455707D01*
X85311546Y-97394012D01*
X85262958Y-97354159D01*
X85249950Y-97343892D01*
X85173444Y-97297846D01*
X85110347Y-97288987D01*
X85055133Y-97316635D01*
X85051774Y-97319599D01*
X85021430Y-97340747D01*
X84989731Y-97339104D01*
X84950447Y-97321660D01*
X84903876Y-97302264D01*
X84876847Y-97305369D01*
X84861956Y-97319495D01*
X84825755Y-97343771D01*
X84786307Y-97347089D01*
X84760529Y-97329784D01*
X84757834Y-97317433D01*
X84771845Y-97279874D01*
X84800167Y-97243350D01*
X84835160Y-97203907D01*
X84838034Y-97189257D01*
X84809350Y-97201198D01*
X84790620Y-97212868D01*
X84734441Y-97235221D01*
X84686645Y-97230359D01*
X84658543Y-97201655D01*
X84656058Y-97172740D01*
X84679264Y-97128928D01*
X84710209Y-97106039D01*
X84751398Y-97079885D01*
X84751100Y-97054605D01*
X84733762Y-97040472D01*
X84705232Y-97044550D01*
X84672971Y-97074277D01*
X84631671Y-97109089D01*
X84601792Y-97109735D01*
X84571020Y-97082075D01*
X84576565Y-97041624D01*
X84617350Y-96995433D01*
X84619532Y-96993696D01*
X84651795Y-96961777D01*
X84659110Y-96940149D01*
X84658473Y-96939378D01*
X84638210Y-96943989D01*
X84615657Y-96968318D01*
X84574677Y-97001023D01*
X84524145Y-97010069D01*
X84477243Y-96998095D01*
X84447156Y-96967739D01*
X84443666Y-96933897D01*
X84467590Y-96894788D01*
X84498665Y-96873206D01*
X84534936Y-96853032D01*
X84546167Y-96840460D01*
X84532262Y-96820317D01*
X84496482Y-96781074D01*
X84463711Y-96748092D01*
X84416863Y-96699997D01*
X84396326Y-96667817D01*
X84397063Y-96639016D01*
X84408836Y-96611505D01*
X84439199Y-96548510D01*
X84445118Y-96535907D01*
X84937544Y-96535907D01*
X84939121Y-96547068D01*
X84965796Y-96565597D01*
X84987615Y-96551047D01*
X84990667Y-96534931D01*
X84976621Y-96513568D01*
X84959038Y-96515982D01*
X84937544Y-96535907D01*
X84445118Y-96535907D01*
X84464491Y-96494662D01*
X84493889Y-96448616D01*
X84524657Y-96423824D01*
X84564834Y-96407775D01*
X84619719Y-96382159D01*
X84625103Y-96379477D01*
X84668296Y-96360080D01*
X84698345Y-96359845D01*
X84731427Y-96382717D01*
G37*
X86934028Y-96003650D02*
X86965850Y-96019064D01*
X87004329Y-96042937D01*
X87070665Y-96087960D01*
X87161082Y-96151341D01*
X87271800Y-96230286D01*
X87399042Y-96322003D01*
X87539029Y-96423698D01*
X87687983Y-96532579D01*
X87842126Y-96645852D01*
X87997681Y-96760724D01*
X88150868Y-96874402D01*
X88297910Y-96984093D01*
X88435028Y-97087004D01*
X88558445Y-97180341D01*
X88664382Y-97261313D01*
X88749061Y-97327124D01*
X88808705Y-97374984D01*
X88839534Y-97402097D01*
X88843000Y-97406802D01*
X88835964Y-97425465D01*
X88808562Y-97432232D01*
X88751350Y-97428784D01*
X88731875Y-97426593D01*
X88664327Y-97415366D01*
X88560832Y-97393756D01*
X88426171Y-97362917D01*
X88265129Y-97324007D01*
X88082488Y-97278180D01*
X87883031Y-97226593D01*
X87671540Y-97170401D01*
X87669538Y-97169862D01*
X87568099Y-97143464D01*
X87482089Y-97122799D01*
X87419325Y-97109617D01*
X87387625Y-97105667D01*
X87385502Y-97106293D01*
X87384209Y-97129901D01*
X87387827Y-97187381D01*
X87395671Y-97270640D01*
X87407057Y-97371588D01*
X87409903Y-97394833D01*
X87421928Y-97499378D01*
X87430423Y-97588818D01*
X87434722Y-97654769D01*
X87434162Y-97688847D01*
X87433398Y-97691117D01*
X87412966Y-97706457D01*
X87378158Y-97703876D01*
X87324854Y-97681427D01*
X87248935Y-97637164D01*
X87146280Y-97569140D01*
X87084763Y-97526399D01*
X86997277Y-97464385D01*
X86883274Y-97382685D01*
X86750295Y-97286752D01*
X86605883Y-97182041D01*
X86457578Y-97074007D01*
X86315126Y-96969723D01*
X86174131Y-96866354D01*
X86033090Y-96763198D01*
X85898747Y-96665170D01*
X85777850Y-96577188D01*
X85677146Y-96504168D01*
X85603381Y-96451025D01*
X85599923Y-96448549D01*
X85509802Y-96381036D01*
X85442360Y-96324224D01*
X85402470Y-96282464D01*
X85393548Y-96264392D01*
X85393792Y-96248041D01*
X85397705Y-96235544D01*
X85409014Y-96227505D01*
X85431443Y-96224529D01*
X85468719Y-96227220D01*
X85524568Y-96236183D01*
X85602715Y-96252022D01*
X85706887Y-96275342D01*
X85840809Y-96306746D01*
X86008207Y-96346840D01*
X86212807Y-96396229D01*
X86226330Y-96399496D01*
X86391140Y-96439112D01*
X86542332Y-96475048D01*
X86675124Y-96506200D01*
X86784736Y-96531463D01*
X86866387Y-96549733D01*
X86915294Y-96559904D01*
X86927616Y-96561548D01*
X86926282Y-96539537D01*
X86918414Y-96485005D01*
X86905406Y-96407016D01*
X86894072Y-96343767D01*
X86870457Y-96206983D01*
X86857807Y-96107421D01*
X86856979Y-96041194D01*
X86868834Y-96004415D01*
X86894231Y-95993196D01*
X86934028Y-96003650D01*
G36*
X86934028Y-96003650D02*
G01*
X86965850Y-96019064D01*
X87004329Y-96042937D01*
X87070665Y-96087960D01*
X87161082Y-96151341D01*
X87271800Y-96230286D01*
X87399042Y-96322003D01*
X87539029Y-96423698D01*
X87687983Y-96532579D01*
X87842126Y-96645852D01*
X87997681Y-96760724D01*
X88150868Y-96874402D01*
X88297910Y-96984093D01*
X88435028Y-97087004D01*
X88558445Y-97180341D01*
X88664382Y-97261313D01*
X88749061Y-97327124D01*
X88808705Y-97374984D01*
X88839534Y-97402097D01*
X88843000Y-97406802D01*
X88835964Y-97425465D01*
X88808562Y-97432232D01*
X88751350Y-97428784D01*
X88731875Y-97426593D01*
X88664327Y-97415366D01*
X88560832Y-97393756D01*
X88426171Y-97362917D01*
X88265129Y-97324007D01*
X88082488Y-97278180D01*
X87883031Y-97226593D01*
X87671540Y-97170401D01*
X87669538Y-97169862D01*
X87568099Y-97143464D01*
X87482089Y-97122799D01*
X87419325Y-97109617D01*
X87387625Y-97105667D01*
X87385502Y-97106293D01*
X87384209Y-97129901D01*
X87387827Y-97187381D01*
X87395671Y-97270640D01*
X87407057Y-97371588D01*
X87409903Y-97394833D01*
X87421928Y-97499378D01*
X87430423Y-97588818D01*
X87434722Y-97654769D01*
X87434162Y-97688847D01*
X87433398Y-97691117D01*
X87412966Y-97706457D01*
X87378158Y-97703876D01*
X87324854Y-97681427D01*
X87248935Y-97637164D01*
X87146280Y-97569140D01*
X87084763Y-97526399D01*
X86997277Y-97464385D01*
X86883274Y-97382685D01*
X86750295Y-97286752D01*
X86605883Y-97182041D01*
X86457578Y-97074007D01*
X86315126Y-96969723D01*
X86174131Y-96866354D01*
X86033090Y-96763198D01*
X85898747Y-96665170D01*
X85777850Y-96577188D01*
X85677146Y-96504168D01*
X85603381Y-96451025D01*
X85599923Y-96448549D01*
X85509802Y-96381036D01*
X85442360Y-96324224D01*
X85402470Y-96282464D01*
X85393548Y-96264392D01*
X85393792Y-96248041D01*
X85397705Y-96235544D01*
X85409014Y-96227505D01*
X85431443Y-96224529D01*
X85468719Y-96227220D01*
X85524568Y-96236183D01*
X85602715Y-96252022D01*
X85706887Y-96275342D01*
X85840809Y-96306746D01*
X86008207Y-96346840D01*
X86212807Y-96396229D01*
X86226330Y-96399496D01*
X86391140Y-96439112D01*
X86542332Y-96475048D01*
X86675124Y-96506200D01*
X86784736Y-96531463D01*
X86866387Y-96549733D01*
X86915294Y-96559904D01*
X86927616Y-96561548D01*
X86926282Y-96539537D01*
X86918414Y-96485005D01*
X86905406Y-96407016D01*
X86894072Y-96343767D01*
X86870457Y-96206983D01*
X86857807Y-96107421D01*
X86856979Y-96041194D01*
X86868834Y-96004415D01*
X86894231Y-95993196D01*
X86934028Y-96003650D01*
G37*
D11*
%TO.C,U101*%
X177162000Y-43395350D02*
X175908000Y-43395350D01*
X177162000Y-34395350D02*
X177162000Y-43395350D01*
X177162000Y-34395350D02*
X175908000Y-34395350D01*
X176162000Y-47785350D02*
X143142000Y-47785350D01*
X176162000Y-43395350D02*
X176162000Y-47785350D01*
X176162000Y-30005350D02*
X176162000Y-34395350D01*
X176162000Y-30005350D02*
X143142000Y-30005350D01*
X173876000Y-34395350D02*
X173368000Y-34395350D01*
X173368000Y-43395350D02*
X173876000Y-43395350D01*
X170828000Y-43395350D02*
X171336000Y-43395350D01*
X170828000Y-43395350D02*
X170828000Y-34395350D01*
X170828000Y-34395350D02*
X171336000Y-34395350D01*
X143142000Y-47785350D02*
X143142000Y-30005350D01*
D13*
%TO.C,SW21*%
X64316050Y-39801661D02*
X64403205Y-40797856D01*
X64316050Y-39801661D02*
X65312244Y-39714505D01*
X65675679Y-55342298D02*
X65588523Y-54346104D01*
X65675679Y-55342298D02*
X66671874Y-55255143D01*
X64641055Y-40074373D02*
X64728210Y-41070568D01*
X64641055Y-40074373D02*
X65637249Y-39987217D01*
X65954928Y-55092008D02*
X65867772Y-54095813D01*
X65954928Y-55092008D02*
X66951122Y-55004852D01*
X65198980Y-40542528D02*
X79115820Y-39324962D01*
X66416546Y-54459368D02*
X65198980Y-40542528D01*
X67140275Y-38349990D02*
X71981781Y-37926413D01*
X67314587Y-40342379D02*
X67140275Y-38349990D01*
X72478391Y-53929025D02*
X66416546Y-54459368D01*
X79115820Y-39324962D02*
X80333386Y-53241802D01*
X80333386Y-53241802D02*
X74271541Y-53772145D01*
X79583975Y-38767037D02*
X78587780Y-38854192D01*
X79583975Y-38767037D02*
X79671131Y-39763231D01*
X80897848Y-53784672D02*
X79901653Y-53871828D01*
X80897848Y-53784672D02*
X80810692Y-52788477D01*
X79856687Y-38442032D02*
X78860492Y-38529187D01*
X79856687Y-38442032D02*
X79943843Y-39438226D01*
X81216316Y-53982669D02*
X80220122Y-54069825D01*
X81216316Y-53982669D02*
X81129161Y-52986474D01*
%TO.C,SW16*%
X42039714Y-55307049D02*
X42213362Y-56291857D01*
X42039714Y-55307049D02*
X43024521Y-55133401D01*
X44748625Y-70670050D02*
X44574977Y-69685243D01*
X44748625Y-70670050D02*
X45733433Y-70496402D01*
X42387251Y-55550397D02*
X42560899Y-56535205D01*
X42387251Y-55550397D02*
X43372058Y-55376749D01*
X45004997Y-70396374D02*
X44831349Y-69411566D01*
X45004997Y-70396374D02*
X45989805Y-70222726D01*
X42983855Y-55968144D02*
X56741620Y-53542279D01*
X45409720Y-69725909D02*
X42983855Y-55968144D01*
X44726671Y-53614754D02*
X49512836Y-52770824D01*
X45073967Y-55584370D02*
X44726671Y-53614754D01*
X51402276Y-68669260D02*
X45409720Y-69725909D01*
X56741620Y-53542279D02*
X59167485Y-67300044D01*
X59167485Y-67300044D02*
X53174929Y-68356693D01*
X57159367Y-52945675D02*
X56174559Y-53119323D01*
X57159367Y-52945675D02*
X57333015Y-53930482D01*
X59777113Y-67791651D02*
X58792305Y-67965300D01*
X59777113Y-67791651D02*
X59603465Y-66806844D01*
X57402715Y-52598138D02*
X56417907Y-52771786D01*
X57402715Y-52598138D02*
X57576363Y-53582945D01*
X60111626Y-67961139D02*
X59126819Y-68134787D01*
X60111626Y-67961139D02*
X59937978Y-66976331D01*
%TO.C,SW15*%
X23279127Y-58615047D02*
X23452775Y-59599855D01*
X23279127Y-58615047D02*
X24263934Y-58441399D01*
X25988038Y-73978048D02*
X25814390Y-72993241D01*
X25988038Y-73978048D02*
X26972846Y-73804400D01*
X23626664Y-58858395D02*
X23800312Y-59843203D01*
X23626664Y-58858395D02*
X24611471Y-58684747D01*
X26244410Y-73704372D02*
X26070762Y-72719564D01*
X26244410Y-73704372D02*
X27229218Y-73530724D01*
X24223268Y-59276142D02*
X37981033Y-56850277D01*
X26649133Y-73033907D02*
X24223268Y-59276142D01*
X25966084Y-56922752D02*
X30752249Y-56078822D01*
X26313380Y-58892368D02*
X25966084Y-56922752D01*
X32641689Y-71977258D02*
X26649133Y-73033907D01*
X37981033Y-56850277D02*
X40406898Y-70608042D01*
X40406898Y-70608042D02*
X34414342Y-71664691D01*
X38398780Y-56253673D02*
X37413972Y-56427321D01*
X38398780Y-56253673D02*
X38572428Y-57238480D01*
X41016526Y-71099649D02*
X40031718Y-71273298D01*
X41016526Y-71099649D02*
X40842878Y-70114842D01*
X38642128Y-55906136D02*
X37657320Y-56079784D01*
X38642128Y-55906136D02*
X38815776Y-56890943D01*
X41351039Y-71269137D02*
X40366232Y-71442785D01*
X41351039Y-71269137D02*
X41177391Y-70284329D01*
%TO.C,SW23*%
X67636684Y-77756679D02*
X67723839Y-78752874D01*
X67636684Y-77756679D02*
X68632878Y-77669523D01*
X68996313Y-93297316D02*
X68909157Y-92301122D01*
X68996313Y-93297316D02*
X69992508Y-93210161D01*
X67961689Y-78029391D02*
X68048844Y-79025586D01*
X67961689Y-78029391D02*
X68957883Y-77942235D01*
X69275562Y-93047026D02*
X69188406Y-92050831D01*
X69275562Y-93047026D02*
X70271756Y-92959870D01*
X68519614Y-78497546D02*
X82436454Y-77279980D01*
X69737180Y-92414386D02*
X68519614Y-78497546D01*
X70460909Y-76305008D02*
X75302415Y-75881431D01*
X70635221Y-78297397D02*
X70460909Y-76305008D01*
X75799025Y-91884043D02*
X69737180Y-92414386D01*
X82436454Y-77279980D02*
X83654020Y-91196820D01*
X83654020Y-91196820D02*
X77592175Y-91727163D01*
X82904609Y-76722055D02*
X81908414Y-76809210D01*
X82904609Y-76722055D02*
X82991765Y-77718249D01*
X84218482Y-91739690D02*
X83222287Y-91826846D01*
X84218482Y-91739690D02*
X84131326Y-90743495D01*
X83177321Y-76397050D02*
X82181126Y-76484205D01*
X83177321Y-76397050D02*
X83264477Y-77393244D01*
X84536950Y-91937687D02*
X83540756Y-92024843D01*
X84536950Y-91937687D02*
X84449795Y-90941492D01*
%TO.C,SW22*%
X65976367Y-58779170D02*
X66063522Y-59775365D01*
X65976367Y-58779170D02*
X66972561Y-58692014D01*
X67335996Y-74319807D02*
X67248840Y-73323613D01*
X67335996Y-74319807D02*
X68332191Y-74232652D01*
X66301372Y-59051882D02*
X66388527Y-60048077D01*
X66301372Y-59051882D02*
X67297566Y-58964726D01*
X67615245Y-74069517D02*
X67528089Y-73073322D01*
X67615245Y-74069517D02*
X68611439Y-73982361D01*
X66859297Y-59520037D02*
X80776137Y-58302471D01*
X68076863Y-73436877D02*
X66859297Y-59520037D01*
X68800592Y-57327499D02*
X73642098Y-56903922D01*
X68974904Y-59319888D02*
X68800592Y-57327499D01*
X74138708Y-72906534D02*
X68076863Y-73436877D01*
X80776137Y-58302471D02*
X81993703Y-72219311D01*
X81993703Y-72219311D02*
X75931858Y-72749654D01*
X81244292Y-57744546D02*
X80248097Y-57831701D01*
X81244292Y-57744546D02*
X81331448Y-58740740D01*
X82558165Y-72762181D02*
X81561970Y-72849337D01*
X82558165Y-72762181D02*
X82471009Y-71765986D01*
X81517004Y-57419541D02*
X80520809Y-57506696D01*
X81517004Y-57419541D02*
X81604160Y-58415735D01*
X82876633Y-72960178D02*
X81880439Y-73047334D01*
X82876633Y-72960178D02*
X82789478Y-71963983D01*
%TO.C,SW20*%
X48655710Y-92828224D02*
X48829358Y-93813032D01*
X48655710Y-92828224D02*
X49640517Y-92654576D01*
X51364621Y-108191225D02*
X51190973Y-107206418D01*
X51364621Y-108191225D02*
X52349429Y-108017577D01*
X49003247Y-93071572D02*
X49176895Y-94056380D01*
X49003247Y-93071572D02*
X49988054Y-92897924D01*
X51620993Y-107917549D02*
X51447345Y-106932741D01*
X51620993Y-107917549D02*
X52605801Y-107743901D01*
X49599851Y-93489319D02*
X63357616Y-91063454D01*
X52025716Y-107247084D02*
X49599851Y-93489319D01*
X51342667Y-91135929D02*
X56128832Y-90291999D01*
X51689963Y-93105545D02*
X51342667Y-91135929D01*
X58018272Y-106190435D02*
X52025716Y-107247084D01*
X63357616Y-91063454D02*
X65783481Y-104821219D01*
X65783481Y-104821219D02*
X59790925Y-105877868D01*
X63775363Y-90466850D02*
X62790555Y-90640498D01*
X63775363Y-90466850D02*
X63949011Y-91451657D01*
X66393109Y-105312826D02*
X65408301Y-105486475D01*
X66393109Y-105312826D02*
X66219461Y-104328019D01*
X64018711Y-90119313D02*
X63033903Y-90292961D01*
X64018711Y-90119313D02*
X64192359Y-91104120D01*
X66727622Y-105482314D02*
X65742815Y-105655962D01*
X66727622Y-105482314D02*
X66553974Y-104497506D01*
%TO.C,SW19*%
X29895122Y-96136222D02*
X30068770Y-97121030D01*
X29895122Y-96136222D02*
X30879929Y-95962574D01*
X32604033Y-111499223D02*
X32430385Y-110514416D01*
X32604033Y-111499223D02*
X33588841Y-111325575D01*
X30242659Y-96379570D02*
X30416307Y-97364378D01*
X30242659Y-96379570D02*
X31227466Y-96205922D01*
X32860405Y-111225547D02*
X32686757Y-110240739D01*
X32860405Y-111225547D02*
X33845213Y-111051899D01*
X30839263Y-96797317D02*
X44597028Y-94371452D01*
X33265128Y-110555082D02*
X30839263Y-96797317D01*
X32582079Y-94443927D02*
X37368244Y-93599997D01*
X32929375Y-96413543D02*
X32582079Y-94443927D01*
X39257684Y-109498433D02*
X33265128Y-110555082D01*
X44597028Y-94371452D02*
X47022893Y-108129217D01*
X47022893Y-108129217D02*
X41030337Y-109185866D01*
X45014775Y-93774848D02*
X44029967Y-93948496D01*
X45014775Y-93774848D02*
X45188423Y-94759655D01*
X47632521Y-108620824D02*
X46647713Y-108794473D01*
X47632521Y-108620824D02*
X47458873Y-107636017D01*
X45258123Y-93427311D02*
X44273315Y-93600959D01*
X45258123Y-93427311D02*
X45431771Y-94412118D01*
X47967034Y-108790312D02*
X46982227Y-108963960D01*
X47967034Y-108790312D02*
X47793386Y-107805504D01*
%TO.C,SW18*%
X45347712Y-74067637D02*
X45521360Y-75052445D01*
X45347712Y-74067637D02*
X46332519Y-73893989D01*
X48056623Y-89430638D02*
X47882975Y-88445831D01*
X48056623Y-89430638D02*
X49041431Y-89256990D01*
X45695249Y-74310985D02*
X45868897Y-75295793D01*
X45695249Y-74310985D02*
X46680056Y-74137337D01*
X48312995Y-89156962D02*
X48139347Y-88172154D01*
X48312995Y-89156962D02*
X49297803Y-88983314D01*
X46291853Y-74728732D02*
X60049618Y-72302867D01*
X48717718Y-88486497D02*
X46291853Y-74728732D01*
X48034669Y-72375342D02*
X52820834Y-71531412D01*
X48381965Y-74344958D02*
X48034669Y-72375342D01*
X54710274Y-87429848D02*
X48717718Y-88486497D01*
X60049618Y-72302867D02*
X62475483Y-86060632D01*
X62475483Y-86060632D02*
X56482927Y-87117281D01*
X60467365Y-71706263D02*
X59482557Y-71879911D01*
X60467365Y-71706263D02*
X60641013Y-72691070D01*
X63085111Y-86552239D02*
X62100303Y-86725888D01*
X63085111Y-86552239D02*
X62911463Y-85567432D01*
X60710713Y-71358726D02*
X59725905Y-71532374D01*
X60710713Y-71358726D02*
X60884361Y-72343533D01*
X63419624Y-86721727D02*
X62434817Y-86895375D01*
X63419624Y-86721727D02*
X63245976Y-85736919D01*
%TO.C,SW17*%
X26587124Y-77375635D02*
X26760772Y-78360443D01*
X26587124Y-77375635D02*
X27571931Y-77201987D01*
X29296035Y-92738636D02*
X29122387Y-91753829D01*
X29296035Y-92738636D02*
X30280843Y-92564988D01*
X26934661Y-77618983D02*
X27108309Y-78603791D01*
X26934661Y-77618983D02*
X27919468Y-77445335D01*
X29552407Y-92464960D02*
X29378759Y-91480152D01*
X29552407Y-92464960D02*
X30537215Y-92291312D01*
X27531265Y-78036730D02*
X41289030Y-75610865D01*
X29957130Y-91794495D02*
X27531265Y-78036730D01*
X29274081Y-75683340D02*
X34060246Y-74839410D01*
X29621377Y-77652956D02*
X29274081Y-75683340D01*
X35949686Y-90737846D02*
X29957130Y-91794495D01*
X41289030Y-75610865D02*
X43714895Y-89368630D01*
X43714895Y-89368630D02*
X37722339Y-90425279D01*
X41706777Y-75014261D02*
X40721969Y-75187909D01*
X41706777Y-75014261D02*
X41880425Y-75999068D01*
X44324523Y-89860237D02*
X43339715Y-90033886D01*
X44324523Y-89860237D02*
X44150875Y-88875430D01*
X41950125Y-74666724D02*
X40965317Y-74840372D01*
X41950125Y-74666724D02*
X42123773Y-75651531D01*
X44659036Y-90029725D02*
X43674229Y-90203373D01*
X44659036Y-90029725D02*
X44485388Y-89044917D01*
%TO.C,SW14*%
X160904244Y-114195890D02*
X160197137Y-114902997D01*
X160904244Y-114195890D02*
X161611351Y-114902997D01*
X149873378Y-125226756D02*
X150580485Y-124519649D01*
X149873378Y-125226756D02*
X150580485Y-125933863D01*
X160904244Y-114620154D02*
X160197137Y-115327261D01*
X160904244Y-114620154D02*
X161611351Y-115327261D01*
X150244609Y-125279789D02*
X150951716Y-124572682D01*
X150244609Y-125279789D02*
X150951716Y-125986896D01*
X160904244Y-115348474D02*
X170782526Y-125226756D01*
X151025962Y-125226756D02*
X160904244Y-115348474D01*
X163831666Y-115426256D02*
X167268205Y-118862795D01*
X162417453Y-116840470D02*
X163831666Y-115426256D01*
X155328707Y-129529501D02*
X151025962Y-125226756D01*
X170782526Y-125226756D02*
X160904244Y-135105038D01*
X160904244Y-135105038D02*
X156601499Y-130802293D01*
X171510846Y-125226756D02*
X170803739Y-124519649D01*
X171510846Y-125226756D02*
X170803739Y-125933863D01*
X160851211Y-135886391D02*
X160144104Y-135179284D01*
X160851211Y-135886391D02*
X161558318Y-135179284D01*
X171935110Y-125226756D02*
X171228003Y-124519649D01*
X171935110Y-125226756D02*
X171228003Y-125933863D01*
X160904244Y-136257622D02*
X160197137Y-135550515D01*
X160904244Y-136257622D02*
X161611351Y-135550515D01*
%TO.C,SW13*%
X141163002Y-101614487D02*
X140663002Y-102480512D01*
X141163002Y-101614487D02*
X142029027Y-102114487D01*
X133363002Y-115124483D02*
X133863002Y-114258458D01*
X133363002Y-115124483D02*
X134229027Y-115624483D01*
X141272809Y-102024294D02*
X140772809Y-102890320D01*
X141272809Y-102024294D02*
X142138835Y-102524294D01*
X133735309Y-115079627D02*
X134235309Y-114213602D01*
X133735309Y-115079627D02*
X134601335Y-115579627D01*
X141461313Y-102727798D02*
X153559687Y-109712798D01*
X134476313Y-114826172D02*
X141461313Y-102727798D01*
X144309117Y-102045256D02*
X148518000Y-104475256D01*
X143309117Y-103777307D02*
X144309117Y-102045256D01*
X139746077Y-117868672D02*
X134476313Y-114826172D01*
X153559687Y-109712798D02*
X146574687Y-121811172D01*
X146574687Y-121811172D02*
X141304923Y-118768672D01*
X154263191Y-109524294D02*
X153397165Y-109024294D01*
X154263191Y-109524294D02*
X153763191Y-110390320D01*
X146725691Y-122579627D02*
X145859665Y-122079627D01*
X146725691Y-122579627D02*
X147225691Y-121713602D01*
X154672998Y-109414487D02*
X153806973Y-108914487D01*
X154672998Y-109414487D02*
X154172998Y-110280512D01*
X146872998Y-122924483D02*
X146006973Y-122424483D01*
X146872998Y-122924483D02*
X147372998Y-122058458D01*
%TO.C,SW12*%
X150688002Y-85116703D02*
X150188002Y-85982728D01*
X150688002Y-85116703D02*
X151554027Y-85616703D01*
X142888002Y-98626699D02*
X143388002Y-97760674D01*
X142888002Y-98626699D02*
X143754027Y-99126699D01*
X150797809Y-85526510D02*
X150297809Y-86392536D01*
X150797809Y-85526510D02*
X151663835Y-86026510D01*
X143260309Y-98581843D02*
X143760309Y-97715818D01*
X143260309Y-98581843D02*
X144126335Y-99081843D01*
X150986313Y-86230014D02*
X163084687Y-93215014D01*
X144001313Y-98328388D02*
X150986313Y-86230014D01*
X153834117Y-85547472D02*
X158043000Y-87977472D01*
X152834117Y-87279523D02*
X153834117Y-85547472D01*
X149271077Y-101370888D02*
X144001313Y-98328388D01*
X163084687Y-93215014D02*
X156099687Y-105313388D01*
X156099687Y-105313388D02*
X150829923Y-102270888D01*
X163788191Y-93026510D02*
X162922165Y-92526510D01*
X163788191Y-93026510D02*
X163288191Y-93892536D01*
X156250691Y-106081843D02*
X155384665Y-105581843D01*
X156250691Y-106081843D02*
X156750691Y-105215818D01*
X164197998Y-92916703D02*
X163331973Y-92416703D01*
X164197998Y-92916703D02*
X163697998Y-93782728D01*
X156397998Y-106426699D02*
X155531973Y-105926699D01*
X156397998Y-106426699D02*
X156897998Y-105560674D01*
%TO.C,SW11*%
X118838119Y-94571194D02*
X118579300Y-95537120D01*
X118838119Y-94571194D02*
X119804045Y-94830013D01*
X114800542Y-109639637D02*
X115059361Y-108673711D01*
X114800542Y-109639637D02*
X115766468Y-109898456D01*
X119050251Y-94938617D02*
X118791432Y-95904543D01*
X119050251Y-94938617D02*
X120016177Y-95197437D01*
X115148554Y-109499949D02*
X115407373Y-108534023D01*
X115148554Y-109499949D02*
X116114480Y-109758768D01*
X119414411Y-95569361D02*
X132908395Y-99185063D01*
X115798709Y-109063345D02*
X119414411Y-95569361D01*
X121988524Y-94173011D02*
X126682923Y-95430872D01*
X121470886Y-96104863D02*
X121988524Y-94173011D01*
X121676368Y-110638259D02*
X115798709Y-109063345D01*
X132908395Y-99185063D02*
X129292693Y-112679047D01*
X129292693Y-112679047D02*
X123415034Y-111104133D01*
X133539139Y-98820903D02*
X132573213Y-98562084D01*
X133539139Y-98820903D02*
X133280319Y-99786829D01*
X129637441Y-113382235D02*
X128671516Y-113123416D01*
X129637441Y-113382235D02*
X129896260Y-112416309D01*
X133906562Y-98608771D02*
X132940636Y-98349952D01*
X133906562Y-98608771D02*
X133647743Y-99574697D01*
X129868985Y-113677214D02*
X128903059Y-113418395D01*
X129868985Y-113677214D02*
X130127804Y-112711288D01*
%TO.C,SW10*%
X95451000Y-93546000D02*
X95451000Y-94546000D01*
X95451000Y-93546000D02*
X96451000Y-93546000D01*
X95451000Y-109146000D02*
X95451000Y-108146000D01*
X95451000Y-109146000D02*
X96451000Y-109146000D01*
X95751000Y-93846000D02*
X95751000Y-94846000D01*
X95751000Y-93846000D02*
X96751000Y-93846000D01*
X95751000Y-108921000D02*
X95751000Y-107921000D01*
X95751000Y-108921000D02*
X96751000Y-108921000D01*
X96266000Y-94361000D02*
X110236000Y-94361000D01*
X96266000Y-108331000D02*
X96266000Y-94361000D01*
X98391000Y-92346000D02*
X103251000Y-92346000D01*
X98391000Y-94346000D02*
X98391000Y-92346000D01*
X102351000Y-108331000D02*
X96266000Y-108331000D01*
X110236000Y-94361000D02*
X110236000Y-108331000D01*
X110236000Y-108331000D02*
X104151000Y-108331000D01*
X110751000Y-93846000D02*
X109751000Y-93846000D01*
X110751000Y-93846000D02*
X110751000Y-94846000D01*
X110751000Y-108921000D02*
X109751000Y-108921000D01*
X110751000Y-108921000D02*
X110751000Y-107921000D01*
X111051000Y-93546000D02*
X110051000Y-93546000D01*
X111051000Y-93546000D02*
X111051000Y-94546000D01*
X111051000Y-109146000D02*
X110051000Y-109146000D01*
X111051000Y-109146000D02*
X111051000Y-108146000D01*
%TO.C,SW9*%
X125550000Y-77353500D02*
X125550000Y-78353500D01*
X125550000Y-77353500D02*
X126550000Y-77353500D01*
X125550000Y-92953500D02*
X125550000Y-91953500D01*
X125550000Y-92953500D02*
X126550000Y-92953500D01*
X125850000Y-77653500D02*
X125850000Y-78653500D01*
X125850000Y-77653500D02*
X126850000Y-77653500D01*
X125850000Y-92728500D02*
X125850000Y-91728500D01*
X125850000Y-92728500D02*
X126850000Y-92728500D01*
X126365000Y-78168500D02*
X140335000Y-78168500D01*
X126365000Y-92138500D02*
X126365000Y-78168500D01*
X128490000Y-76153500D02*
X133350000Y-76153500D01*
X128490000Y-78153500D02*
X128490000Y-76153500D01*
X132450000Y-92138500D02*
X126365000Y-92138500D01*
X140335000Y-78168500D02*
X140335000Y-92138500D01*
X140335000Y-92138500D02*
X134250000Y-92138500D01*
X140850000Y-77653500D02*
X139850000Y-77653500D01*
X140850000Y-77653500D02*
X140850000Y-78653500D01*
X140850000Y-92728500D02*
X139850000Y-92728500D01*
X140850000Y-92728500D02*
X140850000Y-91728500D01*
X141150000Y-77353500D02*
X140150000Y-77353500D01*
X141150000Y-77353500D02*
X141150000Y-78353500D01*
X141150000Y-92953500D02*
X140150000Y-92953500D01*
X141150000Y-92953500D02*
X141150000Y-91953500D01*
%TO.C,SW8*%
X106500000Y-74496000D02*
X106500000Y-75496000D01*
X106500000Y-74496000D02*
X107500000Y-74496000D01*
X106500000Y-90096000D02*
X106500000Y-89096000D01*
X106500000Y-90096000D02*
X107500000Y-90096000D01*
X106800000Y-74796000D02*
X106800000Y-75796000D01*
X106800000Y-74796000D02*
X107800000Y-74796000D01*
X106800000Y-89871000D02*
X106800000Y-88871000D01*
X106800000Y-89871000D02*
X107800000Y-89871000D01*
X107315000Y-75311000D02*
X121285000Y-75311000D01*
X107315000Y-89281000D02*
X107315000Y-75311000D01*
X109440000Y-73296000D02*
X114300000Y-73296000D01*
X109440000Y-75296000D02*
X109440000Y-73296000D01*
X113400000Y-89281000D02*
X107315000Y-89281000D01*
X121285000Y-75311000D02*
X121285000Y-89281000D01*
X121285000Y-89281000D02*
X115200000Y-89281000D01*
X121800000Y-74796000D02*
X120800000Y-74796000D01*
X121800000Y-74796000D02*
X121800000Y-75796000D01*
X121800000Y-89871000D02*
X120800000Y-89871000D01*
X121800000Y-89871000D02*
X121800000Y-88871000D01*
X122100000Y-74496000D02*
X121100000Y-74496000D01*
X122100000Y-74496000D02*
X122100000Y-75496000D01*
X122100000Y-90096000D02*
X121100000Y-90096000D01*
X122100000Y-90096000D02*
X122100000Y-89096000D01*
%TO.C,SW7*%
X87450000Y-68400000D02*
X87450000Y-69400000D01*
X87450000Y-68400000D02*
X88450000Y-68400000D01*
X87450000Y-84000000D02*
X87450000Y-83000000D01*
X87450000Y-84000000D02*
X88450000Y-84000000D01*
X87750000Y-68700000D02*
X87750000Y-69700000D01*
X87750000Y-68700000D02*
X88750000Y-68700000D01*
X87750000Y-83775000D02*
X87750000Y-82775000D01*
X87750000Y-83775000D02*
X88750000Y-83775000D01*
X88265000Y-69215000D02*
X102235000Y-69215000D01*
X88265000Y-83185000D02*
X88265000Y-69215000D01*
X90390000Y-67200000D02*
X95250000Y-67200000D01*
X90390000Y-69200000D02*
X90390000Y-67200000D01*
X94350000Y-83185000D02*
X88265000Y-83185000D01*
X102235000Y-69215000D02*
X102235000Y-83185000D01*
X102235000Y-83185000D02*
X96150000Y-83185000D01*
X102750000Y-68700000D02*
X101750000Y-68700000D01*
X102750000Y-68700000D02*
X102750000Y-69700000D01*
X102750000Y-83775000D02*
X101750000Y-83775000D01*
X102750000Y-83775000D02*
X102750000Y-82775000D01*
X103050000Y-68400000D02*
X102050000Y-68400000D01*
X103050000Y-68400000D02*
X103050000Y-69400000D01*
X103050000Y-84000000D02*
X102050000Y-84000000D01*
X103050000Y-84000000D02*
X103050000Y-83000000D01*
%TO.C,SW6*%
X125550000Y-58303500D02*
X125550000Y-59303500D01*
X125550000Y-58303500D02*
X126550000Y-58303500D01*
X125550000Y-73903500D02*
X125550000Y-72903500D01*
X125550000Y-73903500D02*
X126550000Y-73903500D01*
X125850000Y-58603500D02*
X125850000Y-59603500D01*
X125850000Y-58603500D02*
X126850000Y-58603500D01*
X125850000Y-73678500D02*
X125850000Y-72678500D01*
X125850000Y-73678500D02*
X126850000Y-73678500D01*
X126365000Y-59118500D02*
X140335000Y-59118500D01*
X126365000Y-73088500D02*
X126365000Y-59118500D01*
X128490000Y-57103500D02*
X133350000Y-57103500D01*
X128490000Y-59103500D02*
X128490000Y-57103500D01*
X132450000Y-73088500D02*
X126365000Y-73088500D01*
X140335000Y-59118500D02*
X140335000Y-73088500D01*
X140335000Y-73088500D02*
X134250000Y-73088500D01*
X140850000Y-58603500D02*
X139850000Y-58603500D01*
X140850000Y-58603500D02*
X140850000Y-59603500D01*
X140850000Y-73678500D02*
X139850000Y-73678500D01*
X140850000Y-73678500D02*
X140850000Y-72678500D01*
X141150000Y-58303500D02*
X140150000Y-58303500D01*
X141150000Y-58303500D02*
X141150000Y-59303500D01*
X141150000Y-73903500D02*
X140150000Y-73903500D01*
X141150000Y-73903500D02*
X141150000Y-72903500D01*
%TO.C,SW5*%
X106500000Y-55446000D02*
X106500000Y-56446000D01*
X106500000Y-55446000D02*
X107500000Y-55446000D01*
X106500000Y-71046000D02*
X106500000Y-70046000D01*
X106500000Y-71046000D02*
X107500000Y-71046000D01*
X106800000Y-55746000D02*
X106800000Y-56746000D01*
X106800000Y-55746000D02*
X107800000Y-55746000D01*
X106800000Y-70821000D02*
X106800000Y-69821000D01*
X106800000Y-70821000D02*
X107800000Y-70821000D01*
X107315000Y-56261000D02*
X121285000Y-56261000D01*
X107315000Y-70231000D02*
X107315000Y-56261000D01*
X109440000Y-54246000D02*
X114300000Y-54246000D01*
X109440000Y-56246000D02*
X109440000Y-54246000D01*
X113400000Y-70231000D02*
X107315000Y-70231000D01*
X121285000Y-56261000D02*
X121285000Y-70231000D01*
X121285000Y-70231000D02*
X115200000Y-70231000D01*
X121800000Y-55746000D02*
X120800000Y-55746000D01*
X121800000Y-55746000D02*
X121800000Y-56746000D01*
X121800000Y-70821000D02*
X120800000Y-70821000D01*
X121800000Y-70821000D02*
X121800000Y-69821000D01*
X122100000Y-55446000D02*
X121100000Y-55446000D01*
X122100000Y-55446000D02*
X122100000Y-56446000D01*
X122100000Y-71046000D02*
X121100000Y-71046000D01*
X122100000Y-71046000D02*
X122100000Y-70046000D01*
%TO.C,SW4*%
X87450000Y-49350000D02*
X87450000Y-50350000D01*
X87450000Y-49350000D02*
X88450000Y-49350000D01*
X87450000Y-64950000D02*
X87450000Y-63950000D01*
X87450000Y-64950000D02*
X88450000Y-64950000D01*
X87750000Y-49650000D02*
X87750000Y-50650000D01*
X87750000Y-49650000D02*
X88750000Y-49650000D01*
X87750000Y-64725000D02*
X87750000Y-63725000D01*
X87750000Y-64725000D02*
X88750000Y-64725000D01*
X88265000Y-50165000D02*
X102235000Y-50165000D01*
X88265000Y-64135000D02*
X88265000Y-50165000D01*
X90390000Y-48150000D02*
X95250000Y-48150000D01*
X90390000Y-50150000D02*
X90390000Y-48150000D01*
X94350000Y-64135000D02*
X88265000Y-64135000D01*
X102235000Y-50165000D02*
X102235000Y-64135000D01*
X102235000Y-64135000D02*
X96150000Y-64135000D01*
X102750000Y-49650000D02*
X101750000Y-49650000D01*
X102750000Y-49650000D02*
X102750000Y-50650000D01*
X102750000Y-64725000D02*
X101750000Y-64725000D01*
X102750000Y-64725000D02*
X102750000Y-63725000D01*
X103050000Y-49350000D02*
X102050000Y-49350000D01*
X103050000Y-49350000D02*
X103050000Y-50350000D01*
X103050000Y-64950000D02*
X102050000Y-64950000D01*
X103050000Y-64950000D02*
X103050000Y-63950000D01*
%TO.C,SW3*%
X125550000Y-39253500D02*
X125550000Y-40253500D01*
X125550000Y-39253500D02*
X126550000Y-39253500D01*
X125550000Y-54853500D02*
X125550000Y-53853500D01*
X125550000Y-54853500D02*
X126550000Y-54853500D01*
X125850000Y-39553500D02*
X125850000Y-40553500D01*
X125850000Y-39553500D02*
X126850000Y-39553500D01*
X125850000Y-54628500D02*
X125850000Y-53628500D01*
X125850000Y-54628500D02*
X126850000Y-54628500D01*
X126365000Y-40068500D02*
X140335000Y-40068500D01*
X126365000Y-54038500D02*
X126365000Y-40068500D01*
X128490000Y-38053500D02*
X133350000Y-38053500D01*
X128490000Y-40053500D02*
X128490000Y-38053500D01*
X132450000Y-54038500D02*
X126365000Y-54038500D01*
X140335000Y-40068500D02*
X140335000Y-54038500D01*
X140335000Y-54038500D02*
X134250000Y-54038500D01*
X140850000Y-39553500D02*
X139850000Y-39553500D01*
X140850000Y-39553500D02*
X140850000Y-40553500D01*
X140850000Y-54628500D02*
X139850000Y-54628500D01*
X140850000Y-54628500D02*
X140850000Y-53628500D01*
X141150000Y-39253500D02*
X140150000Y-39253500D01*
X141150000Y-39253500D02*
X141150000Y-40253500D01*
X141150000Y-54853500D02*
X140150000Y-54853500D01*
X141150000Y-54853500D02*
X141150000Y-53853500D01*
%TO.C,SW2*%
X106500000Y-36396000D02*
X106500000Y-37396000D01*
X106500000Y-36396000D02*
X107500000Y-36396000D01*
X106500000Y-51996000D02*
X106500000Y-50996000D01*
X106500000Y-51996000D02*
X107500000Y-51996000D01*
X106800000Y-36696000D02*
X106800000Y-37696000D01*
X106800000Y-36696000D02*
X107800000Y-36696000D01*
X106800000Y-51771000D02*
X106800000Y-50771000D01*
X106800000Y-51771000D02*
X107800000Y-51771000D01*
X107315000Y-37211000D02*
X121285000Y-37211000D01*
X107315000Y-51181000D02*
X107315000Y-37211000D01*
X109440000Y-35196000D02*
X114300000Y-35196000D01*
X109440000Y-37196000D02*
X109440000Y-35196000D01*
X113400000Y-51181000D02*
X107315000Y-51181000D01*
X121285000Y-37211000D02*
X121285000Y-51181000D01*
X121285000Y-51181000D02*
X115200000Y-51181000D01*
X121800000Y-36696000D02*
X120800000Y-36696000D01*
X121800000Y-36696000D02*
X121800000Y-37696000D01*
X121800000Y-51771000D02*
X120800000Y-51771000D01*
X121800000Y-51771000D02*
X121800000Y-50771000D01*
X122100000Y-36396000D02*
X121100000Y-36396000D01*
X122100000Y-36396000D02*
X122100000Y-37396000D01*
X122100000Y-51996000D02*
X121100000Y-51996000D01*
X122100000Y-51996000D02*
X122100000Y-50996000D01*
%TO.C,SW1*%
X87450000Y-30300000D02*
X87450000Y-31300000D01*
X87450000Y-30300000D02*
X88450000Y-30300000D01*
X87450000Y-45900000D02*
X87450000Y-44900000D01*
X87450000Y-45900000D02*
X88450000Y-45900000D01*
X87750000Y-30600000D02*
X87750000Y-31600000D01*
X87750000Y-30600000D02*
X88750000Y-30600000D01*
X87750000Y-45675000D02*
X87750000Y-44675000D01*
X87750000Y-45675000D02*
X88750000Y-45675000D01*
X88265000Y-31115000D02*
X102235000Y-31115000D01*
X88265000Y-45085000D02*
X88265000Y-31115000D01*
X90390000Y-29100000D02*
X95250000Y-29100000D01*
X90390000Y-31100000D02*
X90390000Y-29100000D01*
X94350000Y-45085000D02*
X88265000Y-45085000D01*
X102235000Y-31115000D02*
X102235000Y-45085000D01*
X102235000Y-45085000D02*
X96150000Y-45085000D01*
X102750000Y-30600000D02*
X101750000Y-30600000D01*
X102750000Y-30600000D02*
X102750000Y-31600000D01*
X102750000Y-45675000D02*
X101750000Y-45675000D01*
X102750000Y-45675000D02*
X102750000Y-44675000D01*
X103050000Y-30300000D02*
X102050000Y-30300000D01*
X103050000Y-30300000D02*
X103050000Y-31300000D01*
X103050000Y-45900000D02*
X102050000Y-45900000D01*
X103050000Y-45900000D02*
X103050000Y-44900000D01*
%TO.C,J2*%
X176835000Y-55587350D02*
G75*
G02*
X174333000Y-55587350I-1251000J0D01*
G01*
X174333000Y-55587350D02*
G75*
G02*
X176835000Y-55587350I1251000J0D01*
G01*
%TO.C,J1*%
X171247000Y-49745350D02*
G75*
G02*
X168745000Y-49745350I-1251000J0D01*
G01*
X168745000Y-49745350D02*
G75*
G02*
X171247000Y-49745350I1251000J0D01*
G01*
%TD*%
M02*
