M48
; DRILL file {KiCad 8.0.6} date 2025-05-26T15:16:59+0900
; FORMAT={-:-/ absolute / inch / decimal}
; #@! TF.CreationDate,2025-05-26T15:16:59+09:00
; #@! TF.GenerationSoftware,Kicad,Pcbnew,8.0.6
; #@! TF.FileFunction,NonPlated,1,2,NPTH
FMAT,2
INCH
; #@! TA.AperFunction,NonPlated,NPTH,ComponentDrill
T1C0.0670
; #@! TA.AperFunction,NonPlated,NPTH,ComponentDrill
T2C0.0866
; #@! TA.AperFunction,NonPlated,NPTH,ComponentDrill
T3C0.1732
%
G90
G05
T2
X1.5628Y-2.0285
X1.9428Y-4.1885
X6.765Y-4.695
X6.8898Y-1.9785
T3
X1.2722Y-2.5568
X1.4025Y-3.2954
X1.5327Y-4.034
X2.0109Y-2.4265
X2.1411Y-3.1651
X2.2713Y-3.9038
X2.8648Y-1.8461
X2.9302Y-2.5933
X2.9955Y-3.3404
X3.75Y-1.5
X3.75Y-2.25
X3.75Y-3.0
X4.065Y-3.99
X4.5Y-1.74
X4.5Y-2.49
X4.5Y-3.24
X4.8958Y-4.0994
X5.25Y-1.8525
X5.25Y-2.6025
X5.25Y-3.3525
X5.67Y-4.4201
X6.045Y-3.7705
X6.3348Y-4.9302
T1
G00X1.0753Y-2.5915
M15
G01X1.059Y-2.5944
M16
G05
G00X1.2055Y-3.3301
M15
G01X1.1892Y-3.333
M16
G05
G00X1.3358Y-4.0687
M15
G01X1.3195Y-4.0716
M16
G05
G00X1.4855Y-2.5192
M15
G01X1.4692Y-2.522
M16
G05
G00X1.6157Y-3.2578
M15
G01X1.5994Y-3.2607
M16
G05
G00X1.746Y-3.9964
M15
G01X1.7297Y-3.9993
M16
G05
G00X1.8139Y-2.4613
M15
G01X1.7976Y-2.4641
M16
G05
G00X1.9441Y-3.1999
M15
G01X1.9278Y-3.2027
M16
G05
G00X2.0744Y-3.9385
M15
G01X2.0581Y-3.9414
M16
G05
G00X2.2241Y-2.3889
M15
G01X2.2078Y-2.3918
M16
G05
G00X2.3543Y-3.1275
M15
G01X2.3381Y-3.1304
M16
G05
G00X2.4846Y-3.8661
M15
G01X2.4683Y-3.869
M16
G05
G00X2.6656Y-1.8636
M15
G01X2.6491Y-1.865
M16
G05
G00X2.7309Y-2.6107
M15
G01X2.7145Y-2.6122
M16
G05
G00X2.7963Y-3.3579
M15
G01X2.7798Y-3.3593
M16
G05
G00X3.0805Y-1.8273
M15
G01X3.064Y-1.8287
M16
G05
G00X3.1459Y-2.5744
M15
G01X3.1294Y-2.5759
M16
G05
G00X3.2113Y-3.3216
M15
G01X3.1948Y-3.323
M16
G05
G00X3.55Y-1.5
M15
G01X3.5335Y-1.5
M16
G05
G00X3.55Y-2.25
M15
G01X3.5335Y-2.25
M16
G05
G00X3.55Y-3.0
M15
G01X3.5335Y-3.0
M16
G05
G00X3.865Y-3.99
M15
G01X3.8485Y-3.99
M16
G05
G00X3.9665Y-1.5
M15
G01X3.95Y-1.5
M16
G05
G00X3.9665Y-2.25
M15
G01X3.95Y-2.25
M16
G05
G00X3.9665Y-3.0
M15
G01X3.95Y-3.0
M16
G05
G00X4.2815Y-3.99
M15
G01X4.265Y-3.99
M16
G05
G00X4.3Y-1.74
M15
G01X4.2835Y-1.74
M16
G05
G00X4.3Y-2.49
M15
G01X4.2835Y-2.49
M16
G05
G00X4.3Y-3.24
M15
G01X4.2835Y-3.24
M16
G05
G00X4.7026Y-4.0476
M15
G01X4.6867Y-4.0433
M16
G05
G00X4.7165Y-1.74
M15
G01X4.7Y-1.74
M16
G05
G00X4.7165Y-2.49
M15
G01X4.7Y-2.49
M16
G05
G00X4.7165Y-3.24
M15
G01X4.7Y-3.24
M16
G05
G00X5.05Y-1.8525
M15
G01X5.0335Y-1.8525
M16
G05
G00X5.05Y-2.6025
M15
G01X5.0335Y-2.6025
M16
G05
G00X5.05Y-3.3525
M15
G01X5.0335Y-3.3525
M16
G05
G00X5.105Y-4.1554
M15
G01X5.089Y-4.1511
M16
G05
G00X5.4665Y-1.8525
M15
G01X5.45Y-1.8525
M16
G05
G00X5.4665Y-2.6025
M15
G01X5.45Y-2.6025
M16
G05
G00X5.4665Y-3.3525
M15
G01X5.45Y-3.3525
M16
G05
G00X5.4968Y-4.3201
M15
G01X5.4825Y-4.3118
M16
G05
G00X5.8575Y-4.5283
M15
G01X5.8432Y-4.5201
M16
G05
G00X5.8718Y-3.6705
M15
G01X5.8575Y-3.6623
M16
G05
G00X6.1934Y-4.7888
M15
G01X6.1817Y-4.7771
M16
G05
G00X6.2325Y-3.8788
M15
G01X6.2182Y-3.8705
M16
G05
G00X6.4879Y-5.0833
M15
G01X6.4762Y-5.0716
M16
G05
M30
