  0
SECTION
  2
HEADER
  9
$ANGBASE
  50
0.0
  9
$ANGDIR
  70
1
  9
$MEASUREMENT
  70
0
  0
ENDSEC
  0
SECTION
  2
TABLES
  0
TABLE
  2
LTYPE
  70
4
  0
LTYPE
  5
40F
  2
CONTINUOUS
  70
0
  3
Solid line
  72
65
  73
0
  40
0.0
  0
LTYPE
  5
410
  2
DASHDOT
 70
0
  3
Dash Dot ____ _ ____ _
 72
65
 73
4
 40
2.0
 49
1.25
 49
-0.25
 49
0.25
 49
-0.25
  0
LTYPE
  5
411
  2
DASHED
 70
0
  3
Dashed __ __ __ __ __
 72
65
 73
2
 40
0.75
 49
0.5
 49
-0.25
  0
LTYPE
  5
43B
  2
DOTTED
 70
0
  3
Dotted .  .  .  .
 72
65
 73
2
 40
0.2
 49
0.0
 49
-0.2
  0
ENDTAB
  0
TABLE
  2
STYLE
  70
4
  0
STYLE
  2
KICAD
  70
0
  40
0
  41
1
  42
1
  50
0
  71
0
  3
isocp.shx
  0
STYLE
  2
KICADB
  70
0
  40
0
  41
1
  42
1
  50
0
  71
0
  3
isocp.shx
  0
STYLE
  2
KICADI
  70
0
  40
0
  41
1
  42
1
  50
15
  71
0
  3
isocp.shx
  0
STYLE
  2
KICADBI
  70
0
  40
0
  41
1
  42
1
  50
15
  71
0
  3
isocp.shx
  0
ENDTAB
  0
TABLE
  2
LAYER
  70
1
  0
LAYER
  2
BLACK
  70
0
  62
7
  6
CONTINUOUS
  0
ENDTAB
  0
ENDSEC
  0
SECTION
  2
ENTITIES
0
LINE
8
BLACK
6
CONTINUOUS
10
1.0455756299212597
20
-3.1984038582677163
11
1.0148112204724409
21
-3.0239300787401575
0
LINE
8
BLACK
6
CONTINUOUS
10
1.083223937007874
20
-3.0718331889763779
11
1.1037335826771653
21
-3.1881490551181102
0
LINE
8
BLACK
6
CONTINUOUS
10
1.083223937007874
20
-3.0718331889763779
11
1.1607678740157481
21
-3.0581601181102362
0
LINE
8
BLACK
6
CONTINUOUS
10
1.1002679921259841
20
-3.5085796062992127
11
1.1310324409448818
21
-3.6830533464566928
0
LINE
8
BLACK
6
CONTINUOUS
10
1.1037335826771653
20
-3.1881490551181102
11
1.0455756299212597
21
-3.1984038582677163
0
LINE
8
BLACK
6
CONTINUOUS
10
1.1505130708661417
20
-3.0000021653543305
11
1.0148112204724409
21
-3.0239300787401575
0
LINE
8
BLACK
6
CONTINUOUS
10
1.1584259055118109
20
-3.4983247244094486
11
1.1002679921259841
21
-3.5085796062992127
0
LINE
8
BLACK
6
CONTINUOUS
10
1.1607678740157481
20
-3.0581601181102362
11
1.1505130708661417
21
-3.0000021653543305
0
LINE
8
BLACK
6
CONTINUOUS
10
1.1789355511811024
20
-3.6146406299212597
11
1.1584259055118109
21
-3.4983247244094486
0
LINE
8
BLACK
6
CONTINUOUS
10
1.1789355511811024
20
-3.6146406299212597
11
1.2952514173228347
21
-3.5941309842519686
0
LINE
8
BLACK
6
CONTINUOUS
10
1.2952514173228347
20
-3.5941309842519686
11
1.305506220472441
21
-3.6522889370078739
0
LINE
8
BLACK
6
CONTINUOUS
10
1.305506220472441
20
-3.6522889370078739
11
1.1310324409448818
21
-3.6830533464566928
0
LINE
8
BLACK
6
CONTINUOUS
10
1.5382326377952755
20
-2.9316367322834647
11
1.6739344881889764
21
-2.9077088582677164
0
LINE
8
BLACK
6
CONTINUOUS
10
1.5484874803149606
20
-2.98979468503937
11
1.5382326377952755
21
-2.9316367322834647
0
LINE
8
BLACK
6
CONTINUOUS
10
1.6054270866141731
20
-3.5394386614173228
11
1.615681968503937
21
-3.5975965748031493
0
LINE
8
BLACK
6
CONTINUOUS
10
1.615681968503937
20
-3.5975965748031493
11
1.7901557086614173
21
-3.5668321259842517
0
LINE
8
BLACK
6
CONTINUOUS
10
1.6260313779527558
20
-2.9761215748031495
11
1.5484874803149606
21
-2.98979468503937
0
LINE
8
BLACK
6
CONTINUOUS
10
1.6260313779527558
20
-2.9761215748031495
11
1.6465410236220472
21
-3.0924374803149606
0
LINE
8
BLACK
6
CONTINUOUS
10
1.6465410236220472
20
-3.0924374803149606
11
1.704698937007874
21
-3.0821825984251969
0
LINE
8
BLACK
6
CONTINUOUS
10
1.7012333464566929
20
-3.402613149606299
11
1.7593912992125984
21
-3.3923583464566929
0
LINE
8
BLACK
6
CONTINUOUS
10
1.704698937007874
20
-3.0821825984251969
11
1.6739344881889764
21
-2.9077088582677164
0
LINE
8
BLACK
6
CONTINUOUS
10
1.7217429921259841
20
-3.5189290157480313
11
1.6054270866141731
21
-3.5394386614173228
0
LINE
8
BLACK
6
CONTINUOUS
10
1.7217429921259841
20
-3.5189290157480313
11
1.7012333464566929
21
-3.402613149606299
0
LINE
8
BLACK
6
CONTINUOUS
10
1.7593912992125984
20
-3.3923583464566929
11
1.7901557086614173
21
-3.5668321259842517
0
LINE
8
BLACK
6
CONTINUOUS
10
5.2935362992125983
20
-4.5209316141732279
11
5.3525914173228344
21
-4.4186451574803147
0
LINE
8
BLACK
6
CONTINUOUS
10
5.2935362992125983
20
-4.5209316141732279
11
5.3958227559055114
21
-4.5799867322834649
0
LINE
8
BLACK
6
CONTINUOUS
10
5.3014481889763783
20
-4.3891175984251971
11
5.2128655118110236
21
-4.5425472834645673
0
LINE
8
BLACK
6
CONTINUOUS
10
5.3525914173228344
20
-4.4186451574803147
11
5.3014481889763783
21
-4.3891175984251971
0
LINE
8
BLACK
6
CONTINUOUS
10
5.3662951968503938
20
-4.631129960629921
11
5.2128655118110236
21
-4.5425472834645673
0
LINE
8
BLACK
6
CONTINUOUS
10
5.3958227559055114
20
-4.5799867322834649
11
5.3662951968503938
21
-4.631129960629921
0
LINE
8
BLACK
6
CONTINUOUS
10
5.4589285039370079
20
-4.1163536614173228
11
5.5475111811023625
21
-3.9629239763779527
0
LINE
8
BLACK
6
CONTINUOUS
10
5.510071732283464
20
-4.1458812204724405
11
5.4589285039370079
21
-4.1163536614173228
0
LINE
8
BLACK
6
CONTINUOUS
10
5.569126850393701
20
-4.0435947637795273
11
5.510071732283464
21
-4.1458812204724405
0
LINE
8
BLACK
6
CONTINUOUS
10
5.569126850393701
20
-4.0435947637795273
11
5.6373178346456694
21
-4.0829648425196847
0
LINE
8
BLACK
6
CONTINUOUS
10
5.6373178346456694
20
-4.0829648425196847
11
5.666845393700787
21
-4.0318216141732286
0
LINE
8
BLACK
6
CONTINUOUS
10
5.6390591338582672
20
-4.7886102755905506
11
5.7924888188976373
21
-4.8771929527559053
0
LINE
8
BLACK
6
CONTINUOUS
10
5.666845393700787
20
-4.0318216141732286
11
5.5475111811023625
21
-3.9629239763779527
0
LINE
8
BLACK
6
CONTINUOUS
10
5.6685866929133857
20
-4.7374670472440945
11
5.6390591338582672
21
-4.7886102755905506
0
LINE
8
BLACK
6
CONTINUOUS
10
5.7708731496062988
20
-4.7965221653543306
11
5.6685866929133857
21
-4.7374670472440945
0
LINE
8
BLACK
6
CONTINUOUS
10
5.7708731496062988
20
-4.7965221653543306
11
5.8299282677165349
21
-4.6942357086614175
0
LINE
8
BLACK
6
CONTINUOUS
10
5.8299282677165349
20
-4.6942357086614175
11
5.881071496062992
21
-4.7237632677165351
0
LINE
8
BLACK
6
CONTINUOUS
10
5.881071496062992
20
-4.7237632677165351
11
5.7924888188976373
21
-4.8771929527559053
0
LINE
8
BLACK
6
CONTINUOUS
10
5.9782727165354332
20
-4.2798152362204727
11
6.0078002755905509
21
-4.2286720078740156
0
LINE
8
BLACK
6
CONTINUOUS
10
5.9874085826771655
20
-4.4214717716535432
11
6.0385518110236216
21
-4.4509993307086617
0
LINE
8
BLACK
6
CONTINUOUS
10
6.0078002755905509
20
-4.2286720078740156
11
6.1271344881889762
21
-4.2975696456692916
0
LINE
8
BLACK
6
CONTINUOUS
10
6.0385518110236216
20
-4.4509993307086617
11
6.1271344881889762
21
-4.2975696456692916
0
LINE
8
BLACK
6
CONTINUOUS
10
6.0464637007874016
20
-4.3191853149606301
11
5.9782727165354332
21
-4.2798152362204727
0
LINE
8
BLACK
6
CONTINUOUS
10
6.0464637007874016
20
-4.3191853149606301
11
5.9874085826771655
21
-4.4214717716535432
0
LINE
8
BLACK
6
CONTINUOUS
10
3.4153543307086611
20
-1.3425196850393701
11
3.4153543307086611
21
-1.1653543307086613
0
LINE
8
BLACK
6
CONTINUOUS
10
3.4153543307086611
20
-1.6574803149606299
11
3.4153543307086611
21
-1.8346456692913384
0
LINE
8
BLACK
6
CONTINUOUS
10
3.4744094488188977
20
-1.2244094488188977
11
3.4744094488188977
21
-1.3425196850393701
0
LINE
8
BLACK
6
CONTINUOUS
10
3.4744094488188977
20
-1.2244094488188977
11
3.5531496062992125
21
-1.2244094488188977
0
LINE
8
BLACK
6
CONTINUOUS
10
3.4744094488188977
20
-1.3425196850393701
11
3.4153543307086611
21
-1.3425196850393701
0
LINE
8
BLACK
6
CONTINUOUS
10
3.4744094488188977
20
-1.6574803149606299
11
3.4153543307086611
21
-1.6574803149606299
0
LINE
8
BLACK
6
CONTINUOUS
10
3.4744094488188977
20
-1.7755905511811023
11
3.4744094488188977
21
-1.6574803149606299
0
LINE
8
BLACK
6
CONTINUOUS
10
3.4744094488188977
20
-1.7755905511811023
11
3.5925196850393699
21
-1.7755905511811023
0
LINE
8
BLACK
6
CONTINUOUS
10
3.5531496062992125
20
-1.1653543307086613
11
3.4153543307086611
21
-1.1653543307086613
0
LINE
8
BLACK
6
CONTINUOUS
10
3.5531496062992125
20
-1.2244094488188977
11
3.5531496062992125
21
-1.1653543307086613
0
LINE
8
BLACK
6
CONTINUOUS
10
3.5925196850393699
20
-1.7755905511811023
11
3.5925196850393699
21
-1.8346456692913384
0
LINE
8
BLACK
6
CONTINUOUS
10
3.5925196850393699
20
-1.8346456692913384
11
3.4153543307086611
21
-1.8346456692913384
0
LINE
8
BLACK
6
CONTINUOUS
10
3.9074803149606296
20
-1.7755905511811023
11
3.9074803149606296
21
-1.8346456692913384
0
LINE
8
BLACK
6
CONTINUOUS
10
3.9074803149606296
20
-1.8346456692913384
11
4.0846456692913389
21
-1.8346456692913384
0
LINE
8
BLACK
6
CONTINUOUS
10
3.9468503937007875
20
-1.1653543307086613
11
4.0846456692913389
21
-1.1653543307086613
0
LINE
8
BLACK
6
CONTINUOUS
10
3.9468503937007875
20
-1.2244094488188977
11
3.9468503937007875
21
-1.1653543307086613
0
LINE
8
BLACK
6
CONTINUOUS
10
4.0255905511811019
20
-1.2244094488188977
11
3.9468503937007875
21
-1.2244094488188977
0
LINE
8
BLACK
6
CONTINUOUS
10
4.0255905511811019
20
-1.2244094488188977
11
4.0255905511811019
21
-1.3425196850393701
0
LINE
8
BLACK
6
CONTINUOUS
10
4.0255905511811019
20
-1.3425196850393701
11
4.0846456692913389
21
-1.3425196850393701
0
LINE
8
BLACK
6
CONTINUOUS
10
4.0255905511811019
20
-1.6574803149606299
11
4.0846456692913389
21
-1.6574803149606299
0
LINE
8
BLACK
6
CONTINUOUS
10
4.0255905511811019
20
-1.7755905511811023
11
3.9074803149606296
21
-1.7755905511811023
0
LINE
8
BLACK
6
CONTINUOUS
10
4.0255905511811019
20
-1.7755905511811023
11
4.0255905511811019
21
-1.6574803149606299
0
LINE
8
BLACK
6
CONTINUOUS
10
4.0846456692913389
20
-1.3425196850393701
11
4.0846456692913389
21
-1.1653543307086613
0
LINE
8
BLACK
6
CONTINUOUS
10
4.0846456692913389
20
-1.6574803149606299
11
4.0846456692913389
21
-1.8346456692913384
0
LINE
8
BLACK
6
CONTINUOUS
10
2.5830796062992127
20
-2.4655794881889763
11
2.567638622047244
21
-2.2890883070866139
0
LINE
8
BLACK
6
CONTINUOUS
10
2.6105302362204723
20
-2.7793416141732283
11
2.625971220472441
21
-2.9558327952755903
0
LINE
8
BLACK
6
CONTINUOUS
10
2.6316160236220472
20
-2.3427716929133857
11
2.6419099999999998
21
-2.4604324803149606
0
LINE
8
BLACK
6
CONTINUOUS
10
2.6316160236220472
20
-2.3427716929133857
11
2.710056535433071
21
-2.3359090551181101
0
LINE
8
BLACK
6
CONTINUOUS
10
2.6419099999999998
20
-2.4604324803149606
11
2.5830796062992127
21
-2.4655794881889763
0
LINE
8
BLACK
6
CONTINUOUS
10
2.6693606299212598
20
-2.7741946062992127
11
2.6105302362204723
21
-2.7793416141732283
0
LINE
8
BLACK
6
CONTINUOUS
10
2.6796546062992124
20
-2.8918553937007871
11
2.6693606299212598
21
-2.7741946062992127
0
LINE
8
BLACK
6
CONTINUOUS
10
2.6796546062992124
20
-2.8918553937007871
11
2.7973153937007873
21
-2.8815614173228346
0
LINE
8
BLACK
6
CONTINUOUS
10
2.7049095669291336
20
-2.2770786614173226
11
2.567638622047244
21
-2.2890883070866139
0
LINE
8
BLACK
6
CONTINUOUS
10
2.710056535433071
20
-2.3359090551181101
11
2.7049095669291336
21
-2.2770786614173226
0
LINE
8
BLACK
6
CONTINUOUS
10
2.7973153937007873
20
-2.8815614173228346
11
2.802462401574803
21
-2.940391811023622
0
LINE
8
BLACK
6
CONTINUOUS
10
2.802462401574803
20
-2.940391811023622
11
2.625971220472441
21
-2.9558327952755903
0
LINE
8
BLACK
6
CONTINUOUS
10
3.0971122047244095
20
-2.2427653543307087
11
3.2343831102362204
21
-2.2307557086614174
0
LINE
8
BLACK
6
CONTINUOUS
10
3.1022591732283464
20
-2.3015957480314961
11
3.0971122047244095
21
-2.2427653543307087
0
LINE
8
BLACK
6
CONTINUOUS
10
3.1110775196850393
20
-2.8541107874015745
11
3.116224527559055
21
-2.912941181102362
0
LINE
8
BLACK
6
CONTINUOUS
10
3.116224527559055
20
-2.912941181102362
11
3.2927157086614174
21
-2.8975001968503937
0
LINE
8
BLACK
6
CONTINUOUS
10
3.1806997244094486
20
-2.2947331102362205
11
3.1022591732283464
21
-2.3015957480314961
0
LINE
8
BLACK
6
CONTINUOUS
10
3.1806997244094486
20
-2.2947331102362205
11
3.1909937007874016
21
-2.4123938976377954
0
LINE
8
BLACK
6
CONTINUOUS
10
3.1909937007874016
20
-2.4123938976377954
11
3.2498240944881891
21
-2.4072468897637793
0
LINE
8
BLACK
6
CONTINUOUS
10
3.2184443307086612
20
-2.726156023622047
11
3.2772747244094487
21
-2.7210090157480313
0
LINE
8
BLACK
6
CONTINUOUS
10
3.2287383070866142
20
-2.8438168110236219
11
3.1110775196850393
21
-2.8541107874015745
0
LINE
8
BLACK
6
CONTINUOUS
10
3.2287383070866142
20
-2.8438168110236219
11
3.2184443307086612
21
-2.726156023622047
0
LINE
8
BLACK
6
CONTINUOUS
10
3.2498240944881891
20
-2.4072468897637793
11
3.2343831102362204
21
-2.2307557086614174
0
LINE
8
BLACK
6
CONTINUOUS
10
3.2772747244094487
20
-2.7210090157480313
11
3.2927157086614174
21
-2.8975001968503937
0
LINE
8
BLACK
6
CONTINUOUS
10
0.9153395275590551
20
-2.4597980314960628
11
0.8845751181102361
21
-2.285324251968504
0
LINE
8
BLACK
6
CONTINUOUS
10
0.9529878346456693
20
-2.3332273622047244
11
0.9734974803149606
21
-2.4495432283464567
0
LINE
8
BLACK
6
CONTINUOUS
10
0.9529878346456693
20
-2.3332273622047244
11
1.0305317716535434
21
-2.3195542913385827
0
LINE
8
BLACK
6
CONTINUOUS
10
0.9700318897637795
20
-2.7699737795275592
11
1.0007963385826772
21
-2.9444475196850393
0
LINE
8
BLACK
6
CONTINUOUS
10
0.9734974803149606
20
-2.4495432283464567
11
0.9153395275590551
21
-2.4597980314960628
0
LINE
8
BLACK
6
CONTINUOUS
10
1.020276968503937
20
-2.261396338582677
11
0.8845751181102361
21
-2.285324251968504
0
LINE
8
BLACK
6
CONTINUOUS
10
1.0281898031496062
20
-2.7597188976377951
11
0.9700318897637795
21
-2.7699737795275592
0
LINE
8
BLACK
6
CONTINUOUS
10
1.0305317716535434
20
-2.3195542913385827
11
1.020276968503937
21
-2.261396338582677
0
LINE
8
BLACK
6
CONTINUOUS
10
1.0486994488188977
20
-2.8760348031496061
11
1.0281898031496062
21
-2.7597188976377951
0
LINE
8
BLACK
6
CONTINUOUS
10
1.0486994488188977
20
-2.8760348031496061
11
1.1650153149606299
21
-2.8555251574803151
0
LINE
8
BLACK
6
CONTINUOUS
10
1.1650153149606299
20
-2.8555251574803151
11
1.1752701181102363
21
-2.9136831102362204
0
LINE
8
BLACK
6
CONTINUOUS
10
1.1752701181102363
20
-2.9136831102362204
11
1.0007963385826772
21
-2.9444475196850393
0
LINE
8
BLACK
6
CONTINUOUS
10
1.4079965354330708
20
-2.1930309055118111
11
1.5436983858267717
21
-2.1691030314960629
0
LINE
8
BLACK
6
CONTINUOUS
10
1.4182513779527559
20
-2.2511888582677164
11
1.4079965354330708
21
-2.1930309055118111
0
LINE
8
BLACK
6
CONTINUOUS
10
1.4751909842519684
20
-2.8008328346456692
11
1.4854458661417322
21
-2.8589907480314958
0
LINE
8
BLACK
6
CONTINUOUS
10
1.4854458661417322
20
-2.8589907480314958
11
1.6599196062992125
21
-2.8282262992125982
0
LINE
8
BLACK
6
CONTINUOUS
10
1.4957952755905513
20
-2.237515748031496
11
1.4182513779527559
21
-2.2511888582677164
0
LINE
8
BLACK
6
CONTINUOUS
10
1.4957952755905513
20
-2.237515748031496
11
1.5163049212598425
21
-2.353831653543307
0
LINE
8
BLACK
6
CONTINUOUS
10
1.5163049212598425
20
-2.353831653543307
11
1.5744628346456693
21
-2.3435767716535434
0
LINE
8
BLACK
6
CONTINUOUS
10
1.5709972440944882
20
-2.6640073228346455
11
1.6291551968503937
21
-2.6537525196850393
0
LINE
8
BLACK
6
CONTINUOUS
10
1.5744628346456693
20
-2.3435767716535434
11
1.5436983858267717
21
-2.1691030314960629
0
LINE
8
BLACK
6
CONTINUOUS
10
1.5915068897637794
20
-2.7803231889763778
11
1.4751909842519684
21
-2.8008328346456692
0
LINE
8
BLACK
6
CONTINUOUS
10
1.5915068897637794
20
-2.7803231889763778
11
1.5709972440944882
21
-2.6640073228346455
0
LINE
8
BLACK
6
CONTINUOUS
10
1.6291551968503937
20
-2.6537525196850393
11
1.6599196062992125
21
-2.8282262992125982
0
LINE
8
BLACK
6
CONTINUOUS
10
4.9153543307086611
20
-3.1950196850393699
11
4.9153543307086611
21
-3.0178543307086612
0
LINE
8
BLACK
6
CONTINUOUS
10
4.9153543307086611
20
-3.5099803149606297
11
4.9153543307086611
21
-3.6871456692913385
0
LINE
8
BLACK
6
CONTINUOUS
10
4.9744094488188972
20
-3.0769094488188977
11
4.9744094488188972
21
-3.1950196850393699
0
LINE
8
BLACK
6
CONTINUOUS
10
4.9744094488188972
20
-3.0769094488188977
11
5.0531496062992121
21
-3.0769094488188977
0
LINE
8
BLACK
6
CONTINUOUS
10
4.9744094488188972
20
-3.1950196850393699
11
4.9153543307086611
21
-3.1950196850393699
0
LINE
8
BLACK
6
CONTINUOUS
10
4.9744094488188972
20
-3.5099803149606297
11
4.9153543307086611
21
-3.5099803149606297
0
LINE
8
BLACK
6
CONTINUOUS
10
4.9744094488188972
20
-3.6280905511811024
11
4.9744094488188972
21
-3.5099803149606297
0
LINE
8
BLACK
6
CONTINUOUS
10
4.9744094488188972
20
-3.6280905511811024
11
5.0925196850393704
21
-3.6280905511811024
0
LINE
8
BLACK
6
CONTINUOUS
10
5.0531496062992121
20
-3.0178543307086612
11
4.9153543307086611
21
-3.0178543307086612
0
LINE
8
BLACK
6
CONTINUOUS
10
5.0531496062992121
20
-3.0769094488188977
11
5.0531496062992121
21
-3.0178543307086612
0
LINE
8
BLACK
6
CONTINUOUS
10
5.0925196850393704
20
-3.6280905511811024
11
5.0925196850393704
21
-3.6871456692913385
0
LINE
8
BLACK
6
CONTINUOUS
10
5.0925196850393704
20
-3.6871456692913385
11
4.9153543307086611
21
-3.6871456692913385
0
LINE
8
BLACK
6
CONTINUOUS
10
5.4074803149606296
20
-3.6280905511811024
11
5.4074803149606296
21
-3.6871456692913385
0
LINE
8
BLACK
6
CONTINUOUS
10
5.4074803149606296
20
-3.6871456692913385
11
5.5846456692913389
21
-3.6871456692913385
0
LINE
8
BLACK
6
CONTINUOUS
10
5.4468503937007871
20
-3.0178543307086612
11
5.5846456692913389
21
-3.0178543307086612
0
LINE
8
BLACK
6
CONTINUOUS
10
5.4468503937007871
20
-3.0769094488188977
11
5.4468503937007871
21
-3.0178543307086612
0
LINE
8
BLACK
6
CONTINUOUS
10
5.5255905511811019
20
-3.0769094488188977
11
5.4468503937007871
21
-3.0769094488188977
0
LINE
8
BLACK
6
CONTINUOUS
10
5.5255905511811019
20
-3.0769094488188977
11
5.5255905511811019
21
-3.1950196850393699
0
LINE
8
BLACK
6
CONTINUOUS
10
5.5255905511811019
20
-3.1950196850393699
11
5.5846456692913389
21
-3.1950196850393699
0
LINE
8
BLACK
6
CONTINUOUS
10
5.5255905511811019
20
-3.5099803149606297
11
5.5846456692913389
21
-3.5099803149606297
0
LINE
8
BLACK
6
CONTINUOUS
10
5.5255905511811019
20
-3.6280905511811024
11
5.4074803149606296
21
-3.6280905511811024
0
LINE
8
BLACK
6
CONTINUOUS
10
5.5255905511811019
20
-3.6280905511811024
11
5.5255905511811019
21
-3.5099803149606297
0
LINE
8
BLACK
6
CONTINUOUS
10
5.5846456692913389
20
-3.1950196850393699
11
5.5846456692913389
21
-3.0178543307086612
0
LINE
8
BLACK
6
CONTINUOUS
10
5.5846456692913389
20
-3.5099803149606297
11
5.5846456692913389
21
-3.6871456692913385
0
LINE
8
BLACK
6
CONTINUOUS
10
4.1653543307086611
20
-1.5825196850393701
11
4.1653543307086611
21
-1.4053543307086613
0
LINE
8
BLACK
6
CONTINUOUS
10
4.1653543307086611
20
-1.8974803149606299
11
4.1653543307086611
21
-2.0746456692913386
0
LINE
8
BLACK
6
CONTINUOUS
10
4.2244094488188972
20
-1.4644094488188977
11
4.2244094488188972
21
-1.5825196850393701
0
LINE
8
BLACK
6
CONTINUOUS
10
4.2244094488188972
20
-1.4644094488188977
11
4.3031496062992121
21
-1.4644094488188977
0
LINE
8
BLACK
6
CONTINUOUS
10
4.2244094488188972
20
-1.5825196850393701
11
4.1653543307086611
21
-1.5825196850393701
0
LINE
8
BLACK
6
CONTINUOUS
10
4.2244094488188972
20
-1.8974803149606299
11
4.1653543307086611
21
-1.8974803149606299
0
LINE
8
BLACK
6
CONTINUOUS
10
4.2244094488188972
20
-2.0155905511811025
11
4.2244094488188972
21
-1.8974803149606299
0
LINE
8
BLACK
6
CONTINUOUS
10
4.2244094488188972
20
-2.0155905511811025
11
4.3425196850393704
21
-2.0155905511811025
0
LINE
8
BLACK
6
CONTINUOUS
10
4.3031496062992121
20
-1.4053543307086613
11
4.1653543307086611
21
-1.4053543307086613
0
LINE
8
BLACK
6
CONTINUOUS
10
4.3031496062992121
20
-1.4644094488188977
11
4.3031496062992121
21
-1.4053543307086613
0
LINE
8
BLACK
6
CONTINUOUS
10
4.3425196850393704
20
-2.0155905511811025
11
4.3425196850393704
21
-2.0746456692913386
0
LINE
8
BLACK
6
CONTINUOUS
10
4.3425196850393704
20
-2.0746456692913386
11
4.1653543307086611
21
-2.0746456692913386
0
LINE
8
BLACK
6
CONTINUOUS
10
4.6574803149606296
20
-2.0155905511811025
11
4.6574803149606296
21
-2.0746456692913386
0
LINE
8
BLACK
6
CONTINUOUS
10
4.6574803149606296
20
-2.0746456692913386
11
4.8346456692913389
21
-2.0746456692913386
0
LINE
8
BLACK
6
CONTINUOUS
10
4.6968503937007871
20
-1.4053543307086613
11
4.8346456692913389
21
-1.4053543307086613
0
LINE
8
BLACK
6
CONTINUOUS
10
4.6968503937007871
20
-1.4644094488188977
11
4.6968503937007871
21
-1.4053543307086613
0
LINE
8
BLACK
6
CONTINUOUS
10
4.7755905511811019
20
-1.4644094488188977
11
4.6968503937007871
21
-1.4644094488188977
0
LINE
8
BLACK
6
CONTINUOUS
10
4.7755905511811019
20
-1.4644094488188977
11
4.7755905511811019
21
-1.5825196850393701
0
LINE
8
BLACK
6
CONTINUOUS
10
4.7755905511811019
20
-1.5825196850393701
11
4.8346456692913389
21
-1.5825196850393701
0
LINE
8
BLACK
6
CONTINUOUS
10
4.7755905511811019
20
-1.8974803149606299
11
4.8346456692913389
21
-1.8974803149606299
0
LINE
8
BLACK
6
CONTINUOUS
10
4.7755905511811019
20
-2.0155905511811025
11
4.6574803149606296
21
-2.0155905511811025
0
LINE
8
BLACK
6
CONTINUOUS
10
4.7755905511811019
20
-2.0155905511811025
11
4.7755905511811019
21
-1.8974803149606299
0
LINE
8
BLACK
6
CONTINUOUS
10
4.8346456692913389
20
-1.5825196850393701
11
4.8346456692913389
21
-1.4053543307086613
0
LINE
8
BLACK
6
CONTINUOUS
10
4.8346456692913389
20
-1.8974803149606299
11
4.8346456692913389
21
-2.0746456692913386
0
LINE
8
BLACK
6
CONTINUOUS
10
5.9450688582677165
20
-4.9301872440944878
11
6.0285853937007872
21
-4.8466707086614171
0
LINE
8
BLACK
6
CONTINUOUS
10
5.9450688582677165
20
-4.9301872440944878
11
6.0285853937007872
21
-5.0137037795275585
0
LINE
8
BLACK
6
CONTINUOUS
10
5.9868271259842523
20
-4.8049124015748035
11
5.8615523228346458
21
-4.9301872440944878
0
LINE
8
BLACK
6
CONTINUOUS
10
5.9868271259842523
20
-5.0554620866141731
11
5.8615523228346458
21
-4.9301872440944878
0
LINE
8
BLACK
6
CONTINUOUS
10
6.0285853937007872
20
-4.8466707086614171
11
5.9868271259842523
21
-4.8049124015748035
0
LINE
8
BLACK
6
CONTINUOUS
10
6.0285853937007872
20
-5.0137037795275585
11
5.9868271259842523
21
-5.0554620866141731
0
LINE
8
BLACK
6
CONTINUOUS
10
6.2095379133858266
20
-4.5822016141732282
11
6.3348127559055118
21
-4.4569268110236218
0
LINE
8
BLACK
6
CONTINUOUS
10
6.2095379133858266
20
-5.2781728740157483
11
6.3348127559055118
21
-5.4034476771653539
0
LINE
8
BLACK
6
CONTINUOUS
10
6.2512962204724412
20
-4.623959881889764
11
6.2095379133858266
21
-4.5822016141732282
0
LINE
8
BLACK
6
CONTINUOUS
10
6.2512962204724412
20
-5.2364146062992125
11
6.2095379133858266
21
-5.2781728740157483
0
LINE
8
BLACK
6
CONTINUOUS
10
6.3348127559055118
20
-4.5404433464566925
11
6.2512962204724412
21
-4.623959881889764
0
LINE
8
BLACK
6
CONTINUOUS
10
6.3348127559055118
20
-4.5404433464566925
11
6.3904904724409448
21
-4.5961210629921263
0
LINE
8
BLACK
6
CONTINUOUS
10
6.3348127559055118
20
-5.3199311417322832
11
6.2512962204724412
21
-5.2364146062992125
0
LINE
8
BLACK
6
CONTINUOUS
10
6.3348127559055118
20
-5.3199311417322832
11
6.4183292913385825
21
-5.2364146062992125
0
LINE
8
BLACK
6
CONTINUOUS
10
6.3904904724409448
20
-4.5961210629921263
11
6.4322487401574806
21
-4.5543627559055118
0
LINE
8
BLACK
6
CONTINUOUS
10
6.4183292913385825
20
-5.2364146062992125
11
6.4600875984251971
21
-5.2781728740157483
0
LINE
8
BLACK
6
CONTINUOUS
10
6.4322487401574806
20
-4.5543627559055118
11
6.3348127559055118
21
-4.4569268110236218
0
LINE
8
BLACK
6
CONTINUOUS
10
6.4600875984251971
20
-5.2781728740157483
11
6.3348127559055118
21
-5.4034476771653539
0
LINE
8
BLACK
6
CONTINUOUS
10
6.6410401181102356
20
-5.0137037795275585
11
6.6827983858267714
21
-5.0554620866141731
0
LINE
8
BLACK
6
CONTINUOUS
10
6.6688789370078743
20
-4.8745095275590549
11
6.7106372440944879
21
-4.83275125984252
0
LINE
8
BLACK
6
CONTINUOUS
10
6.6827983858267714
20
-5.0554620866141731
11
6.8080731889763779
21
-4.9301872440944878
0
LINE
8
BLACK
6
CONTINUOUS
10
6.7106372440944879
20
-4.83275125984252
11
6.8080731889763779
21
-4.9301872440944878
0
LINE
8
BLACK
6
CONTINUOUS
10
6.7245566535433072
20
-4.9301872440944878
11
6.6410401181102356
21
-5.0137037795275585
0
LINE
8
BLACK
6
CONTINUOUS
10
6.7245566535433072
20
-4.9301872440944878
11
6.6688789370078743
21
-4.8745095275590549
0
LINE
8
BLACK
6
CONTINUOUS
10
1.7841814566929133
20
-3.0681677165354331
11
1.7534170472440944
21
-2.8936939370078738
0
LINE
8
BLACK
6
CONTINUOUS
10
1.8218297637795275
20
-2.9415970472440942
11
1.8423394094488188
21
-3.0579129133858265
0
LINE
8
BLACK
6
CONTINUOUS
10
1.8218297637795275
20
-2.9415970472440942
11
1.8993737007874016
21
-2.9279239763779525
0
LINE
8
BLACK
6
CONTINUOUS
10
1.8388738188976377
20
-3.378343464566929
11
1.8696382677165353
21
-3.5528172047244095
0
LINE
8
BLACK
6
CONTINUOUS
10
1.8423394094488188
20
-3.0579129133858265
11
1.7841814566929133
21
-3.0681677165354331
0
LINE
8
BLACK
6
CONTINUOUS
10
1.8891188976377953
20
-2.8697660236220472
11
1.7534170472440944
21
-2.8936939370078738
0
LINE
8
BLACK
6
CONTINUOUS
10
1.8970317322834644
20
-3.3680885826771654
11
1.8388738188976377
21
-3.378343464566929
0
LINE
8
BLACK
6
CONTINUOUS
10
1.8993737007874016
20
-2.9279239763779525
11
1.8891188976377953
21
-2.8697660236220472
0
LINE
8
BLACK
6
CONTINUOUS
10
1.9175413779527559
20
-3.4844044881889764
11
1.8970317322834644
21
-3.3680885826771654
0
LINE
8
BLACK
6
CONTINUOUS
10
1.9175413779527559
20
-3.4844044881889764
11
2.033857244094488
21
-3.4638948425196849
0
LINE
8
BLACK
6
CONTINUOUS
10
2.033857244094488
20
-3.4638948425196849
11
2.0441120472440946
21
-3.5220527952755907
0
LINE
8
BLACK
6
CONTINUOUS
10
2.0441120472440946
20
-3.5220527952755907
11
1.8696382677165353
21
-3.5528172047244095
0
LINE
8
BLACK
6
CONTINUOUS
10
2.2768384645669291
20
-2.801400590551181
11
2.4125403149606299
21
-2.7774727165354332
0
LINE
8
BLACK
6
CONTINUOUS
10
2.287093307086614
20
-2.8595585433070867
11
2.2768384645669291
21
-2.801400590551181
0
LINE
8
BLACK
6
CONTINUOUS
10
2.3440329133858269
20
-3.4092025196850395
11
2.3542877952755905
21
-3.4673604330708661
0
LINE
8
BLACK
6
CONTINUOUS
10
2.3542877952755905
20
-3.4673604330708661
11
2.528761535433071
21
-3.4365959842519684
0
LINE
8
BLACK
6
CONTINUOUS
10
2.3646372047244095
20
-2.8458854330708663
11
2.287093307086614
21
-2.8595585433070867
0
LINE
8
BLACK
6
CONTINUOUS
10
2.3646372047244095
20
-2.8458854330708663
11
2.3851468503937006
21
-2.9622013385826773
0
LINE
8
BLACK
6
CONTINUOUS
10
2.3851468503937006
20
-2.9622013385826773
11
2.4433047637795275
21
-2.9519464566929132
0
LINE
8
BLACK
6
CONTINUOUS
10
2.4398391732283464
20
-3.2723770078740158
11
2.4979971259842517
21
-3.2621222047244092
0
LINE
8
BLACK
6
CONTINUOUS
10
2.4433047637795275
20
-2.9519464566929132
11
2.4125403149606299
21
-2.7774727165354332
0
LINE
8
BLACK
6
CONTINUOUS
10
2.4603488188976379
20
-3.388692874015748
11
2.3440329133858269
21
-3.4092025196850395
0
LINE
8
BLACK
6
CONTINUOUS
10
2.4603488188976379
20
-3.388692874015748
11
2.4398391732283464
21
-3.2723770078740158
0
LINE
8
BLACK
6
CONTINUOUS
10
2.4979971259842517
20
-3.2621222047244092
11
2.528761535433071
21
-3.4365959842519684
0
LINE
8
BLACK
6
CONTINUOUS
10
5.6685362992125983
20
-3.8714125590551181
11
5.7275914173228344
21
-3.7691261023622045
0
LINE
8
BLACK
6
CONTINUOUS
10
5.6685362992125983
20
-3.8714125590551181
11
5.7708227559055114
21
-3.9304676771653542
0
LINE
8
BLACK
6
CONTINUOUS
10
5.6764481889763783
20
-3.7395985433070864
11
5.5878655118110236
21
-3.8930282283464566
0
LINE
8
BLACK
6
CONTINUOUS
10
5.7275914173228344
20
-3.7691261023622045
11
5.6764481889763783
21
-3.7395985433070864
0
LINE
8
BLACK
6
CONTINUOUS
10
5.7412951968503938
20
-3.9816109055118107
11
5.5878655118110236
21
-3.8930282283464566
0
LINE
8
BLACK
6
CONTINUOUS
10
5.7708227559055114
20
-3.9304676771653542
11
5.7412951968503938
21
-3.9816109055118107
0
LINE
8
BLACK
6
CONTINUOUS
10
5.8339285039370079
20
-3.4668346062992126
11
5.9225111811023616
21
-3.3134049212598424
0
LINE
8
BLACK
6
CONTINUOUS
10
5.885071732283464
20
-3.4963621653543306
11
5.8339285039370079
21
-3.4668346062992126
0
LINE
8
BLACK
6
CONTINUOUS
10
5.944126850393701
20
-3.3940757086614171
11
5.885071732283464
21
-3.4963621653543306
0
LINE
8
BLACK
6
CONTINUOUS
10
5.944126850393701
20
-3.3940757086614171
11
6.0123178346456694
21
-3.4334457874015749
0
LINE
8
BLACK
6
CONTINUOUS
10
6.0123178346456694
20
-3.4334457874015749
11
6.041845393700787
21
-3.3823025590551179
0
LINE
8
BLACK
6
CONTINUOUS
10
6.0140591338582672
20
-4.1390912204724408
11
6.1674888188976373
21
-4.2276738976377954
0
LINE
8
BLACK
6
CONTINUOUS
10
6.041845393700787
20
-3.3823025590551179
11
5.9225111811023616
21
-3.3134049212598424
0
LINE
8
BLACK
6
CONTINUOUS
10
6.0435866929133857
20
-4.0879479921259838
11
6.0140591338582672
21
-4.1390912204724408
0
LINE
8
BLACK
6
CONTINUOUS
10
6.1458731496062988
20
-4.1470031102362208
11
6.0435866929133857
21
-4.0879479921259838
0
LINE
8
BLACK
6
CONTINUOUS
10
6.1458731496062988
20
-4.1470031102362208
11
6.2049282677165349
21
-4.0447166535433068
0
LINE
8
BLACK
6
CONTINUOUS
10
6.2049282677165349
20
-4.0447166535433068
11
6.256071496062992
21
-4.0742442125984253
0
LINE
8
BLACK
6
CONTINUOUS
10
6.256071496062992
20
-4.0742442125984253
11
6.1674888188976373
21
-4.2276738976377954
0
LINE
8
BLACK
6
CONTINUOUS
10
6.3532727165354332
20
-3.630296181102362
11
6.3828002755905509
21
-3.5791529527559054
0
LINE
8
BLACK
6
CONTINUOUS
10
6.3624085826771655
20
-3.771952716535433
11
6.4135518110236216
21
-3.801480275590551
0
LINE
8
BLACK
6
CONTINUOUS
10
6.3828002755905509
20
-3.5791529527559054
11
6.5021344881889762
21
-3.6480505905511809
0
LINE
8
BLACK
6
CONTINUOUS
10
6.4135518110236216
20
-3.801480275590551
11
6.5021344881889762
21
-3.6480505905511809
0
LINE
8
BLACK
6
CONTINUOUS
10
6.4214637007874016
20
-3.6696662598425198
11
6.3532727165354332
21
-3.630296181102362
0
LINE
8
BLACK
6
CONTINUOUS
10
6.4214637007874016
20
-3.6696662598425198
11
6.3624085826771655
21
-3.771952716535433
0
LINE
8
BLACK
6
CONTINUOUS
10
4.9153543307086611
20
-1.6950196850393699
11
4.9153543307086611
21
-1.5178543307086614
0
LINE
8
BLACK
6
CONTINUOUS
10
4.9153543307086611
20
-2.0099803149606297
11
4.9153543307086611
21
-2.1871456692913385
0
LINE
8
BLACK
6
CONTINUOUS
10
4.9744094488188972
20
-1.5769094488188975
11
4.9744094488188972
21
-1.6950196850393699
0
LINE
8
BLACK
6
CONTINUOUS
10
4.9744094488188972
20
-1.5769094488188975
11
5.0531496062992121
21
-1.5769094488188975
0
LINE
8
BLACK
6
CONTINUOUS
10
4.9744094488188972
20
-1.6950196850393699
11
4.9153543307086611
21
-1.6950196850393699
0
LINE
8
BLACK
6
CONTINUOUS
10
4.9744094488188972
20
-2.0099803149606297
11
4.9153543307086611
21
-2.0099803149606297
0
LINE
8
BLACK
6
CONTINUOUS
10
4.9744094488188972
20
-2.1280905511811024
11
4.9744094488188972
21
-2.0099803149606297
0
LINE
8
BLACK
6
CONTINUOUS
10
4.9744094488188972
20
-2.1280905511811024
11
5.0925196850393704
21
-2.1280905511811024
0
LINE
8
BLACK
6
CONTINUOUS
10
5.0531496062992121
20
-1.5178543307086614
11
4.9153543307086611
21
-1.5178543307086614
0
LINE
8
BLACK
6
CONTINUOUS
10
5.0531496062992121
20
-1.5769094488188975
11
5.0531496062992121
21
-1.5178543307086614
0
LINE
8
BLACK
6
CONTINUOUS
10
5.0925196850393704
20
-2.1280905511811024
11
5.0925196850393704
21
-2.1871456692913385
0
LINE
8
BLACK
6
CONTINUOUS
10
5.0925196850393704
20
-2.1871456692913385
11
4.9153543307086611
21
-2.1871456692913385
0
LINE
8
BLACK
6
CONTINUOUS
10
5.4074803149606296
20
-2.1280905511811024
11
5.4074803149606296
21
-2.1871456692913385
0
LINE
8
BLACK
6
CONTINUOUS
10
5.4074803149606296
20
-2.1871456692913385
11
5.5846456692913389
21
-2.1871456692913385
0
LINE
8
BLACK
6
CONTINUOUS
10
5.4468503937007871
20
-1.5178543307086614
11
5.5846456692913389
21
-1.5178543307086614
0
LINE
8
BLACK
6
CONTINUOUS
10
5.4468503937007871
20
-1.5769094488188975
11
5.4468503937007871
21
-1.5178543307086614
0
LINE
8
BLACK
6
CONTINUOUS
10
5.5255905511811019
20
-1.5769094488188975
11
5.4468503937007871
21
-1.5769094488188975
0
LINE
8
BLACK
6
CONTINUOUS
10
5.5255905511811019
20
-1.5769094488188975
11
5.5255905511811019
21
-1.6950196850393699
0
LINE
8
BLACK
6
CONTINUOUS
10
5.5255905511811019
20
-1.6950196850393699
11
5.5846456692913389
21
-1.6950196850393699
0
LINE
8
BLACK
6
CONTINUOUS
10
5.5255905511811019
20
-2.0099803149606297
11
5.5846456692913389
21
-2.0099803149606297
0
LINE
8
BLACK
6
CONTINUOUS
10
5.5255905511811019
20
-2.1280905511811024
11
5.4074803149606296
21
-2.1280905511811024
0
LINE
8
BLACK
6
CONTINUOUS
10
5.5255905511811019
20
-2.1280905511811024
11
5.5255905511811019
21
-2.0099803149606297
0
LINE
8
BLACK
6
CONTINUOUS
10
5.5846456692913389
20
-1.6950196850393699
11
5.5846456692913389
21
-1.5178543307086614
0
LINE
8
BLACK
6
CONTINUOUS
10
5.5846456692913389
20
-2.0099803149606297
11
5.5846456692913389
21
-2.1871456692913385
0
LINE
8
BLACK
6
CONTINUOUS
10
4.9153543307086611
20
-2.4450196850393699
11
4.9153543307086611
21
-2.2678543307086612
0
LINE
8
BLACK
6
CONTINUOUS
10
4.9153543307086611
20
-2.7599803149606297
11
4.9153543307086611
21
-2.9371456692913385
0
LINE
8
BLACK
6
CONTINUOUS
10
4.9744094488188972
20
-2.3269094488188977
11
4.9744094488188972
21
-2.4450196850393699
0
LINE
8
BLACK
6
CONTINUOUS
10
4.9744094488188972
20
-2.3269094488188977
11
5.0531496062992121
21
-2.3269094488188977
0
LINE
8
BLACK
6
CONTINUOUS
10
4.9744094488188972
20
-2.4450196850393699
11
4.9153543307086611
21
-2.4450196850393699
0
LINE
8
BLACK
6
CONTINUOUS
10
4.9744094488188972
20
-2.7599803149606297
11
4.9153543307086611
21
-2.7599803149606297
0
LINE
8
BLACK
6
CONTINUOUS
10
4.9744094488188972
20
-2.8780905511811024
11
4.9744094488188972
21
-2.7599803149606297
0
LINE
8
BLACK
6
CONTINUOUS
10
4.9744094488188972
20
-2.8780905511811024
11
5.0925196850393704
21
-2.8780905511811024
0
LINE
8
BLACK
6
CONTINUOUS
10
5.0531496062992121
20
-2.2678543307086612
11
4.9153543307086611
21
-2.2678543307086612
0
LINE
8
BLACK
6
CONTINUOUS
10
5.0531496062992121
20
-2.3269094488188977
11
5.0531496062992121
21
-2.2678543307086612
0
LINE
8
BLACK
6
CONTINUOUS
10
5.0925196850393704
20
-2.8780905511811024
11
5.0925196850393704
21
-2.9371456692913385
0
LINE
8
BLACK
6
CONTINUOUS
10
5.0925196850393704
20
-2.9371456692913385
11
4.9153543307086611
21
-2.9371456692913385
0
LINE
8
BLACK
6
CONTINUOUS
10
5.4074803149606296
20
-2.8780905511811024
11
5.4074803149606296
21
-2.9371456692913385
0
LINE
8
BLACK
6
CONTINUOUS
10
5.4074803149606296
20
-2.9371456692913385
11
5.5846456692913389
21
-2.9371456692913385
0
LINE
8
BLACK
6
CONTINUOUS
10
5.4468503937007871
20
-2.2678543307086612
11
5.5846456692913389
21
-2.2678543307086612
0
LINE
8
BLACK
6
CONTINUOUS
10
5.4468503937007871
20
-2.3269094488188977
11
5.4468503937007871
21
-2.2678543307086612
0
LINE
8
BLACK
6
CONTINUOUS
10
5.5255905511811019
20
-2.3269094488188977
11
5.4468503937007871
21
-2.3269094488188977
0
LINE
8
BLACK
6
CONTINUOUS
10
5.5255905511811019
20
-2.3269094488188977
11
5.5255905511811019
21
-2.4450196850393699
0
LINE
8
BLACK
6
CONTINUOUS
10
5.5255905511811019
20
-2.4450196850393699
11
5.5846456692913389
21
-2.4450196850393699
0
LINE
8
BLACK
6
CONTINUOUS
10
5.5255905511811019
20
-2.7599803149606297
11
5.5846456692913389
21
-2.7599803149606297
0
LINE
8
BLACK
6
CONTINUOUS
10
5.5255905511811019
20
-2.8780905511811024
11
5.4074803149606296
21
-2.8780905511811024
0
LINE
8
BLACK
6
CONTINUOUS
10
5.5255905511811019
20
-2.8780905511811024
11
5.5255905511811019
21
-2.7599803149606297
0
LINE
8
BLACK
6
CONTINUOUS
10
5.5846456692913389
20
-2.4450196850393699
11
5.5846456692913389
21
-2.2678543307086612
0
LINE
8
BLACK
6
CONTINUOUS
10
5.5846456692913389
20
-2.7599803149606297
11
5.5846456692913389
21
-2.9371456692913385
0
LINE
8
BLACK
6
CONTINUOUS
10
3.4153543307086611
20
-2.0925196850393699
11
3.4153543307086611
21
-1.9153543307086613
0
LINE
8
BLACK
6
CONTINUOUS
10
3.4153543307086611
20
-2.4074803149606301
11
3.4153543307086611
21
-2.5846456692913384
0
LINE
8
BLACK
6
CONTINUOUS
10
3.4744094488188977
20
-1.9744094488188977
11
3.4744094488188977
21
-2.0925196850393699
0
LINE
8
BLACK
6
CONTINUOUS
10
3.4744094488188977
20
-1.9744094488188977
11
3.5531496062992125
21
-1.9744094488188977
0
LINE
8
BLACK
6
CONTINUOUS
10
3.4744094488188977
20
-2.0925196850393699
11
3.4153543307086611
21
-2.0925196850393699
0
LINE
8
BLACK
6
CONTINUOUS
10
3.4744094488188977
20
-2.4074803149606301
11
3.4153543307086611
21
-2.4074803149606301
0
LINE
8
BLACK
6
CONTINUOUS
10
3.4744094488188977
20
-2.5255905511811023
11
3.4744094488188977
21
-2.4074803149606301
0
LINE
8
BLACK
6
CONTINUOUS
10
3.4744094488188977
20
-2.5255905511811023
11
3.5925196850393699
21
-2.5255905511811023
0
LINE
8
BLACK
6
CONTINUOUS
10
3.5531496062992125
20
-1.9153543307086613
11
3.4153543307086611
21
-1.9153543307086613
0
LINE
8
BLACK
6
CONTINUOUS
10
3.5531496062992125
20
-1.9744094488188977
11
3.5531496062992125
21
-1.9153543307086613
0
LINE
8
BLACK
6
CONTINUOUS
10
3.5925196850393699
20
-2.5255905511811023
11
3.5925196850393699
21
-2.5846456692913384
0
LINE
8
BLACK
6
CONTINUOUS
10
3.5925196850393699
20
-2.5846456692913384
11
3.4153543307086611
21
-2.5846456692913384
0
LINE
8
BLACK
6
CONTINUOUS
10
3.9074803149606296
20
-2.5255905511811023
11
3.9074803149606296
21
-2.5846456692913384
0
LINE
8
BLACK
6
CONTINUOUS
10
3.9074803149606296
20
-2.5846456692913384
11
4.0846456692913389
21
-2.5846456692913384
0
LINE
8
BLACK
6
CONTINUOUS
10
3.9468503937007875
20
-1.9153543307086613
11
4.0846456692913389
21
-1.9153543307086613
0
LINE
8
BLACK
6
CONTINUOUS
10
3.9468503937007875
20
-1.9744094488188977
11
3.9468503937007875
21
-1.9153543307086613
0
LINE
8
BLACK
6
CONTINUOUS
10
4.0255905511811019
20
-1.9744094488188977
11
3.9468503937007875
21
-1.9744094488188977
0
LINE
8
BLACK
6
CONTINUOUS
10
4.0255905511811019
20
-1.9744094488188977
11
4.0255905511811019
21
-2.0925196850393699
0
LINE
8
BLACK
6
CONTINUOUS
10
4.0255905511811019
20
-2.0925196850393699
11
4.0846456692913389
21
-2.0925196850393699
0
LINE
8
BLACK
6
CONTINUOUS
10
4.0255905511811019
20
-2.4074803149606301
11
4.0846456692913389
21
-2.4074803149606301
0
LINE
8
BLACK
6
CONTINUOUS
10
4.0255905511811019
20
-2.5255905511811023
11
3.9074803149606296
21
-2.5255905511811023
0
LINE
8
BLACK
6
CONTINUOUS
10
4.0255905511811019
20
-2.5255905511811023
11
4.0255905511811019
21
-2.4074803149606301
0
LINE
8
BLACK
6
CONTINUOUS
10
4.0846456692913389
20
-2.0925196850393699
11
4.0846456692913389
21
-1.9153543307086613
0
LINE
8
BLACK
6
CONTINUOUS
10
4.0846456692913389
20
-2.4074803149606301
11
4.0846456692913389
21
-2.5846456692913384
0
LINE
8
BLACK
6
CONTINUOUS
10
3.4153543307086611
20
-2.8425196850393699
11
3.4153543307086611
21
-2.6653543307086616
0
LINE
8
BLACK
6
CONTINUOUS
10
3.4153543307086611
20
-3.1574803149606296
11
3.4153543307086611
21
-3.3346456692913384
0
LINE
8
BLACK
6
CONTINUOUS
10
3.4744094488188977
20
-2.7244094488188977
11
3.4744094488188977
21
-2.8425196850393699
0
LINE
8
BLACK
6
CONTINUOUS
10
3.4744094488188977
20
-2.7244094488188977
11
3.5531496062992125
21
-2.7244094488188977
0
LINE
8
BLACK
6
CONTINUOUS
10
3.4744094488188977
20
-2.8425196850393699
11
3.4153543307086611
21
-2.8425196850393699
0
LINE
8
BLACK
6
CONTINUOUS
10
3.4744094488188977
20
-3.1574803149606296
11
3.4153543307086611
21
-3.1574803149606296
0
LINE
8
BLACK
6
CONTINUOUS
10
3.4744094488188977
20
-3.2755905511811023
11
3.4744094488188977
21
-3.1574803149606296
0
LINE
8
BLACK
6
CONTINUOUS
10
3.4744094488188977
20
-3.2755905511811023
11
3.5925196850393699
21
-3.2755905511811023
0
LINE
8
BLACK
6
CONTINUOUS
10
3.5531496062992125
20
-2.6653543307086616
11
3.4153543307086611
21
-2.6653543307086616
0
LINE
8
BLACK
6
CONTINUOUS
10
3.5531496062992125
20
-2.7244094488188977
11
3.5531496062992125
21
-2.6653543307086616
0
LINE
8
BLACK
6
CONTINUOUS
10
3.5925196850393699
20
-3.2755905511811023
11
3.5925196850393699
21
-3.3346456692913384
0
LINE
8
BLACK
6
CONTINUOUS
10
3.5925196850393699
20
-3.3346456692913384
11
3.4153543307086611
21
-3.3346456692913384
0
LINE
8
BLACK
6
CONTINUOUS
10
3.9074803149606296
20
-3.2755905511811023
11
3.9074803149606296
21
-3.3346456692913384
0
LINE
8
BLACK
6
CONTINUOUS
10
3.9074803149606296
20
-3.3346456692913384
11
4.0846456692913389
21
-3.3346456692913384
0
LINE
8
BLACK
6
CONTINUOUS
10
3.9468503937007875
20
-2.6653543307086616
11
4.0846456692913389
21
-2.6653543307086616
0
LINE
8
BLACK
6
CONTINUOUS
10
3.9468503937007875
20
-2.7244094488188977
11
3.9468503937007875
21
-2.6653543307086616
0
LINE
8
BLACK
6
CONTINUOUS
10
4.0255905511811019
20
-2.7244094488188977
11
3.9468503937007875
21
-2.7244094488188977
0
LINE
8
BLACK
6
CONTINUOUS
10
4.0255905511811019
20
-2.7244094488188977
11
4.0255905511811019
21
-2.8425196850393699
0
LINE
8
BLACK
6
CONTINUOUS
10
4.0255905511811019
20
-2.8425196850393699
11
4.0846456692913389
21
-2.8425196850393699
0
LINE
8
BLACK
6
CONTINUOUS
10
4.0255905511811019
20
-3.1574803149606296
11
4.0846456692913389
21
-3.1574803149606296
0
LINE
8
BLACK
6
CONTINUOUS
10
4.0255905511811019
20
-3.2755905511811023
11
3.9074803149606296
21
-3.2755905511811023
0
LINE
8
BLACK
6
CONTINUOUS
10
4.0255905511811019
20
-3.2755905511811023
11
4.0255905511811019
21
-3.1574803149606296
0
LINE
8
BLACK
6
CONTINUOUS
10
4.0846456692913389
20
-2.8425196850393699
11
4.0846456692913389
21
-2.6653543307086616
0
LINE
8
BLACK
6
CONTINUOUS
10
4.0846456692913389
20
-3.1574803149606296
11
4.0846456692913389
21
-3.3346456692913384
0
LINE
8
BLACK
6
CONTINUOUS
10
1.6539453149606298
20
-2.3295618897637795
11
1.6231809055118109
21
-2.1550881102362203
0
LINE
8
BLACK
6
CONTINUOUS
10
1.6915936220472441
20
-2.2029912204724411
11
1.7121032677165353
21
-2.3193070866141734
0
LINE
8
BLACK
6
CONTINUOUS
10
1.6915936220472441
20
-2.2029912204724411
11
1.7691375590551182
21
-2.189318149606299
0
LINE
8
BLACK
6
CONTINUOUS
10
1.7086376771653542
20
-2.6397376377952755
11
1.739402125984252
21
-2.814211377952756
0
LINE
8
BLACK
6
CONTINUOUS
10
1.7121032677165353
20
-2.3193070866141734
11
1.6539453149606298
21
-2.3295618897637795
0
LINE
8
BLACK
6
CONTINUOUS
10
1.7588827559055118
20
-2.1311601968503937
11
1.6231809055118109
21
-2.1550881102362203
0
LINE
8
BLACK
6
CONTINUOUS
10
1.766795590551181
20
-2.6294827559055118
11
1.7086376771653542
21
-2.6397376377952755
0
LINE
8
BLACK
6
CONTINUOUS
10
1.7691375590551182
20
-2.189318149606299
11
1.7588827559055118
21
-2.1311601968503937
0
LINE
8
BLACK
6
CONTINUOUS
10
1.7873052362204724
20
-2.7457986614173229
11
1.766795590551181
21
-2.6294827559055118
0
LINE
8
BLACK
6
CONTINUOUS
10
1.7873052362204724
20
-2.7457986614173229
11
1.9036211023622047
21
-2.7252890157480314
0
LINE
8
BLACK
6
CONTINUOUS
10
1.9036211023622047
20
-2.7252890157480314
11
1.9138759055118111
21
-2.7834469685039371
0
LINE
8
BLACK
6
CONTINUOUS
10
1.9138759055118111
20
-2.7834469685039371
11
1.739402125984252
21
-2.814211377952756
0
LINE
8
BLACK
6
CONTINUOUS
10
2.1466023228346458
20
-2.0627947637795274
11
2.2823041732283462
21
-2.0388668897637796
0
LINE
8
BLACK
6
CONTINUOUS
10
2.1568571653543307
20
-2.1209527165354332
11
2.1466023228346458
21
-2.0627947637795274
0
LINE
8
BLACK
6
CONTINUOUS
10
2.2137967716535432
20
-2.670596692913386
11
2.2240516535433072
21
-2.7287546062992125
0
LINE
8
BLACK
6
CONTINUOUS
10
2.2240516535433072
20
-2.7287546062992125
11
2.3985253937007873
21
-2.6979901574803149
0
LINE
8
BLACK
6
CONTINUOUS
10
2.2344010629921258
20
-2.1072796062992127
11
2.1568571653543307
21
-2.1209527165354332
0
LINE
8
BLACK
6
CONTINUOUS
10
2.2344010629921258
20
-2.1072796062992127
11
2.2549107086614173
21
-2.2235955118110238
0
LINE
8
BLACK
6
CONTINUOUS
10
2.2549107086614173
20
-2.2235955118110238
11
2.3130686220472438
21
-2.2133406299212597
0
LINE
8
BLACK
6
CONTINUOUS
10
2.3096030314960627
20
-2.5337711811023622
11
2.3677609842519685
21
-2.5235163779527556
0
LINE
8
BLACK
6
CONTINUOUS
10
2.3130686220472438
20
-2.2133406299212597
11
2.2823041732283462
21
-2.0388668897637796
0
LINE
8
BLACK
6
CONTINUOUS
10
2.3301126771653542
20
-2.6500870472440945
11
2.2137967716535432
21
-2.670596692913386
0
LINE
8
BLACK
6
CONTINUOUS
10
2.3301126771653542
20
-2.6500870472440945
11
2.3096030314960627
21
-2.5337711811023622
0
LINE
8
BLACK
6
CONTINUOUS
10
2.3677609842519685
20
-2.5235163779527556
11
2.3985253937007873
21
-2.6979901574803149
0
LINE
8
BLACK
6
CONTINUOUS
10
1.1758117716535432
20
-3.9370096456692911
11
1.1450473622047244
21
-3.7625358661417323
0
LINE
8
BLACK
6
CONTINUOUS
10
1.2134600787401575
20
-3.8104389763779527
11
1.2339697244094487
21
-3.926754842519685
0
LINE
8
BLACK
6
CONTINUOUS
10
1.2134600787401575
20
-3.8104389763779527
11
1.2910040157480314
21
-3.796765905511811
0
LINE
8
BLACK
6
CONTINUOUS
10
1.2305041338582676
20
-4.2471853937007875
11
1.2612685826771652
21
-4.4216591338582676
0
LINE
8
BLACK
6
CONTINUOUS
10
1.2339697244094487
20
-3.926754842519685
11
1.1758117716535432
21
-3.9370096456692911
0
LINE
8
BLACK
6
CONTINUOUS
10
1.2807492125984252
20
-3.7386079527559053
11
1.1450473622047244
21
-3.7625358661417323
0
LINE
8
BLACK
6
CONTINUOUS
10
1.2886620472440944
20
-4.2369305118110239
11
1.2305041338582676
21
-4.2471853937007875
0
LINE
8
BLACK
6
CONTINUOUS
10
1.2910040157480314
20
-3.796765905511811
11
1.2807492125984252
21
-3.7386079527559053
0
LINE
8
BLACK
6
CONTINUOUS
10
1.3091716929133859
20
-4.3532464173228345
11
1.2886620472440944
21
-4.2369305118110239
0
LINE
8
BLACK
6
CONTINUOUS
10
1.3091716929133859
20
-4.3532464173228345
11
1.4254875590551181
21
-4.3327367716535434
0
LINE
8
BLACK
6
CONTINUOUS
10
1.4254875590551181
20
-4.3327367716535434
11
1.4357423622047243
21
-4.3908947244094483
0
LINE
8
BLACK
6
CONTINUOUS
10
1.4357423622047243
20
-4.3908947244094483
11
1.2612685826771652
21
-4.4216591338582676
0
LINE
8
BLACK
6
CONTINUOUS
10
1.668468779527559
20
-3.6702425196850395
11
1.8041706299212599
21
-3.6463146456692912
0
LINE
8
BLACK
6
CONTINUOUS
10
1.6787236220472441
20
-3.7284004724409447
11
1.668468779527559
21
-3.6702425196850395
0
LINE
8
BLACK
6
CONTINUOUS
10
1.7356632283464566
20
-4.2780444488188971
11
1.7459181102362205
21
-4.3362023622047241
0
LINE
8
BLACK
6
CONTINUOUS
10
1.7459181102362205
20
-4.3362023622047241
11
1.9203918503937008
21
-4.3054379133858269
0
LINE
8
BLACK
6
CONTINUOUS
10
1.7562675196850392
20
-3.7147273622047243
11
1.6787236220472441
21
-3.7284004724409447
0
LINE
8
BLACK
6
CONTINUOUS
10
1.7562675196850392
20
-3.7147273622047243
11
1.7767771653543307
21
-3.8310432677165354
0
LINE
8
BLACK
6
CONTINUOUS
10
1.7767771653543307
20
-3.8310432677165354
11
1.8349350787401575
21
-3.8207883858267717
0
LINE
8
BLACK
6
CONTINUOUS
10
1.8314694881889764
20
-4.1412189370078742
11
1.8896274409448819
21
-4.1309641338582672
0
LINE
8
BLACK
6
CONTINUOUS
10
1.8349350787401575
20
-3.8207883858267717
11
1.8041706299212599
21
-3.6463146456692912
0
LINE
8
BLACK
6
CONTINUOUS
10
1.8519791338582676
20
-4.2575348031496061
11
1.7356632283464566
21
-4.2780444488188971
0
LINE
8
BLACK
6
CONTINUOUS
10
1.8519791338582676
20
-4.2575348031496061
11
1.8314694881889764
21
-4.1412189370078742
0
LINE
8
BLACK
6
CONTINUOUS
10
1.8896274409448819
20
-4.1309641338582672
11
1.9203918503937008
21
-4.3054379133858269
0
LINE
8
BLACK
6
CONTINUOUS
10
4.1653543307086611
20
-2.3325196850393701
11
4.1653543307086611
21
-2.1553543307086613
0
LINE
8
BLACK
6
CONTINUOUS
10
4.1653543307086611
20
-2.6474803149606299
11
4.1653543307086611
21
-2.8246456692913386
0
LINE
8
BLACK
6
CONTINUOUS
10
4.2244094488188972
20
-2.2144094488188975
11
4.2244094488188972
21
-2.3325196850393701
0
LINE
8
BLACK
6
CONTINUOUS
10
4.2244094488188972
20
-2.2144094488188975
11
4.3031496062992121
21
-2.2144094488188975
0
LINE
8
BLACK
6
CONTINUOUS
10
4.2244094488188972
20
-2.3325196850393701
11
4.1653543307086611
21
-2.3325196850393701
0
LINE
8
BLACK
6
CONTINUOUS
10
4.2244094488188972
20
-2.6474803149606299
11
4.1653543307086611
21
-2.6474803149606299
0
LINE
8
BLACK
6
CONTINUOUS
10
4.2244094488188972
20
-2.7655905511811021
11
4.2244094488188972
21
-2.6474803149606299
0
LINE
8
BLACK
6
CONTINUOUS
10
4.2244094488188972
20
-2.7655905511811021
11
4.3425196850393704
21
-2.7655905511811021
0
LINE
8
BLACK
6
CONTINUOUS
10
4.3031496062992121
20
-2.1553543307086613
11
4.1653543307086611
21
-2.1553543307086613
0
LINE
8
BLACK
6
CONTINUOUS
10
4.3031496062992121
20
-2.2144094488188975
11
4.3031496062992121
21
-2.1553543307086613
0
LINE
8
BLACK
6
CONTINUOUS
10
4.3425196850393704
20
-2.7655905511811021
11
4.3425196850393704
21
-2.8246456692913386
0
LINE
8
BLACK
6
CONTINUOUS
10
4.3425196850393704
20
-2.8246456692913386
11
4.1653543307086611
21
-2.8246456692913386
0
LINE
8
BLACK
6
CONTINUOUS
10
4.6574803149606296
20
-2.7655905511811021
11
4.6574803149606296
21
-2.8246456692913386
0
LINE
8
BLACK
6
CONTINUOUS
10
4.6574803149606296
20
-2.8246456692913386
11
4.8346456692913389
21
-2.8246456692913386
0
LINE
8
BLACK
6
CONTINUOUS
10
4.6968503937007871
20
-2.1553543307086613
11
4.8346456692913389
21
-2.1553543307086613
0
LINE
8
BLACK
6
CONTINUOUS
10
4.6968503937007871
20
-2.2144094488188975
11
4.6968503937007871
21
-2.1553543307086613
0
LINE
8
BLACK
6
CONTINUOUS
10
4.7755905511811019
20
-2.2144094488188975
11
4.6968503937007871
21
-2.2144094488188975
0
LINE
8
BLACK
6
CONTINUOUS
10
4.7755905511811019
20
-2.2144094488188975
11
4.7755905511811019
21
-2.3325196850393701
0
LINE
8
BLACK
6
CONTINUOUS
10
4.7755905511811019
20
-2.3325196850393701
11
4.8346456692913389
21
-2.3325196850393701
0
LINE
8
BLACK
6
CONTINUOUS
10
4.7755905511811019
20
-2.6474803149606299
11
4.8346456692913389
21
-2.6474803149606299
0
LINE
8
BLACK
6
CONTINUOUS
10
4.7755905511811019
20
-2.7655905511811021
11
4.6574803149606296
21
-2.7655905511811021
0
LINE
8
BLACK
6
CONTINUOUS
10
4.7755905511811019
20
-2.7655905511811021
11
4.7755905511811019
21
-2.6474803149606299
0
LINE
8
BLACK
6
CONTINUOUS
10
4.8346456692913389
20
-2.3325196850393701
11
4.8346456692913389
21
-2.1553543307086613
0
LINE
8
BLACK
6
CONTINUOUS
10
4.8346456692913389
20
-2.6474803149606299
11
4.8346456692913389
21
-2.8246456692913386
0
LINE
8
BLACK
6
CONTINUOUS
10
1.9144175984251968
20
-3.8067735039370079
11
1.8836531889763779
21
-3.6322997244094486
0
LINE
8
BLACK
6
CONTINUOUS
10
1.952065905511811
20
-3.680202834645669
11
1.9725755511811023
21
-3.7965187007874013
0
LINE
8
BLACK
6
CONTINUOUS
10
1.952065905511811
20
-3.680202834645669
11
2.0296098425196849
21
-3.6665297637795273
0
LINE
8
BLACK
6
CONTINUOUS
10
1.9691099606299212
20
-4.1169492519685038
11
1.9998744094488188
21
-4.2914229921259839
0
LINE
8
BLACK
6
CONTINUOUS
10
1.9725755511811023
20
-3.7965187007874013
11
1.9144175984251968
21
-3.8067735039370079
0
LINE
8
BLACK
6
CONTINUOUS
10
2.0193550393700788
20
-3.608371811023622
11
1.8836531889763779
21
-3.6322997244094486
0
LINE
8
BLACK
6
CONTINUOUS
10
2.0272678740157479
20
-4.1066943700787402
11
1.9691099606299212
21
-4.1169492519685038
0
LINE
8
BLACK
6
CONTINUOUS
10
2.0296098425196849
20
-3.6665297637795273
11
2.0193550393700788
21
-3.608371811023622
0
LINE
8
BLACK
6
CONTINUOUS
10
2.0477775196850394
20
-4.2230102755905508
11
2.0272678740157479
21
-4.1066943700787402
0
LINE
8
BLACK
6
CONTINUOUS
10
2.0477775196850394
20
-4.2230102755905508
11
2.1640933858267717
21
-4.2025006299212597
0
LINE
8
BLACK
6
CONTINUOUS
10
2.1640933858267717
20
-4.2025006299212597
11
2.1743481889763778
21
-4.2606585826771655
0
LINE
8
BLACK
6
CONTINUOUS
10
2.1743481889763778
20
-4.2606585826771655
11
1.9998744094488188
21
-4.2914229921259839
0
LINE
8
BLACK
6
CONTINUOUS
10
2.4070746062992123
20
-3.5400063779527557
11
2.5427764566929132
21
-3.5160785039370079
0
LINE
8
BLACK
6
CONTINUOUS
10
2.4173294488188977
20
-3.5981643307086615
11
2.4070746062992123
21
-3.5400063779527557
0
LINE
8
BLACK
6
CONTINUOUS
10
2.4742690551181101
20
-4.1478083070866143
11
2.4845239370078738
21
-4.2059662204724413
0
LINE
8
BLACK
6
CONTINUOUS
10
2.4845239370078738
20
-4.2059662204724413
11
2.6589976771653543
21
-4.1752017716535432
0
LINE
8
BLACK
6
CONTINUOUS
10
2.4948733464566928
20
-3.5844912204724411
11
2.4173294488188977
21
-3.5981643307086615
0
LINE
8
BLACK
6
CONTINUOUS
10
2.4948733464566928
20
-3.5844912204724411
11
2.5153829921259843
21
-3.7008071259842521
0
LINE
8
BLACK
6
CONTINUOUS
10
2.5153829921259843
20
-3.7008071259842521
11
2.5735409055118108
21
-3.690552244094488
0
LINE
8
BLACK
6
CONTINUOUS
10
2.5700753149606297
20
-4.0109827952755905
11
2.6282332677165354
21
-4.0007279921259844
0
LINE
8
BLACK
6
CONTINUOUS
10
2.5735409055118108
20
-3.690552244094488
11
2.5427764566929132
21
-3.5160785039370079
0
LINE
8
BLACK
6
CONTINUOUS
10
2.5905849606299212
20
-4.1272986614173224
11
2.4742690551181101
21
-4.1478083070866143
0
LINE
8
BLACK
6
CONTINUOUS
10
2.5905849606299212
20
-4.1272986614173224
11
2.5700753149606297
21
-4.0109827952755905
0
LINE
8
BLACK
6
CONTINUOUS
10
2.6282332677165354
20
-4.0007279921259844
11
2.6589976771653543
21
-4.1752017716535432
0
LINE
8
BLACK
6
CONTINUOUS
10
4.5318073228346458
20
-4.1648797244094489
11
4.4859535826771655
21
-4.3360083464566932
0
LINE
8
BLACK
6
CONTINUOUS
10
4.5582810236220475
20
-4.2942500393700787
11
4.5888501968503936
21
-4.1801643307086609
0
LINE
8
BLACK
6
CONTINUOUS
10
4.5582810236220475
20
-4.2942500393700787
11
4.6723667322834643
21
-4.3248192519685036
0
LINE
8
BLACK
6
CONTINUOUS
10
4.5888501968503936
20
-4.1801643307086609
11
4.5318073228346458
21
-4.1648797244094489
0
LINE
8
BLACK
6
CONTINUOUS
10
4.6133251574803147
20
-3.8606511417322835
11
4.659178897637795
21
-3.6895225590551179
0
LINE
8
BLACK
6
CONTINUOUS
10
4.6570821653543302
20
-4.3818620866141735
11
4.4859535826771655
21
-4.3360083464566932
0
LINE
8
BLACK
6
CONTINUOUS
10
4.6703679921259837
20
-3.8759357086614172
11
4.6133251574803147
21
-3.8606511417322835
0
LINE
8
BLACK
6
CONTINUOUS
10
4.6723667322834643
20
-4.3248192519685036
11
4.6570821653543302
21
-4.3818620866141735
0
LINE
8
BLACK
6
CONTINUOUS
10
4.7009372047244096
20
-3.7618499999999999
11
4.6703679921259837
21
-3.8759357086614172
0
LINE
8
BLACK
6
CONTINUOUS
10
4.7009372047244096
20
-3.7618499999999999
11
4.7769943307086615
21
-3.7822294488188977
0
LINE
8
BLACK
6
CONTINUOUS
10
4.7769943307086615
20
-3.7822294488188977
11
4.7922789370078736
21
-3.7251865748031494
0
LINE
8
BLACK
6
CONTINUOUS
10
4.7922789370078736
20
-3.7251865748031494
11
4.659178897637795
21
-3.6895225590551179
0
LINE
8
BLACK
6
CONTINUOUS
10
4.9613107480314955
20
-4.4633799212598424
11
5.1324393700787398
21
-4.5092336614173227
0
LINE
8
BLACK
6
CONTINUOUS
10
4.9765953543307084
20
-4.4063370472440946
11
4.9613107480314955
21
-4.4633799212598424
0
LINE
8
BLACK
6
CONTINUOUS
10
5.0906810629921262
20
-4.4369062204724408
11
4.9765953543307084
21
-4.4063370472440946
0
LINE
8
BLACK
6
CONTINUOUS
10
5.0906810629921262
20
-4.4369062204724408
11
5.1212502755905511
21
-4.3228205118110239
0
LINE
8
BLACK
6
CONTINUOUS
10
5.1212502755905511
20
-4.3228205118110239
11
5.1782931102362202
21
-4.3381050787401572
0
LINE
8
BLACK
6
CONTINUOUS
10
5.1572800393700788
20
-3.8841266929133855
11
5.1725646850393696
21
-3.8270838582677165
0
LINE
8
BLACK
6
CONTINUOUS
10
5.1725646850393696
20
-3.8270838582677165
11
5.3056646850393703
21
-3.8627478740157479
0
LINE
8
BLACK
6
CONTINUOUS
10
5.1782931102362202
20
-4.3381050787401572
11
5.1324393700787398
21
-4.5092336614173227
0
LINE
8
BLACK
6
CONTINUOUS
10
5.2027680708661412
20
-4.0185918897637798
11
5.2598109448818899
21
-4.0338764960629918
0
LINE
8
BLACK
6
CONTINUOUS
10
5.2333372440944883
20
-3.904506181102362
11
5.1572800393700788
21
-3.8841266929133855
0
LINE
8
BLACK
6
CONTINUOUS
10
5.2333372440944883
20
-3.904506181102362
11
5.2027680708661412
21
-4.0185918897637798
0
LINE
8
BLACK
6
CONTINUOUS
10
5.2598109448818899
20
-4.0338764960629918
11
5.3056646850393703
21
-3.8627478740157479
0
LINE
8
BLACK
6
CONTINUOUS
10
2.6484464173228344
20
-3.2127255118110236
11
2.6330054330708661
21
-3.0362343307086612
0
LINE
8
BLACK
6
CONTINUOUS
10
2.6758970472440944
20
-3.5264876377952756
11
2.6913380314960631
21
-3.7029788188976376
0
LINE
8
BLACK
6
CONTINUOUS
10
2.6969828346456692
20
-3.089917716535433
11
2.7072768110236218
21
-3.2075785039370079
0
LINE
8
BLACK
6
CONTINUOUS
10
2.6969828346456692
20
-3.089917716535433
11
2.7754233464566926
21
-3.0830550787401574
0
LINE
8
BLACK
6
CONTINUOUS
10
2.7072768110236218
20
-3.2075785039370079
11
2.6484464173228344
21
-3.2127255118110236
0
LINE
8
BLACK
6
CONTINUOUS
10
2.7347274409448818
20
-3.52134062992126
11
2.6758970472440944
21
-3.5264876377952756
0
LINE
8
BLACK
6
CONTINUOUS
10
2.7450214173228344
20
-3.6390014173228344
11
2.7347274409448818
21
-3.52134062992126
0
LINE
8
BLACK
6
CONTINUOUS
10
2.7450214173228344
20
-3.6390014173228344
11
2.8626822047244094
21
-3.6287074409448818
0
LINE
8
BLACK
6
CONTINUOUS
10
2.7702763779527557
20
-3.0242246850393699
11
2.6330054330708661
21
-3.0362343307086612
0
LINE
8
BLACK
6
CONTINUOUS
10
2.7754233464566926
20
-3.0830550787401574
11
2.7702763779527557
21
-3.0242246850393699
0
LINE
8
BLACK
6
CONTINUOUS
10
2.8626822047244094
20
-3.6287074409448818
11
2.867829212598425
21
-3.6875378346456693
0
LINE
8
BLACK
6
CONTINUOUS
10
2.867829212598425
20
-3.6875378346456693
11
2.6913380314960631
21
-3.7029788188976376
0
LINE
8
BLACK
6
CONTINUOUS
10
3.1624790157480316
20
-2.989911377952756
11
3.2997499212598425
21
-2.9779017322834647
0
LINE
8
BLACK
6
CONTINUOUS
10
3.1676259842519685
20
-3.0487417716535434
11
3.1624790157480316
21
-2.989911377952756
0
LINE
8
BLACK
6
CONTINUOUS
10
3.1764443307086614
20
-3.6012568110236218
11
3.1815913385826771
21
-3.6600872047244093
0
LINE
8
BLACK
6
CONTINUOUS
10
3.1815913385826771
20
-3.6600872047244093
11
3.3580825196850395
21
-3.644646220472441
0
LINE
8
BLACK
6
CONTINUOUS
10
3.2460665354330707
20
-3.0418791338582678
11
3.1676259842519685
21
-3.0487417716535434
0
LINE
8
BLACK
6
CONTINUOUS
10
3.2460665354330707
20
-3.0418791338582678
11
3.2563605118110237
21
-3.1595399212598423
0
LINE
8
BLACK
6
CONTINUOUS
10
3.2563605118110237
20
-3.1595399212598423
11
3.3151909055118112
21
-3.1543929133858266
0
LINE
8
BLACK
6
CONTINUOUS
10
3.2838111417322833
20
-3.4733020472440943
11
3.3426415354330707
21
-3.4681550393700786
0
LINE
8
BLACK
6
CONTINUOUS
10
3.2941051181102363
20
-3.5909628346456692
11
3.1764443307086614
21
-3.6012568110236218
0
LINE
8
BLACK
6
CONTINUOUS
10
3.2941051181102363
20
-3.5909628346456692
11
3.2838111417322833
21
-3.4733020472440943
0
LINE
8
BLACK
6
CONTINUOUS
10
3.3151909055118112
20
-3.1543929133858266
11
3.2997499212598425
21
-2.9779017322834647
0
LINE
8
BLACK
6
CONTINUOUS
10
3.3426415354330707
20
-3.4681550393700786
11
3.3580825196850395
21
-3.644646220472441
0
LINE
8
BLACK
6
CONTINUOUS
10
2.5177127952755907
20
-1.718433464566929
11
2.502271811023622
21
-1.5419422834645669
0
LINE
8
BLACK
6
CONTINUOUS
10
2.5451634251968502
20
-2.032195590551181
11
2.560604409448819
21
-2.2086867716535434
0
LINE
8
BLACK
6
CONTINUOUS
10
2.5662492125984251
20
-1.5956256692913386
11
2.5765431889763777
21
-1.7132864566929134
0
LINE
8
BLACK
6
CONTINUOUS
10
2.5662492125984251
20
-1.5956256692913386
11
2.6446897244094489
21
-1.588763031496063
0
LINE
8
BLACK
6
CONTINUOUS
10
2.5765431889763777
20
-1.7132864566929134
11
2.5177127952755907
21
-1.718433464566929
0
LINE
8
BLACK
6
CONTINUOUS
10
2.6039938188976377
20
-2.0270485826771654
11
2.5451634251968502
21
-2.032195590551181
0
LINE
8
BLACK
6
CONTINUOUS
10
2.6142877952755903
20
-2.1447093700787403
11
2.6039938188976377
21
-2.0270485826771654
0
LINE
8
BLACK
6
CONTINUOUS
10
2.6142877952755903
20
-2.1447093700787403
11
2.7319485826771652
21
-2.1344153937007873
0
LINE
8
BLACK
6
CONTINUOUS
10
2.6395427559055116
20
-1.5299326377952756
11
2.502271811023622
21
-1.5419422834645669
0
LINE
8
BLACK
6
CONTINUOUS
10
2.6446897244094489
20
-1.588763031496063
11
2.6395427559055116
21
-1.5299326377952756
0
LINE
8
BLACK
6
CONTINUOUS
10
2.7319485826771652
20
-2.1344153937007873
11
2.7370955905511809
21
-2.1932457874015747
0
LINE
8
BLACK
6
CONTINUOUS
10
2.7370955905511809
20
-2.1932457874015747
11
2.560604409448819
21
-2.2086867716535434
0
LINE
8
BLACK
6
CONTINUOUS
10
3.0317453937007874
20
-1.4956193307086614
11
3.1690162992125983
21
-1.4836096850393701
0
LINE
8
BLACK
6
CONTINUOUS
10
3.0368923622047244
20
-1.5544497244094488
11
3.0317453937007874
21
-1.4956193307086614
0
LINE
8
BLACK
6
CONTINUOUS
10
3.0457107086614172
20
-2.1069647637795277
11
3.0508577165354329
21
-2.1657951574803147
0
LINE
8
BLACK
6
CONTINUOUS
10
3.0508577165354329
20
-2.1657951574803147
11
3.2273488976377953
21
-2.1503541732283464
0
LINE
8
BLACK
6
CONTINUOUS
10
3.1153329133858265
20
-1.5475870866141732
11
3.0368923622047244
21
-1.5544497244094488
0
LINE
8
BLACK
6
CONTINUOUS
10
3.1153329133858265
20
-1.5475870866141732
11
3.1256268897637796
21
-1.6652478740157479
0
LINE
8
BLACK
6
CONTINUOUS
10
3.1256268897637796
20
-1.6652478740157479
11
3.184457283464567
21
-1.6601008661417322
0
LINE
8
BLACK
6
CONTINUOUS
10
3.1530775196850391
20
-1.9790099999999999
11
3.2119079133858266
21
-1.9738629921259843
0
LINE
8
BLACK
6
CONTINUOUS
10
3.1633714960629922
20
-2.0966707874015746
11
3.0457107086614172
21
-2.1069647637795277
0
LINE
8
BLACK
6
CONTINUOUS
10
3.1633714960629922
20
-2.0966707874015746
11
3.1530775196850391
21
-1.9790099999999999
0
LINE
8
BLACK
6
CONTINUOUS
10
3.184457283464567
20
-1.6601008661417322
11
3.1690162992125983
21
-1.4836096850393701
0
LINE
8
BLACK
6
CONTINUOUS
10
3.2119079133858266
20
-1.9738629921259843
11
3.2273488976377953
21
-2.1503541732283464
0
LINE
8
BLACK
6
CONTINUOUS
10
3.7303543307086615
20
-3.8325196850393701
11
3.7303543307086615
21
-3.6553543307086613
0
LINE
8
BLACK
6
CONTINUOUS
10
3.7303543307086615
20
-4.1474803149606299
11
3.7303543307086615
21
-4.3246456692913382
0
LINE
8
BLACK
6
CONTINUOUS
10
3.7894094488188976
20
-3.7144094488188975
11
3.7894094488188976
21
-3.8325196850393701
0
LINE
8
BLACK
6
CONTINUOUS
10
3.7894094488188976
20
-3.7144094488188975
11
3.8681496062992125
21
-3.7144094488188975
0
LINE
8
BLACK
6
CONTINUOUS
10
3.7894094488188976
20
-3.8325196850393701
11
3.7303543307086615
21
-3.8325196850393701
0
LINE
8
BLACK
6
CONTINUOUS
10
3.7894094488188976
20
-4.1474803149606299
11
3.7303543307086615
21
-4.1474803149606299
0
LINE
8
BLACK
6
CONTINUOUS
10
3.7894094488188976
20
-4.2655905511811021
11
3.7894094488188976
21
-4.1474803149606299
0
LINE
8
BLACK
6
CONTINUOUS
10
3.7894094488188976
20
-4.2655905511811021
11
3.9075196850393699
21
-4.2655905511811021
0
LINE
8
BLACK
6
CONTINUOUS
10
3.8681496062992125
20
-3.6553543307086613
11
3.7303543307086615
21
-3.6553543307086613
0
LINE
8
BLACK
6
CONTINUOUS
10
3.8681496062992125
20
-3.7144094488188975
11
3.8681496062992125
21
-3.6553543307086613
0
LINE
8
BLACK
6
CONTINUOUS
10
3.9075196850393699
20
-4.2655905511811021
11
3.9075196850393699
21
-4.3246456692913382
0
LINE
8
BLACK
6
CONTINUOUS
10
3.9075196850393699
20
-4.3246456692913382
11
3.7303543307086615
21
-4.3246456692913382
0
LINE
8
BLACK
6
CONTINUOUS
10
4.22248031496063
20
-4.2655905511811021
11
4.22248031496063
21
-4.3246456692913382
0
LINE
8
BLACK
6
CONTINUOUS
10
4.22248031496063
20
-4.3246456692913382
11
4.3996456692913384
21
-4.3246456692913382
0
LINE
8
BLACK
6
CONTINUOUS
10
4.2618503937007874
20
-3.6553543307086613
11
4.3996456692913384
21
-3.6553543307086613
0
LINE
8
BLACK
6
CONTINUOUS
10
4.2618503937007874
20
-3.7144094488188975
11
4.2618503937007874
21
-3.6553543307086613
0
LINE
8
BLACK
6
CONTINUOUS
10
4.3405905511811023
20
-3.7144094488188975
11
4.2618503937007874
21
-3.7144094488188975
0
LINE
8
BLACK
6
CONTINUOUS
10
4.3405905511811023
20
-3.7144094488188975
11
4.3405905511811023
21
-3.8325196850393701
0
LINE
8
BLACK
6
CONTINUOUS
10
4.3405905511811023
20
-3.8325196850393701
11
4.3996456692913384
21
-3.8325196850393701
0
LINE
8
BLACK
6
CONTINUOUS
10
4.3405905511811023
20
-4.1474803149606299
11
4.3996456692913384
21
-4.1474803149606299
0
LINE
8
BLACK
6
CONTINUOUS
10
4.3405905511811023
20
-4.2655905511811021
11
4.22248031496063
21
-4.2655905511811021
0
LINE
8
BLACK
6
CONTINUOUS
10
4.3405905511811023
20
-4.2655905511811021
11
4.3405905511811023
21
-4.1474803149606299
0
LINE
8
BLACK
6
CONTINUOUS
10
4.3996456692913384
20
-3.8325196850393701
11
4.3996456692913384
21
-3.6553543307086613
0
LINE
8
BLACK
6
CONTINUOUS
10
4.3996456692913384
20
-4.1474803149606299
11
4.3996456692913384
21
-4.3246456692913382
0
LINE
8
BLACK
6
CONTINUOUS
10
4.1653543307086611
20
-3.0825196850393701
11
4.1653543307086611
21
-2.9053543307086613
0
LINE
8
BLACK
6
CONTINUOUS
10
4.1653543307086611
20
-3.3974803149606299
11
4.1653543307086611
21
-3.5746456692913386
0
LINE
8
BLACK
6
CONTINUOUS
10
4.2244094488188972
20
-2.9644094488188975
11
4.2244094488188972
21
-3.0825196850393701
0
LINE
8
BLACK
6
CONTINUOUS
10
4.2244094488188972
20
-2.9644094488188975
11
4.3031496062992121
21
-2.9644094488188975
0
LINE
8
BLACK
6
CONTINUOUS
10
4.2244094488188972
20
-3.0825196850393701
11
4.1653543307086611
21
-3.0825196850393701
0
LINE
8
BLACK
6
CONTINUOUS
10
4.2244094488188972
20
-3.3974803149606299
11
4.1653543307086611
21
-3.3974803149606299
0
LINE
8
BLACK
6
CONTINUOUS
10
4.2244094488188972
20
-3.5155905511811021
11
4.2244094488188972
21
-3.3974803149606299
0
LINE
8
BLACK
6
CONTINUOUS
10
4.2244094488188972
20
-3.5155905511811021
11
4.3425196850393704
21
-3.5155905511811021
0
LINE
8
BLACK
6
CONTINUOUS
10
4.3031496062992121
20
-2.9053543307086613
11
4.1653543307086611
21
-2.9053543307086613
0
LINE
8
BLACK
6
CONTINUOUS
10
4.3031496062992121
20
-2.9644094488188975
11
4.3031496062992121
21
-2.9053543307086613
0
LINE
8
BLACK
6
CONTINUOUS
10
4.3425196850393704
20
-3.5155905511811021
11
4.3425196850393704
21
-3.5746456692913386
0
LINE
8
BLACK
6
CONTINUOUS
10
4.3425196850393704
20
-3.5746456692913386
11
4.1653543307086611
21
-3.5746456692913386
0
LINE
8
BLACK
6
CONTINUOUS
10
4.6574803149606296
20
-3.5155905511811021
11
4.6574803149606296
21
-3.5746456692913386
0
LINE
8
BLACK
6
CONTINUOUS
10
4.6574803149606296
20
-3.5746456692913386
11
4.8346456692913389
21
-3.5746456692913386
0
LINE
8
BLACK
6
CONTINUOUS
10
4.6968503937007871
20
-2.9053543307086613
11
4.8346456692913389
21
-2.9053543307086613
0
LINE
8
BLACK
6
CONTINUOUS
10
4.6968503937007871
20
-2.9644094488188975
11
4.6968503937007871
21
-2.9053543307086613
0
LINE
8
BLACK
6
CONTINUOUS
10
4.7755905511811019
20
-2.9644094488188975
11
4.6968503937007871
21
-2.9644094488188975
0
LINE
8
BLACK
6
CONTINUOUS
10
4.7755905511811019
20
-2.9644094488188975
11
4.7755905511811019
21
-3.0825196850393701
0
LINE
8
BLACK
6
CONTINUOUS
10
4.7755905511811019
20
-3.0825196850393701
11
4.8346456692913389
21
-3.0825196850393701
0
LINE
8
BLACK
6
CONTINUOUS
10
4.7755905511811019
20
-3.3974803149606299
11
4.8346456692913389
21
-3.3974803149606299
0
LINE
8
BLACK
6
CONTINUOUS
10
4.7755905511811019
20
-3.5155905511811021
11
4.6574803149606296
21
-3.5155905511811021
0
LINE
8
BLACK
6
CONTINUOUS
10
4.7755905511811019
20
-3.5155905511811021
11
4.7755905511811019
21
-3.3974803149606299
0
LINE
8
BLACK
6
CONTINUOUS
10
4.8346456692913389
20
-3.0825196850393701
11
4.8346456692913389
21
-2.9053543307086613
0
LINE
8
BLACK
6
CONTINUOUS
10
4.8346456692913389
20
-3.3974803149606299
11
4.8346456692913389
21
-3.5746456692913386
  0
ENDSEC
  0
EOF
