  0
SECTION
  2
HEADER
  9
$ANGBASE
  50
0.0
  9
$ANGDIR
  70
1
  9
$MEASUREMENT
  70
0
  0
ENDSEC
  0
SECTION
  2
TABLES
  0
TABLE
  2
LTYPE
  70
4
  0
LTYPE
  5
40F
  2
CONTINUOUS
  70
0
  3
Solid line
  72
65
  73
0
  40
0.0
  0
LTYPE
  5
410
  2
DASHDOT
 70
0
  3
Dash Dot ____ _ ____ _
 72
65
 73
4
 40
2.0
 49
1.25
 49
-0.25
 49
0.25
 49
-0.25
  0
LTYPE
  5
411
  2
DASHED
 70
0
  3
Dashed __ __ __ __ __
 72
65
 73
2
 40
0.75
 49
0.5
 49
-0.25
  0
LTYPE
  5
43B
  2
DOTTED
 70
0
  3
Dotted .  .  .  .
 72
65
 73
2
 40
0.2
 49
0.0
 49
-0.2
  0
ENDTAB
  0
TABLE
  2
STYLE
  70
4
  0
STYLE
  2
KICAD
  70
0
  40
0
  41
1
  42
1
  50
0
  71
0
  3
isocp.shx
  0
STYLE
  2
KICADB
  70
0
  40
0
  41
1
  42
1
  50
0
  71
0
  3
isocp.shx
  0
STYLE
  2
KICADI
  70
0
  40
0
  41
1
  42
1
  50
15
  71
0
  3
isocp.shx
  0
STYLE
  2
KICADBI
  70
0
  40
0
  41
1
  42
1
  50
15
  71
0
  3
isocp.shx
  0
ENDTAB
  0
TABLE
  2
LAYER
  70
1
  0
LAYER
  2
BLACK
  70
0
  62
7
  6
CONTINUOUS
  0
ENDTAB
  0
ENDSEC
  0
SECTION
  2
ENTITIES
0
LINE
8
BLACK
6
CONTINUOUS
10
1.7217429921259841
20
-3.5189290157480313
11
1.1789355511811024
21
-3.6146406299212597
0
LINE
8
BLACK
6
CONTINUOUS
10
1.1789355511811024
20
-3.6146406299212597
11
1.0695508661417323
21
-2.994289251968504
0
LINE
8
BLACK
6
CONTINUOUS
10
1.0695508661417323
20
-2.994289251968504
11
1.6123583070866141
21
-2.8985776771653544
0
LINE
8
BLACK
6
CONTINUOUS
10
1.6123583070866141
20
-2.8985776771653544
11
1.7217429921259841
21
-3.5189290157480313
0
LINE
8
BLACK
6
CONTINUOUS
10
6.085833779527559
20
-4.2509943307086617
11
5.7708731496062988
21
-4.7965221653543306
0
LINE
8
BLACK
6
CONTINUOUS
10
5.7708731496062988
20
-4.7965221653543306
11
5.2935362992125983
21
-4.5209316141732279
0
LINE
8
BLACK
6
CONTINUOUS
10
5.2935362992125983
20
-4.5209316141732279
11
5.6084969291338584
21
-3.975403779527559
0
LINE
8
BLACK
6
CONTINUOUS
10
5.6084969291338584
20
-3.975403779527559
11
6.085833779527559
21
-4.2509943307086617
0
LINE
8
BLACK
6
CONTINUOUS
10
5.9747779527559057
20
-3.3286525590551181
11
5.9747779527559057
21
-2.0688100393700788
0
LINE
8
BLACK
6
CONTINUOUS
10
5.9944629921259844
20
-2.0491250000000001
11
6.8015496062992122
21
-2.0491250000000001
0
LINE
8
BLACK
6
CONTINUOUS
10
6.8015496062992122
20
-3.3483375984251968
11
5.9944629921259844
21
-3.3483375984251968
0
LINE
8
BLACK
6
CONTINUOUS
10
6.8212346456692909
20
-2.0688100393700788
11
6.8212346456692909
21
-3.3286525590551181
0
ARC
8
BLACK
10
5.9944629921259844
20
-2.0688100393700788
40
0.0196850393700787
50
90.00000000
51
180.00000000
0
ARC
8
BLACK
10
5.9944629921259844
20
-3.3286525590551181
40
0.0196850393700787
50
-180.00000000
51
-90.00000000
0
ARC
8
BLACK
10
6.8015496062992122
20
-2.0688100393700788
40
0.0196850393700787
50
0.00000000
51
90.00000000
0
ARC
8
BLACK
10
6.8015496062992122
20
-3.3286525590551181
40
0.0196850393700787
50
-90.00000000
51
-0.00000000
0
LINE
8
BLACK
6
CONTINUOUS
10
3.4744094488188977
20
-1.1456692913385826
11
4.0255905511811019
21
-1.1456692913385826
0
LINE
8
BLACK
6
CONTINUOUS
10
4.0255905511811019
20
-1.1456692913385826
11
4.0255905511811019
21
-1.7755905511811023
0
LINE
8
BLACK
6
CONTINUOUS
10
4.0255905511811019
20
-1.7755905511811023
11
3.4744094488188977
21
-1.7755905511811023
0
LINE
8
BLACK
6
CONTINUOUS
10
3.4744094488188977
20
-1.7755905511811023
11
3.4744094488188977
21
-1.1456692913385826
0
LINE
8
BLACK
6
CONTINUOUS
10
3.2287383070866142
20
-2.8438168110236219
11
2.6796546062992124
21
-2.8918553937007871
0
LINE
8
BLACK
6
CONTINUOUS
10
2.6796546062992124
20
-2.8918553937007871
11
2.6247533464566928
21
-2.2643311811023623
0
LINE
8
BLACK
6
CONTINUOUS
10
2.6247533464566928
20
-2.2643311811023623
11
3.1738370472440942
21
-2.2162925984251967
0
LINE
8
BLACK
6
CONTINUOUS
10
3.1738370472440942
20
-2.2162925984251967
11
3.2287383070866142
21
-2.8438168110236219
0
LINE
8
BLACK
6
CONTINUOUS
10
1.5915068897637794
20
-2.7803231889763778
11
1.0486994488188977
21
-2.8760348031496061
0
LINE
8
BLACK
6
CONTINUOUS
10
1.0486994488188977
20
-2.8760348031496061
11
0.9393147637795275
21
-2.2556834251968505
0
LINE
8
BLACK
6
CONTINUOUS
10
0.9393147637795275
20
-2.2556834251968505
11
1.4821222047244094
21
-2.1599718503937009
0
LINE
8
BLACK
6
CONTINUOUS
10
1.4821222047244094
20
-2.1599718503937009
11
1.5915068897637794
21
-2.7803231889763778
0
LINE
8
BLACK
6
CONTINUOUS
10
4.9744094488188972
20
-2.9981692913385825
11
5.5255905511811019
21
-2.9981692913385825
0
LINE
8
BLACK
6
CONTINUOUS
10
5.5255905511811019
20
-2.9981692913385825
11
5.5255905511811019
21
-3.6280905511811024
0
LINE
8
BLACK
6
CONTINUOUS
10
5.5255905511811019
20
-3.6280905511811024
11
4.9744094488188972
21
-3.6280905511811024
0
LINE
8
BLACK
6
CONTINUOUS
10
4.9744094488188972
20
-3.6280905511811024
11
4.9744094488188972
21
-2.9981692913385825
0
CIRCLE
8
BLACK
10
6.6927559055118104
20
-1.9584783464566928
40
0.0590551181102362
0
LINE
8
BLACK
6
CONTINUOUS
10
4.2244094488188972
20
-1.3856692913385826
11
4.7755905511811019
21
-1.3856692913385826
0
LINE
8
BLACK
6
CONTINUOUS
10
4.7755905511811019
20
-1.3856692913385826
11
4.7755905511811019
21
-2.0155905511811025
0
LINE
8
BLACK
6
CONTINUOUS
10
4.7755905511811019
20
-2.0155905511811025
11
4.2244094488188972
21
-2.0155905511811025
0
LINE
8
BLACK
6
CONTINUOUS
10
4.2244094488188972
20
-2.0155905511811025
11
4.2244094488188972
21
-1.3856692913385826
0
LINE
8
BLACK
6
CONTINUOUS
10
6.7802343307086614
20
-4.8745095275590549
11
6.3348127559055118
21
-5.3199311417322832
0
LINE
8
BLACK
6
CONTINUOUS
10
6.3348127559055118
20
-5.3199311417322832
11
5.9450688582677165
21
-4.9301872440944878
0
LINE
8
BLACK
6
CONTINUOUS
10
5.9450688582677165
20
-4.9301872440944878
11
6.3904904724409448
21
-4.4847656692913382
0
LINE
8
BLACK
6
CONTINUOUS
10
6.3904904724409448
20
-4.4847656692913382
11
6.7802343307086614
21
-4.8745095275590549
0
LINE
8
BLACK
6
CONTINUOUS
10
6.9355118110236216
20
-1.8813129921259841
11
5.6355118110236218
21
-1.8813129921259841
0
LINE
8
BLACK
6
CONTINUOUS
10
5.6355118110236218
20
-1.8813129921259841
11
5.6355118110236218
21
-1.1813129921259842
0
LINE
8
BLACK
6
CONTINUOUS
10
5.6355118110236218
20
-1.1813129921259842
11
6.9355118110236216
21
-1.1813129921259842
0
LINE
8
BLACK
6
CONTINUOUS
10
6.9355118110236216
20
-1.1813129921259842
11
6.9355118110236216
21
-1.8813129921259841
0
LINE
8
BLACK
6
CONTINUOUS
10
2.4603488188976379
20
-3.388692874015748
11
1.9175413779527559
21
-3.4844044881889764
0
LINE
8
BLACK
6
CONTINUOUS
10
1.9175413779527559
20
-3.4844044881889764
11
1.8081566929133859
21
-2.8640531102362203
0
LINE
8
BLACK
6
CONTINUOUS
10
1.8081566929133859
20
-2.8640531102362203
11
2.3509641338582679
21
-2.7683415354330707
0
LINE
8
BLACK
6
CONTINUOUS
10
2.3509641338582679
20
-2.7683415354330707
11
2.4603488188976379
21
-3.388692874015748
0
LINE
8
BLACK
6
CONTINUOUS
10
6.460833779527559
20
-3.601475275590551
11
6.1458731496062988
21
-4.1470031102362208
0
LINE
8
BLACK
6
CONTINUOUS
10
6.1458731496062988
20
-4.1470031102362208
11
5.6685362992125983
21
-3.8714125590551181
0
LINE
8
BLACK
6
CONTINUOUS
10
5.6685362992125983
20
-3.8714125590551181
11
5.9834969291338584
21
-3.3258847244094487
0
LINE
8
BLACK
6
CONTINUOUS
10
5.9834969291338584
20
-3.3258847244094487
11
6.460833779527559
21
-3.601475275590551
0
LINE
8
BLACK
6
CONTINUOUS
10
4.9744094488188972
20
-1.4981692913385827
11
5.5255905511811019
21
-1.4981692913385827
0
LINE
8
BLACK
6
CONTINUOUS
10
5.5255905511811019
20
-1.4981692913385827
11
5.5255905511811019
21
-2.1280905511811024
0
LINE
8
BLACK
6
CONTINUOUS
10
5.5255905511811019
20
-2.1280905511811024
11
4.9744094488188972
21
-2.1280905511811024
0
LINE
8
BLACK
6
CONTINUOUS
10
4.9744094488188972
20
-2.1280905511811024
11
4.9744094488188972
21
-1.4981692913385827
0
LINE
8
BLACK
6
CONTINUOUS
10
4.9744094488188972
20
-2.2481692913385825
11
5.5255905511811019
21
-2.2481692913385825
0
LINE
8
BLACK
6
CONTINUOUS
10
5.5255905511811019
20
-2.2481692913385825
11
5.5255905511811019
21
-2.8780905511811024
0
LINE
8
BLACK
6
CONTINUOUS
10
5.5255905511811019
20
-2.8780905511811024
11
4.9744094488188972
21
-2.8780905511811024
0
LINE
8
BLACK
6
CONTINUOUS
10
4.9744094488188972
20
-2.8780905511811024
11
4.9744094488188972
21
-2.2481692913385825
0
LINE
8
BLACK
6
CONTINUOUS
10
3.4744094488188977
20
-1.8956692913385826
11
4.0255905511811019
21
-1.8956692913385826
0
LINE
8
BLACK
6
CONTINUOUS
10
4.0255905511811019
20
-1.8956692913385826
11
4.0255905511811019
21
-2.5255905511811023
0
LINE
8
BLACK
6
CONTINUOUS
10
4.0255905511811019
20
-2.5255905511811023
11
3.4744094488188977
21
-2.5255905511811023
0
LINE
8
BLACK
6
CONTINUOUS
10
3.4744094488188977
20
-2.5255905511811023
11
3.4744094488188977
21
-1.8956692913385826
0
LINE
8
BLACK
6
CONTINUOUS
10
3.4744094488188977
20
-2.6456692913385824
11
4.0255905511811019
21
-2.6456692913385824
0
LINE
8
BLACK
6
CONTINUOUS
10
4.0255905511811019
20
-2.6456692913385824
11
4.0255905511811019
21
-3.2755905511811023
0
LINE
8
BLACK
6
CONTINUOUS
10
4.0255905511811019
20
-3.2755905511811023
11
3.4744094488188977
21
-3.2755905511811023
0
LINE
8
BLACK
6
CONTINUOUS
10
3.4744094488188977
20
-3.2755905511811023
11
3.4744094488188977
21
-2.6456692913385824
0
CIRCLE
8
BLACK
10
6.9127559055118111
20
-2.188478346456693
40
0.0590551181102362
0
LINE
8
BLACK
6
CONTINUOUS
10
2.3301126771653542
20
-2.6500870472440945
11
1.7873052362204724
21
-2.7457986614173229
0
LINE
8
BLACK
6
CONTINUOUS
10
1.7873052362204724
20
-2.7457986614173229
11
1.6779205511811024
21
-2.1254472834645668
0
LINE
8
BLACK
6
CONTINUOUS
10
1.6779205511811024
20
-2.1254472834645668
11
2.2207279921259842
21
-2.0297357086614172
0
LINE
8
BLACK
6
CONTINUOUS
10
2.2207279921259842
20
-2.0297357086614172
11
2.3301126771653542
21
-2.6500870472440945
0
LINE
8
BLACK
6
CONTINUOUS
10
1.8519791338582676
20
-4.2575348031496061
11
1.3091716929133859
21
-4.3532464173228345
0
LINE
8
BLACK
6
CONTINUOUS
10
1.3091716929133859
20
-4.3532464173228345
11
1.1997870078740158
21
-3.7328950393700788
0
LINE
8
BLACK
6
CONTINUOUS
10
1.1997870078740158
20
-3.7328950393700788
11
1.7425944488188976
21
-3.6371834645669292
0
LINE
8
BLACK
6
CONTINUOUS
10
1.7425944488188976
20
-3.6371834645669292
11
1.8519791338582676
21
-4.2575348031496061
0
LINE
8
BLACK
6
CONTINUOUS
10
4.2244094488188972
20
-2.1356692913385826
11
4.7755905511811019
21
-2.1356692913385826
0
LINE
8
BLACK
6
CONTINUOUS
10
4.7755905511811019
20
-2.1356692913385826
11
4.7755905511811019
21
-2.7655905511811021
0
LINE
8
BLACK
6
CONTINUOUS
10
4.7755905511811019
20
-2.7655905511811021
11
4.2244094488188972
21
-2.7655905511811021
0
LINE
8
BLACK
6
CONTINUOUS
10
4.2244094488188972
20
-2.7655905511811021
11
4.2244094488188972
21
-2.1356692913385826
0
LINE
8
BLACK
6
CONTINUOUS
10
2.5905849606299212
20
-4.1272986614173224
11
2.0477775196850394
21
-4.2230102755905508
0
LINE
8
BLACK
6
CONTINUOUS
10
2.0477775196850394
20
-4.2230102755905508
11
1.9383928346456691
21
-3.6026588976377951
0
LINE
8
BLACK
6
CONTINUOUS
10
1.9383928346456691
20
-3.6026588976377951
11
2.4812002755905511
21
-3.5069473228346455
0
LINE
8
BLACK
6
CONTINUOUS
10
2.4812002755905511
20
-3.5069473228346455
11
2.5905849606299212
21
-4.1272986614173224
0
LINE
8
BLACK
6
CONTINUOUS
10
5.2537166929133861
20
-3.8284490157480313
11
5.0906810629921262
21
-4.4369062204724408
0
LINE
8
BLACK
6
CONTINUOUS
10
5.0906810629921262
20
-4.4369062204724408
11
4.5582810236220475
21
-4.2942500393700787
0
LINE
8
BLACK
6
CONTINUOUS
10
4.5582810236220475
20
-4.2942500393700787
11
4.7213166535433073
21
-3.6857928346456692
0
LINE
8
BLACK
6
CONTINUOUS
10
4.7213166535433073
20
-3.6857928346456692
11
5.2537166929133861
21
-3.8284490157480313
0
LINE
8
BLACK
6
CONTINUOUS
10
3.2941051181102363
20
-3.5909628346456692
11
2.7450214173228344
21
-3.6390014173228344
0
LINE
8
BLACK
6
CONTINUOUS
10
2.7450214173228344
20
-3.6390014173228344
11
2.6901201574803149
21
-3.0114772047244092
0
LINE
8
BLACK
6
CONTINUOUS
10
2.6901201574803149
20
-3.0114772047244092
11
3.2392038582677163
21
-2.963438622047244
0
LINE
8
BLACK
6
CONTINUOUS
10
3.2392038582677163
20
-2.963438622047244
11
3.2941051181102363
21
-3.5909628346456692
0
LINE
8
BLACK
6
CONTINUOUS
10
5.9160629921259842
20
-2.2718641732283462
11
5.8294488188976379
21
-2.2718641732283462
0
LINE
8
BLACK
6
CONTINUOUS
10
5.8294488188976379
20
-2.2718641732283462
11
5.8294488188976379
21
-2.4450925196850393
0
LINE
8
BLACK
6
CONTINUOUS
10
5.8294488188976379
20
-2.4450925196850393
11
5.9160629921259842
21
-2.4450925196850393
0
LINE
8
BLACK
6
CONTINUOUS
10
5.9160629921259842
20
-2.4450925196850393
11
5.9160629921259842
21
-2.2718641732283462
0
LINE
8
BLACK
6
CONTINUOUS
10
3.1633714960629922
20
-2.0966707874015746
11
2.6142877952755903
21
-2.1447093700787403
0
LINE
8
BLACK
6
CONTINUOUS
10
2.6142877952755903
20
-2.1447093700787403
11
2.5593865354330707
21
-1.517185157480315
0
LINE
8
BLACK
6
CONTINUOUS
10
2.5593865354330707
20
-1.517185157480315
11
3.1084702362204726
21
-1.4691465748031496
0
LINE
8
BLACK
6
CONTINUOUS
10
3.1084702362204726
20
-1.4691465748031496
11
3.1633714960629922
21
-2.0966707874015746
0
LINE
8
BLACK
6
CONTINUOUS
10
3.7894094488188976
20
-3.6356692913385826
11
4.3405905511811023
21
-3.6356692913385826
0
LINE
8
BLACK
6
CONTINUOUS
10
4.3405905511811023
20
-3.6356692913385826
11
4.3405905511811023
21
-4.2655905511811021
0
LINE
8
BLACK
6
CONTINUOUS
10
4.3405905511811023
20
-4.2655905511811021
11
3.7894094488188976
21
-4.2655905511811021
0
LINE
8
BLACK
6
CONTINUOUS
10
3.7894094488188976
20
-4.2655905511811021
11
3.7894094488188976
21
-3.6356692913385826
0
LINE
8
BLACK
6
CONTINUOUS
10
4.2244094488188972
20
-2.8856692913385826
11
4.7755905511811019
21
-2.8856692913385826
0
LINE
8
BLACK
6
CONTINUOUS
10
4.7755905511811019
20
-2.8856692913385826
11
4.7755905511811019
21
-3.5155905511811021
0
LINE
8
BLACK
6
CONTINUOUS
10
4.7755905511811019
20
-3.5155905511811021
11
4.2244094488188972
21
-3.5155905511811021
0
LINE
8
BLACK
6
CONTINUOUS
10
4.2244094488188972
20
-3.5155905511811021
11
4.2244094488188972
21
-2.8856692913385826
  0
ENDSEC
  0
EOF
