  0
SECTION
  2
HEADER
  9
$ANGBASE
  50
0.0
  9
$ANGDIR
  70
1
  9
$MEASUREMENT
  70
0
  0
ENDSEC
  0
SECTION
  2
TABLES
  0
TABLE
  2
LTYPE
  70
4
  0
LTYPE
  5
40F
  2
CONTINUOUS
  70
0
  3
Solid line
  72
65
  73
0
  40
0.0
  0
LTYPE
  5
410
  2
DASHDOT
 70
0
  3
Dash Dot ____ _ ____ _
 72
65
 73
4
 40
2.0
 49
1.25
 49
-0.25
 49
0.25
 49
-0.25
  0
LTYPE
  5
411
  2
DASHED
 70
0
  3
Dashed __ __ __ __ __
 72
65
 73
2
 40
0.75
 49
0.5
 49
-0.25
  0
LTYPE
  5
43B
  2
DOTTED
 70
0
  3
Dotted .  .  .  .
 72
65
 73
2
 40
0.2
 49
0.0
 49
-0.2
  0
ENDTAB
  0
TABLE
  2
STYLE
  70
4
  0
STYLE
  2
KICAD
  70
0
  40
0
  41
1
  42
1
  50
0
  71
0
  3
isocp.shx
  0
STYLE
  2
KICADB
  70
0
  40
0
  41
1
  42
1
  50
0
  71
0
  3
isocp.shx
  0
STYLE
  2
KICADI
  70
0
  40
0
  41
1
  42
1
  50
15
  71
0
  3
isocp.shx
  0
STYLE
  2
KICADBI
  70
0
  40
0
  41
1
  42
1
  50
15
  71
0
  3
isocp.shx
  0
ENDTAB
  0
TABLE
  2
LAYER
  70
1
  0
LAYER
  2
BLACK
  70
0
  62
7
  6
CONTINUOUS
  0
ENDTAB
  0
ENDSEC
  0
SECTION
  2
ENTITIES
0
LINE
8
BLACK
6
CONTINUOUS
10
1.7217429921259841
20
-3.5189290157480313
11
1.1789355511811024
21
-3.6146406299212597
0
LINE
8
BLACK
6
CONTINUOUS
10
1.1789355511811024
20
-3.6146406299212597
11
1.083223937007874
21
-3.0718331889763779
0
LINE
8
BLACK
6
CONTINUOUS
10
1.083223937007874
20
-3.0718331889763779
11
1.6260313779527558
21
-2.9761215748031495
0
LINE
8
BLACK
6
CONTINUOUS
10
1.6260313779527558
20
-2.9761215748031495
11
1.7217429921259841
21
-3.5189290157480313
0
LINE
8
BLACK
6
CONTINUOUS
10
6.0464637007874016
20
-4.3191853149606301
11
5.7708731496062988
21
-4.7965221653543306
0
LINE
8
BLACK
6
CONTINUOUS
10
5.7708731496062988
20
-4.7965221653543306
11
5.2935362992125983
21
-4.5209316141732279
0
LINE
8
BLACK
6
CONTINUOUS
10
5.2935362992125983
20
-4.5209316141732279
11
5.569126850393701
21
-4.0435947637795273
0
LINE
8
BLACK
6
CONTINUOUS
10
5.569126850393701
20
-4.0435947637795273
11
6.0464637007874016
21
-4.3191853149606301
0
LINE
8
BLACK
6
CONTINUOUS
10
3.4744094488188977
20
-1.2244094488188977
11
4.0255905511811019
21
-1.2244094488188977
0
LINE
8
BLACK
6
CONTINUOUS
10
4.0255905511811019
20
-1.2244094488188977
11
4.0255905511811019
21
-1.7755905511811023
0
LINE
8
BLACK
6
CONTINUOUS
10
4.0255905511811019
20
-1.7755905511811023
11
3.4744094488188977
21
-1.7755905511811023
0
LINE
8
BLACK
6
CONTINUOUS
10
3.4744094488188977
20
-1.7755905511811023
11
3.4744094488188977
21
-1.2244094488188977
0
LINE
8
BLACK
6
CONTINUOUS
10
3.2287383070866142
20
-2.8438168110236219
11
2.6796546062992124
21
-2.8918553937007871
0
LINE
8
BLACK
6
CONTINUOUS
10
2.6796546062992124
20
-2.8918553937007871
11
2.6316160236220472
21
-2.3427716929133857
0
LINE
8
BLACK
6
CONTINUOUS
10
2.6316160236220472
20
-2.3427716929133857
11
3.1806997244094486
21
-2.2947331102362205
0
LINE
8
BLACK
6
CONTINUOUS
10
3.1806997244094486
20
-2.2947331102362205
11
3.2287383070866142
21
-2.8438168110236219
0
LINE
8
BLACK
6
CONTINUOUS
10
1.5915068897637794
20
-2.7803231889763778
11
1.0486994488188977
21
-2.8760348031496061
0
LINE
8
BLACK
6
CONTINUOUS
10
1.0486994488188977
20
-2.8760348031496061
11
0.9529878346456693
21
-2.3332273622047244
0
LINE
8
BLACK
6
CONTINUOUS
10
0.9529878346456693
20
-2.3332273622047244
11
1.4957952755905513
21
-2.237515748031496
0
LINE
8
BLACK
6
CONTINUOUS
10
1.4957952755905513
20
-2.237515748031496
11
1.5915068897637794
21
-2.7803231889763778
0
LINE
8
BLACK
6
CONTINUOUS
10
4.9744094488188972
20
-3.0769094488188977
11
5.5255905511811019
21
-3.0769094488188977
0
LINE
8
BLACK
6
CONTINUOUS
10
5.5255905511811019
20
-3.0769094488188977
11
5.5255905511811019
21
-3.6280905511811024
0
LINE
8
BLACK
6
CONTINUOUS
10
5.5255905511811019
20
-3.6280905511811024
11
4.9744094488188972
21
-3.6280905511811024
0
LINE
8
BLACK
6
CONTINUOUS
10
4.9744094488188972
20
-3.6280905511811024
11
4.9744094488188972
21
-3.0769094488188977
0
LINE
8
BLACK
6
CONTINUOUS
10
4.2244094488188972
20
-1.4644094488188977
11
4.7755905511811019
21
-1.4644094488188977
0
LINE
8
BLACK
6
CONTINUOUS
10
4.7755905511811019
20
-1.4644094488188977
11
4.7755905511811019
21
-2.0155905511811025
0
LINE
8
BLACK
6
CONTINUOUS
10
4.7755905511811019
20
-2.0155905511811025
11
4.2244094488188972
21
-2.0155905511811025
0
LINE
8
BLACK
6
CONTINUOUS
10
4.2244094488188972
20
-2.0155905511811025
11
4.2244094488188972
21
-1.4644094488188977
0
LINE
8
BLACK
6
CONTINUOUS
10
6.7245566535433072
20
-4.9301872440944878
11
6.3348127559055118
21
-5.3199311417322832
0
LINE
8
BLACK
6
CONTINUOUS
10
6.3348127559055118
20
-5.3199311417322832
11
5.9450688582677165
21
-4.9301872440944878
0
LINE
8
BLACK
6
CONTINUOUS
10
5.9450688582677165
20
-4.9301872440944878
11
6.3348127559055118
21
-4.5404433464566925
0
LINE
8
BLACK
6
CONTINUOUS
10
6.3348127559055118
20
-4.5404433464566925
11
6.7245566535433072
21
-4.9301872440944878
0
LINE
8
BLACK
6
CONTINUOUS
10
5.6355118110236218
20
-1.1813129921259842
11
6.9355118110236216
21
-1.1813129921259842
0
LINE
8
BLACK
6
CONTINUOUS
10
5.6355118110236218
20
-1.8813129921259841
11
5.6355118110236218
21
-1.1813129921259842
0
LINE
8
BLACK
6
CONTINUOUS
10
6.9355118110236216
20
-1.3541476377952755
11
6.9355118110236216
21
-1.1813129921259842
0
LINE
8
BLACK
6
CONTINUOUS
10
6.9355118110236216
20
-1.3541476377952755
11
6.9827559055118105
21
-1.3541476377952755
0
LINE
8
BLACK
6
CONTINUOUS
10
6.9355118110236216
20
-1.7084783464566928
11
6.9355118110236216
21
-1.8813129921259841
0
LINE
8
BLACK
6
CONTINUOUS
10
6.9355118110236216
20
-1.8813129921259841
11
5.6355118110236218
21
-1.8813129921259841
0
LINE
8
BLACK
6
CONTINUOUS
10
6.9827559055118105
20
-1.3541476377952755
11
6.9827559055118105
21
-1.7084783464566928
0
LINE
8
BLACK
6
CONTINUOUS
10
6.9827559055118105
20
-1.7084783464566928
11
6.9355118110236216
21
-1.7084783464566928
0
LINE
8
BLACK
6
CONTINUOUS
10
2.4603488188976379
20
-3.388692874015748
11
1.9175413779527559
21
-3.4844044881889764
0
LINE
8
BLACK
6
CONTINUOUS
10
1.9175413779527559
20
-3.4844044881889764
11
1.8218297637795275
21
-2.9415970472440942
0
LINE
8
BLACK
6
CONTINUOUS
10
1.8218297637795275
20
-2.9415970472440942
11
2.3646372047244095
21
-2.8458854330708663
0
LINE
8
BLACK
6
CONTINUOUS
10
2.3646372047244095
20
-2.8458854330708663
11
2.4603488188976379
21
-3.388692874015748
0
LINE
8
BLACK
6
CONTINUOUS
10
6.4214637007874016
20
-3.6696662598425198
11
6.1458731496062988
21
-4.1470031102362208
0
LINE
8
BLACK
6
CONTINUOUS
10
6.1458731496062988
20
-4.1470031102362208
11
5.6685362992125983
21
-3.8714125590551181
0
LINE
8
BLACK
6
CONTINUOUS
10
5.6685362992125983
20
-3.8714125590551181
11
5.944126850393701
21
-3.3940757086614171
0
LINE
8
BLACK
6
CONTINUOUS
10
5.944126850393701
20
-3.3940757086614171
11
6.4214637007874016
21
-3.6696662598425198
0
LINE
8
BLACK
6
CONTINUOUS
10
4.9744094488188972
20
-1.5769094488188975
11
5.5255905511811019
21
-1.5769094488188975
0
LINE
8
BLACK
6
CONTINUOUS
10
5.5255905511811019
20
-1.5769094488188975
11
5.5255905511811019
21
-2.1280905511811024
0
LINE
8
BLACK
6
CONTINUOUS
10
5.5255905511811019
20
-2.1280905511811024
11
4.9744094488188972
21
-2.1280905511811024
0
LINE
8
BLACK
6
CONTINUOUS
10
4.9744094488188972
20
-2.1280905511811024
11
4.9744094488188972
21
-1.5769094488188975
0
LINE
8
BLACK
6
CONTINUOUS
10
4.9744094488188972
20
-2.3269094488188977
11
5.5255905511811019
21
-2.3269094488188977
0
LINE
8
BLACK
6
CONTINUOUS
10
5.5255905511811019
20
-2.3269094488188977
11
5.5255905511811019
21
-2.8780905511811024
0
LINE
8
BLACK
6
CONTINUOUS
10
5.5255905511811019
20
-2.8780905511811024
11
4.9744094488188972
21
-2.8780905511811024
0
LINE
8
BLACK
6
CONTINUOUS
10
4.9744094488188972
20
-2.8780905511811024
11
4.9744094488188972
21
-2.3269094488188977
0
CIRCLE
8
BLACK
10
1.562755905511811
20
-2.0284783464566929
40
0.0354330708661417
0
LINE
8
BLACK
6
CONTINUOUS
10
3.4744094488188977
20
-1.9744094488188977
11
4.0255905511811019
21
-1.9744094488188977
0
LINE
8
BLACK
6
CONTINUOUS
10
4.0255905511811019
20
-1.9744094488188977
11
4.0255905511811019
21
-2.5255905511811023
0
LINE
8
BLACK
6
CONTINUOUS
10
4.0255905511811019
20
-2.5255905511811023
11
3.4744094488188977
21
-2.5255905511811023
0
LINE
8
BLACK
6
CONTINUOUS
10
3.4744094488188977
20
-2.5255905511811023
11
3.4744094488188977
21
-1.9744094488188977
0
LINE
8
BLACK
6
CONTINUOUS
10
3.4744094488188977
20
-2.7244094488188977
11
4.0255905511811019
21
-2.7244094488188977
0
LINE
8
BLACK
6
CONTINUOUS
10
4.0255905511811019
20
-2.7244094488188977
11
4.0255905511811019
21
-3.2755905511811023
0
LINE
8
BLACK
6
CONTINUOUS
10
4.0255905511811019
20
-3.2755905511811023
11
3.4744094488188977
21
-3.2755905511811023
0
LINE
8
BLACK
6
CONTINUOUS
10
3.4744094488188977
20
-3.2755905511811023
11
3.4744094488188977
21
-2.7244094488188977
0
CIRCLE
8
BLACK
10
1.9427559055118109
20
-4.1884783464566926
40
0.0354330708661417
0
CIRCLE
8
BLACK
10
6.8897978740157475
20
-1.9784783464566928
40
0.0354330708661417
0
LINE
8
BLACK
6
CONTINUOUS
10
2.3301126771653542
20
-2.6500870472440945
11
1.7873052362204724
21
-2.7457986614173229
0
LINE
8
BLACK
6
CONTINUOUS
10
1.7873052362204724
20
-2.7457986614173229
11
1.6915936220472441
21
-2.2029912204724411
0
LINE
8
BLACK
6
CONTINUOUS
10
1.6915936220472441
20
-2.2029912204724411
11
2.2344010629921258
21
-2.1072796062992127
0
LINE
8
BLACK
6
CONTINUOUS
10
2.2344010629921258
20
-2.1072796062992127
11
2.3301126771653542
21
-2.6500870472440945
0
CIRCLE
8
BLACK
10
6.7649999999999997
20
-4.6950000000000003
40
0.0354330708661417
0
LINE
8
BLACK
6
CONTINUOUS
10
1.8519791338582676
20
-4.2575348031496061
11
1.3091716929133859
21
-4.3532464173228345
0
LINE
8
BLACK
6
CONTINUOUS
10
1.3091716929133859
20
-4.3532464173228345
11
1.2134600787401575
21
-3.8104389763779527
0
LINE
8
BLACK
6
CONTINUOUS
10
1.2134600787401575
20
-3.8104389763779527
11
1.7562675196850392
21
-3.7147273622047243
0
LINE
8
BLACK
6
CONTINUOUS
10
1.7562675196850392
20
-3.7147273622047243
11
1.8519791338582676
21
-4.2575348031496061
0
LINE
8
BLACK
6
CONTINUOUS
10
4.2244094488188972
20
-2.2144094488188975
11
4.7755905511811019
21
-2.2144094488188975
0
LINE
8
BLACK
6
CONTINUOUS
10
4.7755905511811019
20
-2.2144094488188975
11
4.7755905511811019
21
-2.7655905511811021
0
LINE
8
BLACK
6
CONTINUOUS
10
4.7755905511811019
20
-2.7655905511811021
11
4.2244094488188972
21
-2.7655905511811021
0
LINE
8
BLACK
6
CONTINUOUS
10
4.2244094488188972
20
-2.7655905511811021
11
4.2244094488188972
21
-2.2144094488188975
0
LINE
8
BLACK
6
CONTINUOUS
10
2.5905849606299212
20
-4.1272986614173224
11
2.0477775196850394
21
-4.2230102755905508
0
LINE
8
BLACK
6
CONTINUOUS
10
2.0477775196850394
20
-4.2230102755905508
11
1.952065905511811
21
-3.680202834645669
0
LINE
8
BLACK
6
CONTINUOUS
10
1.952065905511811
20
-3.680202834645669
11
2.4948733464566928
21
-3.5844912204724411
0
LINE
8
BLACK
6
CONTINUOUS
10
2.4948733464566928
20
-3.5844912204724411
11
2.5905849606299212
21
-4.1272986614173224
0
LINE
8
BLACK
6
CONTINUOUS
10
5.2333372440944883
20
-3.904506181102362
11
5.0906810629921262
21
-4.4369062204724408
0
LINE
8
BLACK
6
CONTINUOUS
10
5.0906810629921262
20
-4.4369062204724408
11
4.5582810236220475
21
-4.2942500393700787
0
LINE
8
BLACK
6
CONTINUOUS
10
4.5582810236220475
20
-4.2942500393700787
11
4.7009372047244096
21
-3.7618499999999999
0
LINE
8
BLACK
6
CONTINUOUS
10
4.7009372047244096
20
-3.7618499999999999
11
5.2333372440944883
21
-3.904506181102362
0
LINE
8
BLACK
6
CONTINUOUS
10
3.2941051181102363
20
-3.5909628346456692
11
2.7450214173228344
21
-3.6390014173228344
0
LINE
8
BLACK
6
CONTINUOUS
10
2.7450214173228344
20
-3.6390014173228344
11
2.6969828346456692
21
-3.089917716535433
0
LINE
8
BLACK
6
CONTINUOUS
10
2.6969828346456692
20
-3.089917716535433
11
3.2460665354330707
21
-3.0418791338582678
0
LINE
8
BLACK
6
CONTINUOUS
10
3.2460665354330707
20
-3.0418791338582678
11
3.2941051181102363
21
-3.5909628346456692
0
LINE
8
BLACK
6
CONTINUOUS
10
3.1633714960629922
20
-2.0966707874015746
11
2.6142877952755903
21
-2.1447093700787403
0
LINE
8
BLACK
6
CONTINUOUS
10
2.6142877952755903
20
-2.1447093700787403
11
2.5662492125984251
21
-1.5956256692913386
0
LINE
8
BLACK
6
CONTINUOUS
10
2.5662492125984251
20
-1.5956256692913386
11
3.1153329133858265
21
-1.5475870866141732
0
LINE
8
BLACK
6
CONTINUOUS
10
3.1153329133858265
20
-1.5475870866141732
11
3.1633714960629922
21
-2.0966707874015746
0
LINE
8
BLACK
6
CONTINUOUS
10
3.7894094488188976
20
-3.7144094488188975
11
4.3405905511811023
21
-3.7144094488188975
0
LINE
8
BLACK
6
CONTINUOUS
10
4.3405905511811023
20
-3.7144094488188975
11
4.3405905511811023
21
-4.2655905511811021
0
LINE
8
BLACK
6
CONTINUOUS
10
4.3405905511811023
20
-4.2655905511811021
11
3.7894094488188976
21
-4.2655905511811021
0
LINE
8
BLACK
6
CONTINUOUS
10
3.7894094488188976
20
-4.2655905511811021
11
3.7894094488188976
21
-3.7144094488188975
0
LINE
8
BLACK
6
CONTINUOUS
10
4.2244094488188972
20
-2.9644094488188975
11
4.7755905511811019
21
-2.9644094488188975
0
LINE
8
BLACK
6
CONTINUOUS
10
4.7755905511811019
20
-2.9644094488188975
11
4.7755905511811019
21
-3.5155905511811021
0
LINE
8
BLACK
6
CONTINUOUS
10
4.7755905511811019
20
-3.5155905511811021
11
4.2244094488188972
21
-3.5155905511811021
0
LINE
8
BLACK
6
CONTINUOUS
10
4.2244094488188972
20
-3.5155905511811021
11
4.2244094488188972
21
-2.9644094488188975
  0
ENDSEC
  0
EOF
