  0
SECTION
  2
HEADER
  9
$ANGBASE
  50
0.0
  9
$ANGDIR
  70
1
  9
$MEASUREMENT
  70
0
  0
ENDSEC
  0
SECTION
  2
TABLES
  0
TABLE
  2
LTYPE
  70
4
  0
LTYPE
  5
40F
  2
CONTINUOUS
  70
0
  3
Solid line
  72
65
  73
0
  40
0.0
  0
LTYPE
  5
410
  2
DASHDOT
 70
0
  3
Dash Dot ____ _ ____ _
 72
65
 73
4
 40
2.0
 49
1.25
 49
-0.25
 49
0.25
 49
-0.25
  0
LTYPE
  5
411
  2
DASHED
 70
0
  3
Dashed __ __ __ __ __
 72
65
 73
2
 40
0.75
 49
0.5
 49
-0.25
  0
LTYPE
  5
43B
  2
DOTTED
 70
0
  3
Dotted .  .  .  .
 72
65
 73
2
 40
0.2
 49
0.0
 49
-0.2
  0
ENDTAB
  0
TABLE
  2
STYLE
  70
4
  0
STYLE
  2
KICAD
  70
0
  40
0
  41
1
  42
1
  50
0
  71
0
  3
isocp.shx
  0
STYLE
  2
KICADB
  70
0
  40
0
  41
1
  42
1
  50
0
  71
0
  3
isocp.shx
  0
STYLE
  2
KICADI
  70
0
  40
0
  41
1
  42
1
  50
15
  71
0
  3
isocp.shx
  0
STYLE
  2
KICADBI
  70
0
  40
0
  41
1
  42
1
  50
15
  71
0
  3
isocp.shx
  0
ENDTAB
  0
TABLE
  2
LAYER
  70
1
  0
LAYER
  2
BLACK
  70
0
  62
7
  6
CONTINUOUS
  0
ENDTAB
  0
ENDSEC
  0
SECTION
  2
ENTITIES
0
LINE
8
BLACK
6
CONTINUOUS
10
4.6908785826771648
20
-4.4323873228346455
11
4.910687401574803
21
-4.4914291338582677
0
ARC
8
BLACK
10
1.2604685039370078
20
-4.4227992125984255
40
0.0393705361946849
50
-169.99935893
51
-79.99762602
0
ARC
8
BLACK
10
3.8460787401574801
20
-2.3964881889763778
40
1.968511811024606
50
-99.06667389
51
-90.00005730
0
ARC
8
BLACK
10
4.5965984251968504
20
-6.5062047244094483
40
1.9685161306598875
50
45.00008265
51
59.96492534
0
LINE
8
BLACK
6
CONTINUOUS
10
4.125
20
-1.125
11
6.9433858267716531
21
-1.125
0
LINE
8
BLACK
6
CONTINUOUS
10
0.8483676771653543
20
-2.3123731102362206
11
1.2216982283464566
21
-4.4296359055118106
0
ARC
8
BLACK
10
4.1802283464566932
20
-6.3335078740157478
40
1.96850787401578
50
74.96495480
51
89.99998969
0
ARC
8
BLACK
10
6.4778976377952757
20
-4.7606574803149604
40
0.3936994620709838
50
-45.00005672
51
-2.28601102
0
ARC
8
BLACK
10
5.0143818897637793
20
-1.9447952755905511
40
1.9683740157510117
50
-2.28616349
51
0.00009970
0
LINE
8
BLACK
6
CONTINUOUS
10
5.3853326377952753
20
-4.6883739763779531
11
5.5818999212598426
21
-4.8020225984251965
0
ARC
8
BLACK
10
4.4000393700787397
20
-6.3925472440944882
40
1.9685048847130002
50
59.96500363
51
74.96499835
0
LINE
8
BLACK
6
CONTINUOUS
10
3.8460767716535433
20
-4.3650000000000002
11
4.1802287007874011
21
-4.3650000000000002
0
LINE
8
BLACK
6
CONTINUOUS
10
6.9827559055118105
20
-1.9447918503937007
11
6.9827559055118105
21
-1.1643700787401574
0
ARC
8
BLACK
10
6.3348127559055118
20
-5.4048395669291338
40
0.0393701187620466
50
-134.99995949
51
-45.00004051
0
LINE
8
BLACK
6
CONTINUOUS
10
5.988547283464567
20
-5.1142518503937007
11
6.3069738976377954
21
-5.432678464566929
0
LINE
8
BLACK
6
CONTINUOUS
10
6.3626516141732283
20
-5.432678464566929
11
6.7562848425196851
21
-5.0390452362204723
0
LINE
8
BLACK
6
CONTINUOUS
10
4.125
20
-1.125
11
3.4576817716535433
21
-1.125
0
ARC
8
BLACK
10
3.4576811023622045
20
-1.9124055118110235
40
0.7874048919842134
50
89.99995130
51
114.73878918
0
ARC
8
BLACK
10
0.9259133858267716
20
-2.2987007874015748
40
0.0787417890544544
50
-245.26011387
51
-170.00077237
0
LINE
8
BLACK
6
CONTINUOUS
10
6.871283779527559
20
-4.7763612992125983
11
6.981189173228346
21
-2.0233146850393702
0
ARC
8
BLACK
10
2.7220039370078739
20
-6.2039370078740159
40
1.968500762967462
50
80.93332272
51
100.00000828
0
LINE
8
BLACK
6
CONTINUOUS
10
3.1281662992125985
20
-1.1972646456692912
11
0.8929600787401575
21
-2.2271863385826771
0
LINE
8
BLACK
6
CONTINUOUS
10
3.0322077165354329
20
-4.2600313779527559
11
3.535873307086614
21
-4.3404049212598421
0
LINE
8
BLACK
6
CONTINUOUS
10
1.2673067322834646
20
-4.4615713385826767
11
2.3801770866141734
21
-4.2653422440944881
0
ARC
8
BLACK
10
6.9433858267716531
20
-1.1643700787401574
40
0.0393700787401575
50
0.00000000
51
90.00000000
0
LINE
8
BLACK
6
CONTINUOUS
10
5.9747779527559057
20
-3.3286525590551181
11
5.9747779527559057
21
-2.0688100393700788
0
LINE
8
BLACK
6
CONTINUOUS
10
5.9944629921259844
20
-2.0491250000000001
11
6.8015496062992122
21
-2.0491250000000001
0
LINE
8
BLACK
6
CONTINUOUS
10
6.8015496062992122
20
-3.3483375984251968
11
5.9944629921259844
21
-3.3483375984251968
0
LINE
8
BLACK
6
CONTINUOUS
10
6.8212346456692909
20
-2.0688100393700788
11
6.8212346456692909
21
-3.3286525590551181
0
ARC
8
BLACK
10
5.9944629921259844
20
-2.0688100393700788
40
0.0196850393700787
50
90.00000000
51
180.00000000
0
ARC
8
BLACK
10
5.9944629921259844
20
-3.3286525590551181
40
0.0196850393700787
50
-180.00000000
51
-90.00000000
0
ARC
8
BLACK
10
6.8015496062992122
20
-2.0688100393700788
40
0.0196850393700787
50
0.00000000
51
90.00000000
0
ARC
8
BLACK
10
6.8015496062992122
20
-3.3286525590551181
40
0.0196850393700787
50
-90.00000000
51
-0.00000000
  0
ENDSEC
  0
EOF
